<svg xmlns="http://www.w3.org/2000/svg" xmlns:rdkit="http://www.rdkit.org/xml" xmlns:xlink="http://www.w3.org/1999/xlink" version="1.1" baseProfile="full" xml:space="preserve" width="800px" height="800px" viewBox="0 0 800 800">
<!-- END OF HEADER -->
<rect style="opacity:1.0;fill:#FFFFFF;stroke:none" width="800.0" height="800.0" x="0.0" y="0.0"> </rect>
<path class="bond-0 atom-0 atom-6" d="M 286.5,82.0 L 302.0,147.3" style="fill:none;fill-rule:evenodd;stroke:#000000;stroke-width:2.0px;stroke-linecap:butt;stroke-linejoin:miter;stroke-opacity:1"/>
<path class="bond-1 atom-1 atom-2" d="M 381.8,231.9 L 333.0,278.0" style="fill:none;fill-rule:evenodd;stroke:#000000;stroke-width:2.0px;stroke-linecap:butt;stroke-linejoin:miter;stroke-opacity:1"/>
<path class="bond-1 atom-1 atom-2" d="M 365.3,229.0 L 331.1,261.3" style="fill:none;fill-rule:evenodd;stroke:#000000;stroke-width:2.0px;stroke-linecap:butt;stroke-linejoin:miter;stroke-opacity:1"/>
<path class="bond-2 atom-1 atom-3" d="M 381.8,231.9 L 366.3,166.6" style="fill:none;fill-rule:evenodd;stroke:#000000;stroke-width:2.0px;stroke-linecap:butt;stroke-linejoin:miter;stroke-opacity:1"/>
<path class="bond-3 atom-2 atom-4" d="M 333.0,278.0 L 268.7,258.7" style="fill:none;fill-rule:evenodd;stroke:#000000;stroke-width:2.0px;stroke-linecap:butt;stroke-linejoin:miter;stroke-opacity:1"/>
<path class="bond-4 atom-3 atom-6" d="M 366.3,166.6 L 302.0,147.3" style="fill:none;fill-rule:evenodd;stroke:#000000;stroke-width:2.0px;stroke-linecap:butt;stroke-linejoin:miter;stroke-opacity:1"/>
<path class="bond-4 atom-3 atom-6" d="M 352.8,176.6 L 307.8,163.1" style="fill:none;fill-rule:evenodd;stroke:#000000;stroke-width:2.0px;stroke-linecap:butt;stroke-linejoin:miter;stroke-opacity:1"/>
<path class="bond-5 atom-4 atom-7" d="M 268.7,258.7 L 253.2,193.4" style="fill:none;fill-rule:evenodd;stroke:#000000;stroke-width:2.0px;stroke-linecap:butt;stroke-linejoin:miter;stroke-opacity:1"/>
<path class="bond-5 atom-4 atom-7" d="M 279.4,245.8 L 268.6,200.1" style="fill:none;fill-rule:evenodd;stroke:#000000;stroke-width:2.0px;stroke-linecap:butt;stroke-linejoin:miter;stroke-opacity:1"/>
<path class="bond-6 atom-5 atom-8" d="M 140.0,220.3 L 75.7,201.0" style="fill:none;fill-rule:evenodd;stroke:#000000;stroke-width:2.0px;stroke-linecap:butt;stroke-linejoin:miter;stroke-opacity:1"/>
<path class="bond-7 atom-5 atom-11" d="M 140.0,220.3 L 177.9,184.5" style="fill:none;fill-rule:evenodd;stroke:#000000;stroke-width:2.0px;stroke-linecap:butt;stroke-linejoin:miter;stroke-opacity:1"/>
<path class="bond-8 atom-6 atom-7" d="M 302.0,147.3 L 253.2,193.4" style="fill:none;fill-rule:evenodd;stroke:#000000;stroke-width:2.0px;stroke-linecap:butt;stroke-linejoin:miter;stroke-opacity:1"/>
<path class="bond-9 atom-7 atom-11" d="M 253.2,193.4 L 199.8,177.5" style="fill:none;fill-rule:evenodd;stroke:#000000;stroke-width:2.0px;stroke-linecap:butt;stroke-linejoin:miter;stroke-opacity:1"/>
<path class="bond-10 atom-8 atom-9" d="M 80.3,205.9 L 42.5,241.7" style="fill:none;fill-rule:evenodd;stroke:#000000;stroke-width:2.0px;stroke-linecap:butt;stroke-linejoin:miter;stroke-opacity:1"/>
<path class="bond-10 atom-8 atom-9" d="M 71.1,196.1 L 33.2,231.9" style="fill:none;fill-rule:evenodd;stroke:#000000;stroke-width:2.0px;stroke-linecap:butt;stroke-linejoin:miter;stroke-opacity:1"/>
<path class="bond-11 atom-8 atom-10" d="M 75.7,201.0 L 63.1,147.8" style="fill:none;fill-rule:evenodd;stroke:#000000;stroke-width:2.0px;stroke-linecap:butt;stroke-linejoin:miter;stroke-opacity:1"/>
<path class="atom-9" d="M 18.2 247.2 Q 18.2 242.6, 20.4 240.0 Q 22.7 237.5, 26.9 237.5 Q 31.1 237.5, 33.4 240.0 Q 35.6 242.6, 35.6 247.2 Q 35.6 251.8, 33.4 254.4 Q 31.1 257.0, 26.9 257.0 Q 22.7 257.0, 20.4 254.4 Q 18.2 251.8, 18.2 247.2 M 26.9 254.9 Q 29.8 254.9, 31.4 252.9 Q 33.0 251.0, 33.0 247.2 Q 33.0 243.4, 31.4 241.6 Q 29.8 239.6, 26.9 239.6 Q 24.0 239.6, 22.4 241.5 Q 20.9 243.4, 20.9 247.2 Q 20.9 251.0, 22.4 252.9 Q 24.0 254.9, 26.9 254.9 " fill="#000000"/>
<path class="atom-10" d="M 51.5 135.8 Q 51.5 131.2, 53.8 128.6 Q 56.0 126.1, 60.2 126.1 Q 64.4 126.1, 66.7 128.6 Q 69.0 131.2, 69.0 135.8 Q 69.0 140.4, 66.7 143.0 Q 64.4 145.6, 60.2 145.6 Q 56.0 145.6, 53.8 143.0 Q 51.5 140.4, 51.5 135.8 M 60.2 143.5 Q 63.1 143.5, 64.7 141.5 Q 66.3 139.6, 66.3 135.8 Q 66.3 132.0, 64.7 130.2 Q 63.1 128.2, 60.2 128.2 Q 57.3 128.2, 55.7 130.1 Q 54.2 132.0, 54.2 135.8 Q 54.2 139.6, 55.7 141.5 Q 57.3 143.5, 60.2 143.5 " fill="#000000"/>
<path class="atom-10" d="M 70.3 126.3 L 72.9 126.3 L 72.9 134.4 L 82.6 134.4 L 82.6 126.3 L 85.2 126.3 L 85.2 145.3 L 82.6 145.3 L 82.6 136.5 L 72.9 136.5 L 72.9 145.3 L 70.3 145.3 L 70.3 126.3 " fill="#000000"/>
<path class="atom-11" d="M 180.1 174.2 Q 180.1 169.7, 182.4 167.1 Q 184.6 164.6, 188.9 164.6 Q 193.1 164.6, 195.3 167.1 Q 197.6 169.7, 197.6 174.2 Q 197.6 178.9, 195.3 181.5 Q 193.0 184.1, 188.9 184.1 Q 184.7 184.1, 182.4 181.5 Q 180.1 178.9, 180.1 174.2 M 188.9 181.9 Q 191.8 181.9, 193.3 180.0 Q 194.9 178.1, 194.9 174.2 Q 194.9 170.5, 193.3 168.6 Q 191.8 166.7, 188.9 166.7 Q 186.0 166.7, 184.4 168.6 Q 182.8 170.5, 182.8 174.2 Q 182.8 178.1, 184.4 180.0 Q 186.0 181.9, 188.9 181.9 " fill="#000000"/>
<path class="legend" d="M 176.4 384.1 Q 176.4 381.3, 177.7 379.8 Q 179.0 378.4, 181.6 378.4 Q 183.9 378.4, 185.1 380.0 L 184.1 380.9 Q 183.2 379.7, 181.6 379.7 Q 179.8 379.7, 178.9 380.8 Q 178.0 382.0, 178.0 384.1 Q 178.0 386.4, 179.0 387.5 Q 179.9 388.7, 181.7 388.7 Q 183.0 388.7, 184.4 387.9 L 184.9 389.1 Q 184.3 389.5, 183.4 389.7 Q 182.5 390.0, 181.5 390.0 Q 179.0 390.0, 177.7 388.4 Q 176.4 386.9, 176.4 384.1 " fill="#000000"/>
<path class="legend" d="M 185.8 377.7 L 187.3 377.7 L 187.3 389.8 L 185.8 389.8 L 185.8 377.7 " fill="#000000"/>
<path class="legend" d="M 188.6 387.6 Q 188.6 386.3, 189.7 385.6 Q 190.7 384.8, 192.7 384.8 L 193.9 384.8 L 193.9 384.5 Q 193.9 383.5, 193.5 383.1 Q 193.0 382.6, 192.0 382.6 Q 191.4 382.6, 190.9 382.8 Q 190.3 382.9, 189.5 383.2 L 189.1 382.2 Q 190.6 381.4, 192.1 381.4 Q 193.8 381.4, 194.6 382.2 Q 195.4 382.9, 195.4 384.5 L 195.4 389.8 L 194.2 389.8 Q 194.2 389.7, 194.2 389.5 Q 194.1 389.2, 194.0 388.8 Q 192.9 390.0, 191.3 390.0 Q 190.1 390.0, 189.4 389.3 Q 188.6 388.7, 188.6 387.6 M 190.1 387.6 Q 190.1 388.2, 190.5 388.5 Q 190.9 388.8, 191.6 388.8 Q 192.3 388.8, 192.9 388.5 Q 193.5 388.2, 193.9 387.7 L 193.9 386.0 L 192.8 386.0 Q 191.5 386.0, 190.8 386.4 Q 190.1 386.8, 190.1 387.6 " fill="#000000"/>
<path class="legend" d="M 197.1 388.1 Q 197.8 388.4, 198.3 388.6 Q 198.9 388.7, 199.4 388.7 Q 200.1 388.7, 200.5 388.4 Q 200.9 388.1, 200.9 387.5 Q 200.9 387.1, 200.7 386.9 Q 200.5 386.7, 200.2 386.6 Q 200.0 386.4, 199.3 386.2 Q 199.2 386.2, 198.4 385.9 Q 197.7 385.7, 197.3 385.1 Q 196.9 384.6, 196.9 383.8 Q 196.9 382.8, 197.7 382.1 Q 198.4 381.4, 199.9 381.4 Q 200.5 381.4, 201.1 381.6 Q 201.7 381.7, 202.3 382.0 L 201.9 383.2 Q 201.3 382.9, 200.9 382.8 Q 200.4 382.7, 199.9 382.7 Q 199.2 382.7, 198.8 383.0 Q 198.4 383.3, 198.4 383.8 Q 198.4 384.2, 198.7 384.4 Q 199.0 384.6, 199.7 384.9 Q 199.9 384.9, 200.0 385.0 L 200.4 385.1 Q 201.1 385.4, 201.5 385.6 Q 201.9 385.8, 202.2 386.3 Q 202.5 386.7, 202.5 387.5 Q 202.5 388.7, 201.6 389.3 Q 200.8 390.0, 199.4 390.0 Q 198.6 390.0, 198.0 389.8 Q 197.3 389.6, 196.6 389.3 L 197.1 388.1 " fill="#000000"/>
<path class="legend" d="M 203.8 388.1 Q 204.5 388.4, 205.0 388.6 Q 205.5 388.7, 206.1 388.7 Q 206.8 388.7, 207.2 388.4 Q 207.6 388.1, 207.6 387.5 Q 207.6 387.1, 207.4 386.9 Q 207.2 386.7, 206.9 386.6 Q 206.7 386.4, 205.9 386.2 Q 205.8 386.2, 205.1 385.9 Q 204.4 385.7, 204.0 385.1 Q 203.6 384.6, 203.6 383.8 Q 203.6 382.8, 204.3 382.1 Q 205.1 381.4, 206.6 381.4 Q 207.2 381.4, 207.8 381.6 Q 208.3 381.7, 208.9 382.0 L 208.5 383.2 Q 208.0 382.9, 207.5 382.8 Q 207.1 382.7, 206.6 382.7 Q 205.8 382.7, 205.5 383.0 Q 205.1 383.3, 205.1 383.8 Q 205.1 384.2, 205.4 384.4 Q 205.7 384.6, 206.4 384.9 Q 206.5 384.9, 206.7 385.0 L 207.1 385.1 Q 207.7 385.4, 208.1 385.6 Q 208.5 385.8, 208.8 386.3 Q 209.1 386.7, 209.1 387.5 Q 209.1 388.7, 208.3 389.3 Q 207.4 390.0, 206.1 390.0 Q 205.3 390.0, 204.6 389.8 Q 204.0 389.6, 203.3 389.3 L 203.8 388.1 " fill="#000000"/>
<path class="legend" d="" fill="#000000"/>
<path class="legend" d="M 219.5 389.9 Q 217.4 389.9, 216.3 388.4 Q 215.3 386.9, 215.3 384.1 Q 215.3 381.4, 216.3 379.9 Q 217.4 378.4, 219.5 378.4 Q 221.5 378.4, 222.6 379.9 Q 223.6 381.4, 223.6 384.1 Q 223.6 386.9, 222.6 388.4 Q 221.5 389.9, 219.5 389.9 M 219.5 388.7 Q 220.7 388.7, 221.3 387.5 Q 222.0 386.4, 222.0 384.1 Q 222.0 381.9, 221.3 380.8 Q 220.7 379.6, 219.5 379.6 Q 218.2 379.6, 217.6 380.8 Q 216.9 381.9, 216.9 384.1 Q 216.9 386.4, 217.6 387.5 Q 218.2 388.7, 219.5 388.7 " fill="#000000"/>
<path class="bond-0 atom-0 atom-1" d="M 576.9,315.5 L 583.3,297.4" style="fill:none;fill-rule:evenodd;stroke:#000000;stroke-width:2.0px;stroke-linecap:butt;stroke-linejoin:miter;stroke-opacity:1"/>
<path class="bond-1 atom-1 atom-2" d="M 583.3,297.4 L 602.2,293.9" style="fill:none;fill-rule:evenodd;stroke:#000000;stroke-width:2.0px;stroke-linecap:butt;stroke-linejoin:miter;stroke-opacity:1"/>
<path class="bond-2 atom-2 atom-3" d="M 602.2,293.9 L 608.5,275.8" style="fill:none;fill-rule:evenodd;stroke:#000000;stroke-width:2.0px;stroke-linecap:butt;stroke-linejoin:miter;stroke-opacity:1"/>
<path class="bond-3 atom-3 atom-4" d="M 608.5,275.8 L 627.4,272.3" style="fill:none;fill-rule:evenodd;stroke:#000000;stroke-width:2.0px;stroke-linecap:butt;stroke-linejoin:miter;stroke-opacity:1"/>
<path class="bond-4 atom-4 atom-5" d="M 627.4,272.3 L 633.7,254.2" style="fill:none;fill-rule:evenodd;stroke:#000000;stroke-width:2.0px;stroke-linecap:butt;stroke-linejoin:miter;stroke-opacity:1"/>
<path class="bond-5 atom-5 atom-6" d="M 633.7,254.2 L 652.6,250.6" style="fill:none;fill-rule:evenodd;stroke:#000000;stroke-width:2.0px;stroke-linecap:butt;stroke-linejoin:miter;stroke-opacity:1"/>
<path class="bond-6 atom-6 atom-7" d="M 652.6,250.6 L 659.0,232.5" style="fill:none;fill-rule:evenodd;stroke:#000000;stroke-width:2.0px;stroke-linecap:butt;stroke-linejoin:miter;stroke-opacity:1"/>
<path class="bond-7 atom-7 atom-8" d="M 659.0,232.5 L 677.8,229.0" style="fill:none;fill-rule:evenodd;stroke:#000000;stroke-width:2.0px;stroke-linecap:butt;stroke-linejoin:miter;stroke-opacity:1"/>
<path class="bond-8 atom-8 atom-9" d="M 677.8,229.0 L 684.2,210.9" style="fill:none;fill-rule:evenodd;stroke:#000000;stroke-width:2.0px;stroke-linecap:butt;stroke-linejoin:miter;stroke-opacity:1"/>
<path class="bond-9 atom-9 atom-10" d="M 684.2,210.9 L 703.0,207.4" style="fill:none;fill-rule:evenodd;stroke:#000000;stroke-width:2.0px;stroke-linecap:butt;stroke-linejoin:miter;stroke-opacity:1"/>
<path class="bond-10 atom-10 atom-21" d="M 703.0,207.4 L 709.4,189.3" style="fill:none;fill-rule:evenodd;stroke:#000000;stroke-width:2.0px;stroke-linecap:butt;stroke-linejoin:miter;stroke-opacity:1"/>
<path class="bond-11 atom-11 atom-13" d="M 552.7,134.1 L 571.5,130.6" style="fill:none;fill-rule:evenodd;stroke:#000000;stroke-width:2.0px;stroke-linecap:butt;stroke-linejoin:miter;stroke-opacity:1"/>
<path class="bond-11 atom-11 atom-13" d="M 556.2,137.4 L 569.4,134.9" style="fill:none;fill-rule:evenodd;stroke:#000000;stroke-width:2.0px;stroke-linecap:butt;stroke-linejoin:miter;stroke-opacity:1"/>
<path class="bond-12 atom-11 atom-25" d="M 552.7,134.1 L 546.3,152.2" style="fill:none;fill-rule:evenodd;stroke:#000000;stroke-width:2.0px;stroke-linecap:butt;stroke-linejoin:miter;stroke-opacity:1"/>
<path class="bond-13 atom-12 atom-14" d="M 558.8,166.8 L 577.7,163.3" style="fill:none;fill-rule:evenodd;stroke:#000000;stroke-width:2.0px;stroke-linecap:butt;stroke-linejoin:miter;stroke-opacity:1"/>
<path class="bond-14 atom-12 atom-25" d="M 558.8,166.8 L 546.3,152.2" style="fill:none;fill-rule:evenodd;stroke:#000000;stroke-width:2.0px;stroke-linecap:butt;stroke-linejoin:miter;stroke-opacity:1"/>
<path class="bond-14 atom-12 atom-25" d="M 559.8,162.1 L 551.1,151.9" style="fill:none;fill-rule:evenodd;stroke:#000000;stroke-width:2.0px;stroke-linecap:butt;stroke-linejoin:miter;stroke-opacity:1"/>
<path class="bond-15 atom-13 atom-26" d="M 571.5,130.6 L 584.0,145.2" style="fill:none;fill-rule:evenodd;stroke:#000000;stroke-width:2.0px;stroke-linecap:butt;stroke-linejoin:miter;stroke-opacity:1"/>
<path class="bond-16 atom-14 atom-26" d="M 577.7,163.3 L 584.0,145.2" style="fill:none;fill-rule:evenodd;stroke:#000000;stroke-width:2.0px;stroke-linecap:butt;stroke-linejoin:miter;stroke-opacity:1"/>
<path class="bond-16 atom-14 atom-26" d="M 575.0,159.3 L 579.4,146.6" style="fill:none;fill-rule:evenodd;stroke:#000000;stroke-width:2.0px;stroke-linecap:butt;stroke-linejoin:miter;stroke-opacity:1"/>
<path class="bond-17 atom-15 atom-18" d="M 489.7,162.8 L 470.9,166.4" style="fill:none;fill-rule:evenodd;stroke:#000000;stroke-width:2.0px;stroke-linecap:butt;stroke-linejoin:miter;stroke-opacity:1"/>
<path class="bond-17 atom-15 atom-18" d="M 486.2,159.6 L 473.0,162.1" style="fill:none;fill-rule:evenodd;stroke:#000000;stroke-width:2.0px;stroke-linecap:butt;stroke-linejoin:miter;stroke-opacity:1"/>
<path class="bond-18 atom-15 atom-27" d="M 489.7,162.8 L 496.1,144.7" style="fill:none;fill-rule:evenodd;stroke:#000000;stroke-width:2.0px;stroke-linecap:butt;stroke-linejoin:miter;stroke-opacity:1"/>
<path class="bond-19 atom-16 atom-19" d="M 483.6,130.2 L 464.8,133.7" style="fill:none;fill-rule:evenodd;stroke:#000000;stroke-width:2.0px;stroke-linecap:butt;stroke-linejoin:miter;stroke-opacity:1"/>
<path class="bond-20 atom-16 atom-27" d="M 483.6,130.2 L 496.1,144.7" style="fill:none;fill-rule:evenodd;stroke:#000000;stroke-width:2.0px;stroke-linecap:butt;stroke-linejoin:miter;stroke-opacity:1"/>
<path class="bond-20 atom-16 atom-27" d="M 482.6,134.9 L 491.3,145.1" style="fill:none;fill-rule:evenodd;stroke:#000000;stroke-width:2.0px;stroke-linecap:butt;stroke-linejoin:miter;stroke-opacity:1"/>
<path class="bond-21 atom-17 atom-20" d="M 690.8,142.0 L 671.9,145.6" style="fill:none;fill-rule:evenodd;stroke:#000000;stroke-width:2.0px;stroke-linecap:butt;stroke-linejoin:miter;stroke-opacity:1"/>
<path class="bond-21 atom-17 atom-20" d="M 687.3,138.8 L 674.1,141.3" style="fill:none;fill-rule:evenodd;stroke:#000000;stroke-width:2.0px;stroke-linecap:butt;stroke-linejoin:miter;stroke-opacity:1"/>
<path class="bond-22 atom-17 atom-28" d="M 690.8,142.0 L 697.2,123.9" style="fill:none;fill-rule:evenodd;stroke:#000000;stroke-width:2.0px;stroke-linecap:butt;stroke-linejoin:miter;stroke-opacity:1"/>
<path class="bond-23 atom-18 atom-29" d="M 470.9,166.4 L 458.4,151.8" style="fill:none;fill-rule:evenodd;stroke:#000000;stroke-width:2.0px;stroke-linecap:butt;stroke-linejoin:miter;stroke-opacity:1"/>
<path class="bond-24 atom-19 atom-29" d="M 464.8,133.7 L 458.4,151.8" style="fill:none;fill-rule:evenodd;stroke:#000000;stroke-width:2.0px;stroke-linecap:butt;stroke-linejoin:miter;stroke-opacity:1"/>
<path class="bond-24 atom-19 atom-29" d="M 467.4,137.7 L 463.0,150.4" style="fill:none;fill-rule:evenodd;stroke:#000000;stroke-width:2.0px;stroke-linecap:butt;stroke-linejoin:miter;stroke-opacity:1"/>
<path class="bond-25 atom-20 atom-30" d="M 671.9,145.6 L 659.4,131.0" style="fill:none;fill-rule:evenodd;stroke:#000000;stroke-width:2.0px;stroke-linecap:butt;stroke-linejoin:miter;stroke-opacity:1"/>
<path class="bond-26 atom-21 atom-38" d="M 709.4,189.3 L 725.6,186.2" style="fill:none;fill-rule:evenodd;stroke:#000000;stroke-width:2.0px;stroke-linecap:butt;stroke-linejoin:miter;stroke-opacity:1"/>
<path class="bond-27 atom-22 atom-24" d="M 684.7,109.4 L 665.8,112.9" style="fill:none;fill-rule:evenodd;stroke:#000000;stroke-width:2.0px;stroke-linecap:butt;stroke-linejoin:miter;stroke-opacity:1"/>
<path class="bond-28 atom-22 atom-28" d="M 684.7,109.4 L 697.2,123.9" style="fill:none;fill-rule:evenodd;stroke:#000000;stroke-width:2.0px;stroke-linecap:butt;stroke-linejoin:miter;stroke-opacity:1"/>
<path class="bond-28 atom-22 atom-28" d="M 683.6,114.1 L 692.4,124.3" style="fill:none;fill-rule:evenodd;stroke:#000000;stroke-width:2.0px;stroke-linecap:butt;stroke-linejoin:miter;stroke-opacity:1"/>
<path class="bond-29 atom-23 atom-24" d="M 653.3,98.3 L 665.8,112.9" style="fill:none;fill-rule:evenodd;stroke:#000000;stroke-width:2.0px;stroke-linecap:butt;stroke-linejoin:miter;stroke-opacity:1"/>
<path class="bond-30 atom-23 atom-31" d="M 653.3,98.3 L 634.5,101.9" style="fill:none;fill-rule:evenodd;stroke:#000000;stroke-width:2.0px;stroke-linecap:butt;stroke-linejoin:miter;stroke-opacity:1"/>
<path class="bond-30 atom-23 atom-31" d="M 651.2,102.7 L 638.0,105.1" style="fill:none;fill-rule:evenodd;stroke:#000000;stroke-width:2.0px;stroke-linecap:butt;stroke-linejoin:miter;stroke-opacity:1"/>
<path class="bond-31 atom-24 atom-30" d="M 665.8,112.9 L 659.4,131.0" style="fill:none;fill-rule:evenodd;stroke:#000000;stroke-width:2.0px;stroke-linecap:butt;stroke-linejoin:miter;stroke-opacity:1"/>
<path class="bond-31 atom-24 atom-30" d="M 668.5,116.9 L 664.0,129.6" style="fill:none;fill-rule:evenodd;stroke:#000000;stroke-width:2.0px;stroke-linecap:butt;stroke-linejoin:miter;stroke-opacity:1"/>
<path class="bond-32 atom-25 atom-43" d="M 546.3,152.2 L 530.1,155.3" style="fill:none;fill-rule:evenodd;stroke:#000000;stroke-width:2.0px;stroke-linecap:butt;stroke-linejoin:miter;stroke-opacity:1"/>
<path class="bond-33 atom-26 atom-45" d="M 584.0,145.2 L 600.2,142.1" style="fill:none;fill-rule:evenodd;stroke:#000000;stroke-width:2.0px;stroke-linecap:butt;stroke-linejoin:miter;stroke-opacity:1"/>
<path class="bond-34 atom-27 atom-44" d="M 496.1,144.7 L 512.3,141.7" style="fill:none;fill-rule:evenodd;stroke:#000000;stroke-width:2.0px;stroke-linecap:butt;stroke-linejoin:miter;stroke-opacity:1"/>
<path class="bond-35 atom-28 atom-39" d="M 697.2,123.9 L 713.3,120.9" style="fill:none;fill-rule:evenodd;stroke:#000000;stroke-width:2.0px;stroke-linecap:butt;stroke-linejoin:miter;stroke-opacity:1"/>
<path class="bond-36 atom-29 atom-54" d="M 458.4,151.8 L 441.9,154.9" style="fill:none;fill-rule:evenodd;stroke:#000000;stroke-width:2.0px;stroke-linecap:butt;stroke-linejoin:miter;stroke-opacity:1"/>
<path class="bond-37 atom-30 atom-33" d="M 659.4,131.0 L 640.6,134.5" style="fill:none;fill-rule:evenodd;stroke:#000000;stroke-width:2.0px;stroke-linecap:butt;stroke-linejoin:miter;stroke-opacity:1"/>
<path class="bond-38 atom-31 atom-32" d="M 634.5,101.9 L 628.1,120.0" style="fill:none;fill-rule:evenodd;stroke:#000000;stroke-width:2.0px;stroke-linecap:butt;stroke-linejoin:miter;stroke-opacity:1"/>
<path class="bond-39 atom-31 atom-55" d="M 634.5,101.9 L 624.3,90.1" style="fill:none;fill-rule:evenodd;stroke:#000000;stroke-width:2.0px;stroke-linecap:butt;stroke-linejoin:miter;stroke-opacity:1"/>
<path class="bond-40 atom-32 atom-33" d="M 628.1,120.0 L 640.6,134.5" style="fill:none;fill-rule:evenodd;stroke:#000000;stroke-width:2.0px;stroke-linecap:butt;stroke-linejoin:miter;stroke-opacity:1"/>
<path class="bond-40 atom-32 atom-33" d="M 632.9,119.7 L 641.6,129.9" style="fill:none;fill-rule:evenodd;stroke:#000000;stroke-width:2.0px;stroke-linecap:butt;stroke-linejoin:miter;stroke-opacity:1"/>
<path class="bond-41 atom-32 atom-46" d="M 628.1,120.0 L 611.9,123.0" style="fill:none;fill-rule:evenodd;stroke:#000000;stroke-width:2.0px;stroke-linecap:butt;stroke-linejoin:miter;stroke-opacity:1"/>
<path class="bond-42 atom-33 atom-47" d="M 640.6,134.5 L 635.4,149.3" style="fill:none;fill-rule:evenodd;stroke:#000000;stroke-width:2.0px;stroke-linecap:butt;stroke-linejoin:miter;stroke-opacity:1"/>
<path class="bond-43 atom-34 atom-37" d="M 759.9,146.0 L 776.0,143.0" style="fill:none;fill-rule:evenodd;stroke:#000000;stroke-width:2.0px;stroke-linecap:butt;stroke-linejoin:miter;stroke-opacity:1"/>
<path class="bond-44 atom-34 atom-40" d="M 759.9,146.0 L 754.7,160.7" style="fill:none;fill-rule:evenodd;stroke:#000000;stroke-width:2.0px;stroke-linecap:butt;stroke-linejoin:miter;stroke-opacity:1"/>
<path class="bond-44 atom-34 atom-40" d="M 755.5,146.9 L 751.8,157.2" style="fill:none;fill-rule:evenodd;stroke:#000000;stroke-width:2.0px;stroke-linecap:butt;stroke-linejoin:miter;stroke-opacity:1"/>
<path class="bond-45 atom-34 atom-41" d="M 759.9,146.0 L 750.1,134.6" style="fill:none;fill-rule:evenodd;stroke:#000000;stroke-width:2.0px;stroke-linecap:butt;stroke-linejoin:miter;stroke-opacity:1"/>
<path class="bond-46 atom-35 atom-38" d="M 734.6,167.6 L 729.4,182.4" style="fill:none;fill-rule:evenodd;stroke:#000000;stroke-width:2.0px;stroke-linecap:butt;stroke-linejoin:miter;stroke-opacity:1"/>
<path class="bond-46 atom-35 atom-38" d="M 737.5,171.1 L 733.8,181.4" style="fill:none;fill-rule:evenodd;stroke:#000000;stroke-width:2.0px;stroke-linecap:butt;stroke-linejoin:miter;stroke-opacity:1"/>
<path class="bond-47 atom-35 atom-40" d="M 734.6,167.6 L 750.8,164.6" style="fill:none;fill-rule:evenodd;stroke:#000000;stroke-width:2.0px;stroke-linecap:butt;stroke-linejoin:miter;stroke-opacity:1"/>
<path class="bond-48 atom-35 atom-42" d="M 734.6,167.6 L 724.8,156.2" style="fill:none;fill-rule:evenodd;stroke:#000000;stroke-width:2.0px;stroke-linecap:butt;stroke-linejoin:miter;stroke-opacity:1"/>
<path class="bond-49 atom-36 atom-39" d="M 728.5,135.0 L 718.7,123.5" style="fill:none;fill-rule:evenodd;stroke:#000000;stroke-width:2.0px;stroke-linecap:butt;stroke-linejoin:miter;stroke-opacity:1"/>
<path class="bond-50 atom-36 atom-41" d="M 728.5,135.0 L 744.7,131.9" style="fill:none;fill-rule:evenodd;stroke:#000000;stroke-width:2.0px;stroke-linecap:butt;stroke-linejoin:miter;stroke-opacity:1"/>
<path class="bond-50 atom-36 atom-41" d="M 731.6,138.3 L 743.0,136.2" style="fill:none;fill-rule:evenodd;stroke:#000000;stroke-width:2.0px;stroke-linecap:butt;stroke-linejoin:miter;stroke-opacity:1"/>
<path class="bond-51 atom-36 atom-42" d="M 728.5,135.0 L 723.3,149.7" style="fill:none;fill-rule:evenodd;stroke:#000000;stroke-width:2.0px;stroke-linecap:butt;stroke-linejoin:miter;stroke-opacity:1"/>
<path class="bond-52 atom-43 atom-44" d="M 524.8,152.6 L 517.7,144.3" style="fill:none;fill-rule:evenodd;stroke:#000000;stroke-width:2.0px;stroke-linecap:butt;stroke-linejoin:miter;stroke-opacity:1"/>
<path class="bond-52 atom-43 atom-44" d="M 526.6,148.9 L 521.6,143.1" style="fill:none;fill-rule:evenodd;stroke:#000000;stroke-width:2.0px;stroke-linecap:butt;stroke-linejoin:miter;stroke-opacity:1"/>
<path class="bond-53 atom-45 atom-46" d="M 604.1,138.3 L 608.1,126.9" style="fill:none;fill-rule:evenodd;stroke:#000000;stroke-width:2.0px;stroke-linecap:butt;stroke-linejoin:miter;stroke-opacity:1"/>
<path class="bond-53 atom-45 atom-46" d="M 601.0,135.3 L 603.8,127.3" style="fill:none;fill-rule:evenodd;stroke:#000000;stroke-width:2.0px;stroke-linecap:butt;stroke-linejoin:miter;stroke-opacity:1"/>
<path class="bond-54 atom-48 atom-54" d="M 423.4,156.4 L 436.8,153.9" style="fill:none;fill-rule:evenodd;stroke:#000000;stroke-width:2.0px;stroke-linecap:butt;stroke-linejoin:miter;stroke-opacity:1"/>
<path class="bond-54 atom-48 atom-54" d="M 424.2,160.2 L 437.5,157.7" style="fill:none;fill-rule:evenodd;stroke:#000000;stroke-width:2.0px;stroke-linecap:butt;stroke-linejoin:miter;stroke-opacity:1"/>
<path class="bond-55 atom-49 atom-54" d="M 436.6,140.0 L 438.9,152.0" style="fill:none;fill-rule:evenodd;stroke:#000000;stroke-width:2.0px;stroke-linecap:butt;stroke-linejoin:miter;stroke-opacity:1"/>
<path class="bond-56 atom-50 atom-54" d="M 440.5,171.2 L 438.3,159.2" style="fill:none;fill-rule:evenodd;stroke:#000000;stroke-width:2.0px;stroke-linecap:butt;stroke-linejoin:miter;stroke-opacity:1"/>
<path class="bond-56 atom-50 atom-54" d="M 444.3,170.5 L 442.1,158.5" style="fill:none;fill-rule:evenodd;stroke:#000000;stroke-width:2.0px;stroke-linecap:butt;stroke-linejoin:miter;stroke-opacity:1"/>
<path class="bond-57 atom-51 atom-55" d="M 612.5,76.2 L 619.6,84.6" style="fill:none;fill-rule:evenodd;stroke:#000000;stroke-width:2.0px;stroke-linecap:butt;stroke-linejoin:miter;stroke-opacity:1"/>
<path class="bond-58 atom-52 atom-55" d="M 634.7,79.0 L 625.6,86.7" style="fill:none;fill-rule:evenodd;stroke:#000000;stroke-width:2.0px;stroke-linecap:butt;stroke-linejoin:miter;stroke-opacity:1"/>
<path class="bond-58 atom-52 atom-55" d="M 632.2,76.1 L 623.1,83.8" style="fill:none;fill-rule:evenodd;stroke:#000000;stroke-width:2.0px;stroke-linecap:butt;stroke-linejoin:miter;stroke-opacity:1"/>
<path class="bond-59 atom-53 atom-55" d="M 609.3,95.7 L 618.3,87.9" style="fill:none;fill-rule:evenodd;stroke:#000000;stroke-width:2.0px;stroke-linecap:butt;stroke-linejoin:miter;stroke-opacity:1"/>
<path class="bond-59 atom-53 atom-55" d="M 611.8,98.6 L 620.8,90.8" style="fill:none;fill-rule:evenodd;stroke:#000000;stroke-width:2.0px;stroke-linecap:butt;stroke-linejoin:miter;stroke-opacity:1"/>
<path class="atom-37" d="M 776.6 142.6 Q 776.6 141.3, 777.2 140.6 Q 777.9 139.9, 779.1 139.9 Q 780.2 139.9, 780.8 140.7 L 780.3 141.1 Q 779.9 140.5, 779.1 140.5 Q 778.3 140.5, 777.8 141.0 Q 777.4 141.6, 777.4 142.6 Q 777.4 143.7, 777.8 144.3 Q 778.3 144.8, 779.2 144.8 Q 779.8 144.8, 780.5 144.5 L 780.7 145.0 Q 780.4 145.2, 780.0 145.3 Q 779.5 145.4, 779.1 145.4 Q 777.9 145.4, 777.2 144.7 Q 776.6 144.0, 776.6 142.6 " fill="#000000"/>
<path class="atom-37" d="M 781.1 139.5 L 781.8 139.5 L 781.8 145.4 L 781.1 145.4 L 781.1 139.5 " fill="#000000"/>
<path class="atom-38" d="M 727.1 183.0 L 728.8 185.9 Q 729.0 186.2, 729.3 186.7 Q 729.6 187.2, 729.6 187.2 L 729.6 183.0 L 730.3 183.0 L 730.3 188.4 L 729.6 188.4 L 727.7 185.3 Q 727.4 184.9, 727.2 184.5 Q 727.0 184.1, 726.9 183.9 L 726.9 188.4 L 726.2 188.4 L 726.2 183.0 L 727.1 183.0 " fill="#000000"/>
<path class="atom-39" d="M 714.8 117.7 L 716.6 120.6 Q 716.8 120.8, 717.1 121.4 Q 717.3 121.9, 717.4 121.9 L 717.4 117.7 L 718.1 117.7 L 718.1 123.1 L 717.3 123.1 L 715.4 120.0 Q 715.2 119.6, 715.0 119.2 Q 714.7 118.8, 714.7 118.6 L 714.7 123.1 L 714.0 123.1 L 714.0 117.7 L 714.8 117.7 " fill="#000000"/>
<path class="atom-39" d="M 713.9 111.7 L 714.6 111.7 L 714.6 114.0 L 717.4 114.0 L 717.4 111.7 L 718.1 111.7 L 718.1 117.1 L 717.4 117.1 L 717.4 114.6 L 714.6 114.6 L 714.6 117.1 L 713.9 117.1 L 713.9 111.7 " fill="#000000"/>
<path class="atom-40" d="M 752.3 161.4 L 754.1 164.2 Q 754.2 164.5, 754.5 165.0 Q 754.8 165.6, 754.8 165.6 L 754.8 161.4 L 755.5 161.4 L 755.5 166.8 L 754.8 166.8 L 752.9 163.7 Q 752.7 163.3, 752.4 162.9 Q 752.2 162.4, 752.1 162.3 L 752.1 166.8 L 751.4 166.8 L 751.4 161.4 L 752.3 161.4 " fill="#000000"/>
<path class="atom-41" d="M 746.2 128.7 L 747.9 131.6 Q 748.1 131.9, 748.4 132.4 Q 748.7 132.9, 748.7 132.9 L 748.7 128.7 L 749.4 128.7 L 749.4 134.1 L 748.7 134.1 L 746.8 131.0 Q 746.5 130.6, 746.3 130.2 Q 746.1 129.8, 746.0 129.7 L 746.0 134.1 L 745.3 134.1 L 745.3 128.7 L 746.2 128.7 " fill="#000000"/>
<path class="atom-42" d="M 715.2 150.3 L 715.9 150.3 L 715.9 152.7 L 718.7 152.7 L 718.7 150.3 L 719.4 150.3 L 719.4 155.8 L 718.7 155.8 L 718.7 153.3 L 715.9 153.3 L 715.9 155.8 L 715.2 155.8 L 715.2 150.3 " fill="#000000"/>
<path class="atom-42" d="M 720.9 150.3 L 722.7 153.2 Q 722.9 153.5, 723.2 154.0 Q 723.5 154.5, 723.5 154.6 L 723.5 150.3 L 724.2 150.3 L 724.2 155.8 L 723.5 155.8 L 721.5 152.6 Q 721.3 152.3, 721.1 151.8 Q 720.9 151.4, 720.8 151.3 L 720.8 155.8 L 720.1 155.8 L 720.1 150.3 L 720.9 150.3 " fill="#000000"/>
<path class="atom-43" d="M 526.2 153.1 L 528.0 155.9 Q 528.2 156.2, 528.5 156.7 Q 528.8 157.2, 528.8 157.3 L 528.8 153.1 L 529.5 153.1 L 529.5 158.5 L 528.8 158.5 L 526.9 155.3 Q 526.6 155.0, 526.4 154.5 Q 526.2 154.1, 526.1 154.0 L 526.1 158.5 L 525.4 158.5 L 525.4 153.1 L 526.2 153.1 " fill="#000000"/>
<path class="atom-44" d="M 513.8 138.5 L 515.5 141.4 Q 515.7 141.7, 516.0 142.2 Q 516.3 142.7, 516.3 142.7 L 516.3 138.5 L 517.0 138.5 L 517.0 143.9 L 516.3 143.9 L 514.4 140.8 Q 514.1 140.4, 513.9 140.0 Q 513.7 139.6, 513.6 139.4 L 513.6 143.9 L 512.9 143.9 L 512.9 138.5 L 513.8 138.5 " fill="#000000"/>
<path class="atom-45" d="M 601.7 138.9 L 603.5 141.8 Q 603.6 142.1, 603.9 142.6 Q 604.2 143.1, 604.2 143.1 L 604.2 138.9 L 604.9 138.9 L 604.9 144.3 L 604.2 144.3 L 602.3 141.2 Q 602.1 140.8, 601.8 140.4 Q 601.6 140.0, 601.5 139.8 L 601.5 144.3 L 600.8 144.3 L 600.8 138.9 L 601.7 138.9 " fill="#000000"/>
<path class="atom-46" d="M 608.0 120.8 L 609.8 123.7 Q 610.0 124.0, 610.3 124.5 Q 610.6 125.0, 610.6 125.0 L 610.6 120.8 L 611.3 120.8 L 611.3 126.2 L 610.6 126.2 L 608.6 123.1 Q 608.4 122.7, 608.2 122.3 Q 608.0 121.9, 607.9 121.7 L 607.9 126.2 L 607.2 126.2 L 607.2 120.8 L 608.0 120.8 " fill="#000000"/>
<path class="atom-47" d="M 631.7 152.7 Q 631.7 151.4, 632.4 150.6 Q 633.0 149.9, 634.2 149.9 Q 635.4 149.9, 636.1 150.6 Q 636.7 151.4, 636.7 152.7 Q 636.7 154.0, 636.1 154.7 Q 635.4 155.5, 634.2 155.5 Q 633.0 155.5, 632.4 154.7 Q 631.7 154.0, 631.7 152.7 M 634.2 154.9 Q 635.1 154.9, 635.5 154.3 Q 636.0 153.8, 636.0 152.7 Q 636.0 151.6, 635.5 151.1 Q 635.1 150.5, 634.2 150.5 Q 633.4 150.5, 632.9 151.0 Q 632.5 151.6, 632.5 152.7 Q 632.5 153.8, 632.9 154.3 Q 633.4 154.9, 634.2 154.9 " fill="#000000"/>
<path class="atom-47" d="M 637.1 150.8 L 639.0 150.8 L 639.0 151.2 L 637.1 151.2 L 637.1 150.8 " fill="#000000"/>
<path class="atom-48" d="M 418.2 158.9 Q 418.2 157.6, 418.8 156.9 Q 419.5 156.1, 420.7 156.1 Q 421.9 156.1, 422.5 156.9 Q 423.2 157.6, 423.2 158.9 Q 423.2 160.2, 422.5 161.0 Q 421.9 161.7, 420.7 161.7 Q 419.5 161.7, 418.8 161.0 Q 418.2 160.2, 418.2 158.9 M 420.7 161.1 Q 421.5 161.1, 421.9 160.6 Q 422.4 160.0, 422.4 158.9 Q 422.4 157.8, 421.9 157.3 Q 421.5 156.8, 420.7 156.8 Q 419.8 156.8, 419.4 157.3 Q 418.9 157.8, 418.9 158.9 Q 418.9 160.0, 419.4 160.6 Q 419.8 161.1, 420.7 161.1 " fill="#000000"/>
<path class="atom-49" d="M 433.5 136.5 Q 433.5 135.2, 434.1 134.5 Q 434.8 133.8, 436.0 133.8 Q 437.2 133.8, 437.8 134.5 Q 438.5 135.2, 438.5 136.5 Q 438.5 137.8, 437.8 138.6 Q 437.2 139.3, 436.0 139.3 Q 434.8 139.3, 434.1 138.6 Q 433.5 137.8, 433.5 136.5 M 436.0 138.7 Q 436.8 138.7, 437.3 138.2 Q 437.7 137.6, 437.7 136.5 Q 437.7 135.4, 437.3 134.9 Q 436.8 134.4, 436.0 134.4 Q 435.2 134.4, 434.7 134.9 Q 434.3 135.4, 434.3 136.5 Q 434.3 137.6, 434.7 138.2 Q 435.2 138.7, 436.0 138.7 " fill="#000000"/>
<path class="atom-49" d="M 438.9 134.6 L 440.7 134.6 L 440.7 135.0 L 438.9 135.0 L 438.9 134.6 " fill="#000000"/>
<path class="atom-50" d="M 440.6 174.2 Q 440.6 172.9, 441.2 172.2 Q 441.9 171.5, 443.1 171.5 Q 444.3 171.5, 444.9 172.2 Q 445.6 172.9, 445.6 174.2 Q 445.6 175.5, 444.9 176.3 Q 444.3 177.0, 443.1 177.0 Q 441.9 177.0, 441.2 176.3 Q 440.6 175.6, 440.6 174.2 M 443.1 176.4 Q 443.9 176.4, 444.3 175.9 Q 444.8 175.3, 444.8 174.2 Q 444.8 173.2, 444.3 172.6 Q 443.9 172.1, 443.1 172.1 Q 442.2 172.1, 441.8 172.6 Q 441.3 173.2, 441.3 174.2 Q 441.3 175.3, 441.8 175.9 Q 442.2 176.4, 443.1 176.4 " fill="#000000"/>
<path class="atom-51" d="M 602.1 70.1 L 602.8 70.1 L 602.8 72.4 L 605.6 72.4 L 605.6 70.1 L 606.3 70.1 L 606.3 75.5 L 605.6 75.5 L 605.6 73.0 L 602.8 73.0 L 602.8 75.5 L 602.1 75.5 L 602.1 70.1 " fill="#000000"/>
<path class="atom-51" d="M 607.0 72.8 Q 607.0 71.5, 607.6 70.7 Q 608.3 70.0, 609.5 70.0 Q 610.7 70.0, 611.3 70.7 Q 612.0 71.5, 612.0 72.8 Q 612.0 74.1, 611.3 74.9 Q 610.7 75.6, 609.5 75.6 Q 608.3 75.6, 607.6 74.9 Q 607.0 74.1, 607.0 72.8 M 609.5 75.0 Q 610.3 75.0, 610.8 74.4 Q 611.2 73.9, 611.2 72.8 Q 611.2 71.7, 610.8 71.2 Q 610.3 70.6, 609.5 70.6 Q 608.7 70.6, 608.2 71.2 Q 607.8 71.7, 607.8 72.8 Q 607.8 73.9, 608.2 74.4 Q 608.7 75.0, 609.5 75.0 " fill="#000000"/>
<path class="atom-52" d="M 634.0 74.8 Q 634.0 73.5, 634.7 72.8 Q 635.3 72.1, 636.5 72.1 Q 637.7 72.1, 638.4 72.8 Q 639.0 73.5, 639.0 74.8 Q 639.0 76.2, 638.4 76.9 Q 637.7 77.7, 636.5 77.7 Q 635.3 77.7, 634.7 76.9 Q 634.0 76.2, 634.0 74.8 M 636.5 77.1 Q 637.4 77.1, 637.8 76.5 Q 638.3 75.9, 638.3 74.8 Q 638.3 73.8, 637.8 73.2 Q 637.4 72.7, 636.5 72.7 Q 635.7 72.7, 635.3 73.2 Q 634.8 73.8, 634.8 74.8 Q 634.8 75.9, 635.3 76.5 Q 635.7 77.1, 636.5 77.1 " fill="#000000"/>
<path class="atom-53" d="M 604.9 99.8 Q 604.9 98.5, 605.6 97.8 Q 606.2 97.1, 607.4 97.1 Q 608.6 97.1, 609.3 97.8 Q 609.9 98.5, 609.9 99.8 Q 609.9 101.2, 609.3 101.9 Q 608.6 102.6, 607.4 102.6 Q 606.2 102.6, 605.6 101.9 Q 604.9 101.2, 604.9 99.8 M 607.4 102.0 Q 608.2 102.0, 608.7 101.5 Q 609.1 100.9, 609.1 99.8 Q 609.1 98.8, 608.7 98.2 Q 608.2 97.7, 607.4 97.7 Q 606.6 97.7, 606.1 98.2 Q 605.7 98.8, 605.7 99.8 Q 605.7 100.9, 606.1 101.5 Q 606.6 102.0, 607.4 102.0 " fill="#000000"/>
<path class="atom-54" d="M 438.0 157.2 Q 438.1 157.2, 438.3 157.4 Q 438.6 157.5, 438.8 157.5 Q 439.1 157.6, 439.4 157.6 Q 439.9 157.6, 440.2 157.3 Q 440.5 157.1, 440.5 156.7 Q 440.5 156.4, 440.4 156.2 Q 440.2 156.0, 440.0 155.9 Q 439.8 155.8, 439.4 155.7 Q 438.9 155.5, 438.6 155.4 Q 438.3 155.2, 438.1 155.0 Q 437.9 154.7, 437.9 154.2 Q 437.9 153.5, 438.4 153.1 Q 438.8 152.6, 439.8 152.6 Q 440.4 152.6, 441.1 152.9 L 440.9 153.5 Q 440.3 153.3, 439.8 153.3 Q 439.2 153.3, 439.0 153.5 Q 438.7 153.7, 438.7 154.1 Q 438.7 154.4, 438.8 154.5 Q 439.0 154.7, 439.2 154.8 Q 439.4 154.9, 439.8 155.0 Q 440.3 155.2, 440.6 155.3 Q 440.9 155.5, 441.1 155.8 Q 441.3 156.1, 441.3 156.7 Q 441.3 157.4, 440.8 157.8 Q 440.3 158.2, 439.4 158.2 Q 438.9 158.2, 438.6 158.1 Q 438.2 158.0, 437.8 157.8 L 438.0 157.2 " fill="#000000"/>
<path class="atom-55" d="M 620.4 89.2 Q 620.5 89.2, 620.8 89.3 Q 621.0 89.4, 621.3 89.5 Q 621.6 89.6, 621.8 89.6 Q 622.4 89.6, 622.7 89.3 Q 623.0 89.1, 623.0 88.6 Q 623.0 88.3, 622.8 88.1 Q 622.7 88.0, 622.4 87.9 Q 622.2 87.8, 621.8 87.6 Q 621.3 87.5, 621.0 87.4 Q 620.8 87.2, 620.5 86.9 Q 620.3 86.6, 620.3 86.1 Q 620.3 85.5, 620.8 85.0 Q 621.3 84.6, 622.2 84.6 Q 622.8 84.6, 623.5 84.9 L 623.4 85.5 Q 622.7 85.2, 622.2 85.2 Q 621.7 85.2, 621.4 85.5 Q 621.1 85.7, 621.1 86.1 Q 621.1 86.3, 621.3 86.5 Q 621.4 86.7, 621.6 86.8 Q 621.8 86.9, 622.2 87.0 Q 622.7 87.2, 623.0 87.3 Q 623.3 87.5, 623.5 87.8 Q 623.7 88.1, 623.7 88.6 Q 623.7 89.4, 623.2 89.8 Q 622.7 90.2, 621.9 90.2 Q 621.4 90.2, 621.0 90.1 Q 620.7 90.0, 620.2 89.8 L 620.4 89.2 " fill="#000000"/>
<path class="atom-56" d="M 612.6 57.3 L 614.4 60.1 Q 614.5 60.4, 614.8 60.9 Q 615.1 61.4, 615.1 61.5 L 615.1 57.3 L 615.8 57.3 L 615.8 62.7 L 615.1 62.7 L 613.2 59.5 Q 613.0 59.2, 612.7 58.8 Q 612.5 58.3, 612.4 58.2 L 612.4 62.7 L 611.7 62.7 L 611.7 57.3 L 612.6 57.3 " fill="#000000"/>
<path class="atom-56" d="M 616.5 61.6 Q 616.5 61.0, 617.0 60.6 Q 617.5 60.3, 618.4 60.3 L 619.0 60.3 L 619.0 60.1 Q 619.0 59.7, 618.8 59.5 Q 618.6 59.2, 618.1 59.2 Q 617.8 59.2, 617.5 59.3 Q 617.3 59.4, 616.9 59.5 L 616.7 59.0 Q 617.4 58.7, 618.1 58.7 Q 618.9 58.7, 619.3 59.0 Q 619.7 59.4, 619.7 60.2 L 619.7 62.7 L 619.2 62.7 Q 619.1 62.7, 619.1 62.5 Q 619.1 62.4, 619.1 62.2 Q 618.5 62.8, 617.8 62.8 Q 617.2 62.8, 616.8 62.5 Q 616.5 62.2, 616.5 61.6 M 617.2 61.6 Q 617.2 61.9, 617.4 62.1 Q 617.6 62.2, 617.9 62.2 Q 618.2 62.2, 618.5 62.1 Q 618.8 61.9, 619.0 61.7 L 619.0 60.8 L 618.5 60.8 Q 617.8 60.8, 617.5 61.0 Q 617.2 61.2, 617.2 61.6 " fill="#000000"/>
<path class="atom-56" d="M 620.3 58.9 L 621.3 58.9 L 621.3 57.9 L 621.7 57.9 L 621.7 58.9 L 622.7 58.9 L 622.7 59.3 L 621.7 59.3 L 621.7 60.3 L 621.3 60.3 L 621.3 59.3 L 620.3 59.3 L 620.3 58.9 " fill="#000000"/>
<path class="atom-57" d="M 612.6 44.5 L 614.4 47.3 Q 614.5 47.6, 614.8 48.1 Q 615.1 48.7, 615.1 48.7 L 615.1 44.5 L 615.8 44.5 L 615.8 49.9 L 615.1 49.9 L 613.2 46.8 Q 613.0 46.4, 612.7 46.0 Q 612.5 45.5, 612.4 45.4 L 612.4 49.9 L 611.7 49.9 L 611.7 44.5 L 612.6 44.5 " fill="#000000"/>
<path class="atom-57" d="M 616.5 48.8 Q 616.5 48.2, 617.0 47.9 Q 617.5 47.5, 618.4 47.5 L 619.0 47.5 L 619.0 47.4 Q 619.0 46.9, 618.8 46.7 Q 618.6 46.5, 618.1 46.5 Q 617.8 46.5, 617.5 46.5 Q 617.3 46.6, 616.9 46.7 L 616.7 46.2 Q 617.4 45.9, 618.1 45.9 Q 618.9 45.9, 619.3 46.2 Q 619.7 46.6, 619.7 47.4 L 619.7 49.9 L 619.2 49.9 Q 619.1 49.9, 619.1 49.8 Q 619.1 49.6, 619.1 49.4 Q 618.5 50.0, 617.8 50.0 Q 617.2 50.0, 616.8 49.7 Q 616.5 49.4, 616.5 48.8 M 617.2 48.8 Q 617.2 49.1, 617.4 49.3 Q 617.6 49.4, 617.9 49.4 Q 618.2 49.4, 618.5 49.3 Q 618.8 49.1, 619.0 48.9 L 619.0 48.0 L 618.5 48.0 Q 617.8 48.0, 617.5 48.2 Q 617.2 48.4, 617.2 48.8 " fill="#000000"/>
<path class="atom-57" d="M 620.3 46.1 L 621.3 46.1 L 621.3 45.1 L 621.7 45.1 L 621.7 46.1 L 622.7 46.1 L 622.7 46.5 L 621.7 46.5 L 621.7 47.5 L 621.3 47.5 L 621.3 46.5 L 620.3 46.5 L 620.3 46.1 " fill="#000000"/>
<path class="legend" d="M 577.1 384.1 Q 577.1 381.3, 578.4 379.8 Q 579.8 378.4, 582.3 378.4 Q 584.6 378.4, 585.9 380.0 L 584.8 380.9 Q 583.9 379.7, 582.3 379.7 Q 580.6 379.7, 579.7 380.8 Q 578.8 382.0, 578.8 384.1 Q 578.8 386.4, 579.7 387.5 Q 580.6 388.7, 582.5 388.7 Q 583.7 388.7, 585.2 387.9 L 585.6 389.1 Q 585.0 389.5, 584.1 389.7 Q 583.2 390.0, 582.2 390.0 Q 579.8 390.0, 578.4 388.4 Q 577.1 386.9, 577.1 384.1 " fill="#000000"/>
<path class="legend" d="M 586.5 377.7 L 588.0 377.7 L 588.0 389.8 L 586.5 389.8 L 586.5 377.7 " fill="#000000"/>
<path class="legend" d="M 589.4 387.6 Q 589.4 386.3, 590.4 385.6 Q 591.5 384.8, 593.4 384.8 L 594.6 384.8 L 594.6 384.5 Q 594.6 383.5, 594.2 383.1 Q 593.8 382.6, 592.7 382.6 Q 592.1 382.6, 591.6 382.8 Q 591.1 382.9, 590.3 383.2 L 589.8 382.2 Q 591.3 381.4, 592.8 381.4 Q 594.5 381.4, 595.3 382.2 Q 596.1 382.9, 596.1 384.5 L 596.1 389.8 L 595.0 389.8 Q 594.9 389.7, 594.9 389.5 Q 594.8 389.2, 594.7 388.8 Q 593.6 390.0, 592.1 390.0 Q 590.8 390.0, 590.1 389.3 Q 589.4 388.7, 589.4 387.6 M 590.9 387.6 Q 590.9 388.2, 591.2 388.5 Q 591.6 388.8, 592.3 388.8 Q 593.0 388.8, 593.6 388.5 Q 594.2 388.2, 594.6 387.7 L 594.6 386.0 L 593.5 386.0 Q 592.2 386.0, 591.5 386.4 Q 590.9 386.8, 590.9 387.6 " fill="#000000"/>
<path class="legend" d="M 597.8 388.1 Q 598.5 388.4, 599.1 388.6 Q 599.6 388.7, 600.1 388.7 Q 600.9 388.7, 601.3 388.4 Q 601.7 388.1, 601.7 387.5 Q 601.7 387.1, 601.5 386.9 Q 601.2 386.7, 601.0 386.6 Q 600.7 386.4, 600.0 386.2 Q 599.9 386.2, 599.1 385.9 Q 598.4 385.7, 598.0 385.1 Q 597.6 384.6, 597.6 383.8 Q 597.6 382.8, 598.4 382.1 Q 599.2 381.4, 600.7 381.4 Q 601.3 381.4, 601.8 381.6 Q 602.4 381.7, 603.0 382.0 L 602.6 383.2 Q 602.1 382.9, 601.6 382.8 Q 601.1 382.7, 600.7 382.7 Q 599.9 382.7, 599.5 383.0 Q 599.1 383.3, 599.1 383.8 Q 599.1 384.2, 599.4 384.4 Q 599.7 384.6, 600.4 384.9 Q 600.6 384.9, 600.7 385.0 L 601.1 385.1 Q 601.8 385.4, 602.2 385.6 Q 602.6 385.8, 602.9 386.3 Q 603.2 386.7, 603.2 387.5 Q 603.2 388.7, 602.3 389.3 Q 601.5 390.0, 600.2 390.0 Q 599.4 390.0, 598.7 389.8 Q 598.0 389.6, 597.4 389.3 L 597.8 388.1 " fill="#000000"/>
<path class="legend" d="M 604.5 388.1 Q 605.2 388.4, 605.7 388.6 Q 606.3 388.7, 606.8 388.7 Q 607.5 388.7, 607.9 388.4 Q 608.3 388.1, 608.3 387.5 Q 608.3 387.1, 608.1 386.9 Q 607.9 386.7, 607.6 386.6 Q 607.4 386.4, 606.7 386.2 Q 606.6 386.2, 605.8 385.9 Q 605.1 385.7, 604.7 385.1 Q 604.3 384.6, 604.3 383.8 Q 604.3 382.8, 605.1 382.1 Q 605.8 381.4, 607.3 381.4 Q 607.9 381.4, 608.5 381.6 Q 609.1 381.7, 609.7 382.0 L 609.3 383.2 Q 608.7 382.9, 608.3 382.8 Q 607.8 382.7, 607.3 382.7 Q 606.6 382.7, 606.2 383.0 Q 605.8 383.3, 605.8 383.8 Q 605.8 384.2, 606.1 384.4 Q 606.4 384.6, 607.1 384.9 Q 607.3 384.9, 607.4 385.0 L 607.8 385.1 Q 608.5 385.4, 608.9 385.6 Q 609.3 385.8, 609.6 386.3 Q 609.9 386.7, 609.9 387.5 Q 609.9 388.7, 609.0 389.3 Q 608.2 390.0, 606.8 390.0 Q 606.0 390.0, 605.4 389.8 Q 604.7 389.6, 604.0 389.3 L 604.5 388.1 " fill="#000000"/>
<path class="legend" d="" fill="#000000"/>
<path class="legend" d="M 616.7 388.5 L 619.1 388.5 L 619.1 380.1 L 616.4 380.9 L 616.0 380.0 L 619.5 378.4 L 620.6 378.6 L 620.6 388.5 L 622.9 388.5 L 622.9 389.8 L 616.7 389.8 L 616.7 388.5 " fill="#000000"/>
<path class="bond-0 atom-0 atom-5" d="M 365.8,538.9 L 325.3,546.6" style="fill:none;fill-rule:evenodd;stroke:#000000;stroke-width:2.0px;stroke-linecap:butt;stroke-linejoin:miter;stroke-opacity:1"/>
<path class="bond-1 atom-1 atom-6" d="M 381.8,572.2 L 350.6,599.1" style="fill:none;fill-rule:evenodd;stroke:#000000;stroke-width:2.0px;stroke-linecap:butt;stroke-linejoin:miter;stroke-opacity:1"/>
<path class="bond-2 atom-2 atom-17" d="M 298.1,624.4 L 311.7,585.5" style="fill:none;fill-rule:evenodd;stroke:#000000;stroke-width:2.0px;stroke-linecap:butt;stroke-linejoin:miter;stroke-opacity:1"/>
<path class="bond-3 atom-3 atom-21" d="M 116.1,485.6 L 83.3,495.5" style="fill:none;fill-rule:evenodd;stroke:#000000;stroke-width:2.0px;stroke-linecap:butt;stroke-linejoin:miter;stroke-opacity:1"/>
<path class="bond-4 atom-4 atom-22" d="M 108.2,674.4 L 115.9,641.7" style="fill:none;fill-rule:evenodd;stroke:#000000;stroke-width:2.0px;stroke-linecap:butt;stroke-linejoin:miter;stroke-opacity:1"/>
<path class="bond-5 atom-5 atom-17" d="M 325.3,546.6 L 311.7,585.5" style="fill:none;fill-rule:evenodd;stroke:#000000;stroke-width:2.0px;stroke-linecap:butt;stroke-linejoin:miter;stroke-opacity:1"/>
<path class="bond-6 atom-6 atom-17" d="M 350.6,599.1 L 311.7,585.5" style="fill:none;fill-rule:evenodd;stroke:#000000;stroke-width:2.0px;stroke-linecap:butt;stroke-linejoin:miter;stroke-opacity:1"/>
<path class="bond-7 atom-7 atom-8" d="M 18.2,589.6 L 27.7,549.5" style="fill:none;fill-rule:evenodd;stroke:#000000;stroke-width:2.0px;stroke-linecap:butt;stroke-linejoin:miter;stroke-opacity:1"/>
<path class="bond-7 atom-7 atom-8" d="M 27.6,585.5 L 34.3,557.4" style="fill:none;fill-rule:evenodd;stroke:#000000;stroke-width:2.0px;stroke-linecap:butt;stroke-linejoin:miter;stroke-opacity:1"/>
<path class="bond-8 atom-7 atom-9" d="M 18.2,589.6 L 48.2,617.8" style="fill:none;fill-rule:evenodd;stroke:#000000;stroke-width:2.0px;stroke-linecap:butt;stroke-linejoin:miter;stroke-opacity:1"/>
<path class="bond-9 atom-8 atom-11" d="M 27.7,549.5 L 67.1,537.6" style="fill:none;fill-rule:evenodd;stroke:#000000;stroke-width:2.0px;stroke-linecap:butt;stroke-linejoin:miter;stroke-opacity:1"/>
<path class="bond-10 atom-9 atom-12" d="M 48.2,617.8 L 87.7,606.0" style="fill:none;fill-rule:evenodd;stroke:#000000;stroke-width:2.0px;stroke-linecap:butt;stroke-linejoin:miter;stroke-opacity:1"/>
<path class="bond-10 atom-9 atom-12" d="M 51.7,608.2 L 79.4,599.9" style="fill:none;fill-rule:evenodd;stroke:#000000;stroke-width:2.0px;stroke-linecap:butt;stroke-linejoin:miter;stroke-opacity:1"/>
<path class="bond-11 atom-10 atom-13" d="M 238.9,595.4 L 272.8,571.9" style="fill:none;fill-rule:evenodd;stroke:#000000;stroke-width:2.0px;stroke-linecap:butt;stroke-linejoin:miter;stroke-opacity:1"/>
<path class="bond-12 atom-10 atom-14" d="M 238.9,595.4 L 206.1,570.4" style="fill:none;fill-rule:evenodd;stroke:#000000;stroke-width:2.0px;stroke-linecap:butt;stroke-linejoin:miter;stroke-opacity:1"/>
<path class="bond-12 atom-10 atom-14" d="M 239.0,585.1 L 216.0,567.6" style="fill:none;fill-rule:evenodd;stroke:#000000;stroke-width:2.0px;stroke-linecap:butt;stroke-linejoin:miter;stroke-opacity:1"/>
<path class="bond-13 atom-11 atom-15" d="M 67.1,537.6 L 97.1,565.9" style="fill:none;fill-rule:evenodd;stroke:#000000;stroke-width:2.0px;stroke-linecap:butt;stroke-linejoin:miter;stroke-opacity:1"/>
<path class="bond-13 atom-11 atom-15" d="M 66.0,547.9 L 87.0,567.6" style="fill:none;fill-rule:evenodd;stroke:#000000;stroke-width:2.0px;stroke-linecap:butt;stroke-linejoin:miter;stroke-opacity:1"/>
<path class="bond-14 atom-11 atom-21" d="M 67.1,537.6 L 74.8,504.9" style="fill:none;fill-rule:evenodd;stroke:#000000;stroke-width:2.0px;stroke-linecap:butt;stroke-linejoin:miter;stroke-opacity:1"/>
<path class="bond-15 atom-12 atom-15" d="M 87.7,606.0 L 97.1,565.9" style="fill:none;fill-rule:evenodd;stroke:#000000;stroke-width:2.0px;stroke-linecap:butt;stroke-linejoin:miter;stroke-opacity:1"/>
<path class="bond-16 atom-12 atom-22" d="M 87.7,606.0 L 111.0,627.9" style="fill:none;fill-rule:evenodd;stroke:#000000;stroke-width:2.0px;stroke-linecap:butt;stroke-linejoin:miter;stroke-opacity:1"/>
<path class="bond-17 atom-13 atom-17" d="M 272.8,571.9 L 311.7,585.5" style="fill:none;fill-rule:evenodd;stroke:#000000;stroke-width:2.0px;stroke-linecap:butt;stroke-linejoin:miter;stroke-opacity:1"/>
<path class="bond-18 atom-13 atom-19" d="M 272.8,571.9 L 263.1,539.6" style="fill:none;fill-rule:evenodd;stroke:#000000;stroke-width:2.0px;stroke-linecap:butt;stroke-linejoin:miter;stroke-opacity:1"/>
<path class="bond-18 atom-13 atom-19" d="M 263.4,569.4 L 256.6,546.8" style="fill:none;fill-rule:evenodd;stroke:#000000;stroke-width:2.0px;stroke-linecap:butt;stroke-linejoin:miter;stroke-opacity:1"/>
<path class="bond-19 atom-14 atom-18" d="M 206.1,570.4 L 172.4,580.5" style="fill:none;fill-rule:evenodd;stroke:#000000;stroke-width:2.0px;stroke-linecap:butt;stroke-linejoin:miter;stroke-opacity:1"/>
<path class="bond-20 atom-14 atom-23" d="M 206.1,570.4 L 217.1,539.0" style="fill:none;fill-rule:evenodd;stroke:#000000;stroke-width:2.0px;stroke-linecap:butt;stroke-linejoin:miter;stroke-opacity:1"/>
<path class="bond-21 atom-15 atom-16" d="M 97.1,565.9 L 136.6,554.0" style="fill:none;fill-rule:evenodd;stroke:#000000;stroke-width:2.0px;stroke-linecap:butt;stroke-linejoin:miter;stroke-opacity:1"/>
<path class="bond-22 atom-16 atom-18" d="M 136.6,554.0 L 160.8,576.8" style="fill:none;fill-rule:evenodd;stroke:#000000;stroke-width:2.0px;stroke-linecap:butt;stroke-linejoin:miter;stroke-opacity:1"/>
<path class="bond-23 atom-16 atom-20" d="M 132.6,553.1 L 140.3,520.4" style="fill:none;fill-rule:evenodd;stroke:#000000;stroke-width:2.0px;stroke-linecap:butt;stroke-linejoin:miter;stroke-opacity:1"/>
<path class="bond-23 atom-16 atom-20" d="M 140.6,555.0 L 148.3,522.3" style="fill:none;fill-rule:evenodd;stroke:#000000;stroke-width:2.0px;stroke-linecap:butt;stroke-linejoin:miter;stroke-opacity:1"/>
<path class="bond-24 atom-19 atom-23" d="M 255.1,532.3 L 226.4,531.7" style="fill:none;fill-rule:evenodd;stroke:#000000;stroke-width:2.0px;stroke-linecap:butt;stroke-linejoin:miter;stroke-opacity:1"/>
<path class="atom-18" d="M 164.0 576.4 L 167.9 582.6 Q 168.2 583.2, 168.8 584.3 Q 169.5 585.4, 169.5 585.5 L 169.5 576.4 L 171.0 576.4 L 171.0 588.1 L 169.4 588.1 L 165.3 581.3 Q 164.9 580.6, 164.3 579.6 Q 163.9 578.7, 163.7 578.5 L 163.7 588.1 L 162.2 588.1 L 162.2 576.4 L 164.0 576.4 " fill="#000000"/>
<path class="atom-18" d="M 162.0 589.3 L 163.6 589.3 L 163.6 594.2 L 169.6 594.2 L 169.6 589.3 L 171.2 589.3 L 171.2 600.9 L 169.6 600.9 L 169.6 595.6 L 163.6 595.6 L 163.6 600.9 L 162.0 600.9 L 162.0 589.3 " fill="#000000"/>
<path class="atom-19" d="M 258.3 526.6 L 262.2 532.8 Q 262.5 533.4, 263.1 534.5 Q 263.8 535.6, 263.8 535.7 L 263.8 526.6 L 265.3 526.6 L 265.3 538.3 L 263.7 538.3 L 259.6 531.5 Q 259.2 530.7, 258.6 529.8 Q 258.1 528.9, 258.0 528.6 L 258.0 538.3 L 256.5 538.3 L 256.5 526.6 L 258.3 526.6 " fill="#000000"/>
<path class="atom-20" d="M 140.7 513.9 Q 140.7 511.1, 142.1 509.6 Q 143.5 508.0, 146.1 508.0 Q 148.7 508.0, 150.1 509.6 Q 151.4 511.1, 151.4 513.9 Q 151.4 516.8, 150.0 518.4 Q 148.6 520.0, 146.1 520.0 Q 143.5 520.0, 142.1 518.4 Q 140.7 516.8, 140.7 513.9 M 146.1 518.7 Q 147.9 518.7, 148.8 517.5 Q 149.8 516.3, 149.8 513.9 Q 149.8 511.6, 148.8 510.5 Q 147.9 509.3, 146.1 509.3 Q 144.3 509.3, 143.3 510.5 Q 142.4 511.6, 142.4 513.9 Q 142.4 516.3, 143.3 517.5 Q 144.3 518.7, 146.1 518.7 " fill="#000000"/>
<path class="atom-21" d="M 71.2 497.5 Q 71.2 494.7, 72.6 493.2 Q 74.0 491.6, 76.6 491.6 Q 79.2 491.6, 80.6 493.2 Q 82.0 494.7, 82.0 497.5 Q 82.0 500.4, 80.6 502.0 Q 79.1 503.6, 76.6 503.6 Q 74.0 503.6, 72.6 502.0 Q 71.2 500.4, 71.2 497.5 M 76.6 502.3 Q 78.4 502.3, 79.3 501.1 Q 80.3 499.9, 80.3 497.5 Q 80.3 495.2, 79.3 494.1 Q 78.4 492.9, 76.6 492.9 Q 74.8 492.9, 73.8 494.1 Q 72.9 495.2, 72.9 497.5 Q 72.9 499.9, 73.8 501.1 Q 74.8 502.3, 76.6 502.3 " fill="#000000"/>
<path class="atom-22" d="M 112.3 634.3 Q 112.3 631.5, 113.7 629.9 Q 115.1 628.3, 117.7 628.3 Q 120.3 628.3, 121.6 629.9 Q 123.0 631.5, 123.0 634.3 Q 123.0 637.1, 121.6 638.7 Q 120.2 640.3, 117.7 640.3 Q 115.1 640.3, 113.7 638.7 Q 112.3 637.1, 112.3 634.3 M 117.7 639.0 Q 119.5 639.0, 120.4 637.8 Q 121.4 636.6, 121.4 634.3 Q 121.4 632.0, 120.4 630.8 Q 119.5 629.7, 117.7 629.7 Q 115.9 629.7, 114.9 630.8 Q 114.0 632.0, 114.0 634.3 Q 114.0 636.6, 114.9 637.8 Q 115.9 639.0, 117.7 639.0 " fill="#000000"/>
<path class="atom-23" d="M 214.3 531.5 Q 214.3 528.7, 215.7 527.2 Q 217.1 525.6, 219.7 525.6 Q 222.3 525.6, 223.7 527.2 Q 225.1 528.7, 225.1 531.5 Q 225.1 534.4, 223.7 536.0 Q 222.3 537.6, 219.7 537.6 Q 217.1 537.6, 215.7 536.0 Q 214.3 534.4, 214.3 531.5 M 219.7 536.3 Q 221.5 536.3, 222.4 535.1 Q 223.4 533.9, 223.4 531.5 Q 223.4 529.2, 222.4 528.1 Q 221.5 526.9, 219.7 526.9 Q 217.9 526.9, 216.9 528.1 Q 216.0 529.2, 216.0 531.5 Q 216.0 533.9, 216.9 535.1 Q 217.9 536.3, 219.7 536.3 " fill="#000000"/>
<path class="legend" d="M 176.7 784.1 Q 176.7 781.3, 178.0 779.8 Q 179.4 778.4, 181.9 778.4 Q 184.2 778.4, 185.5 780.0 L 184.4 780.9 Q 183.5 779.7, 181.9 779.7 Q 180.2 779.7, 179.3 780.8 Q 178.4 782.0, 178.4 784.1 Q 178.4 786.4, 179.3 787.5 Q 180.2 788.7, 182.1 788.7 Q 183.3 788.7, 184.8 787.9 L 185.2 789.1 Q 184.6 789.5, 183.7 789.7 Q 182.8 790.0, 181.8 790.0 Q 179.4 790.0, 178.0 788.4 Q 176.7 786.9, 176.7 784.1 " fill="#000000"/>
<path class="legend" d="M 186.1 777.7 L 187.6 777.7 L 187.6 789.8 L 186.1 789.8 L 186.1 777.7 " fill="#000000"/>
<path class="legend" d="M 189.0 787.6 Q 189.0 786.3, 190.0 785.6 Q 191.1 784.8, 193.0 784.8 L 194.2 784.8 L 194.2 784.5 Q 194.2 783.5, 193.8 783.1 Q 193.4 782.6, 192.3 782.6 Q 191.7 782.6, 191.2 782.8 Q 190.7 782.9, 189.9 783.2 L 189.4 782.2 Q 190.9 781.4, 192.4 781.4 Q 194.1 781.4, 194.9 782.2 Q 195.7 782.9, 195.7 784.5 L 195.7 789.8 L 194.6 789.8 Q 194.5 789.7, 194.5 789.5 Q 194.4 789.2, 194.3 788.8 Q 193.2 790.0, 191.7 790.0 Q 190.4 790.0, 189.7 789.3 Q 189.0 788.7, 189.0 787.6 M 190.5 787.6 Q 190.5 788.2, 190.8 788.5 Q 191.2 788.8, 191.9 788.8 Q 192.6 788.8, 193.2 788.5 Q 193.8 788.2, 194.2 787.7 L 194.2 786.0 L 193.1 786.0 Q 191.8 786.0, 191.1 786.4 Q 190.5 786.8, 190.5 787.6 " fill="#000000"/>
<path class="legend" d="M 197.4 788.1 Q 198.1 788.4, 198.7 788.6 Q 199.2 788.7, 199.7 788.7 Q 200.5 788.7, 200.9 788.4 Q 201.3 788.1, 201.3 787.5 Q 201.3 787.1, 201.1 786.9 Q 200.8 786.7, 200.6 786.6 Q 200.3 786.4, 199.6 786.2 Q 199.5 786.2, 198.7 785.9 Q 198.0 785.7, 197.6 785.1 Q 197.2 784.6, 197.2 783.8 Q 197.2 782.8, 198.0 782.1 Q 198.8 781.4, 200.3 781.4 Q 200.9 781.4, 201.4 781.6 Q 202.0 781.7, 202.6 782.0 L 202.2 783.2 Q 201.7 782.9, 201.2 782.8 Q 200.7 782.7, 200.3 782.7 Q 199.5 782.7, 199.1 783.0 Q 198.7 783.3, 198.7 783.8 Q 198.7 784.2, 199.0 784.4 Q 199.3 784.6, 200.0 784.9 Q 200.2 784.9, 200.3 785.0 L 200.7 785.1 Q 201.4 785.4, 201.8 785.6 Q 202.2 785.8, 202.5 786.3 Q 202.8 786.7, 202.8 787.5 Q 202.8 788.7, 201.9 789.3 Q 201.1 790.0, 199.8 790.0 Q 199.0 790.0, 198.3 789.8 Q 197.6 789.6, 197.0 789.3 L 197.4 788.1 " fill="#000000"/>
<path class="legend" d="M 204.1 788.1 Q 204.8 788.4, 205.3 788.6 Q 205.9 788.7, 206.4 788.7 Q 207.1 788.7, 207.5 788.4 Q 207.9 788.1, 207.9 787.5 Q 207.9 787.1, 207.7 786.9 Q 207.5 786.7, 207.2 786.6 Q 207.0 786.4, 206.3 786.2 Q 206.2 786.2, 205.4 785.9 Q 204.7 785.7, 204.3 785.1 Q 203.9 784.6, 203.9 783.8 Q 203.9 782.8, 204.7 782.1 Q 205.4 781.4, 206.9 781.4 Q 207.5 781.4, 208.1 781.6 Q 208.7 781.7, 209.3 782.0 L 208.9 783.2 Q 208.3 782.9, 207.9 782.8 Q 207.4 782.7, 206.9 782.7 Q 206.2 782.7, 205.8 783.0 Q 205.4 783.3, 205.4 783.8 Q 205.4 784.2, 205.7 784.4 Q 206.0 784.6, 206.7 784.9 Q 206.9 784.9, 207.0 785.0 L 207.4 785.1 Q 208.1 785.4, 208.5 785.6 Q 208.9 785.8, 209.2 786.3 Q 209.5 786.7, 209.5 787.5 Q 209.5 788.7, 208.6 789.3 Q 207.8 790.0, 206.4 790.0 Q 205.6 790.0, 205.0 789.8 Q 204.3 789.6, 203.6 789.3 L 204.1 788.1 " fill="#000000"/>
<path class="legend" d="" fill="#000000"/>
<path class="legend" d="M 215.7 780.6 Q 216.1 779.6, 217.1 779.0 Q 218.1 778.4, 219.4 778.4 Q 221.2 778.4, 222.1 779.3 Q 223.1 780.2, 223.1 781.9 Q 223.1 783.5, 221.8 785.1 Q 220.6 786.7, 218.0 788.5 L 223.3 788.5 L 223.3 789.8 L 215.6 789.8 L 215.6 788.7 Q 217.7 787.2, 219.0 786.1 Q 220.3 785.0, 220.9 784.0 Q 221.5 783.0, 221.5 781.9 Q 221.5 780.8, 220.9 780.2 Q 220.4 779.6, 219.4 779.6 Q 218.5 779.6, 217.9 780.0 Q 217.3 780.4, 216.9 781.2 L 215.7 780.6 " fill="#000000"/>
<path class="bond-0 atom-19 atom-0" d="M 667.7,582.8 L 704.4,581.1 L 704.0,588.4 Z" style="fill:#000000;fill-rule:evenodd;fill-opacity:1;stroke:#000000;stroke-width:1.0px;stroke-linecap:butt;stroke-linejoin:miter;stroke-opacity:1;"/>
<path class="bond-1 atom-20 atom-1" d="M 558.4,577.0 L 538.2,607.6 L 532.5,603.0 Z" style="fill:#000000;fill-rule:evenodd;fill-opacity:1;stroke:#000000;stroke-width:1.0px;stroke-linecap:butt;stroke-linejoin:miter;stroke-opacity:1;"/>
<path class="bond-2 atom-2 atom-3" d="M 671.1,519.7 L 634.6,517.7" style="fill:none;fill-rule:evenodd;stroke:#000000;stroke-width:2.0px;stroke-linecap:butt;stroke-linejoin:miter;stroke-opacity:1"/>
<path class="bond-3 atom-2 atom-11" d="M 671.1,519.7 L 687.6,552.2" style="fill:none;fill-rule:evenodd;stroke:#000000;stroke-width:2.0px;stroke-linecap:butt;stroke-linejoin:miter;stroke-opacity:1"/>
<path class="bond-4 atom-3 atom-13" d="M 634.6,517.7 L 614.7,548.3" style="fill:none;fill-rule:evenodd;stroke:#000000;stroke-width:2.0px;stroke-linecap:butt;stroke-linejoin:miter;stroke-opacity:1"/>
<path class="bond-5 atom-4 atom-5" d="M 555.3,518.0 L 521.2,531.0" style="fill:none;fill-rule:evenodd;stroke:#000000;stroke-width:2.0px;stroke-linecap:butt;stroke-linejoin:miter;stroke-opacity:1"/>
<path class="bond-6 atom-4 atom-14" d="M 555.3,518.0 L 578.3,546.4" style="fill:none;fill-rule:evenodd;stroke:#000000;stroke-width:2.0px;stroke-linecap:butt;stroke-linejoin:miter;stroke-opacity:1"/>
<path class="bond-7 atom-5 atom-15" d="M 521.2,531.0 L 523.1,567.5" style="fill:none;fill-rule:evenodd;stroke:#000000;stroke-width:2.0px;stroke-linecap:butt;stroke-linejoin:miter;stroke-opacity:1"/>
<path class="bond-8 atom-6 atom-7" d="M 720.7,617.3 L 684.3,615.3" style="fill:none;fill-rule:evenodd;stroke:#000000;stroke-width:2.0px;stroke-linecap:butt;stroke-linejoin:miter;stroke-opacity:1"/>
<path class="bond-9 atom-6 atom-12" d="M 720.7,617.3 L 740.6,586.7" style="fill:none;fill-rule:evenodd;stroke:#000000;stroke-width:2.0px;stroke-linecap:butt;stroke-linejoin:miter;stroke-opacity:1"/>
<path class="bond-10 atom-7 atom-19" d="M 684.3,615.3 L 667.7,582.8" style="fill:none;fill-rule:evenodd;stroke:#000000;stroke-width:2.0px;stroke-linecap:butt;stroke-linejoin:miter;stroke-opacity:1"/>
<path class="bond-11 atom-8 atom-11" d="M 724.1,554.1 L 687.6,552.2" style="fill:none;fill-rule:evenodd;stroke:#000000;stroke-width:2.0px;stroke-linecap:butt;stroke-linejoin:miter;stroke-opacity:1"/>
<path class="bond-11 atom-8 atom-11" d="M 718.2,561.1 L 692.7,559.8" style="fill:none;fill-rule:evenodd;stroke:#000000;stroke-width:2.0px;stroke-linecap:butt;stroke-linejoin:miter;stroke-opacity:1"/>
<path class="bond-12 atom-8 atom-12" d="M 724.1,554.1 L 740.6,586.7" style="fill:none;fill-rule:evenodd;stroke:#000000;stroke-width:2.0px;stroke-linecap:butt;stroke-linejoin:miter;stroke-opacity:1"/>
<path class="bond-13 atom-9 atom-16" d="M 574.9,609.5 L 611.4,611.5" style="fill:none;fill-rule:evenodd;stroke:#000000;stroke-width:2.0px;stroke-linecap:butt;stroke-linejoin:miter;stroke-opacity:1"/>
<path class="bond-14 atom-9 atom-20" d="M 574.9,609.5 L 558.4,577.0" style="fill:none;fill-rule:evenodd;stroke:#000000;stroke-width:2.0px;stroke-linecap:butt;stroke-linejoin:miter;stroke-opacity:1"/>
<path class="bond-15 atom-10 atom-17" d="M 460.6,577.3 L 494.7,590.4" style="fill:none;fill-rule:evenodd;stroke:#000000;stroke-width:2.0px;stroke-linecap:butt;stroke-linejoin:miter;stroke-opacity:1"/>
<path class="bond-16 atom-10 atom-21" d="M 460.6,577.3 L 438.2,595.5" style="fill:none;fill-rule:evenodd;stroke:#000000;stroke-width:2.0px;stroke-linecap:butt;stroke-linejoin:miter;stroke-opacity:1"/>
<path class="bond-17 atom-11 atom-19" d="M 687.6,552.2 L 667.7,582.8" style="fill:none;fill-rule:evenodd;stroke:#000000;stroke-width:2.0px;stroke-linecap:butt;stroke-linejoin:miter;stroke-opacity:1"/>
<path class="bond-18 atom-12 atom-22" d="M 740.8,583.0 L 771.3,584.7" style="fill:none;fill-rule:evenodd;stroke:#000000;stroke-width:2.0px;stroke-linecap:butt;stroke-linejoin:miter;stroke-opacity:1"/>
<path class="bond-18 atom-12 atom-22" d="M 740.4,590.3 L 770.9,592.0" style="fill:none;fill-rule:evenodd;stroke:#000000;stroke-width:2.0px;stroke-linecap:butt;stroke-linejoin:miter;stroke-opacity:1"/>
<path class="bond-19 atom-13 atom-14" d="M 614.7,548.3 L 578.3,546.4" style="fill:none;fill-rule:evenodd;stroke:#000000;stroke-width:2.0px;stroke-linecap:butt;stroke-linejoin:miter;stroke-opacity:1"/>
<path class="bond-20 atom-13 atom-18" d="M 614.7,548.3 L 631.3,580.9" style="fill:none;fill-rule:evenodd;stroke:#000000;stroke-width:2.0px;stroke-linecap:butt;stroke-linejoin:miter;stroke-opacity:1"/>
<path class="bond-21 atom-14 atom-20" d="M 578.3,546.4 L 558.4,577.0" style="fill:none;fill-rule:evenodd;stroke:#000000;stroke-width:2.0px;stroke-linecap:butt;stroke-linejoin:miter;stroke-opacity:1"/>
<path class="bond-22 atom-15 atom-17" d="M 523.1,567.5 L 497.0,593.3 L 492.4,587.6 Z" style="fill:#000000;fill-rule:evenodd;fill-opacity:1;stroke:#000000;stroke-width:1.0px;stroke-linecap:butt;stroke-linejoin:miter;stroke-opacity:1;"/>
<path class="bond-23 atom-15 atom-20" d="M 523.1,567.5 L 558.4,577.0" style="fill:none;fill-rule:evenodd;stroke:#000000;stroke-width:2.0px;stroke-linecap:butt;stroke-linejoin:miter;stroke-opacity:1"/>
<path class="bond-24 atom-16 atom-18" d="M 611.4,611.5 L 631.3,580.9" style="fill:none;fill-rule:evenodd;stroke:#000000;stroke-width:2.0px;stroke-linecap:butt;stroke-linejoin:miter;stroke-opacity:1"/>
<path class="bond-25 atom-16 atom-23" d="M 611.4,611.5 L 627.3,634.7 L 620.8,638.0 Z" style="fill:#000000;fill-rule:evenodd;fill-opacity:1;stroke:#000000;stroke-width:1.0px;stroke-linecap:butt;stroke-linejoin:miter;stroke-opacity:1;"/>
<path class="bond-26 atom-17 atom-24" d="M 498.3,589.9 L 503.0,619.5" style="fill:none;fill-rule:evenodd;stroke:#000000;stroke-width:2.0px;stroke-linecap:butt;stroke-linejoin:miter;stroke-opacity:1"/>
<path class="bond-26 atom-17 atom-24" d="M 491.1,591.0 L 495.8,620.6" style="fill:none;fill-rule:evenodd;stroke:#000000;stroke-width:2.0px;stroke-linecap:butt;stroke-linejoin:miter;stroke-opacity:1"/>
<path class="bond-27 atom-18 atom-19" d="M 631.3,580.9 L 667.7,582.8" style="fill:none;fill-rule:evenodd;stroke:#000000;stroke-width:2.0px;stroke-linecap:butt;stroke-linejoin:miter;stroke-opacity:1"/>
<path class="bond-28 atom-13 atom-25" d="M 614.7,548.3 L 598.8,525.0 L 605.3,521.7 Z" style="fill:#000000;fill-rule:evenodd;fill-opacity:1;stroke:#000000;stroke-width:1.0px;stroke-linecap:butt;stroke-linejoin:miter;stroke-opacity:1;"/>
<path class="bond-29 atom-14 atom-26" d="M 579.6,551.9 L 581.0,551.4" style="fill:none;fill-rule:evenodd;stroke:#000000;stroke-width:1.0px;stroke-linecap:butt;stroke-linejoin:miter;stroke-opacity:1"/>
<path class="bond-29 atom-14 atom-26" d="M 581.0,557.5 L 583.7,556.5" style="fill:none;fill-rule:evenodd;stroke:#000000;stroke-width:1.0px;stroke-linecap:butt;stroke-linejoin:miter;stroke-opacity:1"/>
<path class="bond-29 atom-14 atom-26" d="M 582.3,563.1 L 586.4,561.5" style="fill:none;fill-rule:evenodd;stroke:#000000;stroke-width:1.0px;stroke-linecap:butt;stroke-linejoin:miter;stroke-opacity:1"/>
<path class="bond-29 atom-14 atom-26" d="M 583.7,568.6 L 589.1,566.5" style="fill:none;fill-rule:evenodd;stroke:#000000;stroke-width:1.0px;stroke-linecap:butt;stroke-linejoin:miter;stroke-opacity:1"/>
<path class="bond-29 atom-14 atom-26" d="M 585.0,574.2 L 591.8,571.6" style="fill:none;fill-rule:evenodd;stroke:#000000;stroke-width:1.0px;stroke-linecap:butt;stroke-linejoin:miter;stroke-opacity:1"/>
<path class="bond-30 atom-18 atom-27" d="M 633.1,586.2 L 634.5,585.5" style="fill:none;fill-rule:evenodd;stroke:#000000;stroke-width:1.0px;stroke-linecap:butt;stroke-linejoin:miter;stroke-opacity:1"/>
<path class="bond-30 atom-18 atom-27" d="M 635.0,591.5 L 637.6,590.2" style="fill:none;fill-rule:evenodd;stroke:#000000;stroke-width:1.0px;stroke-linecap:butt;stroke-linejoin:miter;stroke-opacity:1"/>
<path class="bond-30 atom-18 atom-27" d="M 636.9,596.8 L 640.8,594.8" style="fill:none;fill-rule:evenodd;stroke:#000000;stroke-width:1.0px;stroke-linecap:butt;stroke-linejoin:miter;stroke-opacity:1"/>
<path class="bond-30 atom-18 atom-27" d="M 638.8,602.2 L 644.0,599.5" style="fill:none;fill-rule:evenodd;stroke:#000000;stroke-width:1.0px;stroke-linecap:butt;stroke-linejoin:miter;stroke-opacity:1"/>
<path class="bond-30 atom-18 atom-27" d="M 640.7,607.5 L 647.2,604.2" style="fill:none;fill-rule:evenodd;stroke:#000000;stroke-width:1.0px;stroke-linecap:butt;stroke-linejoin:miter;stroke-opacity:1"/>
<path class="atom-21" d="M 418.2 595.2 L 419.6 595.2 L 419.6 599.6 L 424.9 599.6 L 424.9 595.2 L 426.3 595.2 L 426.3 605.5 L 424.9 605.5 L 424.9 600.7 L 419.6 600.7 L 419.6 605.5 L 418.2 605.5 L 418.2 595.2 " fill="#000000"/>
<path class="atom-21" d="M 427.5 600.3 Q 427.5 597.8, 428.7 596.4 Q 430.0 595.1, 432.3 595.1 Q 434.6 595.1, 435.8 596.4 Q 437.0 597.8, 437.0 600.3 Q 437.0 602.8, 435.8 604.3 Q 434.5 605.7, 432.3 605.7 Q 430.0 605.7, 428.7 604.3 Q 427.5 602.8, 427.5 600.3 M 432.3 604.5 Q 433.8 604.5, 434.7 603.5 Q 435.5 602.4, 435.5 600.3 Q 435.5 598.3, 434.7 597.3 Q 433.8 596.2, 432.3 596.2 Q 430.7 596.2, 429.8 597.2 Q 429.0 598.3, 429.0 600.3 Q 429.0 602.4, 429.8 603.5 Q 430.7 604.5, 432.3 604.5 " fill="#000000"/>
<path class="atom-22" d="M 772.3 588.7 Q 772.3 586.2, 773.6 584.8 Q 774.8 583.4, 777.1 583.4 Q 779.4 583.4, 780.6 584.8 Q 781.8 586.2, 781.8 588.7 Q 781.8 591.2, 780.6 592.6 Q 779.3 594.0, 777.1 594.0 Q 774.8 594.0, 773.6 592.6 Q 772.3 591.2, 772.3 588.7 M 777.1 592.8 Q 778.6 592.8, 779.5 591.8 Q 780.4 590.7, 780.4 588.7 Q 780.4 586.6, 779.5 585.6 Q 778.6 584.6, 777.1 584.6 Q 775.5 584.6, 774.6 585.6 Q 773.8 586.6, 773.8 588.7 Q 773.8 590.7, 774.6 591.8 Q 775.5 592.8, 777.1 592.8 " fill="#000000"/>
<path class="atom-23" d="M 623.2 644.0 Q 623.2 641.5, 624.4 640.2 Q 625.6 638.8, 627.9 638.8 Q 630.2 638.8, 631.4 640.2 Q 632.6 641.5, 632.6 644.0 Q 632.6 646.5, 631.4 648.0 Q 630.2 649.4, 627.9 649.4 Q 625.6 649.4, 624.4 648.0 Q 623.2 646.6, 623.2 644.0 M 627.9 648.2 Q 629.5 648.2, 630.3 647.2 Q 631.2 646.1, 631.2 644.0 Q 631.2 642.0, 630.3 641.0 Q 629.5 639.9, 627.9 639.9 Q 626.3 639.9, 625.5 641.0 Q 624.6 642.0, 624.6 644.0 Q 624.6 646.1, 625.5 647.2 Q 626.3 648.2, 627.9 648.2 " fill="#000000"/>
<path class="atom-23" d="M 633.4 638.9 L 634.8 638.9 L 634.8 643.3 L 640.1 643.3 L 640.1 638.9 L 641.5 638.9 L 641.5 649.2 L 640.1 649.2 L 640.1 644.5 L 634.8 644.5 L 634.8 649.2 L 633.4 649.2 L 633.4 638.9 " fill="#000000"/>
<path class="atom-24" d="M 495.6 626.5 Q 495.6 624.1, 496.9 622.7 Q 498.1 621.3, 500.4 621.3 Q 502.7 621.3, 503.9 622.7 Q 505.1 624.1, 505.1 626.5 Q 505.1 629.0, 503.9 630.5 Q 502.7 631.9, 500.4 631.9 Q 498.1 631.9, 496.9 630.5 Q 495.6 629.1, 495.6 626.5 M 500.4 630.7 Q 502.0 630.7, 502.8 629.7 Q 503.7 628.6, 503.7 626.5 Q 503.7 624.5, 502.8 623.5 Q 502.0 622.4, 500.4 622.4 Q 498.8 622.4, 498.0 623.5 Q 497.1 624.5, 497.1 626.5 Q 497.1 628.6, 498.0 629.7 Q 498.8 630.7, 500.4 630.7 " fill="#000000"/>
<path class="atom-25" d="M 594.1 510.6 L 595.5 510.6 L 595.5 515.0 L 600.8 515.0 L 600.8 510.6 L 602.2 510.6 L 602.2 521.0 L 600.8 521.0 L 600.8 516.2 L 595.5 516.2 L 595.5 521.0 L 594.1 521.0 L 594.1 510.6 " fill="#000000"/>
<path class="atom-26" d="M 587.3 575.3 L 588.7 575.3 L 588.7 579.7 L 594.0 579.7 L 594.0 575.3 L 595.4 575.3 L 595.4 585.6 L 594.0 585.6 L 594.0 580.9 L 588.7 580.9 L 588.7 585.6 L 587.3 585.6 L 587.3 575.3 " fill="#000000"/>
<path class="atom-27" d="M 643.8 608.2 L 645.2 608.2 L 645.2 612.6 L 650.4 612.6 L 650.4 608.2 L 651.9 608.2 L 651.9 618.6 L 650.4 618.6 L 650.4 613.8 L 645.2 613.8 L 645.2 618.6 L 643.8 618.6 L 643.8 608.2 " fill="#000000"/>
<path class="legend" d="M 576.7 784.1 Q 576.7 781.3, 578.1 779.8 Q 579.4 778.4, 581.9 778.4 Q 584.2 778.4, 585.5 780.0 L 584.4 780.9 Q 583.5 779.7, 581.9 779.7 Q 580.2 779.7, 579.3 780.8 Q 578.4 782.0, 578.4 784.1 Q 578.4 786.4, 579.3 787.5 Q 580.2 788.7, 582.1 788.7 Q 583.3 788.7, 584.8 787.9 L 585.2 789.1 Q 584.6 789.5, 583.7 789.7 Q 582.8 790.0, 581.8 790.0 Q 579.4 790.0, 578.1 788.4 Q 576.7 786.9, 576.7 784.1 " fill="#000000"/>
<path class="legend" d="M 586.1 777.7 L 587.6 777.7 L 587.6 789.8 L 586.1 789.8 L 586.1 777.7 " fill="#000000"/>
<path class="legend" d="M 589.0 787.6 Q 589.0 786.3, 590.0 785.6 Q 591.1 784.8, 593.0 784.8 L 594.2 784.8 L 594.2 784.5 Q 594.2 783.5, 593.8 783.1 Q 593.4 782.6, 592.4 782.6 Q 591.7 782.6, 591.2 782.8 Q 590.7 782.9, 589.9 783.2 L 589.4 782.2 Q 590.9 781.4, 592.4 781.4 Q 594.1 781.4, 594.9 782.2 Q 595.7 782.9, 595.7 784.5 L 595.7 789.8 L 594.6 789.8 Q 594.5 789.7, 594.5 789.5 Q 594.5 789.2, 594.4 788.8 Q 593.2 790.0, 591.7 790.0 Q 590.4 790.0, 589.7 789.3 Q 589.0 788.7, 589.0 787.6 M 590.5 787.6 Q 590.5 788.2, 590.9 788.5 Q 591.2 788.8, 592.0 788.8 Q 592.6 788.8, 593.2 788.5 Q 593.8 788.2, 594.2 787.7 L 594.2 786.0 L 593.1 786.0 Q 591.8 786.0, 591.1 786.4 Q 590.5 786.8, 590.5 787.6 " fill="#000000"/>
<path class="legend" d="M 597.4 788.1 Q 598.1 788.4, 598.7 788.6 Q 599.2 788.7, 599.7 788.7 Q 600.5 788.7, 600.9 788.4 Q 601.3 788.1, 601.3 787.5 Q 601.3 787.1, 601.1 786.9 Q 600.9 786.7, 600.6 786.6 Q 600.3 786.4, 599.6 786.2 Q 599.5 786.2, 598.8 785.9 Q 598.0 785.7, 597.6 785.1 Q 597.2 784.6, 597.2 783.8 Q 597.2 782.8, 598.0 782.1 Q 598.8 781.4, 600.3 781.4 Q 600.9 781.4, 601.4 781.6 Q 602.0 781.7, 602.6 782.0 L 602.2 783.2 Q 601.7 782.9, 601.2 782.8 Q 600.8 782.7, 600.3 782.7 Q 599.5 782.7, 599.1 783.0 Q 598.7 783.3, 598.7 783.8 Q 598.7 784.2, 599.0 784.4 Q 599.3 784.6, 600.0 784.9 Q 600.2 784.9, 600.3 785.0 L 600.7 785.1 Q 601.4 785.4, 601.8 785.6 Q 602.2 785.8, 602.5 786.3 Q 602.8 786.7, 602.8 787.5 Q 602.8 788.7, 601.9 789.3 Q 601.1 790.0, 599.8 790.0 Q 599.0 790.0, 598.3 789.8 Q 597.6 789.6, 597.0 789.3 L 597.4 788.1 " fill="#000000"/>
<path class="legend" d="M 604.1 788.1 Q 604.8 788.4, 605.3 788.6 Q 605.9 788.7, 606.4 788.7 Q 607.1 788.7, 607.5 788.4 Q 608.0 788.1, 608.0 787.5 Q 608.0 787.1, 607.7 786.9 Q 607.5 786.7, 607.3 786.6 Q 607.0 786.4, 606.3 786.2 Q 606.2 786.2, 605.4 785.9 Q 604.7 785.7, 604.3 785.1 Q 603.9 784.6, 603.9 783.8 Q 603.9 782.8, 604.7 782.1 Q 605.4 781.4, 606.9 781.4 Q 607.6 781.4, 608.1 781.6 Q 608.7 781.7, 609.3 782.0 L 608.9 783.2 Q 608.3 782.9, 607.9 782.8 Q 607.4 782.7, 606.9 782.7 Q 606.2 782.7, 605.8 783.0 Q 605.4 783.3, 605.4 783.8 Q 605.4 784.2, 605.7 784.4 Q 606.0 784.6, 606.7 784.9 Q 606.9 784.9, 607.0 785.0 L 607.4 785.1 Q 608.1 785.4, 608.5 785.6 Q 608.9 785.8, 609.2 786.3 Q 609.5 786.7, 609.5 787.5 Q 609.5 788.7, 608.6 789.3 Q 607.8 790.0, 606.4 790.0 Q 605.7 790.0, 605.0 789.8 Q 604.3 789.6, 603.6 789.3 L 604.1 788.1 " fill="#000000"/>
<path class="legend" d="" fill="#000000"/>
<path class="legend" d="M 621.1 783.8 Q 622.2 784.2, 622.7 784.9 Q 623.3 785.6, 623.3 786.7 Q 623.3 787.7, 622.8 788.4 Q 622.3 789.2, 621.4 789.6 Q 620.5 790.0, 619.4 790.0 Q 618.2 790.0, 617.3 789.6 Q 616.4 789.1, 615.6 788.3 L 616.6 787.3 Q 617.3 788.1, 617.9 788.4 Q 618.4 788.7, 619.4 788.7 Q 620.4 788.7, 621.0 788.1 Q 621.7 787.6, 621.7 786.7 Q 621.7 785.5, 621.0 785.0 Q 620.4 784.5, 619.0 784.5 L 618.2 784.5 L 618.2 783.3 L 618.9 783.3 Q 620.1 783.3, 620.8 782.8 Q 621.4 782.3, 621.4 781.2 Q 621.4 780.5, 620.9 780.1 Q 620.3 779.6, 619.4 779.6 Q 618.5 779.6, 617.9 780.0 Q 617.3 780.3, 616.8 781.2 L 615.7 780.6 Q 616.1 779.6, 617.1 779.0 Q 618.1 778.4, 619.4 778.4 Q 621.1 778.4, 622.0 779.1 Q 623.0 779.9, 623.0 781.2 Q 623.0 782.2, 622.5 782.8 Q 622.0 783.5, 621.1 783.8 " fill="#000000"/>
</svg>