<svg xmlns="http://www.w3.org/2000/svg" xmlns:rdkit="http://www.rdkit.org/xml" xmlns:xlink="http://www.w3.org/1999/xlink" version="1.1" baseProfile="full" xml:space="preserve" width="750px" height="750px" viewBox="0 0 750 750">
<!-- END OF HEADER -->
<rect style="opacity:1.0;fill:#FFFFFF;stroke:none" width="750.0" height="750.0" x="0.0" y="0.0"> </rect>
<path class="bond-0 atom-0 atom-1" d="M 45.4,125.0 L 188.6,125.0" style="fill:none;fill-rule:evenodd;stroke:#000000;stroke-width:2.0px;stroke-linecap:butt;stroke-linejoin:miter;stroke-opacity:1"/>
<path class="atom-0" d="M 22.9 110.8 L 39.7 110.8 L 39.7 114.1 L 26.7 114.1 L 26.7 122.7 L 38.3 122.7 L 38.3 126.0 L 26.7 126.0 L 26.7 139.2 L 22.9 139.2 L 22.9 110.8 " fill="#000000"/>
<path class="atom-1" d="M 208.0 124.3 Q 210.7 125.0, 212.1 126.7 Q 213.5 128.4, 213.5 130.8 Q 213.5 134.7, 211.0 137.0 Q 208.5 139.2, 203.8 139.2 L 194.3 139.2 L 194.3 110.8 L 202.6 110.8 Q 207.5 110.8, 209.9 112.8 Q 212.3 114.8, 212.3 118.4 Q 212.3 122.6, 208.0 124.3 M 198.1 114.0 L 198.1 122.9 L 202.6 122.9 Q 205.4 122.9, 206.9 121.8 Q 208.3 120.6, 208.3 118.4 Q 208.3 114.0, 202.6 114.0 L 198.1 114.0 M 203.8 136.0 Q 206.5 136.0, 208.0 134.6 Q 209.5 133.3, 209.5 130.8 Q 209.5 128.5, 207.9 127.3 Q 206.3 126.1, 203.2 126.1 L 198.1 126.1 L 198.1 136.0 L 203.8 136.0 " fill="#000000"/>
<path class="atom-1" d="M 218.4 118.6 L 218.8 121.4 Q 221.0 118.2, 224.5 118.2 Q 225.6 118.2, 227.1 118.6 L 226.5 122.0 Q 224.8 121.6, 223.9 121.6 Q 222.2 121.6, 221.1 122.3 Q 220.0 122.9, 219.1 124.5 L 219.1 139.2 L 215.3 139.2 L 215.3 118.6 L 218.4 118.6 " fill="#000000"/>
<path class="bond-0 atom-0 atom-1" d="M 446.1,124.8 L 304.3,124.8" style="fill:none;fill-rule:evenodd;stroke:#000000;stroke-width:2.0px;stroke-linecap:butt;stroke-linejoin:miter;stroke-opacity:1"/>
<path class="atom-0" d="M 460.3 110.6 Q 465.1 110.6, 467.6 112.8 Q 470.0 115.0, 470.0 118.9 Q 470.0 122.9, 467.5 125.1 Q 465.0 127.3, 460.3 127.3 L 455.8 127.3 L 455.8 138.9 L 451.9 138.9 L 451.9 110.6 L 460.3 110.6 M 460.3 124.1 Q 463.0 124.1, 464.5 122.8 Q 466.0 121.5, 466.0 118.9 Q 466.0 116.4, 464.5 115.1 Q 463.1 113.8, 460.3 113.8 L 455.8 113.8 L 455.8 124.1 L 460.3 124.1 " fill="#000000"/>
<path class="atom-1" d="M 272.5 124.9 Q 272.5 118.1, 275.9 114.3 Q 279.2 110.5, 285.5 110.5 Q 291.8 110.5, 295.1 114.3 Q 298.5 118.1, 298.5 124.9 Q 298.5 131.7, 295.1 135.7 Q 291.7 139.5, 285.5 139.5 Q 279.3 139.5, 275.9 135.7 Q 272.5 131.8, 272.5 124.9 M 285.5 136.3 Q 289.8 136.3, 292.1 133.5 Q 294.5 130.5, 294.5 124.9 Q 294.5 119.3, 292.1 116.5 Q 289.8 113.7, 285.5 113.7 Q 281.2 113.7, 278.8 116.5 Q 276.5 119.3, 276.5 124.9 Q 276.5 130.6, 278.8 133.5 Q 281.2 136.3, 285.5 136.3 " fill="#000000"/>
<path class="atom-1" d="M 300.5 115.1 L 310.2 115.1 L 310.2 117.2 L 300.5 117.2 L 300.5 115.1 " fill="#000000"/>
<path class="atom-0" d="M 478.0,128.8 L 478.0,129.0 L 478.0,129.1 L 477.9,129.3 L 477.9,129.5 L 477.8,129.6 L 477.7,129.8 L 477.6,129.9 L 477.5,130.1 L 477.4,130.2 L 477.3,130.3 L 477.2,130.4 L 477.0,130.5 L 476.9,130.6 L 476.7,130.6 L 476.5,130.7 L 476.4,130.7 L 476.2,130.8 L 476.0,130.8 L 475.9,130.8 L 475.7,130.8 L 475.5,130.7 L 475.4,130.7 L 475.2,130.6 L 475.0,130.5 L 474.9,130.5 L 474.8,130.4 L 474.6,130.2 L 474.5,130.1 L 474.4,130.0 L 474.3,129.8 L 474.2,129.7 L 474.1,129.5 L 474.1,129.4 L 474.0,129.2 L 474.0,129.0 L 474.0,128.9 L 474.0,128.7 L 474.0,128.5 L 474.0,128.4 L 474.1,128.2 L 474.1,128.0 L 474.2,127.9 L 474.3,127.7 L 474.4,127.6 L 474.5,127.4 L 474.6,127.3 L 474.8,127.2 L 474.9,127.1 L 475.0,127.0 L 475.2,126.9 L 475.4,126.9 L 475.5,126.8 L 475.7,126.8 L 475.9,126.8 L 476.0,126.8 L 476.2,126.8 L 476.4,126.8 L 476.5,126.9 L 476.7,126.9 L 476.9,127.0 L 477.0,127.1 L 477.2,127.2 L 477.3,127.3 L 477.4,127.4 L 477.5,127.5 L 477.6,127.6 L 477.7,127.8 L 477.8,127.9 L 477.9,128.1 L 477.9,128.3 L 478.0,128.4 L 478.0,128.6 L 478.0,128.8 L 476.0,128.8 Z" style="fill:#000000;fill-rule:evenodd;fill-opacity:1;stroke:#000000;stroke-width:0.0px;stroke-linecap:butt;stroke-linejoin:miter;stroke-opacity:1;"/>
<path class="atom-0" d="M 478.0,120.8 L 478.0,121.0 L 478.0,121.1 L 477.9,121.3 L 477.9,121.5 L 477.8,121.6 L 477.7,121.8 L 477.6,121.9 L 477.5,122.1 L 477.4,122.2 L 477.3,122.3 L 477.2,122.4 L 477.0,122.5 L 476.9,122.6 L 476.7,122.6 L 476.5,122.7 L 476.4,122.7 L 476.2,122.8 L 476.0,122.8 L 475.9,122.8 L 475.7,122.8 L 475.5,122.7 L 475.4,122.7 L 475.2,122.6 L 475.0,122.5 L 474.9,122.5 L 474.8,122.4 L 474.6,122.2 L 474.5,122.1 L 474.4,122.0 L 474.3,121.8 L 474.2,121.7 L 474.1,121.5 L 474.1,121.4 L 474.0,121.2 L 474.0,121.0 L 474.0,120.9 L 474.0,120.7 L 474.0,120.5 L 474.0,120.4 L 474.1,120.2 L 474.1,120.0 L 474.2,119.9 L 474.3,119.7 L 474.4,119.6 L 474.5,119.4 L 474.6,119.3 L 474.8,119.2 L 474.9,119.1 L 475.0,119.0 L 475.2,118.9 L 475.4,118.9 L 475.5,118.8 L 475.7,118.8 L 475.9,118.8 L 476.0,118.8 L 476.2,118.8 L 476.4,118.8 L 476.5,118.9 L 476.7,118.9 L 476.9,119.0 L 477.0,119.1 L 477.2,119.2 L 477.3,119.3 L 477.4,119.4 L 477.5,119.5 L 477.6,119.6 L 477.7,119.8 L 477.8,119.9 L 477.9,120.1 L 477.9,120.3 L 478.0,120.4 L 478.0,120.6 L 478.0,120.8 L 476.0,120.8 Z" style="fill:#000000;fill-rule:evenodd;fill-opacity:1;stroke:#000000;stroke-width:0.0px;stroke-linecap:butt;stroke-linejoin:miter;stroke-opacity:1;"/>
<path class="bond-0 atom-0 atom-1" d="M 542.6,88.2 L 614.6,129.7" style="fill:none;fill-rule:evenodd;stroke:#000000;stroke-width:2.0px;stroke-linecap:butt;stroke-linejoin:miter;stroke-opacity:1"/>
<path class="bond-1 atom-1 atom-2" d="M 643.6,129.7 L 716.2,87.8" style="fill:none;fill-rule:evenodd;stroke:#000000;stroke-width:2.0px;stroke-linecap:butt;stroke-linejoin:miter;stroke-opacity:1"/>
<path class="atom-0" d="M 521.8 90.5 Q 522.1 90.6, 523.4 91.2 Q 524.7 91.7, 526.2 92.1 Q 527.7 92.4, 529.1 92.4 Q 531.8 92.4, 533.3 91.1 Q 534.9 89.8, 534.9 87.5 Q 534.9 86.0, 534.1 85.0 Q 533.3 84.0, 532.1 83.5 Q 530.9 83.0, 528.9 82.4 Q 526.4 81.6, 524.9 80.9 Q 523.4 80.2, 522.3 78.7 Q 521.3 77.2, 521.3 74.6 Q 521.3 71.0, 523.7 68.8 Q 526.1 66.6, 530.9 66.6 Q 534.2 66.6, 537.9 68.2 L 537.0 71.3 Q 533.6 69.9, 531.1 69.9 Q 528.3 69.9, 526.8 71.0 Q 525.3 72.2, 525.3 74.1 Q 525.3 75.6, 526.1 76.6 Q 526.9 77.5, 528.0 78.0 Q 529.1 78.5, 531.1 79.1 Q 533.6 79.9, 535.1 80.7 Q 536.7 81.5, 537.7 83.2 Q 538.9 84.8, 538.9 87.5 Q 538.9 91.4, 536.2 93.6 Q 533.6 95.6, 529.3 95.6 Q 526.7 95.6, 524.8 95.1 Q 522.9 94.6, 520.7 93.6 L 521.8 90.5 " fill="#000000"/>
<path class="atom-1" d="M 622.8 123.9 L 632.1 138.9 Q 633.0 140.4, 634.5 143.1 Q 636.0 145.8, 636.1 145.9 L 636.1 123.9 L 639.8 123.9 L 639.8 152.3 L 635.9 152.3 L 626.0 135.9 Q 624.8 133.9, 623.6 131.7 Q 622.4 129.5, 622.0 128.9 L 622.0 152.3 L 618.3 152.3 L 618.3 123.9 L 622.8 123.9 " fill="#000000"/>
<path class="atom-1" d="M 618.0 155.1 L 621.8 155.1 L 621.8 167.1 L 636.3 167.1 L 636.3 155.1 L 640.2 155.1 L 640.2 183.4 L 636.3 183.4 L 636.3 170.3 L 621.8 170.3 L 621.8 183.4 L 618.0 183.4 L 618.0 155.1 " fill="#000000"/>
<path class="atom-2" d="M 720.0 66.6 L 736.8 66.6 L 736.8 69.8 L 723.8 69.8 L 723.8 78.4 L 735.4 78.4 L 735.4 81.7 L 723.8 81.7 L 723.8 94.9 L 720.0 94.9 L 720.0 66.6 " fill="#000000"/>
<path class="atom-0" d="M 516.7,80.8 L 516.7,80.9 L 516.7,81.1 L 516.6,81.3 L 516.6,81.4 L 516.5,81.6 L 516.4,81.7 L 516.3,81.9 L 516.2,82.0 L 516.1,82.2 L 516.0,82.3 L 515.9,82.4 L 515.7,82.5 L 515.6,82.6 L 515.4,82.6 L 515.2,82.7 L 515.1,82.7 L 514.9,82.7 L 514.7,82.8 L 514.6,82.8 L 514.4,82.7 L 514.2,82.7 L 514.1,82.7 L 513.9,82.6 L 513.7,82.5 L 513.6,82.4 L 513.5,82.3 L 513.3,82.2 L 513.2,82.1 L 513.1,82.0 L 513.0,81.8 L 512.9,81.7 L 512.8,81.5 L 512.8,81.4 L 512.7,81.2 L 512.7,81.0 L 512.7,80.8 L 512.7,80.7 L 512.7,80.5 L 512.7,80.3 L 512.8,80.2 L 512.8,80.0 L 512.9,79.8 L 513.0,79.7 L 513.1,79.6 L 513.2,79.4 L 513.3,79.3 L 513.5,79.2 L 513.6,79.1 L 513.7,79.0 L 513.9,78.9 L 514.1,78.9 L 514.2,78.8 L 514.4,78.8 L 514.6,78.8 L 514.7,78.8 L 514.9,78.8 L 515.1,78.8 L 515.2,78.8 L 515.4,78.9 L 515.6,79.0 L 515.7,79.0 L 515.9,79.1 L 516.0,79.2 L 516.1,79.4 L 516.2,79.5 L 516.3,79.6 L 516.4,79.8 L 516.5,79.9 L 516.6,80.1 L 516.6,80.2 L 516.7,80.4 L 516.7,80.6 L 516.7,80.8 L 514.7,80.8 Z" style="fill:#000000;fill-rule:evenodd;fill-opacity:1;stroke:#000000;stroke-width:0.0px;stroke-linecap:butt;stroke-linejoin:miter;stroke-opacity:1;"/>
<path class="bond-0 atom-0 atom-1" d="M 35.0,392.9 L 65.6,375.2" style="fill:none;fill-rule:evenodd;stroke:#000000;stroke-width:2.0px;stroke-linecap:butt;stroke-linejoin:miter;stroke-opacity:1"/>
<path class="bond-1 atom-1 atom-2" d="M 80.0,375.2 L 116.3,396.2" style="fill:none;fill-rule:evenodd;stroke:#000000;stroke-width:2.0px;stroke-linecap:butt;stroke-linejoin:miter;stroke-opacity:1"/>
<path class="bond-2 atom-2 atom-3" d="M 130.8,396.2 L 166.0,375.8" style="fill:none;fill-rule:evenodd;stroke:#000000;stroke-width:2.0px;stroke-linecap:butt;stroke-linejoin:miter;stroke-opacity:1"/>
<path class="bond-3 atom-3 atom-4" d="M 182.5,375.8 L 217.4,396.0" style="fill:none;fill-rule:evenodd;stroke:#000000;stroke-width:2.0px;stroke-linecap:butt;stroke-linejoin:miter;stroke-opacity:1"/>
<path class="atom-0" d="M 18.4 392.1 L 23.8 400.9 Q 24.4 401.7, 25.2 403.3 Q 26.1 404.9, 26.1 405.0 L 26.1 392.1 L 28.3 392.1 L 28.3 408.7 L 26.1 408.7 L 20.2 399.1 Q 19.6 397.9, 18.8 396.6 Q 18.1 395.3, 17.9 394.9 L 17.9 408.7 L 15.8 408.7 L 15.8 392.1 L 18.4 392.1 " fill="#000000"/>
<path class="atom-0" d="M 30.3 394.8 L 36.0 394.8 L 36.0 396.0 L 30.3 396.0 L 30.3 394.8 " fill="#000000"/>
<path class="atom-1" d="M 72.4 362.8 Q 75.2 362.8, 76.7 364.1 Q 78.1 365.3, 78.1 367.6 Q 78.1 369.9, 76.6 371.3 Q 75.2 372.5, 72.4 372.5 L 69.7 372.5 L 69.7 379.4 L 67.5 379.4 L 67.5 362.8 L 72.4 362.8 M 72.4 370.7 Q 74.0 370.7, 74.9 369.9 Q 75.7 369.1, 75.7 367.6 Q 75.7 366.2, 74.9 365.4 Q 74.0 364.6, 72.4 364.6 L 69.7 364.6 L 69.7 370.7 L 72.4 370.7 " fill="#000000"/>
<path class="atom-1" d="M 66.3 344.5 L 68.5 344.5 L 68.5 351.6 L 77.0 351.6 L 77.0 344.5 L 79.3 344.5 L 79.3 361.1 L 77.0 361.1 L 77.0 353.5 L 68.5 353.5 L 68.5 361.1 L 66.3 361.1 L 66.3 344.5 " fill="#000000"/>
<path class="atom-1" d="M 81.3 347.5 L 84.2 347.5 L 84.2 344.4 L 85.5 344.4 L 85.5 347.5 L 88.5 347.5 L 88.5 348.6 L 85.5 348.6 L 85.5 351.7 L 84.2 351.7 L 84.2 348.6 L 81.3 348.6 L 81.3 347.5 " fill="#000000"/>
<path class="atom-2" d="M 118.8 406.1 Q 119.0 406.1, 119.8 406.5 Q 120.6 406.8, 121.4 407.0 Q 122.3 407.2, 123.1 407.2 Q 124.7 407.2, 125.6 406.4 Q 126.5 405.7, 126.5 404.3 Q 126.5 403.4, 126.1 402.8 Q 125.6 402.3, 124.9 402.0 Q 124.2 401.7, 123.0 401.3 Q 121.6 400.9, 120.7 400.5 Q 119.8 400.0, 119.2 399.1 Q 118.6 398.3, 118.6 396.8 Q 118.6 394.7, 120.0 393.4 Q 121.4 392.1, 124.2 392.1 Q 126.1 392.1, 128.3 393.0 L 127.8 394.8 Q 125.8 394.0, 124.3 394.0 Q 122.7 394.0, 121.8 394.7 Q 120.9 395.3, 120.9 396.5 Q 120.9 397.4, 121.3 397.9 Q 121.8 398.4, 122.5 398.7 Q 123.2 399.1, 124.3 399.4 Q 125.8 399.9, 126.7 400.3 Q 127.6 400.8, 128.2 401.8 Q 128.8 402.7, 128.8 404.3 Q 128.8 406.6, 127.3 407.9 Q 125.8 409.1, 123.2 409.1 Q 121.7 409.1, 120.6 408.8 Q 119.5 408.4, 118.2 407.9 L 118.8 406.1 " fill="#000000"/>
<path class="atom-3" d="M 170.6 362.8 L 176.0 371.6 Q 176.6 372.4, 177.4 374.0 Q 178.3 375.6, 178.4 375.7 L 178.4 362.8 L 180.6 362.8 L 180.6 379.4 L 178.3 379.4 L 172.5 369.8 Q 171.8 368.6, 171.0 367.3 Q 170.3 366.1, 170.1 365.7 L 170.1 379.4 L 168.0 379.4 L 168.0 362.8 L 170.6 362.8 " fill="#000000"/>
<path class="atom-3" d="M 167.8 344.5 L 170.0 344.5 L 170.0 351.6 L 178.5 351.6 L 178.5 344.5 L 180.8 344.5 L 180.8 361.1 L 178.5 361.1 L 178.5 353.5 L 170.0 353.5 L 170.0 361.1 L 167.8 361.1 L 167.8 344.5 " fill="#000000"/>
<path class="atom-3" d="M 182.8 347.5 L 185.7 347.5 L 185.7 344.4 L 187.0 344.4 L 187.0 347.5 L 190.0 347.5 L 190.0 348.6 L 187.0 348.6 L 187.0 351.7 L 185.7 351.7 L 185.7 348.6 L 182.8 348.6 L 182.8 347.5 " fill="#000000"/>
<path class="atom-4" d="M 227.4 399.9 Q 229.0 400.4, 229.8 401.4 Q 230.6 402.3, 230.6 403.8 Q 230.6 406.1, 229.2 407.4 Q 227.7 408.7, 224.9 408.7 L 219.4 408.7 L 219.4 392.1 L 224.3 392.1 Q 227.1 392.1, 228.5 393.2 Q 230.0 394.4, 230.0 396.5 Q 230.0 399.0, 227.4 399.9 M 221.6 393.9 L 221.6 399.1 L 224.3 399.1 Q 225.9 399.1, 226.8 398.5 Q 227.6 397.8, 227.6 396.5 Q 227.6 393.9, 224.3 393.9 L 221.6 393.9 M 224.9 406.8 Q 226.6 406.8, 227.4 406.0 Q 228.3 405.2, 228.3 403.8 Q 228.3 402.4, 227.3 401.7 Q 226.4 401.0, 224.6 401.0 L 221.6 401.0 L 221.6 406.8 L 224.9 406.8 " fill="#000000"/>
<path class="atom-4" d="M 233.5 396.6 L 233.8 398.3 Q 235.0 396.4, 237.1 396.4 Q 237.7 396.4, 238.6 396.6 L 238.3 398.6 Q 237.3 398.4, 236.7 398.4 Q 235.7 398.4, 235.1 398.8 Q 234.4 399.1, 233.9 400.1 L 233.9 408.7 L 231.7 408.7 L 231.7 396.6 L 233.5 396.6 " fill="#000000"/>
<path class="atom-0" d="M 13.4,400.4 L 13.4,400.5 L 13.4,400.6 L 13.4,400.7 L 13.3,400.8 L 13.3,400.9 L 13.3,400.9 L 13.2,401.0 L 13.1,401.1 L 13.1,401.2 L 13.0,401.3 L 12.9,401.3 L 12.8,401.4 L 12.8,401.4 L 12.7,401.5 L 12.6,401.5 L 12.5,401.5 L 12.4,401.5 L 12.3,401.5 L 12.2,401.5 L 12.1,401.5 L 12.0,401.5 L 11.9,401.5 L 11.8,401.4 L 11.7,401.4 L 11.6,401.3 L 11.5,401.3 L 11.4,401.2 L 11.4,401.1 L 11.3,401.1 L 11.2,401.0 L 11.2,400.9 L 11.2,400.8 L 11.1,400.7 L 11.1,400.6 L 11.1,400.5 L 11.1,400.4 L 11.1,400.3 L 11.1,400.2 L 11.1,400.1 L 11.1,400.0 L 11.2,399.9 L 11.2,399.8 L 11.2,399.7 L 11.3,399.7 L 11.4,399.6 L 11.4,399.5 L 11.5,399.4 L 11.6,399.4 L 11.7,399.3 L 11.8,399.3 L 11.9,399.3 L 12.0,399.2 L 12.1,399.2 L 12.2,399.2 L 12.3,399.2 L 12.4,399.2 L 12.5,399.2 L 12.6,399.2 L 12.7,399.3 L 12.8,399.3 L 12.8,399.4 L 12.9,399.4 L 13.0,399.5 L 13.1,399.5 L 13.1,399.6 L 13.2,399.7 L 13.3,399.8 L 13.3,399.9 L 13.3,400.0 L 13.4,400.1 L 13.4,400.2 L 13.4,400.3 L 13.4,400.4 L 12.2,400.4 Z" style="fill:#000000;fill-rule:evenodd;fill-opacity:1;stroke:#000000;stroke-width:0.0px;stroke-linecap:butt;stroke-linejoin:miter;stroke-opacity:1;"/>
<path class="atom-1" d="M 74.0,342.7 L 74.0,342.8 L 73.9,342.9 L 73.9,343.0 L 73.9,343.1 L 73.9,343.2 L 73.8,343.3 L 73.8,343.3 L 73.7,343.4 L 73.6,343.5 L 73.6,343.6 L 73.5,343.6 L 73.4,343.7 L 73.3,343.7 L 73.2,343.8 L 73.1,343.8 L 73.0,343.8 L 72.9,343.8 L 72.8,343.8 L 72.7,343.8 L 72.6,343.8 L 72.5,343.8 L 72.4,343.8 L 72.3,343.8 L 72.2,343.7 L 72.1,343.7 L 72.1,343.6 L 72.0,343.5 L 71.9,343.5 L 71.9,343.4 L 71.8,343.3 L 71.7,343.2 L 71.7,343.1 L 71.7,343.0 L 71.6,342.9 L 71.6,342.8 L 71.6,342.7 L 71.6,342.6 L 71.6,342.5 L 71.6,342.4 L 71.7,342.3 L 71.7,342.2 L 71.7,342.1 L 71.8,342.1 L 71.9,342.0 L 71.9,341.9 L 72.0,341.8 L 72.1,341.8 L 72.1,341.7 L 72.2,341.6 L 72.3,341.6 L 72.4,341.6 L 72.5,341.5 L 72.6,341.5 L 72.7,341.5 L 72.8,341.5 L 72.9,341.5 L 73.0,341.5 L 73.1,341.5 L 73.2,341.6 L 73.3,341.6 L 73.4,341.7 L 73.5,341.7 L 73.6,341.8 L 73.6,341.9 L 73.7,341.9 L 73.8,342.0 L 73.8,342.1 L 73.9,342.2 L 73.9,342.3 L 73.9,342.4 L 73.9,342.5 L 74.0,342.6 L 74.0,342.7 L 72.8,342.7 Z" style="fill:#000000;fill-rule:evenodd;fill-opacity:1;stroke:#000000;stroke-width:0.0px;stroke-linecap:butt;stroke-linejoin:miter;stroke-opacity:1;"/>
<path class="atom-3" d="M 175.4,342.7 L 175.4,342.8 L 175.4,342.9 L 175.4,343.0 L 175.4,343.1 L 175.3,343.2 L 175.3,343.3 L 175.2,343.3 L 175.2,343.4 L 175.1,343.5 L 175.0,343.6 L 175.0,343.6 L 174.9,343.7 L 174.8,343.7 L 174.7,343.8 L 174.6,343.8 L 174.5,343.8 L 174.4,343.8 L 174.3,343.8 L 174.2,343.8 L 174.1,343.8 L 174.0,343.8 L 173.9,343.8 L 173.8,343.8 L 173.7,343.7 L 173.6,343.7 L 173.5,343.6 L 173.5,343.5 L 173.4,343.5 L 173.3,343.4 L 173.3,343.3 L 173.2,343.2 L 173.2,343.1 L 173.1,343.0 L 173.1,342.9 L 173.1,342.8 L 173.1,342.7 L 173.1,342.6 L 173.1,342.5 L 173.1,342.4 L 173.1,342.3 L 173.2,342.2 L 173.2,342.1 L 173.3,342.1 L 173.3,342.0 L 173.4,341.9 L 173.5,341.8 L 173.5,341.8 L 173.6,341.7 L 173.7,341.6 L 173.8,341.6 L 173.9,341.6 L 174.0,341.5 L 174.1,341.5 L 174.2,341.5 L 174.3,341.5 L 174.4,341.5 L 174.5,341.5 L 174.6,341.5 L 174.7,341.6 L 174.8,341.6 L 174.9,341.7 L 175.0,341.7 L 175.0,341.8 L 175.1,341.9 L 175.2,341.9 L 175.2,342.0 L 175.3,342.1 L 175.3,342.2 L 175.4,342.3 L 175.4,342.4 L 175.4,342.5 L 175.4,342.6 L 175.4,342.7 L 174.3,342.7 Z" style="fill:#000000;fill-rule:evenodd;fill-opacity:1;stroke:#000000;stroke-width:0.0px;stroke-linecap:butt;stroke-linejoin:miter;stroke-opacity:1;"/>
<path class="bond-0 atom-0 atom-1" d="M 326.3,375.0 L 453.9,375.0" style="fill:none;fill-rule:evenodd;stroke:#000000;stroke-width:2.0px;stroke-linecap:butt;stroke-linejoin:miter;stroke-opacity:1"/>
<path class="atom-0" d="M 274.1 360.8 L 278.0 360.8 L 278.0 372.9 L 292.4 372.9 L 292.4 360.8 L 296.3 360.8 L 296.3 389.2 L 292.4 389.2 L 292.4 376.1 L 278.0 376.1 L 278.0 389.2 L 274.1 389.2 L 274.1 360.8 " fill="#000000"/>
<path class="atom-0" d="M 304.2 360.8 L 313.4 375.8 Q 314.4 377.3, 315.8 380.0 Q 317.3 382.7, 317.4 382.8 L 317.4 360.8 L 321.2 360.8 L 321.2 389.2 L 317.3 389.2 L 307.3 372.8 Q 306.2 370.8, 304.9 368.6 Q 303.7 366.4, 303.4 365.8 L 303.4 389.2 L 299.7 389.2 L 299.7 360.8 L 304.2 360.8 " fill="#000000"/>
<path class="atom-0" d="M 324.5 365.5 L 334.2 365.5 L 334.2 367.6 L 324.5 367.6 L 324.5 365.5 " fill="#000000"/>
<path class="atom-1" d="M 459.0 360.8 L 475.9 360.8 L 475.9 364.1 L 462.8 364.1 L 462.8 372.7 L 474.4 372.7 L 474.4 376.0 L 462.8 376.0 L 462.8 389.2 L 459.0 389.2 L 459.0 360.8 " fill="#000000"/>
<path class="bond-0 atom-0 atom-1" d="M 556.9,375.0 L 662.1,375.0" style="fill:none;fill-rule:evenodd;stroke:#000000;stroke-width:2.0px;stroke-linecap:butt;stroke-linejoin:miter;stroke-opacity:1"/>
<path class="atom-0" d="M 535.4 360.8 L 544.7 375.8 Q 545.6 377.3, 547.1 380.0 Q 548.5 382.7, 548.6 382.8 L 548.6 360.8 L 552.4 360.8 L 552.4 389.2 L 548.5 389.2 L 538.5 372.8 Q 537.4 370.8, 536.1 368.6 Q 534.9 366.4, 534.6 365.8 L 534.6 389.2 L 530.9 389.2 L 530.9 360.8 L 535.4 360.8 " fill="#000000"/>
<path class="atom-0" d="M 555.7 365.5 L 565.4 365.5 L 565.4 367.6 L 555.7 367.6 L 555.7 365.5 " fill="#000000"/>
<path class="atom-1" d="M 671.0 360.8 L 680.3 375.8 Q 681.2 377.3, 682.7 380.0 Q 684.2 382.7, 684.3 382.8 L 684.3 360.8 L 688.0 360.8 L 688.0 389.2 L 684.1 389.2 L 674.2 372.8 Q 673.0 370.8, 671.8 368.6 Q 670.6 366.4, 670.2 365.8 L 670.2 389.2 L 666.5 389.2 L 666.5 360.8 L 671.0 360.8 " fill="#000000"/>
<path class="atom-1" d="M 691.3 360.8 L 695.2 360.8 L 695.2 372.9 L 709.7 372.9 L 709.7 360.8 L 713.5 360.8 L 713.5 389.2 L 709.7 389.2 L 709.7 376.1 L 695.2 376.1 L 695.2 389.2 L 691.3 389.2 L 691.3 360.8 " fill="#000000"/>
<path class="atom-1" d="M 716.9 365.5 L 726.6 365.5 L 726.6 367.6 L 716.9 367.6 L 716.9 365.5 " fill="#000000"/>
<path class="atom-0" d="M 526.9,375.0 L 526.9,375.2 L 526.9,375.3 L 526.8,375.5 L 526.8,375.7 L 526.7,375.8 L 526.6,376.0 L 526.6,376.1 L 526.4,376.3 L 526.3,376.4 L 526.2,376.5 L 526.1,376.6 L 525.9,376.7 L 525.8,376.8 L 525.6,376.9 L 525.5,376.9 L 525.3,377.0 L 525.1,377.0 L 524.9,377.0 L 524.8,377.0 L 524.6,377.0 L 524.4,376.9 L 524.3,376.9 L 524.1,376.8 L 524.0,376.8 L 523.8,376.7 L 523.7,376.6 L 523.5,376.5 L 523.4,376.3 L 523.3,376.2 L 523.2,376.1 L 523.1,375.9 L 523.1,375.8 L 523.0,375.6 L 522.9,375.4 L 522.9,375.3 L 522.9,375.1 L 522.9,374.9 L 522.9,374.7 L 522.9,374.6 L 523.0,374.4 L 523.1,374.2 L 523.1,374.1 L 523.2,373.9 L 523.3,373.8 L 523.4,373.7 L 523.5,373.5 L 523.7,373.4 L 523.8,373.3 L 524.0,373.2 L 524.1,373.2 L 524.3,373.1 L 524.4,373.1 L 524.6,373.0 L 524.8,373.0 L 524.9,373.0 L 525.1,373.0 L 525.3,373.0 L 525.5,373.1 L 525.6,373.1 L 525.8,373.2 L 525.9,373.3 L 526.1,373.4 L 526.2,373.5 L 526.3,373.6 L 526.4,373.7 L 526.6,373.9 L 526.6,374.0 L 526.7,374.2 L 526.8,374.3 L 526.8,374.5 L 526.9,374.7 L 526.9,374.8 L 526.9,375.0 L 524.9,375.0 Z" style="fill:#000000;fill-rule:evenodd;fill-opacity:1;stroke:#000000;stroke-width:0.0px;stroke-linecap:butt;stroke-linejoin:miter;stroke-opacity:1;"/>
<path class="bond-0 atom-0 atom-1" d="M 24.6,625.0 L 225.4,625.0" style="fill:none;fill-rule:evenodd;stroke:#000000;stroke-width:2.0px;stroke-linecap:butt;stroke-linejoin:miter;stroke-opacity:1"/>
<path class="atom-0" d="M 13.6 610.8 L 17.4 610.8 L 17.4 639.2 L 13.6 639.2 L 13.6 610.8 " fill="#000000"/>
<path class="atom-1" d="M 232.6 610.8 L 236.4 610.8 L 236.4 639.2 L 232.6 639.2 L 232.6 610.8 " fill="#000000"/>
<path class="atom-0" d="M 345.8 610.8 L 349.6 610.8 L 349.6 622.9 L 364.1 622.9 L 364.1 610.8 L 367.9 610.8 L 367.9 639.2 L 364.1 639.2 L 364.1 626.1 L 349.6 626.1 L 349.6 639.2 L 345.8 639.2 L 345.8 610.8 " fill="#000000"/>
<path class="atom-0" d="M 385.1 624.3 Q 387.8 625.0, 389.2 626.7 Q 390.6 628.4, 390.6 630.8 Q 390.6 634.7, 388.1 637.0 Q 385.6 639.2, 380.9 639.2 L 371.3 639.2 L 371.3 610.8 L 379.7 610.8 Q 384.5 610.8, 387.0 612.8 Q 389.4 614.8, 389.4 618.4 Q 389.4 622.6, 385.1 624.3 M 375.1 614.0 L 375.1 622.9 L 379.7 622.9 Q 382.5 622.9, 383.9 621.8 Q 385.4 620.6, 385.4 618.4 Q 385.4 614.0, 379.7 614.0 L 375.1 614.0 M 380.9 636.0 Q 383.6 636.0, 385.1 634.6 Q 386.6 633.3, 386.6 630.8 Q 386.6 628.5, 384.9 627.3 Q 383.3 626.1, 380.3 626.1 L 375.1 626.1 L 375.1 636.0 L 380.9 636.0 " fill="#000000"/>
<path class="atom-0" d="M 395.5 618.6 L 395.9 621.4 Q 398.1 618.2, 401.6 618.2 Q 402.7 618.2, 404.2 618.6 L 403.6 622.0 Q 401.9 621.6, 400.9 621.6 Q 399.3 621.6, 398.1 622.3 Q 397.1 622.9, 396.2 624.5 L 396.2 639.2 L 392.4 639.2 L 392.4 618.6 L 395.5 618.6 " fill="#000000"/>
<path class="bond-0 atom-0 atom-1" d="M 562.1,625.0 L 687.9,625.0" style="fill:none;fill-rule:evenodd;stroke:#000000;stroke-width:2.0px;stroke-linecap:butt;stroke-linejoin:miter;stroke-opacity:1"/>
<path class="atom-0" d="M 538.0 624.3 Q 540.7 625.0, 542.1 626.7 Q 543.5 628.4, 543.5 630.8 Q 543.5 634.7, 541.0 637.0 Q 538.5 639.2, 533.8 639.2 L 524.2 639.2 L 524.2 610.8 L 532.6 610.8 Q 537.4 610.8, 539.9 612.8 Q 542.3 614.8, 542.3 618.4 Q 542.3 622.6, 538.0 624.3 M 528.0 614.0 L 528.0 622.9 L 532.6 622.9 Q 535.4 622.9, 536.8 621.8 Q 538.3 620.6, 538.3 618.4 Q 538.3 614.0, 532.6 614.0 L 528.0 614.0 M 533.8 636.0 Q 536.5 636.0, 538.0 634.6 Q 539.5 633.3, 539.5 630.8 Q 539.5 628.5, 537.8 627.3 Q 536.2 626.1, 533.2 626.1 L 528.0 626.1 L 528.0 636.0 L 533.8 636.0 " fill="#000000"/>
<path class="atom-0" d="M 548.4 618.6 L 548.8 621.4 Q 551.0 618.2, 554.5 618.2 Q 555.6 618.2, 557.1 618.6 L 556.5 622.0 Q 554.8 621.6, 553.8 621.6 Q 552.2 621.6, 551.0 622.3 Q 550.0 622.9, 549.1 624.5 L 549.1 639.2 L 545.3 639.2 L 545.3 618.6 L 548.4 618.6 " fill="#000000"/>
<path class="atom-1" d="M 706.6 624.3 Q 709.4 625.0, 710.7 626.7 Q 712.1 628.4, 712.1 630.8 Q 712.1 634.7, 709.6 637.0 Q 707.1 639.2, 702.4 639.2 L 692.9 639.2 L 692.9 610.8 L 701.2 610.8 Q 706.1 610.8, 708.5 612.8 Q 711.0 614.8, 711.0 618.4 Q 711.0 622.6, 706.6 624.3 M 696.7 614.0 L 696.7 622.9 L 701.2 622.9 Q 704.0 622.9, 705.5 621.8 Q 707.0 620.6, 707.0 618.4 Q 707.0 614.0, 701.2 614.0 L 696.7 614.0 M 702.4 636.0 Q 705.2 636.0, 706.6 634.6 Q 708.1 633.3, 708.1 630.8 Q 708.1 628.5, 706.5 627.3 Q 704.9 626.1, 701.8 626.1 L 696.7 626.1 L 696.7 636.0 L 702.4 636.0 " fill="#000000"/>
<path class="atom-1" d="M 717.0 618.6 L 717.4 621.4 Q 719.6 618.2, 723.1 618.2 Q 724.2 618.2, 725.8 618.6 L 725.2 622.0 Q 723.4 621.6, 722.5 621.6 Q 720.8 621.6, 719.7 622.3 Q 718.6 622.9, 717.7 624.5 L 717.7 639.2 L 714.0 639.2 L 714.0 618.6 L 717.0 618.6 " fill="#000000"/>
</svg>