<svg xmlns="http://www.w3.org/2000/svg" xmlns:rdkit="http://www.rdkit.org/xml" xmlns:xlink="http://www.w3.org/1999/xlink" version="1.1" baseProfile="full" xml:space="preserve" width="750px" height="750px" viewBox="0 0 750 750">
<!-- END OF HEADER -->
<rect style="opacity:1.0;fill:#FFFFFF;stroke:none" width="750.0" height="750.0" x="0.0" y="0.0"> </rect>
<path class="bond-0 atom-0 atom-1" d="M 210.5,68.8 L 234.0,71.8" style="fill:none;fill-rule:evenodd;stroke:#000000;stroke-width:2.0px;stroke-linecap:butt;stroke-linejoin:miter;stroke-opacity:1"/>
<path class="bond-1 atom-0 atom-2" d="M 203.0,73.1 L 190.0,90.3" style="fill:none;fill-rule:evenodd;stroke:#000000;stroke-width:2.0px;stroke-linecap:butt;stroke-linejoin:miter;stroke-opacity:1"/>
<path class="bond-1 atom-0 atom-2" d="M 205.4,79.1 L 196.3,91.0" style="fill:none;fill-rule:evenodd;stroke:#000000;stroke-width:2.0px;stroke-linecap:butt;stroke-linejoin:miter;stroke-opacity:1"/>
<path class="bond-2 atom-2 atom-3" d="M 190.0,90.3 L 200.6,115.7" style="fill:none;fill-rule:evenodd;stroke:#000000;stroke-width:2.0px;stroke-linecap:butt;stroke-linejoin:miter;stroke-opacity:1"/>
<path class="bond-3 atom-3 atom-4" d="M 200.6,115.7 L 228.0,119.2" style="fill:none;fill-rule:evenodd;stroke:#000000;stroke-width:2.0px;stroke-linecap:butt;stroke-linejoin:miter;stroke-opacity:1"/>
<path class="bond-3 atom-3 atom-4" d="M 204.0,121.7 L 223.2,124.1" style="fill:none;fill-rule:evenodd;stroke:#000000;stroke-width:2.0px;stroke-linecap:butt;stroke-linejoin:miter;stroke-opacity:1"/>
<path class="bond-4 atom-4 atom-5" d="M 228.0,119.2 L 238.6,144.6" style="fill:none;fill-rule:evenodd;stroke:#000000;stroke-width:2.0px;stroke-linecap:butt;stroke-linejoin:miter;stroke-opacity:1"/>
<path class="bond-5 atom-5 atom-6" d="M 238.6,144.6 L 222.0,166.5" style="fill:none;fill-rule:evenodd;stroke:#000000;stroke-width:2.0px;stroke-linecap:butt;stroke-linejoin:miter;stroke-opacity:1"/>
<path class="bond-5 atom-5 atom-6" d="M 231.7,144.5 L 220.1,159.9" style="fill:none;fill-rule:evenodd;stroke:#000000;stroke-width:2.0px;stroke-linecap:butt;stroke-linejoin:miter;stroke-opacity:1"/>
<path class="bond-6 atom-6 atom-7" d="M 222.0,166.5 L 194.6,163.1" style="fill:none;fill-rule:evenodd;stroke:#000000;stroke-width:2.0px;stroke-linecap:butt;stroke-linejoin:miter;stroke-opacity:1"/>
<path class="bond-7 atom-7 atom-8" d="M 194.6,163.1 L 183.9,137.6" style="fill:none;fill-rule:evenodd;stroke:#000000;stroke-width:2.0px;stroke-linecap:butt;stroke-linejoin:miter;stroke-opacity:1"/>
<path class="bond-7 atom-7 atom-8" d="M 198.1,157.1 L 190.6,139.3" style="fill:none;fill-rule:evenodd;stroke:#000000;stroke-width:2.0px;stroke-linecap:butt;stroke-linejoin:miter;stroke-opacity:1"/>
<path class="bond-8 atom-8 atom-9" d="M 183.9,137.6 L 160.5,134.7" style="fill:none;fill-rule:evenodd;stroke:#000000;stroke-width:2.0px;stroke-linecap:butt;stroke-linejoin:miter;stroke-opacity:1"/>
<path class="bond-9 atom-9 atom-10" d="M 152.9,139.0 L 139.9,156.1" style="fill:none;fill-rule:evenodd;stroke:#000000;stroke-width:2.0px;stroke-linecap:butt;stroke-linejoin:miter;stroke-opacity:1"/>
<path class="bond-10 atom-10 atom-11" d="M 142.5,155.1 L 151.1,175.6" style="fill:none;fill-rule:evenodd;stroke:#000000;stroke-width:2.0px;stroke-linecap:butt;stroke-linejoin:miter;stroke-opacity:1"/>
<path class="bond-10 atom-10 atom-11" d="M 137.4,157.2 L 146.0,177.7" style="fill:none;fill-rule:evenodd;stroke:#000000;stroke-width:2.0px;stroke-linecap:butt;stroke-linejoin:miter;stroke-opacity:1"/>
<path class="bond-11 atom-10 atom-12" d="M 139.9,156.1 L 112.6,152.7" style="fill:none;fill-rule:evenodd;stroke:#000000;stroke-width:2.0px;stroke-linecap:butt;stroke-linejoin:miter;stroke-opacity:1"/>
<path class="bond-12 atom-12 atom-13" d="M 112.6,152.7 L 91.7,170.7" style="fill:none;fill-rule:evenodd;stroke:#000000;stroke-width:2.0px;stroke-linecap:butt;stroke-linejoin:miter;stroke-opacity:1"/>
<path class="bond-12 atom-12 atom-13" d="M 105.8,151.2 L 91.2,163.8" style="fill:none;fill-rule:evenodd;stroke:#000000;stroke-width:2.0px;stroke-linecap:butt;stroke-linejoin:miter;stroke-opacity:1"/>
<path class="bond-13 atom-13 atom-14" d="M 91.7,170.7 L 68.1,156.4" style="fill:none;fill-rule:evenodd;stroke:#000000;stroke-width:2.0px;stroke-linecap:butt;stroke-linejoin:miter;stroke-opacity:1"/>
<path class="bond-14 atom-14 atom-15" d="M 68.1,156.4 L 74.4,129.5" style="fill:none;fill-rule:evenodd;stroke:#000000;stroke-width:2.0px;stroke-linecap:butt;stroke-linejoin:miter;stroke-opacity:1"/>
<path class="bond-14 atom-14 atom-15" d="M 74.4,153.6 L 78.9,134.8" style="fill:none;fill-rule:evenodd;stroke:#000000;stroke-width:2.0px;stroke-linecap:butt;stroke-linejoin:miter;stroke-opacity:1"/>
<path class="bond-15 atom-15 atom-16" d="M 74.4,129.5 L 60.3,113.1" style="fill:none;fill-rule:evenodd;stroke:#000000;stroke-width:2.0px;stroke-linecap:butt;stroke-linejoin:miter;stroke-opacity:1"/>
<path class="bond-16 atom-16 atom-17" d="M 52.6,109.4 L 29.4,113.8" style="fill:none;fill-rule:evenodd;stroke:#000000;stroke-width:2.0px;stroke-linecap:butt;stroke-linejoin:miter;stroke-opacity:1"/>
<path class="bond-17 atom-17 atom-18" d="M 29.4,113.8 L 11.4,92.9" style="fill:none;fill-rule:evenodd;stroke:#000000;stroke-width:2.0px;stroke-linecap:butt;stroke-linejoin:miter;stroke-opacity:1"/>
<path class="bond-18 atom-15 atom-19" d="M 74.4,129.5 L 101.9,127.2" style="fill:none;fill-rule:evenodd;stroke:#000000;stroke-width:2.0px;stroke-linecap:butt;stroke-linejoin:miter;stroke-opacity:1"/>
<path class="bond-19 atom-19 atom-20" d="M 101.9,127.2 L 114.9,110.1" style="fill:none;fill-rule:evenodd;stroke:#000000;stroke-width:2.0px;stroke-linecap:butt;stroke-linejoin:miter;stroke-opacity:1"/>
<path class="bond-20 atom-20 atom-21" d="M 116.6,100.5 L 107.9,79.9" style="fill:none;fill-rule:evenodd;stroke:#000000;stroke-width:2.0px;stroke-linecap:butt;stroke-linejoin:miter;stroke-opacity:1"/>
<path class="bond-21 atom-20 atom-22" d="M 122.5,105.8 L 145.9,108.8" style="fill:none;fill-rule:evenodd;stroke:#000000;stroke-width:2.0px;stroke-linecap:butt;stroke-linejoin:miter;stroke-opacity:1"/>
<path class="bond-22 atom-8 atom-3" d="M 183.9,137.6 L 200.6,115.7" style="fill:none;fill-rule:evenodd;stroke:#000000;stroke-width:2.0px;stroke-linecap:butt;stroke-linejoin:miter;stroke-opacity:1"/>
<path class="bond-23 atom-22 atom-9" d="M 145.9,108.8 L 154.6,129.4" style="fill:none;fill-rule:evenodd;stroke:#000000;stroke-width:2.0px;stroke-linecap:butt;stroke-linejoin:miter;stroke-opacity:1"/>
<path class="bond-24 atom-19 atom-12" d="M 101.9,127.2 L 112.6,152.7" style="fill:none;fill-rule:evenodd;stroke:#000000;stroke-width:2.0px;stroke-linecap:butt;stroke-linejoin:miter;stroke-opacity:1"/>
<path class="atom-0" d="M 204.9 64.4 L 207.5 68.6 Q 207.7 69.0, 208.1 69.7 Q 208.5 70.5, 208.6 70.5 L 208.6 64.4 L 209.6 64.4 L 209.6 72.2 L 208.5 72.2 L 205.8 67.7 Q 205.5 67.2, 205.1 66.6 Q 204.8 66.0, 204.7 65.8 L 204.7 72.2 L 203.7 72.2 L 203.7 64.4 L 204.9 64.4 " fill="#000000"/>
<path class="atom-0" d="M 210.5 65.8 L 211.9 65.8 L 211.9 64.4 L 212.5 64.4 L 212.5 65.8 L 213.9 65.8 L 213.9 66.4 L 212.5 66.4 L 212.5 67.8 L 211.9 67.8 L 211.9 66.4 L 210.5 66.4 L 210.5 65.8 " fill="#000000"/>
<path class="atom-9" d="M 154.9 130.3 L 157.4 134.4 Q 157.7 134.8, 158.1 135.6 Q 158.5 136.3, 158.5 136.3 L 158.5 130.3 L 159.6 130.3 L 159.6 138.1 L 158.5 138.1 L 155.7 133.6 Q 155.4 133.0, 155.1 132.4 Q 154.8 131.8, 154.7 131.6 L 154.7 138.1 L 153.6 138.1 L 153.6 130.3 L 154.9 130.3 " fill="#000000"/>
<path class="atom-11" d="M 147.0 181.6 Q 147.0 179.7, 147.9 178.6 Q 148.9 177.6, 150.6 177.6 Q 152.3 177.6, 153.2 178.6 Q 154.2 179.7, 154.2 181.6 Q 154.2 183.5, 153.2 184.5 Q 152.3 185.6, 150.6 185.6 Q 148.9 185.6, 147.9 184.5 Q 147.0 183.5, 147.0 181.6 M 150.6 184.7 Q 151.8 184.7, 152.4 183.9 Q 153.1 183.1, 153.1 181.6 Q 153.1 180.0, 152.4 179.3 Q 151.8 178.5, 150.6 178.5 Q 149.4 178.5, 148.8 179.2 Q 148.1 180.0, 148.1 181.6 Q 148.1 183.1, 148.8 183.9 Q 149.4 184.7, 150.6 184.7 " fill="#000000"/>
<path class="atom-16" d="M 54.7 104.7 L 57.3 108.9 Q 57.5 109.3, 57.9 110.0 Q 58.3 110.8, 58.4 110.8 L 58.4 104.7 L 59.4 104.7 L 59.4 112.6 L 58.3 112.6 L 55.6 108.0 Q 55.3 107.5, 54.9 106.9 Q 54.6 106.3, 54.5 106.1 L 54.5 112.6 L 53.5 112.6 L 53.5 104.7 L 54.7 104.7 " fill="#000000"/>
<path class="atom-16" d="M 53.4 96.2 L 54.4 96.2 L 54.4 99.5 L 58.4 99.5 L 58.4 96.2 L 59.5 96.2 L 59.5 104.0 L 58.4 104.0 L 58.4 100.4 L 54.4 100.4 L 54.4 104.0 L 53.4 104.0 L 53.4 96.2 " fill="#000000"/>
<path class="atom-20" d="M 116.9 101.4 L 119.4 105.5 Q 119.7 105.9, 120.1 106.7 Q 120.5 107.4, 120.5 107.5 L 120.5 101.4 L 121.5 101.4 L 121.5 109.2 L 120.5 109.2 L 117.7 104.7 Q 117.4 104.1, 117.1 103.5 Q 116.7 102.9, 116.6 102.7 L 116.6 109.2 L 115.6 109.2 L 115.6 101.4 L 116.9 101.4 " fill="#000000"/>
<path class="atom-20" d="M 122.5 102.8 L 123.8 102.8 L 123.8 101.3 L 124.5 101.3 L 124.5 102.8 L 125.9 102.8 L 125.9 103.3 L 124.5 103.3 L 124.5 104.8 L 123.8 104.8 L 123.8 103.3 L 122.5 103.3 L 122.5 102.8 " fill="#000000"/>
<path class="atom-0" d="M 202.6,68.3 L 202.6,68.4 L 202.6,68.4 L 202.6,68.5 L 202.5,68.5 L 202.5,68.6 L 202.5,68.6 L 202.5,68.6 L 202.4,68.7 L 202.4,68.7 L 202.4,68.8 L 202.3,68.8 L 202.3,68.8 L 202.3,68.8 L 202.2,68.9 L 202.2,68.9 L 202.1,68.9 L 202.1,68.9 L 202.0,68.9 L 202.0,68.9 L 201.9,68.9 L 201.9,68.9 L 201.8,68.9 L 201.8,68.8 L 201.8,68.8 L 201.7,68.8 L 201.7,68.8 L 201.6,68.7 L 201.6,68.7 L 201.6,68.7 L 201.6,68.6 L 201.5,68.6 L 201.5,68.5 L 201.5,68.5 L 201.5,68.5 L 201.5,68.4 L 201.5,68.4 L 201.5,68.3 L 201.5,68.3 L 201.5,68.2 L 201.5,68.2 L 201.5,68.1 L 201.5,68.1 L 201.6,68.0 L 201.6,68.0 L 201.6,68.0 L 201.6,67.9 L 201.7,67.9 L 201.7,67.9 L 201.8,67.9 L 201.8,67.8 L 201.8,67.8 L 201.9,67.8 L 201.9,67.8 L 202.0,67.8 L 202.0,67.8 L 202.1,67.8 L 202.1,67.8 L 202.2,67.8 L 202.2,67.8 L 202.3,67.8 L 202.3,67.9 L 202.3,67.9 L 202.4,67.9 L 202.4,68.0 L 202.4,68.0 L 202.5,68.0 L 202.5,68.1 L 202.5,68.1 L 202.5,68.2 L 202.6,68.2 L 202.6,68.2 L 202.6,68.3 L 202.6,68.3 L 202.0,68.3 Z" style="fill:#000000;fill-rule:evenodd;fill-opacity:1;stroke:#000000;stroke-width:0.0px;stroke-linecap:butt;stroke-linejoin:miter;stroke-opacity:1;"/>
<path class="atom-20" d="M 119.1,100.5 L 119.1,100.6 L 119.1,100.6 L 119.1,100.7 L 119.1,100.7 L 119.1,100.7 L 119.1,100.8 L 119.0,100.8 L 119.0,100.9 L 119.0,100.9 L 118.9,100.9 L 118.9,101.0 L 118.9,101.0 L 118.8,101.0 L 118.8,101.0 L 118.7,101.0 L 118.7,101.1 L 118.6,101.1 L 118.6,101.1 L 118.6,101.1 L 118.5,101.1 L 118.5,101.1 L 118.4,101.0 L 118.4,101.0 L 118.3,101.0 L 118.3,101.0 L 118.2,101.0 L 118.2,100.9 L 118.2,100.9 L 118.1,100.9 L 118.1,100.8 L 118.1,100.8 L 118.1,100.7 L 118.1,100.7 L 118.0,100.6 L 118.0,100.6 L 118.0,100.5 L 118.0,100.5 L 118.0,100.4 L 118.0,100.4 L 118.1,100.4 L 118.1,100.3 L 118.1,100.3 L 118.1,100.2 L 118.1,100.2 L 118.2,100.2 L 118.2,100.1 L 118.2,100.1 L 118.3,100.1 L 118.3,100.0 L 118.4,100.0 L 118.4,100.0 L 118.5,100.0 L 118.5,100.0 L 118.6,100.0 L 118.6,100.0 L 118.6,100.0 L 118.7,100.0 L 118.7,100.0 L 118.8,100.0 L 118.8,100.0 L 118.9,100.0 L 118.9,100.1 L 118.9,100.1 L 119.0,100.1 L 119.0,100.2 L 119.0,100.2 L 119.1,100.2 L 119.1,100.3 L 119.1,100.3 L 119.1,100.4 L 119.1,100.4 L 119.1,100.5 L 119.1,100.5 L 118.6,100.5 Z" style="fill:#000000;fill-rule:evenodd;fill-opacity:1;stroke:#000000;stroke-width:0.0px;stroke-linecap:butt;stroke-linejoin:miter;stroke-opacity:1;"/>
<path class="bond-0 atom-0 atom-1" d="M 320.0,106.4 L 308.9,122.8" style="fill:none;fill-rule:evenodd;stroke:#000000;stroke-width:2.0px;stroke-linecap:butt;stroke-linejoin:miter;stroke-opacity:1"/>
<path class="bond-1 atom-1 atom-2" d="M 300.1,128.9 L 270.8,129.9" style="fill:none;fill-rule:evenodd;stroke:#000000;stroke-width:2.0px;stroke-linecap:butt;stroke-linejoin:miter;stroke-opacity:1"/>
<path class="bond-2 atom-2 atom-3" d="M 270.8,129.9 L 261.4,162.7" style="fill:none;fill-rule:evenodd;stroke:#000000;stroke-width:2.0px;stroke-linecap:butt;stroke-linejoin:miter;stroke-opacity:1"/>
<path class="bond-2 atom-2 atom-3" d="M 275.9,136.7 L 269.3,159.7" style="fill:none;fill-rule:evenodd;stroke:#000000;stroke-width:2.0px;stroke-linecap:butt;stroke-linejoin:miter;stroke-opacity:1"/>
<path class="bond-3 atom-3 atom-4" d="M 261.4,162.7 L 284.9,178.6" style="fill:none;fill-rule:evenodd;stroke:#000000;stroke-width:2.0px;stroke-linecap:butt;stroke-linejoin:miter;stroke-opacity:1"/>
<path class="bond-4 atom-4 atom-5" d="M 294.4,178.1 L 316.6,160.8" style="fill:none;fill-rule:evenodd;stroke:#000000;stroke-width:2.0px;stroke-linecap:butt;stroke-linejoin:miter;stroke-opacity:1"/>
<path class="bond-4 atom-4 atom-5" d="M 293.6,170.1 L 309.0,158.1" style="fill:none;fill-rule:evenodd;stroke:#000000;stroke-width:2.0px;stroke-linecap:butt;stroke-linejoin:miter;stroke-opacity:1"/>
<path class="bond-5 atom-5 atom-6" d="M 316.6,160.8 L 344.6,168.9" style="fill:none;fill-rule:evenodd;stroke:#000000;stroke-width:2.0px;stroke-linecap:butt;stroke-linejoin:miter;stroke-opacity:1"/>
<path class="bond-6 atom-6 atom-7" d="M 354.1,165.6 L 373.9,146.6" style="fill:none;fill-rule:evenodd;stroke:#000000;stroke-width:2.0px;stroke-linecap:butt;stroke-linejoin:miter;stroke-opacity:1"/>
<path class="bond-7 atom-7 atom-8" d="M 370.6,147.4 L 363.9,120.4" style="fill:none;fill-rule:evenodd;stroke:#000000;stroke-width:2.0px;stroke-linecap:butt;stroke-linejoin:miter;stroke-opacity:1"/>
<path class="bond-7 atom-7 atom-8" d="M 377.2,145.7 L 370.5,118.8" style="fill:none;fill-rule:evenodd;stroke:#000000;stroke-width:2.0px;stroke-linecap:butt;stroke-linejoin:miter;stroke-opacity:1"/>
<path class="bond-8 atom-7 atom-9" d="M 373.9,146.6 L 406.7,156.0" style="fill:none;fill-rule:evenodd;stroke:#000000;stroke-width:2.0px;stroke-linecap:butt;stroke-linejoin:miter;stroke-opacity:1"/>
<path class="bond-9 atom-9 atom-10" d="M 406.7,156.0 L 415.0,189.1" style="fill:none;fill-rule:evenodd;stroke:#000000;stroke-width:2.0px;stroke-linecap:butt;stroke-linejoin:miter;stroke-opacity:1"/>
<path class="bond-9 atom-9 atom-10" d="M 414.6,159.3 L 420.3,182.5" style="fill:none;fill-rule:evenodd;stroke:#000000;stroke-width:2.0px;stroke-linecap:butt;stroke-linejoin:miter;stroke-opacity:1"/>
<path class="bond-10 atom-10 atom-11" d="M 415.0,189.1 L 447.8,198.5" style="fill:none;fill-rule:evenodd;stroke:#000000;stroke-width:2.0px;stroke-linecap:butt;stroke-linejoin:miter;stroke-opacity:1"/>
<path class="bond-11 atom-11 atom-12" d="M 447.8,198.5 L 472.3,174.8" style="fill:none;fill-rule:evenodd;stroke:#000000;stroke-width:2.0px;stroke-linecap:butt;stroke-linejoin:miter;stroke-opacity:1"/>
<path class="bond-11 atom-11 atom-12" d="M 446.7,190.1 L 463.9,173.5" style="fill:none;fill-rule:evenodd;stroke:#000000;stroke-width:2.0px;stroke-linecap:butt;stroke-linejoin:miter;stroke-opacity:1"/>
<path class="bond-12 atom-12 atom-13" d="M 472.3,174.8 L 464.1,141.7" style="fill:none;fill-rule:evenodd;stroke:#000000;stroke-width:2.0px;stroke-linecap:butt;stroke-linejoin:miter;stroke-opacity:1"/>
<path class="bond-13 atom-13 atom-14" d="M 464.1,141.7 L 488.6,118.0" style="fill:none;fill-rule:evenodd;stroke:#000000;stroke-width:2.0px;stroke-linecap:butt;stroke-linejoin:miter;stroke-opacity:1"/>
<path class="bond-14 atom-13 atom-15" d="M 464.1,141.7 L 431.3,132.3" style="fill:none;fill-rule:evenodd;stroke:#000000;stroke-width:2.0px;stroke-linecap:butt;stroke-linejoin:miter;stroke-opacity:1"/>
<path class="bond-14 atom-13 atom-15" d="M 457.3,146.9 L 434.3,140.3" style="fill:none;fill-rule:evenodd;stroke:#000000;stroke-width:2.0px;stroke-linecap:butt;stroke-linejoin:miter;stroke-opacity:1"/>
<path class="bond-15 atom-15 atom-16" d="M 431.3,132.3 L 423.0,99.2" style="fill:none;fill-rule:evenodd;stroke:#000000;stroke-width:2.0px;stroke-linecap:butt;stroke-linejoin:miter;stroke-opacity:1"/>
<path class="bond-16 atom-16 atom-17" d="M 423.0,99.2 L 390.2,89.8" style="fill:none;fill-rule:evenodd;stroke:#000000;stroke-width:2.0px;stroke-linecap:butt;stroke-linejoin:miter;stroke-opacity:1"/>
<path class="bond-17 atom-17 atom-18" d="M 390.2,89.8 L 383.6,63.1" style="fill:none;fill-rule:evenodd;stroke:#000000;stroke-width:2.0px;stroke-linecap:butt;stroke-linejoin:miter;stroke-opacity:1"/>
<path class="bond-18 atom-5 atom-1" d="M 316.6,160.8 L 307.1,134.7" style="fill:none;fill-rule:evenodd;stroke:#000000;stroke-width:2.0px;stroke-linecap:butt;stroke-linejoin:miter;stroke-opacity:1"/>
<path class="bond-19 atom-15 atom-9" d="M 431.3,132.3 L 406.7,156.0" style="fill:none;fill-rule:evenodd;stroke:#000000;stroke-width:2.0px;stroke-linecap:butt;stroke-linejoin:miter;stroke-opacity:1"/>
<path class="atom-0" d="M 321.9 95.7 L 325.0 100.8 Q 325.3 101.3, 325.8 102.2 Q 326.3 103.1, 326.4 103.2 L 326.4 95.7 L 327.7 95.7 L 327.7 105.3 L 326.3 105.3 L 322.9 99.7 Q 322.5 99.1, 322.1 98.3 Q 321.7 97.6, 321.6 97.3 L 321.6 105.3 L 320.3 105.3 L 320.3 95.7 L 321.9 95.7 " fill="#000000"/>
<path class="atom-0" d="M 328.8 97.4 L 330.5 97.4 L 330.5 95.6 L 331.3 95.6 L 331.3 97.4 L 333.0 97.4 L 333.0 98.0 L 331.3 98.0 L 331.3 99.8 L 330.5 99.8 L 330.5 98.0 L 328.8 98.0 L 328.8 97.4 " fill="#000000"/>
<path class="atom-1" d="M 302.8 123.9 L 305.9 129.1 Q 306.2 129.6, 306.7 130.5 Q 307.2 131.4, 307.3 131.4 L 307.3 123.9 L 308.6 123.9 L 308.6 133.6 L 307.2 133.6 L 303.8 128.0 Q 303.4 127.3, 303.0 126.6 Q 302.6 125.8, 302.5 125.6 L 302.5 133.6 L 301.2 133.6 L 301.2 123.9 L 302.8 123.9 " fill="#000000"/>
<path class="atom-4" d="M 287.5 177.0 L 290.7 182.1 Q 291.0 182.6, 291.5 183.5 Q 292.0 184.5, 292.0 184.5 L 292.0 177.0 L 293.3 177.0 L 293.3 186.7 L 292.0 186.7 L 288.6 181.1 Q 288.2 180.4, 287.8 179.7 Q 287.4 178.9, 287.2 178.7 L 287.2 186.7 L 286.0 186.7 L 286.0 177.0 L 287.5 177.0 " fill="#000000"/>
<path class="atom-6" d="M 347.2 165.4 L 350.4 170.6 Q 350.7 171.1, 351.2 172.0 Q 351.7 172.9, 351.7 172.9 L 351.7 165.4 L 353.0 165.4 L 353.0 175.1 L 351.7 175.1 L 348.3 169.5 Q 347.9 168.8, 347.5 168.1 Q 347.1 167.3, 346.9 167.1 L 346.9 175.1 L 345.7 175.1 L 345.7 165.4 L 347.2 165.4 " fill="#000000"/>
<path class="atom-6" d="M 345.6 176.1 L 346.9 176.1 L 346.9 180.2 L 351.8 180.2 L 351.8 176.1 L 353.1 176.1 L 353.1 185.7 L 351.8 185.7 L 351.8 181.3 L 346.9 181.3 L 346.9 185.7 L 345.6 185.7 L 345.6 176.1 " fill="#000000"/>
<path class="atom-8" d="M 361.2 113.5 Q 361.2 111.2, 362.4 109.9 Q 363.5 108.6, 365.7 108.6 Q 367.8 108.6, 369.0 109.9 Q 370.1 111.2, 370.1 113.5 Q 370.1 115.8, 368.9 117.2 Q 367.8 118.5, 365.7 118.5 Q 363.5 118.5, 362.4 117.2 Q 361.2 115.8, 361.2 113.5 M 365.7 117.4 Q 367.1 117.4, 367.9 116.4 Q 368.7 115.4, 368.7 113.5 Q 368.7 111.6, 367.9 110.6 Q 367.1 109.7, 365.7 109.7 Q 364.2 109.7, 363.4 110.6 Q 362.6 111.6, 362.6 113.5 Q 362.6 115.4, 363.4 116.4 Q 364.2 117.4, 365.7 117.4 " fill="#000000"/>
<path class="atom-18" d="M 378.3 57.0 Q 378.3 54.6, 379.4 53.3 Q 380.5 52.0, 382.7 52.0 Q 384.7 52.0, 385.7 53.5 L 384.8 54.2 Q 384.0 53.2, 382.7 53.2 Q 381.2 53.2, 380.4 54.2 Q 379.7 55.1, 379.7 57.0 Q 379.7 58.9, 380.5 59.9 Q 381.3 60.9, 382.8 60.9 Q 383.9 60.9, 385.1 60.2 L 385.5 61.2 Q 385.0 61.6, 384.2 61.8 Q 383.5 61.9, 382.6 61.9 Q 380.5 61.9, 379.4 60.7 Q 378.3 59.4, 378.3 57.0 " fill="#000000"/>
<path class="atom-18" d="M 386.3 51.5 L 387.5 51.5 L 387.5 61.8 L 386.3 61.8 L 386.3 51.5 " fill="#000000"/>
<path class="atom-0" d="M 335.7,97.1 L 335.7,97.1 L 335.7,97.2 L 335.7,97.2 L 335.7,97.3 L 335.7,97.4 L 335.6,97.4 L 335.6,97.5 L 335.6,97.5 L 335.5,97.5 L 335.5,97.6 L 335.4,97.6 L 335.4,97.7 L 335.3,97.7 L 335.3,97.7 L 335.2,97.7 L 335.2,97.7 L 335.1,97.8 L 335.1,97.8 L 335.0,97.8 L 334.9,97.7 L 334.9,97.7 L 334.8,97.7 L 334.8,97.7 L 334.7,97.7 L 334.7,97.6 L 334.6,97.6 L 334.6,97.6 L 334.5,97.5 L 334.5,97.5 L 334.5,97.4 L 334.4,97.4 L 334.4,97.3 L 334.4,97.3 L 334.4,97.2 L 334.4,97.2 L 334.4,97.1 L 334.4,97.0 L 334.4,97.0 L 334.4,96.9 L 334.4,96.9 L 334.4,96.8 L 334.4,96.8 L 334.5,96.7 L 334.5,96.7 L 334.5,96.6 L 334.6,96.6 L 334.6,96.5 L 334.7,96.5 L 334.7,96.5 L 334.8,96.4 L 334.8,96.4 L 334.9,96.4 L 334.9,96.4 L 335.0,96.4 L 335.1,96.4 L 335.1,96.4 L 335.2,96.4 L 335.2,96.4 L 335.3,96.4 L 335.3,96.5 L 335.4,96.5 L 335.4,96.5 L 335.5,96.6 L 335.5,96.6 L 335.6,96.6 L 335.6,96.7 L 335.6,96.7 L 335.7,96.8 L 335.7,96.8 L 335.7,96.9 L 335.7,97.0 L 335.7,97.0 L 335.7,97.1 L 335.0,97.1 Z" style="fill:#000000;fill-rule:evenodd;fill-opacity:1;stroke:#000000;stroke-width:0.0px;stroke-linecap:butt;stroke-linejoin:miter;stroke-opacity:1;"/>
<path class="atom-0" d="M 335.7,103.9 L 335.7,104.0 L 335.7,104.0 L 335.7,104.1 L 335.7,104.1 L 335.7,104.2 L 335.6,104.2 L 335.6,104.3 L 335.6,104.3 L 335.5,104.4 L 335.5,104.4 L 335.4,104.5 L 335.4,104.5 L 335.3,104.5 L 335.3,104.5 L 335.2,104.6 L 335.2,104.6 L 335.1,104.6 L 335.1,104.6 L 335.0,104.6 L 334.9,104.6 L 334.9,104.6 L 334.8,104.5 L 334.8,104.5 L 334.7,104.5 L 334.7,104.5 L 334.6,104.4 L 334.6,104.4 L 334.5,104.4 L 334.5,104.3 L 334.5,104.3 L 334.4,104.2 L 334.4,104.2 L 334.4,104.1 L 334.4,104.0 L 334.4,104.0 L 334.4,103.9 L 334.4,103.9 L 334.4,103.8 L 334.4,103.8 L 334.4,103.7 L 334.4,103.6 L 334.4,103.6 L 334.5,103.5 L 334.5,103.5 L 334.5,103.4 L 334.6,103.4 L 334.6,103.4 L 334.7,103.3 L 334.7,103.3 L 334.8,103.3 L 334.8,103.3 L 334.9,103.2 L 334.9,103.2 L 335.0,103.2 L 335.1,103.2 L 335.1,103.2 L 335.2,103.2 L 335.2,103.2 L 335.3,103.3 L 335.3,103.3 L 335.4,103.3 L 335.4,103.3 L 335.5,103.4 L 335.5,103.4 L 335.6,103.5 L 335.6,103.5 L 335.6,103.6 L 335.7,103.6 L 335.7,103.7 L 335.7,103.7 L 335.7,103.8 L 335.7,103.8 L 335.7,103.9 L 335.0,103.9 Z" style="fill:#000000;fill-rule:evenodd;fill-opacity:1;stroke:#000000;stroke-width:0.0px;stroke-linecap:butt;stroke-linejoin:miter;stroke-opacity:1;"/>
<path class="atom-0" d="M 335.7,100.5 L 335.7,100.5 L 335.7,100.6 L 335.7,100.7 L 335.7,100.7 L 335.7,100.8 L 335.6,100.8 L 335.6,100.9 L 335.6,100.9 L 335.5,101.0 L 335.5,101.0 L 335.4,101.0 L 335.4,101.1 L 335.3,101.1 L 335.3,101.1 L 335.2,101.1 L 335.2,101.2 L 335.1,101.2 L 335.1,101.2 L 335.0,101.2 L 334.9,101.2 L 334.9,101.1 L 334.8,101.1 L 334.8,101.1 L 334.7,101.1 L 334.7,101.1 L 334.6,101.0 L 334.6,101.0 L 334.5,100.9 L 334.5,100.9 L 334.5,100.8 L 334.4,100.8 L 334.4,100.7 L 334.4,100.7 L 334.4,100.6 L 334.4,100.6 L 334.4,100.5 L 334.4,100.5 L 334.4,100.4 L 334.4,100.3 L 334.4,100.3 L 334.4,100.2 L 334.4,100.2 L 334.5,100.1 L 334.5,100.1 L 334.5,100.0 L 334.6,100.0 L 334.6,99.9 L 334.7,99.9 L 334.7,99.9 L 334.8,99.9 L 334.8,99.8 L 334.9,99.8 L 334.9,99.8 L 335.0,99.8 L 335.1,99.8 L 335.1,99.8 L 335.2,99.8 L 335.2,99.8 L 335.3,99.8 L 335.3,99.9 L 335.4,99.9 L 335.4,99.9 L 335.5,100.0 L 335.5,100.0 L 335.6,100.1 L 335.6,100.1 L 335.6,100.1 L 335.7,100.2 L 335.7,100.3 L 335.7,100.3 L 335.7,100.4 L 335.7,100.4 L 335.7,100.5 L 335.0,100.5 Z" style="fill:#000000;fill-rule:evenodd;fill-opacity:1;stroke:#000000;stroke-width:0.0px;stroke-linecap:butt;stroke-linejoin:miter;stroke-opacity:1;"/>
<path class="bond-0 atom-0 atom-1" d="M 685.7,152.5 L 603.0,104.7" style="fill:none;fill-rule:evenodd;stroke:#000000;stroke-width:2.0px;stroke-linecap:butt;stroke-linejoin:miter;stroke-opacity:1"/>
<path class="bond-0 atom-0 atom-1" d="M 696.7,133.4 L 614.0,85.6" style="fill:none;fill-rule:evenodd;stroke:#000000;stroke-width:2.0px;stroke-linecap:butt;stroke-linejoin:miter;stroke-opacity:1"/>
<path class="bond-1 atom-1 atom-2" d="M 608.5,95.1 L 513.0,150.2" style="fill:none;fill-rule:evenodd;stroke:#000000;stroke-width:2.0px;stroke-linecap:butt;stroke-linejoin:miter;stroke-opacity:1"/>
<path class="atom-0" d="M 703.2 136.1 Q 708.0 136.1, 710.5 138.3 Q 712.9 140.4, 712.9 144.4 Q 712.9 148.3, 710.4 150.6 Q 707.9 152.8, 703.2 152.8 L 698.7 152.8 L 698.7 164.4 L 694.8 164.4 L 694.8 136.1 L 703.2 136.1 M 703.2 149.6 Q 706.0 149.6, 707.4 148.2 Q 708.9 146.9, 708.9 144.4 Q 708.9 141.9, 707.4 140.6 Q 706.0 139.3, 703.2 139.3 L 698.7 139.3 L 698.7 149.6 L 703.2 149.6 " fill="#000000"/>
<path class="atom-0" d="M 714.8 136.1 L 718.6 136.1 L 718.6 148.1 L 733.1 148.1 L 733.1 136.1 L 737.0 136.1 L 737.0 164.4 L 733.1 164.4 L 733.1 151.3 L 718.6 151.3 L 718.6 164.4 L 714.8 164.4 L 714.8 136.1 " fill="#000000"/>
<path class="bond-0 atom-0 atom-1" d="M 32.5,383.9 L 19.4,392.1" style="fill:none;fill-rule:evenodd;stroke:#000000;stroke-width:2.0px;stroke-linecap:butt;stroke-linejoin:miter;stroke-opacity:1"/>
<path class="bond-0 atom-0 atom-1" d="M 30.0,379.9 L 16.9,388.1" style="fill:none;fill-rule:evenodd;stroke:#000000;stroke-width:2.0px;stroke-linecap:butt;stroke-linejoin:miter;stroke-opacity:1"/>
<path class="bond-1 atom-0 atom-2" d="M 37.0,381.6 L 54.7,391.0" style="fill:none;fill-rule:evenodd;stroke:#000000;stroke-width:2.0px;stroke-linecap:butt;stroke-linejoin:miter;stroke-opacity:1"/>
<path class="bond-2 atom-2 atom-3" d="M 54.7,391.0 L 74.4,378.6" style="fill:none;fill-rule:evenodd;stroke:#000000;stroke-width:2.0px;stroke-linecap:butt;stroke-linejoin:miter;stroke-opacity:1"/>
<path class="bond-2 atom-2 atom-3" d="M 55.2,385.2 L 69.0,376.5" style="fill:none;fill-rule:evenodd;stroke:#000000;stroke-width:2.0px;stroke-linecap:butt;stroke-linejoin:miter;stroke-opacity:1"/>
<path class="bond-3 atom-3 atom-4" d="M 74.4,378.6 L 95.0,389.4" style="fill:none;fill-rule:evenodd;stroke:#000000;stroke-width:2.0px;stroke-linecap:butt;stroke-linejoin:miter;stroke-opacity:1"/>
<path class="bond-4 atom-4 atom-5" d="M 95.0,389.4 L 114.7,377.0" style="fill:none;fill-rule:evenodd;stroke:#000000;stroke-width:2.0px;stroke-linecap:butt;stroke-linejoin:miter;stroke-opacity:1"/>
<path class="bond-4 atom-4 atom-5" d="M 95.5,383.6 L 109.3,374.9" style="fill:none;fill-rule:evenodd;stroke:#000000;stroke-width:2.0px;stroke-linecap:butt;stroke-linejoin:miter;stroke-opacity:1"/>
<path class="bond-5 atom-5 atom-6" d="M 114.7,377.0 L 114.0,358.1" style="fill:none;fill-rule:evenodd;stroke:#000000;stroke-width:2.0px;stroke-linecap:butt;stroke-linejoin:miter;stroke-opacity:1"/>
<path class="bond-6 atom-5 atom-7" d="M 114.7,377.0 L 135.3,387.9" style="fill:none;fill-rule:evenodd;stroke:#000000;stroke-width:2.0px;stroke-linecap:butt;stroke-linejoin:miter;stroke-opacity:1"/>
<path class="bond-7 atom-7 atom-8" d="M 135.3,387.9 L 151.7,377.5" style="fill:none;fill-rule:evenodd;stroke:#000000;stroke-width:2.0px;stroke-linecap:butt;stroke-linejoin:miter;stroke-opacity:1"/>
<path class="bond-8 atom-8 atom-9" d="M 158.3,377.2 L 175.6,386.3" style="fill:none;fill-rule:evenodd;stroke:#000000;stroke-width:2.0px;stroke-linecap:butt;stroke-linejoin:miter;stroke-opacity:1"/>
<path class="bond-9 atom-9 atom-10" d="M 175.6,386.3 L 192.0,376.0" style="fill:none;fill-rule:evenodd;stroke:#000000;stroke-width:2.0px;stroke-linecap:butt;stroke-linejoin:miter;stroke-opacity:1"/>
<path class="bond-9 atom-9 atom-10" d="M 175.6,380.8 L 187.1,373.6" style="fill:none;fill-rule:evenodd;stroke:#000000;stroke-width:2.0px;stroke-linecap:butt;stroke-linejoin:miter;stroke-opacity:1"/>
<path class="bond-10 atom-10 atom-11" d="M 198.5,375.7 L 215.9,384.8" style="fill:none;fill-rule:evenodd;stroke:#000000;stroke-width:2.0px;stroke-linecap:butt;stroke-linejoin:miter;stroke-opacity:1"/>
<path class="bond-11 atom-11 atom-12" d="M 215.9,384.8 L 236.5,395.7" style="fill:none;fill-rule:evenodd;stroke:#000000;stroke-width:2.0px;stroke-linecap:butt;stroke-linejoin:miter;stroke-opacity:1"/>
<path class="bond-11 atom-11 atom-12" d="M 221.1,382.3 L 238.6,391.5" style="fill:none;fill-rule:evenodd;stroke:#000000;stroke-width:2.0px;stroke-linecap:butt;stroke-linejoin:miter;stroke-opacity:1"/>
<path class="bond-11 atom-11 atom-12" d="M 216.8,390.6 L 234.3,399.8" style="fill:none;fill-rule:evenodd;stroke:#000000;stroke-width:2.0px;stroke-linecap:butt;stroke-linejoin:miter;stroke-opacity:1"/>
<path class="atom-0" d="M 32.2 382.4 Q 32.3 382.4, 32.6 382.5 Q 32.9 382.6, 33.3 382.7 Q 33.6 382.8, 33.9 382.8 Q 34.6 382.8, 34.9 382.5 Q 35.3 382.2, 35.3 381.7 Q 35.3 381.3, 35.1 381.1 Q 34.9 380.9, 34.6 380.7 Q 34.4 380.6, 33.9 380.5 Q 33.3 380.3, 33.0 380.1 Q 32.6 380.0, 32.4 379.6 Q 32.1 379.3, 32.1 378.7 Q 32.1 377.8, 32.7 377.3 Q 33.2 376.8, 34.4 376.8 Q 35.1 376.8, 36.0 377.2 L 35.8 377.9 Q 35.0 377.6, 34.4 377.6 Q 33.8 377.6, 33.4 377.8 Q 33.0 378.1, 33.1 378.5 Q 33.1 378.9, 33.2 379.1 Q 33.4 379.3, 33.7 379.4 Q 33.9 379.6, 34.4 379.7 Q 35.0 379.9, 35.3 380.1 Q 35.7 380.3, 35.9 380.6 Q 36.2 381.0, 36.2 381.7 Q 36.2 382.6, 35.6 383.1 Q 35.0 383.6, 34.0 383.6 Q 33.4 383.6, 32.9 383.4 Q 32.5 383.3, 32.0 383.1 L 32.2 382.4 " fill="#000000"/>
<path class="atom-0" d="M 31.5 369.4 L 32.4 369.4 L 32.4 372.2 L 35.8 372.2 L 35.8 369.4 L 36.7 369.4 L 36.7 376.0 L 35.8 376.0 L 35.8 372.9 L 32.4 372.9 L 32.4 376.0 L 31.5 376.0 L 31.5 369.4 " fill="#000000"/>
<path class="atom-1" d="M 11.4 392.5 Q 11.4 390.9, 12.1 390.0 Q 12.9 389.2, 14.4 389.2 Q 15.9 389.2, 16.6 390.0 Q 17.4 390.9, 17.4 392.5 Q 17.4 394.1, 16.6 395.0 Q 15.8 395.9, 14.4 395.9 Q 12.9 395.9, 12.1 395.0 Q 11.4 394.1, 11.4 392.5 M 14.4 395.2 Q 15.4 395.2, 15.9 394.5 Q 16.5 393.8, 16.5 392.5 Q 16.5 391.2, 15.9 390.6 Q 15.4 389.9, 14.4 389.9 Q 13.4 389.9, 12.8 390.6 Q 12.3 391.2, 12.3 392.5 Q 12.3 393.8, 12.8 394.5 Q 13.4 395.2, 14.4 395.2 " fill="#000000"/>
<path class="atom-6" d="M 111.3 354.0 Q 111.3 352.3, 112.0 351.5 Q 112.8 350.6, 114.3 350.6 Q 115.6 350.6, 116.3 351.6 L 115.7 352.1 Q 115.2 351.4, 114.3 351.4 Q 113.3 351.4, 112.7 352.0 Q 112.2 352.7, 112.2 354.0 Q 112.2 355.3, 112.7 356.0 Q 113.3 356.6, 114.4 356.6 Q 115.1 356.6, 115.9 356.2 L 116.2 356.9 Q 115.8 357.1, 115.3 357.2 Q 114.8 357.4, 114.2 357.4 Q 112.8 357.4, 112.0 356.5 Q 111.3 355.6, 111.3 354.0 " fill="#000000"/>
<path class="atom-6" d="M 116.7 350.2 L 117.6 350.2 L 117.6 357.3 L 116.7 357.3 L 116.7 350.2 " fill="#000000"/>
<path class="atom-8" d="M 153.5 372.2 L 155.7 375.7 Q 155.9 376.0, 156.2 376.6 Q 156.6 377.3, 156.6 377.3 L 156.6 372.2 L 157.5 372.2 L 157.5 378.8 L 156.6 378.8 L 154.3 375.0 Q 154.0 374.5, 153.7 374.0 Q 153.4 373.5, 153.3 373.3 L 153.3 378.8 L 152.5 378.8 L 152.5 372.2 L 153.5 372.2 " fill="#000000"/>
<path class="atom-8" d="M 152.4 364.9 L 153.3 364.9 L 153.3 367.7 L 156.7 367.7 L 156.7 364.9 L 157.6 364.9 L 157.6 371.5 L 156.7 371.5 L 156.7 368.5 L 153.3 368.5 L 153.3 371.5 L 152.4 371.5 L 152.4 364.9 " fill="#000000"/>
<path class="atom-10" d="M 193.8 370.6 L 196.0 374.1 Q 196.2 374.5, 196.5 375.1 Q 196.9 375.7, 196.9 375.8 L 196.9 370.6 L 197.8 370.6 L 197.8 377.2 L 196.9 377.2 L 194.6 373.4 Q 194.3 373.0, 194.0 372.5 Q 193.7 371.9, 193.6 371.8 L 193.6 377.2 L 192.8 377.2 L 192.8 370.6 L 193.8 370.6 " fill="#000000"/>
<path class="bond-0 atom-0 atom-1" d="M 267.9,354.9 L 449.4,354.9" style="fill:none;fill-rule:evenodd;stroke:#000000;stroke-width:2.0px;stroke-linecap:butt;stroke-linejoin:miter;stroke-opacity:1"/>
<path class="bond-0 atom-0 atom-1" d="M 267.9,395.1 L 449.4,395.1" style="fill:none;fill-rule:evenodd;stroke:#000000;stroke-width:2.0px;stroke-linecap:butt;stroke-linejoin:miter;stroke-opacity:1"/>
<path class="atom-1" d="M 456.1 375.1 Q 456.1 368.3, 459.4 364.5 Q 462.8 360.7, 469.1 360.7 Q 475.3 360.7, 478.7 364.5 Q 482.1 368.3, 482.1 375.1 Q 482.1 382.0, 478.7 385.9 Q 475.3 389.8, 469.1 389.8 Q 462.8 389.8, 459.4 385.9 Q 456.1 382.0, 456.1 375.1 M 469.1 386.6 Q 473.4 386.6, 475.7 383.7 Q 478.1 380.8, 478.1 375.1 Q 478.1 369.5, 475.7 366.7 Q 473.4 363.9, 469.1 363.9 Q 464.7 363.9, 462.4 366.7 Q 460.1 369.5, 460.1 375.1 Q 460.1 380.8, 462.4 383.7 Q 464.7 386.6, 469.1 386.6 " fill="#000000"/>
<path class="bond-0 atom-0 atom-1" d="M 650.5,391.9 L 711.8,365.8" style="fill:none;fill-rule:evenodd;stroke:#000000;stroke-width:2.0px;stroke-linecap:butt;stroke-linejoin:miter;stroke-opacity:1"/>
<path class="bond-0 atom-0 atom-1" d="M 656.8,406.8 L 718.1,380.7" style="fill:none;fill-rule:evenodd;stroke:#000000;stroke-width:2.0px;stroke-linecap:butt;stroke-linejoin:miter;stroke-opacity:1"/>
<path class="bond-1 atom-0 atom-2" d="M 653.7,399.3 L 589.0,350.7" style="fill:none;fill-rule:evenodd;stroke:#000000;stroke-width:2.0px;stroke-linecap:butt;stroke-linejoin:miter;stroke-opacity:1"/>
<path class="bond-2 atom-2 atom-3" d="M 592.2,358.1 L 517.7,389.8" style="fill:none;fill-rule:evenodd;stroke:#000000;stroke-width:2.0px;stroke-linecap:butt;stroke-linejoin:miter;stroke-opacity:1"/>
<path class="bond-2 atom-2 atom-3" d="M 585.8,343.2 L 511.4,374.9" style="fill:none;fill-rule:evenodd;stroke:#000000;stroke-width:2.0px;stroke-linecap:butt;stroke-linejoin:miter;stroke-opacity:1"/>
<path class="atom-1" d="M 717.6 367.7 Q 717.6 362.2, 720.3 359.1 Q 723.0 356.0, 728.1 356.0 Q 733.2 356.0, 735.9 359.1 Q 738.6 362.2, 738.6 367.7 Q 738.6 373.3, 735.9 376.4 Q 733.1 379.6, 728.1 379.6 Q 723.1 379.6, 720.3 376.4 Q 717.6 373.3, 717.6 367.7 M 728.1 377.0 Q 731.6 377.0, 733.5 374.7 Q 735.4 372.3, 735.4 367.7 Q 735.4 363.2, 733.5 360.9 Q 731.6 358.6, 728.1 358.6 Q 724.6 358.6, 722.7 360.9 Q 720.8 363.2, 720.8 367.7 Q 720.8 372.3, 722.7 374.7 Q 724.6 377.0, 728.1 377.0 " fill="#000000"/>
<path class="bond-0 atom-0 atom-1" d="M 110.9,656.8 L 151.6,643.5" style="fill:none;fill-rule:evenodd;stroke:#000000;stroke-width:2.0px;stroke-linecap:butt;stroke-linejoin:miter;stroke-opacity:1"/>
<path class="bond-1 atom-1 atom-2" d="M 151.6,643.5 L 195.1,668.7" style="fill:none;fill-rule:evenodd;stroke:#000000;stroke-width:2.0px;stroke-linecap:butt;stroke-linejoin:miter;stroke-opacity:1"/>
<path class="bond-2 atom-2 atom-3" d="M 195.1,668.7 L 238.6,643.5" style="fill:none;fill-rule:evenodd;stroke:#000000;stroke-width:2.0px;stroke-linecap:butt;stroke-linejoin:miter;stroke-opacity:1"/>
<path class="bond-3 atom-3 atom-4" d="M 238.6,643.5 L 238.6,593.3" style="fill:none;fill-rule:evenodd;stroke:#000000;stroke-width:2.0px;stroke-linecap:butt;stroke-linejoin:miter;stroke-opacity:1"/>
<path class="bond-4 atom-4 atom-5" d="M 238.6,593.3 L 195.1,568.2" style="fill:none;fill-rule:evenodd;stroke:#000000;stroke-width:2.0px;stroke-linecap:butt;stroke-linejoin:miter;stroke-opacity:1"/>
<path class="bond-5 atom-5 atom-6" d="M 195.1,568.2 L 151.6,593.3" style="fill:none;fill-rule:evenodd;stroke:#000000;stroke-width:2.0px;stroke-linecap:butt;stroke-linejoin:miter;stroke-opacity:1"/>
<path class="bond-6 atom-6 atom-7" d="M 151.6,593.3 L 103.8,577.8" style="fill:none;fill-rule:evenodd;stroke:#000000;stroke-width:2.0px;stroke-linecap:butt;stroke-linejoin:miter;stroke-opacity:1"/>
<path class="bond-7 atom-7 atom-8" d="M 103.8,577.8 L 74.3,618.4" style="fill:none;fill-rule:evenodd;stroke:#000000;stroke-width:2.0px;stroke-linecap:butt;stroke-linejoin:miter;stroke-opacity:1"/>
<path class="bond-8 atom-8 atom-9" d="M 74.3,618.4 L 26.6,618.4" style="fill:none;fill-rule:evenodd;stroke:#000000;stroke-width:2.0px;stroke-linecap:butt;stroke-linejoin:miter;stroke-opacity:1"/>
<path class="bond-9 atom-8 atom-0" d="M 74.3,618.4 L 97.5,650.3" style="fill:none;fill-rule:evenodd;stroke:#000000;stroke-width:2.0px;stroke-linecap:butt;stroke-linejoin:miter;stroke-opacity:1"/>
<path class="bond-10 atom-6 atom-1" d="M 151.6,593.3 L 151.6,643.5" style="fill:none;fill-rule:evenodd;stroke:#000000;stroke-width:2.0px;stroke-linecap:butt;stroke-linejoin:miter;stroke-opacity:1"/>
<path class="atom-0" d="M 100.7 651.9 L 105.4 659.5 Q 105.8 660.2, 106.6 661.6 Q 107.3 662.9, 107.3 663.0 L 107.3 651.9 L 109.2 651.9 L 109.2 666.2 L 107.3 666.2 L 102.3 657.9 Q 101.7 657.0, 101.1 655.9 Q 100.5 654.8, 100.3 654.4 L 100.3 666.2 L 98.4 666.2 L 98.4 651.9 L 100.7 651.9 " fill="#000000"/>
<path class="atom-0" d="M 98.3 667.6 L 100.2 667.6 L 100.2 673.6 L 107.5 673.6 L 107.5 667.6 L 109.4 667.6 L 109.4 681.8 L 107.5 681.8 L 107.5 675.3 L 100.2 675.3 L 100.2 681.8 L 98.3 681.8 L 98.3 667.6 " fill="#000000"/>
<path class="atom-9" d="M 11.4 618.9 Q 11.4 615.4, 13.0 613.5 Q 14.7 611.7, 17.8 611.7 Q 20.8 611.7, 22.3 613.7 L 21.0 614.8 Q 19.9 613.3, 17.8 613.3 Q 15.7 613.3, 14.5 614.7 Q 13.4 616.2, 13.4 618.9 Q 13.4 621.7, 14.6 623.2 Q 15.8 624.6, 18.1 624.6 Q 19.6 624.6, 21.5 623.7 L 22.0 625.2 Q 21.3 625.7, 20.1 625.9 Q 19.0 626.2, 17.8 626.2 Q 14.7 626.2, 13.0 624.3 Q 11.4 622.4, 11.4 618.9 " fill="#000000"/>
<path class="atom-9" d="M 23.1 610.8 L 25.0 610.8 L 25.0 626.0 L 23.1 626.0 L 23.1 610.8 " fill="#000000"/>
<path class="bond-0 atom-0 atom-1" d="M 465.9,626.4 L 442.2,613.6" style="fill:none;fill-rule:evenodd;stroke:#000000;stroke-width:2.0px;stroke-linecap:butt;stroke-linejoin:miter;stroke-opacity:1"/>
<path class="bond-0 atom-0 atom-1" d="M 469.0,620.7 L 445.3,608.0" style="fill:none;fill-rule:evenodd;stroke:#000000;stroke-width:2.0px;stroke-linecap:butt;stroke-linejoin:miter;stroke-opacity:1"/>
<path class="bond-1 atom-1 atom-2" d="M 443.8,610.8 L 421.0,624.8" style="fill:none;fill-rule:evenodd;stroke:#000000;stroke-width:2.0px;stroke-linecap:butt;stroke-linejoin:miter;stroke-opacity:1"/>
<path class="bond-2 atom-2 atom-3" d="M 412.0,625.1 L 388.4,612.3" style="fill:none;fill-rule:evenodd;stroke:#000000;stroke-width:2.0px;stroke-linecap:butt;stroke-linejoin:miter;stroke-opacity:1"/>
<path class="bond-3 atom-3 atom-4" d="M 388.4,612.3 L 361.1,629.1" style="fill:none;fill-rule:evenodd;stroke:#000000;stroke-width:2.0px;stroke-linecap:butt;stroke-linejoin:miter;stroke-opacity:1"/>
<path class="bond-3 atom-3 atom-4" d="M 387.6,620.3 L 368.5,632.0" style="fill:none;fill-rule:evenodd;stroke:#000000;stroke-width:2.0px;stroke-linecap:butt;stroke-linejoin:miter;stroke-opacity:1"/>
<path class="bond-4 atom-4 atom-5" d="M 361.1,629.1 L 332.9,613.9" style="fill:none;fill-rule:evenodd;stroke:#000000;stroke-width:2.0px;stroke-linecap:butt;stroke-linejoin:miter;stroke-opacity:1"/>
<path class="bond-5 atom-5 atom-6" d="M 332.9,613.9 L 305.7,630.6" style="fill:none;fill-rule:evenodd;stroke:#000000;stroke-width:2.0px;stroke-linecap:butt;stroke-linejoin:miter;stroke-opacity:1"/>
<path class="bond-5 atom-5 atom-6" d="M 332.2,621.8 L 313.1,633.6" style="fill:none;fill-rule:evenodd;stroke:#000000;stroke-width:2.0px;stroke-linecap:butt;stroke-linejoin:miter;stroke-opacity:1"/>
<path class="bond-6 atom-6 atom-7" d="M 305.7,630.6 L 282.0,617.8" style="fill:none;fill-rule:evenodd;stroke:#000000;stroke-width:2.0px;stroke-linecap:butt;stroke-linejoin:miter;stroke-opacity:1"/>
<path class="atom-0" d="M 469.9 621.5 L 472.9 626.3 Q 473.2 626.7, 473.7 627.6 Q 474.1 628.5, 474.2 628.5 L 474.2 621.5 L 475.4 621.5 L 475.4 630.5 L 474.1 630.5 L 470.9 625.3 Q 470.6 624.7, 470.2 624.0 Q 469.8 623.3, 469.7 623.0 L 469.7 630.5 L 468.5 630.5 L 468.5 621.5 L 469.9 621.5 " fill="#000000"/>
<path class="atom-0" d="M 476.4 621.5 L 477.7 621.5 L 477.7 625.3 L 482.3 625.3 L 482.3 621.5 L 483.5 621.5 L 483.5 630.5 L 482.3 630.5 L 482.3 626.3 L 477.7 626.3 L 477.7 630.5 L 476.4 630.5 L 476.4 621.5 " fill="#000000"/>
<path class="atom-0" d="M 484.6 630.2 Q 484.8 629.6, 485.4 629.3 Q 485.9 629.0, 486.6 629.0 Q 487.5 629.0, 488.0 629.5 Q 488.5 630.0, 488.5 630.9 Q 488.5 631.7, 487.9 632.6 Q 487.2 633.4, 485.9 634.4 L 488.6 634.4 L 488.6 635.1 L 484.6 635.1 L 484.6 634.5 Q 485.7 633.7, 486.4 633.1 Q 487.0 632.5, 487.4 632.0 Q 487.7 631.5, 487.7 630.9 Q 487.7 630.3, 487.4 630.0 Q 487.1 629.7, 486.6 629.7 Q 486.1 629.7, 485.8 629.9 Q 485.5 630.1, 485.3 630.5 L 484.6 630.2 " fill="#000000"/>
<path class="atom-0" d="M 484.6 623.1 L 486.2 623.1 L 486.2 621.4 L 487.0 621.4 L 487.0 623.1 L 488.6 623.1 L 488.6 623.7 L 487.0 623.7 L 487.0 625.4 L 486.2 625.4 L 486.2 623.7 L 484.6 623.7 L 484.6 623.1 " fill="#000000"/>
<path class="atom-2" d="M 414.5 623.0 L 417.5 627.8 Q 417.8 628.3, 418.2 629.1 Q 418.7 630.0, 418.7 630.1 L 418.7 623.0 L 419.9 623.0 L 419.9 632.1 L 418.7 632.1 L 415.5 626.8 Q 415.1 626.2, 414.7 625.5 Q 414.4 624.8, 414.2 624.6 L 414.2 632.1 L 413.1 632.1 L 413.1 623.0 L 414.5 623.0 " fill="#000000"/>
<path class="atom-2" d="M 413.0 633.0 L 414.2 633.0 L 414.2 636.8 L 418.8 636.8 L 418.8 633.0 L 420.1 633.0 L 420.1 642.0 L 418.8 642.0 L 418.8 637.9 L 414.2 637.9 L 414.2 642.0 L 413.0 642.0 L 413.0 633.0 " fill="#000000"/>
<path class="atom-7" d="M 261.4 610.9 L 262.6 610.9 L 262.6 614.7 L 267.2 614.7 L 267.2 610.9 L 268.5 610.9 L 268.5 619.9 L 267.2 619.9 L 267.2 615.8 L 262.6 615.8 L 262.6 619.9 L 261.4 619.9 L 261.4 610.9 " fill="#000000"/>
<path class="atom-7" d="M 269.6 619.6 Q 269.8 619.1, 270.3 618.7 Q 270.8 618.4, 271.6 618.4 Q 272.5 618.4, 273.0 618.9 Q 273.5 619.4, 273.5 620.3 Q 273.5 621.2, 272.8 622.0 Q 272.2 622.8, 270.8 623.8 L 273.6 623.8 L 273.6 624.5 L 269.5 624.5 L 269.5 623.9 Q 270.7 623.1, 271.3 622.5 Q 272.0 621.9, 272.3 621.4 Q 272.6 620.9, 272.6 620.3 Q 272.6 619.7, 272.3 619.4 Q 272.1 619.1, 271.6 619.1 Q 271.1 619.1, 270.8 619.3 Q 270.4 619.5, 270.2 619.9 L 269.6 619.6 " fill="#000000"/>
<path class="atom-7" d="M 275.5 610.9 L 278.5 615.7 Q 278.8 616.2, 279.3 617.0 Q 279.7 617.9, 279.8 617.9 L 279.8 610.9 L 281.0 610.9 L 281.0 619.9 L 279.7 619.9 L 276.5 614.7 Q 276.2 614.1, 275.8 613.4 Q 275.4 612.7, 275.3 612.5 L 275.3 619.9 L 274.1 619.9 L 274.1 610.9 L 275.5 610.9 " fill="#000000"/>
<path class="bond-0 atom-0 atom-1" d="M 558.0,576.4 L 560.2,560.6" style="fill:none;fill-rule:evenodd;stroke:#000000;stroke-width:2.0px;stroke-linecap:butt;stroke-linejoin:miter;stroke-opacity:1"/>
<path class="bond-1 atom-1 atom-2" d="M 564.8,553.1 L 580.6,541.1" style="fill:none;fill-rule:evenodd;stroke:#000000;stroke-width:2.0px;stroke-linecap:butt;stroke-linejoin:miter;stroke-opacity:1"/>
<path class="bond-2 atom-2 atom-3" d="M 580.6,541.1 L 605.2,544.5" style="fill:none;fill-rule:evenodd;stroke:#000000;stroke-width:2.0px;stroke-linecap:butt;stroke-linejoin:miter;stroke-opacity:1"/>
<path class="bond-3 atom-3 atom-4" d="M 605.2,544.5 L 620.3,564.3" style="fill:none;fill-rule:evenodd;stroke:#000000;stroke-width:2.0px;stroke-linecap:butt;stroke-linejoin:miter;stroke-opacity:1"/>
<path class="bond-4 atom-4 atom-5" d="M 620.3,564.3 L 617.5,584.6" style="fill:none;fill-rule:evenodd;stroke:#000000;stroke-width:2.0px;stroke-linecap:butt;stroke-linejoin:miter;stroke-opacity:1"/>
<path class="bond-5 atom-5 atom-6" d="M 620.3,591.0 L 638.3,601.5" style="fill:none;fill-rule:evenodd;stroke:#000000;stroke-width:2.0px;stroke-linecap:butt;stroke-linejoin:miter;stroke-opacity:1"/>
<path class="bond-6 atom-6 atom-7" d="M 638.3,601.5 L 659.9,589.2" style="fill:none;fill-rule:evenodd;stroke:#000000;stroke-width:2.0px;stroke-linecap:butt;stroke-linejoin:miter;stroke-opacity:1"/>
<path class="bond-7 atom-7 atom-8" d="M 659.9,589.2 L 681.4,601.8" style="fill:none;fill-rule:evenodd;stroke:#000000;stroke-width:2.0px;stroke-linecap:butt;stroke-linejoin:miter;stroke-opacity:1"/>
<path class="bond-7 atom-7 atom-8" d="M 665.6,586.8 L 680.7,595.6" style="fill:none;fill-rule:evenodd;stroke:#000000;stroke-width:2.0px;stroke-linecap:butt;stroke-linejoin:miter;stroke-opacity:1"/>
<path class="bond-8 atom-8 atom-9" d="M 681.4,601.8 L 703.0,589.5" style="fill:none;fill-rule:evenodd;stroke:#000000;stroke-width:2.0px;stroke-linecap:butt;stroke-linejoin:miter;stroke-opacity:1"/>
<path class="bond-9 atom-9 atom-10" d="M 703.0,589.5 L 703.1,564.7" style="fill:none;fill-rule:evenodd;stroke:#000000;stroke-width:2.0px;stroke-linecap:butt;stroke-linejoin:miter;stroke-opacity:1"/>
<path class="bond-9 atom-9 atom-10" d="M 698.0,585.8 L 698.1,568.4" style="fill:none;fill-rule:evenodd;stroke:#000000;stroke-width:2.0px;stroke-linecap:butt;stroke-linejoin:miter;stroke-opacity:1"/>
<path class="bond-10 atom-10 atom-11" d="M 703.1,564.7 L 681.7,552.1" style="fill:none;fill-rule:evenodd;stroke:#000000;stroke-width:2.0px;stroke-linecap:butt;stroke-linejoin:miter;stroke-opacity:1"/>
<path class="bond-11 atom-11 atom-12" d="M 681.7,552.1 L 660.1,564.4" style="fill:none;fill-rule:evenodd;stroke:#000000;stroke-width:2.0px;stroke-linecap:butt;stroke-linejoin:miter;stroke-opacity:1"/>
<path class="bond-11 atom-11 atom-12" d="M 680.9,558.3 L 665.8,566.9" style="fill:none;fill-rule:evenodd;stroke:#000000;stroke-width:2.0px;stroke-linecap:butt;stroke-linejoin:miter;stroke-opacity:1"/>
<path class="bond-12 atom-5 atom-13" d="M 611.1,593.3 L 597.0,604.0" style="fill:none;fill-rule:evenodd;stroke:#000000;stroke-width:2.0px;stroke-linecap:butt;stroke-linejoin:miter;stroke-opacity:1"/>
<path class="bond-13 atom-13 atom-14" d="M 597.0,604.0 L 572.4,600.6" style="fill:none;fill-rule:evenodd;stroke:#000000;stroke-width:2.0px;stroke-linecap:butt;stroke-linejoin:miter;stroke-opacity:1"/>
<path class="bond-14 atom-14 atom-15" d="M 572.4,600.6 L 560.2,616.3" style="fill:none;fill-rule:evenodd;stroke:#000000;stroke-width:2.0px;stroke-linecap:butt;stroke-linejoin:miter;stroke-opacity:1"/>
<path class="bond-14 atom-14 atom-15" d="M 574.5,606.0 L 566.0,617.0" style="fill:none;fill-rule:evenodd;stroke:#000000;stroke-width:2.0px;stroke-linecap:butt;stroke-linejoin:miter;stroke-opacity:1"/>
<path class="bond-15 atom-15 atom-16" d="M 558.9,624.6 L 564.8,638.9" style="fill:none;fill-rule:evenodd;stroke:#000000;stroke-width:2.0px;stroke-linecap:butt;stroke-linejoin:miter;stroke-opacity:1"/>
<path class="bond-16 atom-16 atom-17" d="M 562.9,647.8 L 551.3,662.9" style="fill:none;fill-rule:evenodd;stroke:#000000;stroke-width:2.0px;stroke-linecap:butt;stroke-linejoin:miter;stroke-opacity:1"/>
<path class="bond-17 atom-17 atom-18" d="M 551.3,662.9 L 526.6,659.5" style="fill:none;fill-rule:evenodd;stroke:#000000;stroke-width:2.0px;stroke-linecap:butt;stroke-linejoin:miter;stroke-opacity:1"/>
<path class="bond-17 atom-17 atom-18" d="M 546.9,667.3 L 529.6,664.9" style="fill:none;fill-rule:evenodd;stroke:#000000;stroke-width:2.0px;stroke-linecap:butt;stroke-linejoin:miter;stroke-opacity:1"/>
<path class="bond-18 atom-18 atom-19" d="M 526.6,659.5 L 511.4,679.1" style="fill:none;fill-rule:evenodd;stroke:#000000;stroke-width:2.0px;stroke-linecap:butt;stroke-linejoin:miter;stroke-opacity:1"/>
<path class="bond-19 atom-19 atom-20" d="M 511.4,679.1 L 520.7,702.1" style="fill:none;fill-rule:evenodd;stroke:#000000;stroke-width:2.0px;stroke-linecap:butt;stroke-linejoin:miter;stroke-opacity:1"/>
<path class="bond-19 atom-19 atom-20" d="M 517.4,680.7 L 523.9,696.8" style="fill:none;fill-rule:evenodd;stroke:#000000;stroke-width:2.0px;stroke-linecap:butt;stroke-linejoin:miter;stroke-opacity:1"/>
<path class="bond-20 atom-20 atom-21" d="M 520.7,702.1 L 545.4,705.5" style="fill:none;fill-rule:evenodd;stroke:#000000;stroke-width:2.0px;stroke-linecap:butt;stroke-linejoin:miter;stroke-opacity:1"/>
<path class="bond-21 atom-21 atom-22" d="M 545.4,705.5 L 560.6,685.9" style="fill:none;fill-rule:evenodd;stroke:#000000;stroke-width:2.0px;stroke-linecap:butt;stroke-linejoin:miter;stroke-opacity:1"/>
<path class="bond-21 atom-21 atom-22" d="M 543.7,699.5 L 554.4,685.8" style="fill:none;fill-rule:evenodd;stroke:#000000;stroke-width:2.0px;stroke-linecap:butt;stroke-linejoin:miter;stroke-opacity:1"/>
<path class="bond-22 atom-16 atom-23" d="M 569.6,643.7 L 591.1,646.6" style="fill:none;fill-rule:evenodd;stroke:#000000;stroke-width:2.0px;stroke-linecap:butt;stroke-linejoin:miter;stroke-opacity:1"/>
<path class="bond-23 atom-23 atom-24" d="M 591.1,646.6 L 606.4,627.0" style="fill:none;fill-rule:evenodd;stroke:#000000;stroke-width:2.0px;stroke-linecap:butt;stroke-linejoin:miter;stroke-opacity:1"/>
<path class="bond-24 atom-24 atom-25" d="M 606.4,627.0 L 628.0,630.0" style="fill:none;fill-rule:evenodd;stroke:#000000;stroke-width:2.0px;stroke-linecap:butt;stroke-linejoin:miter;stroke-opacity:1"/>
<path class="bond-24 atom-24 atom-25" d="M 609.0,632.4 L 624.1,634.5" style="fill:none;fill-rule:evenodd;stroke:#000000;stroke-width:2.0px;stroke-linecap:butt;stroke-linejoin:miter;stroke-opacity:1"/>
<path class="bond-25 atom-25 atom-26" d="M 632.8,634.8 L 638.6,649.1" style="fill:none;fill-rule:evenodd;stroke:#000000;stroke-width:2.0px;stroke-linecap:butt;stroke-linejoin:miter;stroke-opacity:1"/>
<path class="bond-26 atom-26 atom-27" d="M 643.9,653.9 L 665.0,656.8" style="fill:none;fill-rule:evenodd;stroke:#000000;stroke-width:2.0px;stroke-linecap:butt;stroke-linejoin:miter;stroke-opacity:1"/>
<path class="bond-27 atom-27 atom-28" d="M 665.0,656.8 L 674.4,679.9" style="fill:none;fill-rule:evenodd;stroke:#000000;stroke-width:2.0px;stroke-linecap:butt;stroke-linejoin:miter;stroke-opacity:1"/>
<path class="bond-28 atom-28 atom-29" d="M 674.4,679.9 L 699.0,683.3" style="fill:none;fill-rule:evenodd;stroke:#000000;stroke-width:2.0px;stroke-linecap:butt;stroke-linejoin:miter;stroke-opacity:1"/>
<path class="bond-29 atom-29 atom-30" d="M 699.0,683.3 L 712.8,669.0" style="fill:none;fill-rule:evenodd;stroke:#000000;stroke-width:2.0px;stroke-linecap:butt;stroke-linejoin:miter;stroke-opacity:1"/>
<path class="bond-30 atom-30 atom-31" d="M 719.8,667.0 L 738.6,676.2" style="fill:none;fill-rule:evenodd;stroke:#000000;stroke-width:2.0px;stroke-linecap:butt;stroke-linejoin:miter;stroke-opacity:1"/>
<path class="bond-31 atom-31 atom-32" d="M 738.6,676.2 L 735.2,700.8" style="fill:none;fill-rule:evenodd;stroke:#000000;stroke-width:2.0px;stroke-linecap:butt;stroke-linejoin:miter;stroke-opacity:1"/>
<path class="bond-32 atom-32 atom-33" d="M 735.2,700.8 L 714.8,704.5" style="fill:none;fill-rule:evenodd;stroke:#000000;stroke-width:2.0px;stroke-linecap:butt;stroke-linejoin:miter;stroke-opacity:1"/>
<path class="bond-33 atom-14 atom-0" d="M 572.4,600.6 L 560.5,584.8" style="fill:none;fill-rule:evenodd;stroke:#000000;stroke-width:2.0px;stroke-linecap:butt;stroke-linejoin:miter;stroke-opacity:1"/>
<path class="bond-34 atom-12 atom-7" d="M 660.1,564.4 L 659.9,589.2" style="fill:none;fill-rule:evenodd;stroke:#000000;stroke-width:2.0px;stroke-linecap:butt;stroke-linejoin:miter;stroke-opacity:1"/>
<path class="bond-35 atom-24 atom-13" d="M 606.4,627.0 L 597.0,604.0" style="fill:none;fill-rule:evenodd;stroke:#000000;stroke-width:2.0px;stroke-linecap:butt;stroke-linejoin:miter;stroke-opacity:1"/>
<path class="bond-36 atom-22 atom-17" d="M 560.6,685.9 L 551.3,662.9" style="fill:none;fill-rule:evenodd;stroke:#000000;stroke-width:2.0px;stroke-linecap:butt;stroke-linejoin:miter;stroke-opacity:1"/>
<path class="bond-37 atom-33 atom-29" d="M 708.4,700.8 L 699.0,683.3" style="fill:none;fill-rule:evenodd;stroke:#000000;stroke-width:2.0px;stroke-linecap:butt;stroke-linejoin:miter;stroke-opacity:1"/>
<path class="atom-0" d="M 555.4 583.2 Q 555.5 583.2, 555.8 583.4 Q 556.1 583.5, 556.5 583.6 Q 556.9 583.7, 557.2 583.7 Q 557.9 583.7, 558.3 583.3 Q 558.7 583.0, 558.7 582.4 Q 558.7 582.1, 558.5 581.8 Q 558.3 581.6, 558.0 581.5 Q 557.7 581.3, 557.2 581.2 Q 556.6 581.0, 556.2 580.8 Q 555.8 580.6, 555.5 580.2 Q 555.3 579.9, 555.3 579.2 Q 555.3 578.3, 555.9 577.8 Q 556.5 577.3, 557.7 577.3 Q 558.5 577.3, 559.4 577.6 L 559.2 578.4 Q 558.3 578.1, 557.7 578.1 Q 557.0 578.1, 556.6 578.3 Q 556.3 578.6, 556.3 579.1 Q 556.3 579.5, 556.5 579.7 Q 556.7 580.0, 556.9 580.1 Q 557.2 580.2, 557.7 580.4 Q 558.3 580.6, 558.7 580.8 Q 559.1 581.0, 559.4 581.4 Q 559.6 581.8, 559.6 582.4 Q 559.6 583.4, 559.0 583.9 Q 558.3 584.5, 557.3 584.5 Q 556.6 584.5, 556.2 584.3 Q 555.7 584.2, 555.1 584.0 L 555.4 583.2 " fill="#000000"/>
<path class="atom-0" d="M 560.1 578.4 L 561.4 578.4 L 561.4 577.1 L 561.9 577.1 L 561.9 578.4 L 563.2 578.4 L 563.2 578.9 L 561.9 578.9 L 561.9 580.2 L 561.4 580.2 L 561.4 578.9 L 560.1 578.9 L 560.1 578.4 " fill="#000000"/>
<path class="atom-1" d="M 557.6 556.2 Q 557.6 554.5, 558.4 553.5 Q 559.2 552.6, 560.8 552.6 Q 562.4 552.6, 563.2 553.5 Q 564.0 554.5, 564.0 556.2 Q 564.0 557.9, 563.2 558.8 Q 562.3 559.8, 560.8 559.8 Q 559.2 559.8, 558.4 558.8 Q 557.6 557.9, 557.6 556.2 M 560.8 559.0 Q 561.9 559.0, 562.4 558.3 Q 563.0 557.6, 563.0 556.2 Q 563.0 554.8, 562.4 554.1 Q 561.9 553.4, 560.8 553.4 Q 559.7 553.4, 559.1 554.1 Q 558.6 554.8, 558.6 556.2 Q 558.6 557.6, 559.1 558.3 Q 559.7 559.0, 560.8 559.0 " fill="#000000"/>
<path class="atom-5" d="M 607.8 585.5 L 608.8 585.5 L 608.8 588.4 L 612.4 588.4 L 612.4 585.5 L 613.3 585.5 L 613.3 592.5 L 612.4 592.5 L 612.4 589.2 L 608.8 589.2 L 608.8 592.5 L 607.8 592.5 L 607.8 585.5 " fill="#000000"/>
<path class="atom-5" d="M 615.3 585.5 L 617.6 589.2 Q 617.8 589.6, 618.2 590.2 Q 618.6 590.9, 618.6 590.9 L 618.6 585.5 L 619.5 585.5 L 619.5 592.5 L 618.6 592.5 L 616.1 588.4 Q 615.8 587.9, 615.5 587.4 Q 615.2 586.8, 615.1 586.7 L 615.1 592.5 L 614.2 592.5 L 614.2 585.5 L 615.3 585.5 " fill="#000000"/>
<path class="atom-5" d="M 620.3 586.7 L 621.6 586.7 L 621.6 585.4 L 622.1 585.4 L 622.1 586.7 L 623.4 586.7 L 623.4 587.2 L 622.1 587.2 L 622.1 588.5 L 621.6 588.5 L 621.6 587.2 L 620.3 587.2 L 620.3 586.7 " fill="#000000"/>
<path class="atom-15" d="M 557.0 616.7 Q 558.2 616.7, 558.8 617.2 Q 559.4 617.8, 559.4 618.8 Q 559.4 619.7, 558.8 620.3 Q 558.1 620.8, 557.0 620.8 L 555.9 620.8 L 555.9 623.7 L 554.9 623.7 L 554.9 616.7 L 557.0 616.7 M 557.0 620.0 Q 557.7 620.0, 558.0 619.7 Q 558.4 619.4, 558.4 618.8 Q 558.4 618.1, 558.0 617.8 Q 557.7 617.5, 557.0 617.5 L 555.9 617.5 L 555.9 620.0 L 557.0 620.0 " fill="#000000"/>
<path class="atom-16" d="M 564.5 645.7 Q 564.6 645.7, 564.9 645.8 Q 565.3 646.0, 565.6 646.1 Q 566.0 646.1, 566.3 646.1 Q 567.0 646.1, 567.4 645.8 Q 567.8 645.5, 567.8 644.9 Q 567.8 644.5, 567.6 644.3 Q 567.4 644.1, 567.1 643.9 Q 566.8 643.8, 566.3 643.7 Q 565.7 643.5, 565.3 643.3 Q 564.9 643.1, 564.7 642.7 Q 564.4 642.4, 564.4 641.7 Q 564.4 640.8, 565.0 640.3 Q 565.6 639.7, 566.8 639.7 Q 567.6 639.7, 568.5 640.1 L 568.3 640.9 Q 567.5 640.5, 566.8 640.5 Q 566.1 640.5, 565.8 640.8 Q 565.4 641.1, 565.4 641.6 Q 565.4 642.0, 565.6 642.2 Q 565.8 642.4, 566.1 642.6 Q 566.4 642.7, 566.8 642.8 Q 567.5 643.0, 567.8 643.2 Q 568.2 643.4, 568.5 643.8 Q 568.8 644.2, 568.8 644.9 Q 568.8 645.9, 568.1 646.4 Q 567.5 646.9, 566.4 646.9 Q 565.8 646.9, 565.3 646.8 Q 564.8 646.7, 564.3 646.5 L 564.5 645.7 " fill="#000000"/>
<path class="atom-16" d="M 563.8 647.7 L 564.7 647.7 L 564.7 650.7 L 568.3 650.7 L 568.3 647.7 L 569.3 647.7 L 569.3 654.7 L 568.3 654.7 L 568.3 651.4 L 564.7 651.4 L 564.7 654.7 L 563.8 654.7 L 563.8 647.7 " fill="#000000"/>
<path class="atom-25" d="M 630.9 626.9 Q 632.1 626.9, 632.7 627.4 Q 633.3 628.0, 633.3 629.0 Q 633.3 629.9, 632.7 630.5 Q 632.0 631.0, 630.9 631.0 L 629.7 631.0 L 629.7 633.9 L 628.8 633.9 L 628.8 626.9 L 630.9 626.9 M 630.9 630.2 Q 631.6 630.2, 631.9 629.9 Q 632.3 629.6, 632.3 629.0 Q 632.3 628.3, 631.9 628.0 Q 631.6 627.7, 630.9 627.7 L 629.7 627.7 L 629.7 630.2 L 630.9 630.2 " fill="#000000"/>
<path class="atom-25" d="M 633.7 626.9 L 634.7 626.9 L 634.7 629.9 L 638.3 629.9 L 638.3 626.9 L 639.3 626.9 L 639.3 633.9 L 638.3 633.9 L 638.3 630.7 L 634.7 630.7 L 634.7 633.9 L 633.7 633.9 L 633.7 626.9 " fill="#000000"/>
<path class="atom-25" d="M 640.1 633.7 Q 640.3 633.3, 640.7 633.0 Q 641.1 632.8, 641.7 632.8 Q 642.4 632.8, 642.8 633.1 Q 643.2 633.5, 643.2 634.2 Q 643.2 634.9, 642.6 635.5 Q 642.1 636.2, 641.1 636.9 L 643.2 636.9 L 643.2 637.5 L 640.1 637.5 L 640.1 637.0 Q 641.0 636.4, 641.5 635.9 Q 642.0 635.5, 642.3 635.1 Q 642.5 634.7, 642.5 634.2 Q 642.5 633.8, 642.3 633.5 Q 642.1 633.3, 641.7 633.3 Q 641.3 633.3, 641.0 633.4 Q 640.8 633.6, 640.6 633.9 L 640.1 633.7 " fill="#000000"/>
<path class="atom-26" d="M 627.9 649.9 L 628.8 649.9 L 628.8 652.9 L 632.4 652.9 L 632.4 649.9 L 633.4 649.9 L 633.4 657.0 L 632.4 657.0 L 632.4 653.7 L 628.8 653.7 L 628.8 657.0 L 627.9 657.0 L 627.9 649.9 " fill="#000000"/>
<path class="atom-26" d="M 634.2 656.7 Q 634.4 656.3, 634.8 656.0 Q 635.2 655.8, 635.8 655.8 Q 636.5 655.8, 636.9 656.2 Q 637.3 656.6, 637.3 657.2 Q 637.3 657.9, 636.7 658.6 Q 636.2 659.2, 635.2 660.0 L 637.3 660.0 L 637.3 660.5 L 634.2 660.5 L 634.2 660.1 Q 635.1 659.4, 635.6 659.0 Q 636.1 658.5, 636.4 658.1 Q 636.6 657.7, 636.6 657.3 Q 636.6 656.8, 636.4 656.6 Q 636.2 656.3, 635.8 656.3 Q 635.4 656.3, 635.1 656.5 Q 634.9 656.6, 634.7 657.0 L 634.2 656.7 " fill="#000000"/>
<path class="atom-26" d="M 638.8 649.9 L 641.2 653.7 Q 641.4 654.0, 641.8 654.7 Q 642.1 655.4, 642.1 655.4 L 642.1 649.9 L 643.1 649.9 L 643.1 657.0 L 642.1 657.0 L 639.6 652.9 Q 639.3 652.4, 639.0 651.9 Q 638.7 651.3, 638.6 651.2 L 638.6 657.0 L 637.7 657.0 L 637.7 649.9 L 638.8 649.9 " fill="#000000"/>
<path class="atom-26" d="M 643.9 651.2 L 645.1 651.2 L 645.1 649.9 L 645.7 649.9 L 645.7 651.2 L 647.0 651.2 L 647.0 651.7 L 645.7 651.7 L 645.7 653.0 L 645.1 653.0 L 645.1 651.7 L 643.9 651.7 L 643.9 651.2 " fill="#000000"/>
<path class="atom-30" d="M 714.7 661.8 L 717.0 665.6 Q 717.2 665.9, 717.6 666.6 Q 718.0 667.3, 718.0 667.3 L 718.0 661.8 L 718.9 661.8 L 718.9 668.9 L 718.0 668.9 L 715.5 664.8 Q 715.2 664.3, 714.9 663.8 Q 714.6 663.2, 714.5 663.1 L 714.5 668.9 L 713.6 668.9 L 713.6 661.8 L 714.7 661.8 " fill="#000000"/>
<path class="atom-30" d="M 713.5 654.1 L 714.5 654.1 L 714.5 657.1 L 718.1 657.1 L 718.1 654.1 L 719.0 654.1 L 719.0 661.1 L 718.1 661.1 L 718.1 657.9 L 714.5 657.9 L 714.5 661.1 L 713.5 661.1 L 713.5 654.1 " fill="#000000"/>
<path class="atom-33" d="M 707.5 705.2 Q 707.5 703.5, 708.4 702.6 Q 709.2 701.6, 710.8 701.6 Q 712.3 701.6, 713.2 702.6 Q 714.0 703.5, 714.0 705.2 Q 714.0 706.9, 713.1 707.9 Q 712.3 708.9, 710.8 708.9 Q 709.2 708.9, 708.4 707.9 Q 707.5 706.9, 707.5 705.2 M 710.8 708.1 Q 711.8 708.1, 712.4 707.4 Q 713.0 706.6, 713.0 705.2 Q 713.0 703.8, 712.4 703.1 Q 711.8 702.4, 710.8 702.4 Q 709.7 702.4, 709.1 703.1 Q 708.5 703.8, 708.5 705.2 Q 708.5 706.6, 709.1 707.4 Q 709.7 708.1, 710.8 708.1 " fill="#000000"/>
<path class="atom-0" d="M 554.1,580.8 L 554.1,580.8 L 554.1,580.9 L 554.1,580.9 L 554.1,580.9 L 554.1,581.0 L 554.1,581.0 L 554.1,581.0 L 554.0,581.1 L 554.0,581.1 L 554.0,581.1 L 553.9,581.2 L 553.9,581.2 L 553.9,581.2 L 553.8,581.2 L 553.8,581.2 L 553.7,581.3 L 553.7,581.3 L 553.7,581.3 L 553.6,581.3 L 553.6,581.3 L 553.5,581.3 L 553.5,581.2 L 553.4,581.2 L 553.4,581.2 L 553.4,581.2 L 553.3,581.2 L 553.3,581.1 L 553.3,581.1 L 553.2,581.1 L 553.2,581.0 L 553.2,581.0 L 553.2,581.0 L 553.2,580.9 L 553.2,580.9 L 553.1,580.8 L 553.1,580.8 L 553.1,580.7 L 553.1,580.7 L 553.2,580.7 L 553.2,580.6 L 553.2,580.6 L 553.2,580.5 L 553.2,580.5 L 553.2,580.5 L 553.3,580.4 L 553.3,580.4 L 553.3,580.4 L 553.4,580.4 L 553.4,580.3 L 553.4,580.3 L 553.5,580.3 L 553.5,580.3 L 553.6,580.3 L 553.6,580.3 L 553.7,580.3 L 553.7,580.3 L 553.7,580.3 L 553.8,580.3 L 553.8,580.3 L 553.9,580.3 L 553.9,580.3 L 553.9,580.4 L 554.0,580.4 L 554.0,580.4 L 554.0,580.5 L 554.1,580.5 L 554.1,580.5 L 554.1,580.6 L 554.1,580.6 L 554.1,580.6 L 554.1,580.7 L 554.1,580.7 L 554.1,580.8 L 553.6,580.8 Z" style="fill:#000000;fill-rule:evenodd;fill-opacity:1;stroke:#000000;stroke-width:0.0px;stroke-linecap:butt;stroke-linejoin:miter;stroke-opacity:1;"/>
</svg>