<svg xmlns="http://www.w3.org/2000/svg" xmlns:rdkit="http://www.rdkit.org/xml" xmlns:xlink="http://www.w3.org/1999/xlink" version="1.1" baseProfile="full" xml:space="preserve" width="750px" height="750px" viewBox="0 0 750 750">
<!-- END OF HEADER -->
<rect style="opacity:1.0;fill:#FFFFFF;stroke:none" width="750.0" height="750.0" x="0.0" y="0.0"> </rect>
<path class="bond-0 atom-0 atom-1" d="M 35.4,107.0 L 196.2,107.0" style="fill:none;fill-rule:evenodd;stroke:#000000;stroke-width:2.0px;stroke-linecap:butt;stroke-linejoin:miter;stroke-opacity:1"/>
<path class="bond-0 atom-0 atom-1" d="M 35.4,143.0 L 196.2,143.0" style="fill:none;fill-rule:evenodd;stroke:#000000;stroke-width:2.0px;stroke-linecap:butt;stroke-linejoin:miter;stroke-opacity:1"/>
<path class="atom-1" d="M 202.1 125.1 Q 202.1 118.3, 205.4 114.5 Q 208.8 110.7, 215.1 110.7 Q 221.4 110.7, 224.7 114.5 Q 228.1 118.3, 228.1 125.1 Q 228.1 132.0, 224.7 135.9 Q 221.3 139.8, 215.1 139.8 Q 208.8 139.8, 205.4 135.9 Q 202.1 132.0, 202.1 125.1 M 215.1 136.6 Q 219.4 136.6, 221.7 133.7 Q 224.1 130.8, 224.1 125.1 Q 224.1 119.5, 221.7 116.7 Q 219.4 113.9, 215.1 113.9 Q 210.8 113.9, 208.4 116.7 Q 206.1 119.5, 206.1 125.1 Q 206.1 130.8, 208.4 133.7 Q 210.8 136.6, 215.1 136.6 " fill="#000000"/>
<path class="atom-0" d="M 25.4,125.0 L 25.4,125.2 L 25.4,125.3 L 25.4,125.5 L 25.3,125.7 L 25.2,125.8 L 25.2,126.0 L 25.1,126.1 L 25.0,126.3 L 24.8,126.4 L 24.7,126.5 L 24.6,126.6 L 24.4,126.7 L 24.3,126.8 L 24.1,126.9 L 24.0,126.9 L 23.8,127.0 L 23.6,127.0 L 23.5,127.0 L 23.3,127.0 L 23.1,127.0 L 22.9,126.9 L 22.8,126.9 L 22.6,126.8 L 22.5,126.8 L 22.3,126.7 L 22.2,126.6 L 22.1,126.5 L 21.9,126.3 L 21.8,126.2 L 21.7,126.1 L 21.6,125.9 L 21.6,125.8 L 21.5,125.6 L 21.5,125.4 L 21.4,125.3 L 21.4,125.1 L 21.4,124.9 L 21.4,124.7 L 21.5,124.6 L 21.5,124.4 L 21.6,124.2 L 21.6,124.1 L 21.7,123.9 L 21.8,123.8 L 21.9,123.7 L 22.1,123.5 L 22.2,123.4 L 22.3,123.3 L 22.5,123.2 L 22.6,123.2 L 22.8,123.1 L 22.9,123.1 L 23.1,123.0 L 23.3,123.0 L 23.5,123.0 L 23.6,123.0 L 23.8,123.0 L 24.0,123.1 L 24.1,123.1 L 24.3,123.2 L 24.4,123.3 L 24.6,123.4 L 24.7,123.5 L 24.8,123.6 L 25.0,123.7 L 25.1,123.9 L 25.2,124.0 L 25.2,124.2 L 25.3,124.3 L 25.4,124.5 L 25.4,124.7 L 25.4,124.8 L 25.4,125.0 L 23.4,125.0 Z" style="fill:#000000;fill-rule:evenodd;fill-opacity:1;stroke:#000000;stroke-width:0.0px;stroke-linecap:butt;stroke-linejoin:miter;stroke-opacity:1;"/>
<path class="bond-0 atom-0 atom-1" d="M 319.7,144.4 L 291.4,153.6" style="fill:none;fill-rule:evenodd;stroke:#000000;stroke-width:2.0px;stroke-linecap:butt;stroke-linejoin:miter;stroke-opacity:1"/>
<path class="bond-0 atom-0 atom-1" d="M 312.9,137.9 L 293.1,144.3" style="fill:none;fill-rule:evenodd;stroke:#000000;stroke-width:2.0px;stroke-linecap:butt;stroke-linejoin:miter;stroke-opacity:1"/>
<path class="bond-1 atom-1 atom-2" d="M 280.4,148.2 L 261.4,122.1" style="fill:none;fill-rule:evenodd;stroke:#000000;stroke-width:2.0px;stroke-linecap:butt;stroke-linejoin:miter;stroke-opacity:1"/>
<path class="bond-2 atom-2 atom-3" d="M 261.4,122.1 L 285.6,88.7" style="fill:none;fill-rule:evenodd;stroke:#000000;stroke-width:2.0px;stroke-linecap:butt;stroke-linejoin:miter;stroke-opacity:1"/>
<path class="bond-2 atom-2 atom-3" d="M 271.7,121.9 L 288.6,98.6" style="fill:none;fill-rule:evenodd;stroke:#000000;stroke-width:2.0px;stroke-linecap:butt;stroke-linejoin:miter;stroke-opacity:1"/>
<path class="bond-3 atom-3 atom-4" d="M 285.6,88.7 L 319.0,99.6" style="fill:none;fill-rule:evenodd;stroke:#000000;stroke-width:2.0px;stroke-linecap:butt;stroke-linejoin:miter;stroke-opacity:1"/>
<path class="bond-4 atom-4 atom-5" d="M 330.6,104.8 L 360.5,122.1" style="fill:none;fill-rule:evenodd;stroke:#000000;stroke-width:2.0px;stroke-linecap:butt;stroke-linejoin:miter;stroke-opacity:1"/>
<path class="bond-5 atom-6 atom-5" d="M 394.9,121.4 L 394.9,122.8" style="fill:none;fill-rule:evenodd;stroke:#000000;stroke-width:1.0px;stroke-linecap:butt;stroke-linejoin:miter;stroke-opacity:1"/>
<path class="bond-5 atom-6 atom-5" d="M 388.0,120.7 L 388.0,123.5" style="fill:none;fill-rule:evenodd;stroke:#000000;stroke-width:1.0px;stroke-linecap:butt;stroke-linejoin:miter;stroke-opacity:1"/>
<path class="bond-5 atom-6 atom-5" d="M 381.1,120.0 L 381.1,124.1" style="fill:none;fill-rule:evenodd;stroke:#000000;stroke-width:1.0px;stroke-linecap:butt;stroke-linejoin:miter;stroke-opacity:1"/>
<path class="bond-5 atom-6 atom-5" d="M 374.3,119.3 L 374.3,124.8" style="fill:none;fill-rule:evenodd;stroke:#000000;stroke-width:1.0px;stroke-linecap:butt;stroke-linejoin:miter;stroke-opacity:1"/>
<path class="bond-5 atom-6 atom-5" d="M 367.4,118.6 L 367.4,125.5" style="fill:none;fill-rule:evenodd;stroke:#000000;stroke-width:1.0px;stroke-linecap:butt;stroke-linejoin:miter;stroke-opacity:1"/>
<path class="bond-5 atom-6 atom-5" d="M 360.5,118.0 L 360.5,126.2" style="fill:none;fill-rule:evenodd;stroke:#000000;stroke-width:1.0px;stroke-linecap:butt;stroke-linejoin:miter;stroke-opacity:1"/>
<path class="bond-6 atom-6 atom-7" d="M 401.7,122.1 L 418.2,150.6" style="fill:none;fill-rule:evenodd;stroke:#000000;stroke-width:2.0px;stroke-linecap:butt;stroke-linejoin:miter;stroke-opacity:1"/>
<path class="bond-7 atom-7 atom-8" d="M 428.2,157.8 L 457.8,157.8" style="fill:none;fill-rule:evenodd;stroke:#000000;stroke-width:2.0px;stroke-linecap:butt;stroke-linejoin:miter;stroke-opacity:1"/>
<path class="bond-7 atom-7 atom-8" d="M 432.6,149.5 L 453.4,149.5" style="fill:none;fill-rule:evenodd;stroke:#000000;stroke-width:2.0px;stroke-linecap:butt;stroke-linejoin:miter;stroke-opacity:1"/>
<path class="bond-8 atom-8 atom-9" d="M 467.7,150.6 L 480.1,129.3" style="fill:none;fill-rule:evenodd;stroke:#000000;stroke-width:2.0px;stroke-linecap:butt;stroke-linejoin:miter;stroke-opacity:1"/>
<path class="bond-9 atom-9 atom-10" d="M 480.1,114.9 L 463.6,86.4" style="fill:none;fill-rule:evenodd;stroke:#000000;stroke-width:2.0px;stroke-linecap:butt;stroke-linejoin:miter;stroke-opacity:1"/>
<path class="bond-9 atom-9 atom-10" d="M 470.4,114.7 L 458.9,94.8" style="fill:none;fill-rule:evenodd;stroke:#000000;stroke-width:2.0px;stroke-linecap:butt;stroke-linejoin:miter;stroke-opacity:1"/>
<path class="bond-10 atom-10 atom-11" d="M 463.6,86.4 L 422.4,86.4" style="fill:none;fill-rule:evenodd;stroke:#000000;stroke-width:2.0px;stroke-linecap:butt;stroke-linejoin:miter;stroke-opacity:1"/>
<path class="bond-11 atom-4 atom-0" d="M 324.8,108.7 L 324.8,135.5" style="fill:none;fill-rule:evenodd;stroke:#000000;stroke-width:2.0px;stroke-linecap:butt;stroke-linejoin:miter;stroke-opacity:1"/>
<path class="bond-12 atom-0 atom-5" d="M 334.2,137.3 L 360.5,122.1" style="fill:none;fill-rule:evenodd;stroke:#000000;stroke-width:2.0px;stroke-linecap:butt;stroke-linejoin:miter;stroke-opacity:1"/>
<path class="bond-12 atom-0 atom-5" d="M 334.0,127.9 L 352.4,117.2" style="fill:none;fill-rule:evenodd;stroke:#000000;stroke-width:2.0px;stroke-linecap:butt;stroke-linejoin:miter;stroke-opacity:1"/>
<path class="bond-13 atom-11 atom-6" d="M 422.4,86.4 L 401.7,122.1" style="fill:none;fill-rule:evenodd;stroke:#000000;stroke-width:2.0px;stroke-linecap:butt;stroke-linejoin:miter;stroke-opacity:1"/>
<path class="atom-0" d="M 321.5 146.7 Q 321.6 146.8, 322.2 147.0 Q 322.7 147.2, 323.3 147.4 Q 323.9 147.5, 324.5 147.5 Q 325.6 147.5, 326.3 147.0 Q 326.9 146.4, 326.9 145.5 Q 326.9 144.8, 326.6 144.4 Q 326.3 144.0, 325.8 143.8 Q 325.3 143.6, 324.5 143.4 Q 323.4 143.1, 322.8 142.8 Q 322.2 142.5, 321.7 141.8 Q 321.3 141.2, 321.3 140.2 Q 321.3 138.7, 322.3 137.8 Q 323.3 136.9, 325.3 136.9 Q 326.6 136.9, 328.2 137.5 L 327.8 138.8 Q 326.4 138.2, 325.3 138.2 Q 324.2 138.2, 323.6 138.7 Q 322.9 139.2, 323.0 140.0 Q 323.0 140.6, 323.3 141.0 Q 323.6 141.3, 324.1 141.6 Q 324.5 141.8, 325.3 142.0 Q 326.4 142.3, 327.0 142.7 Q 327.6 143.0, 328.1 143.7 Q 328.6 144.3, 328.6 145.5 Q 328.6 147.1, 327.5 148.0 Q 326.4 148.8, 324.6 148.8 Q 323.6 148.8, 322.8 148.6 Q 322.0 148.4, 321.1 148.0 L 321.5 146.7 " fill="#000000"/>
<path class="atom-0" d="M 329.3 138.6 L 333.3 138.6 L 333.3 139.5 L 329.3 139.5 L 329.3 138.6 " fill="#000000"/>
<path class="atom-1" d="M 283.0 149.6 L 286.8 155.8 Q 287.2 156.4, 287.8 157.5 Q 288.4 158.6, 288.5 158.7 L 288.5 149.6 L 290.0 149.6 L 290.0 161.3 L 288.4 161.3 L 284.3 154.5 Q 283.8 153.7, 283.3 152.8 Q 282.8 151.9, 282.7 151.6 L 282.7 161.3 L 281.2 161.3 L 281.2 149.6 L 283.0 149.6 " fill="#000000"/>
<path class="atom-4" d="M 322.2 95.6 L 326.1 101.8 Q 326.4 102.4, 327.0 103.5 Q 327.7 104.6, 327.7 104.7 L 327.7 95.6 L 329.2 95.6 L 329.2 107.3 L 327.6 107.3 L 323.5 100.5 Q 323.1 99.8, 322.5 98.8 Q 322.0 97.9, 321.9 97.7 L 321.9 107.3 L 320.4 107.3 L 320.4 95.6 L 322.2 95.6 " fill="#000000"/>
<path class="atom-7" d="M 419.8 151.9 L 423.6 158.1 Q 424.0 158.7, 424.6 159.8 Q 425.2 161.0, 425.2 161.0 L 425.2 151.9 L 426.8 151.9 L 426.8 163.6 L 425.2 163.6 L 421.1 156.9 Q 420.6 156.1, 420.1 155.2 Q 419.6 154.3, 419.5 154.0 L 419.5 163.6 L 417.9 163.6 L 417.9 151.9 L 419.8 151.9 " fill="#000000"/>
<path class="atom-8" d="M 461.0 151.9 L 464.8 158.1 Q 465.2 158.7, 465.8 159.8 Q 466.4 161.0, 466.5 161.0 L 466.5 151.9 L 468.0 151.9 L 468.0 163.6 L 466.4 163.6 L 462.3 156.9 Q 461.8 156.1, 461.3 155.2 Q 460.8 154.3, 460.7 154.0 L 460.7 163.6 L 459.2 163.6 L 459.2 151.9 L 461.0 151.9 " fill="#000000"/>
<path class="atom-9" d="M 481.6 116.2 L 485.5 122.4 Q 485.8 123.0, 486.4 124.1 Q 487.1 125.2, 487.1 125.3 L 487.1 116.2 L 488.6 116.2 L 488.6 127.9 L 487.0 127.9 L 482.9 121.2 Q 482.5 120.4, 481.9 119.5 Q 481.4 118.6, 481.3 118.3 L 481.3 127.9 L 479.8 127.9 L 479.8 116.2 L 481.6 116.2 " fill="#000000"/>
<path class="atom-0" d="M 595.8 110.8 L 599.6 110.8 L 599.6 122.9 L 614.1 122.9 L 614.1 110.8 L 617.9 110.8 L 617.9 139.2 L 614.1 139.2 L 614.1 126.1 L 599.6 126.1 L 599.6 139.2 L 595.8 139.2 L 595.8 110.8 " fill="#000000"/>
<path class="atom-0" d="M 635.1 124.3 Q 637.8 125.0, 639.2 126.7 Q 640.6 128.4, 640.6 130.8 Q 640.6 134.7, 638.1 137.0 Q 635.6 139.2, 630.9 139.2 L 621.3 139.2 L 621.3 110.8 L 629.7 110.8 Q 634.5 110.8, 637.0 112.8 Q 639.4 114.8, 639.4 118.4 Q 639.4 122.6, 635.1 124.3 M 625.1 114.0 L 625.1 122.9 L 629.7 122.9 Q 632.5 122.9, 633.9 121.8 Q 635.4 120.6, 635.4 118.4 Q 635.4 114.0, 629.7 114.0 L 625.1 114.0 M 630.9 136.0 Q 633.6 136.0, 635.1 134.6 Q 636.6 133.3, 636.6 130.8 Q 636.6 128.5, 634.9 127.3 Q 633.3 126.1, 630.3 126.1 L 625.1 126.1 L 625.1 136.0 L 630.9 136.0 " fill="#000000"/>
<path class="atom-0" d="M 645.5 118.6 L 645.9 121.4 Q 648.1 118.2, 651.6 118.2 Q 652.7 118.2, 654.2 118.6 L 653.6 122.0 Q 651.9 121.6, 650.9 121.6 Q 649.3 121.6, 648.1 122.3 Q 647.1 122.9, 646.2 124.5 L 646.2 139.2 L 642.4 139.2 L 642.4 118.6 L 645.5 118.6 " fill="#000000"/>
<path class="bond-0 atom-0 atom-1" d="M 25.2,408.9 L 33.7,379.5" style="fill:none;fill-rule:evenodd;stroke:#000000;stroke-width:2.0px;stroke-linecap:butt;stroke-linejoin:miter;stroke-opacity:1"/>
<path class="bond-0 atom-0 atom-1" d="M 32.4,410.9 L 40.8,381.6" style="fill:none;fill-rule:evenodd;stroke:#000000;stroke-width:2.0px;stroke-linecap:butt;stroke-linejoin:miter;stroke-opacity:1"/>
<path class="bond-1 atom-1 atom-2" d="M 37.2,380.6 L 11.4,353.7" style="fill:none;fill-rule:evenodd;stroke:#000000;stroke-width:2.0px;stroke-linecap:butt;stroke-linejoin:miter;stroke-opacity:1"/>
<path class="bond-2 atom-1 atom-3" d="M 37.2,380.6 L 73.4,371.6" style="fill:none;fill-rule:evenodd;stroke:#000000;stroke-width:2.0px;stroke-linecap:butt;stroke-linejoin:miter;stroke-opacity:1"/>
<path class="bond-3 atom-3 atom-4" d="M 73.4,371.6 L 94.3,402.6" style="fill:none;fill-rule:evenodd;stroke:#000000;stroke-width:2.0px;stroke-linecap:butt;stroke-linejoin:miter;stroke-opacity:1"/>
<path class="bond-4 atom-4 atom-5" d="M 94.3,402.6 L 73.4,433.4" style="fill:none;fill-rule:evenodd;stroke:#000000;stroke-width:2.0px;stroke-linecap:butt;stroke-linejoin:miter;stroke-opacity:1"/>
<path class="bond-5 atom-5 atom-6" d="M 73.4,433.4 L 91.2,456.4" style="fill:none;fill-rule:evenodd;stroke:#000000;stroke-width:2.0px;stroke-linecap:butt;stroke-linejoin:miter;stroke-opacity:1"/>
<path class="bond-6 atom-6 atom-7" d="M 107.4,458.9 L 131.4,450.2" style="fill:none;fill-rule:evenodd;stroke:#000000;stroke-width:2.0px;stroke-linecap:butt;stroke-linejoin:miter;stroke-opacity:1"/>
<path class="bond-7 atom-7 atom-8" d="M 131.4,450.2 L 130.1,412.9" style="fill:none;fill-rule:evenodd;stroke:#000000;stroke-width:2.0px;stroke-linecap:butt;stroke-linejoin:miter;stroke-opacity:1"/>
<path class="bond-8 atom-8 atom-9" d="M 130.1,412.9 L 164.2,397.7" style="fill:none;fill-rule:evenodd;stroke:#000000;stroke-width:2.0px;stroke-linecap:butt;stroke-linejoin:miter;stroke-opacity:1"/>
<path class="bond-9 atom-9 atom-10" d="M 164.2,397.7 L 185.0,428.7" style="fill:none;fill-rule:evenodd;stroke:#000000;stroke-width:2.0px;stroke-linecap:butt;stroke-linejoin:miter;stroke-opacity:1"/>
<path class="bond-10 atom-10 atom-11" d="M 185.0,428.7 L 222.2,426.1" style="fill:none;fill-rule:evenodd;stroke:#000000;stroke-width:2.0px;stroke-linecap:butt;stroke-linejoin:miter;stroke-opacity:1"/>
<path class="bond-11 atom-11 atom-12" d="M 222.2,426.1 L 238.6,392.6" style="fill:none;fill-rule:evenodd;stroke:#000000;stroke-width:2.0px;stroke-linecap:butt;stroke-linejoin:miter;stroke-opacity:1"/>
<path class="bond-12 atom-12 atom-13" d="M 238.6,392.6 L 217.8,361.7" style="fill:none;fill-rule:evenodd;stroke:#000000;stroke-width:2.0px;stroke-linecap:butt;stroke-linejoin:miter;stroke-opacity:1"/>
<path class="bond-13 atom-13 atom-14" d="M 217.8,361.7 L 180.6,364.2" style="fill:none;fill-rule:evenodd;stroke:#000000;stroke-width:2.0px;stroke-linecap:butt;stroke-linejoin:miter;stroke-opacity:1"/>
<path class="bond-14 atom-14 atom-15" d="M 180.6,364.2 L 171.6,328.0" style="fill:none;fill-rule:evenodd;stroke:#000000;stroke-width:2.0px;stroke-linecap:butt;stroke-linejoin:miter;stroke-opacity:1"/>
<path class="bond-15 atom-15 atom-16" d="M 171.6,328.0 L 141.5,306.1" style="fill:none;fill-rule:evenodd;stroke:#000000;stroke-width:2.0px;stroke-linecap:butt;stroke-linejoin:miter;stroke-opacity:1"/>
<path class="bond-16 atom-16 atom-17" d="M 141.5,306.1 L 149.9,276.7" style="fill:none;fill-rule:evenodd;stroke:#000000;stroke-width:2.0px;stroke-linecap:butt;stroke-linejoin:miter;stroke-opacity:1"/>
<path class="bond-17 atom-16 atom-18" d="M 141.5,306.1 L 109.5,308.3" style="fill:none;fill-rule:evenodd;stroke:#000000;stroke-width:2.0px;stroke-linecap:butt;stroke-linejoin:miter;stroke-opacity:1"/>
<path class="bond-17 atom-16 atom-18" d="M 137.2,313.8 L 114.8,315.4" style="fill:none;fill-rule:evenodd;stroke:#000000;stroke-width:2.0px;stroke-linecap:butt;stroke-linejoin:miter;stroke-opacity:1"/>
<path class="bond-18 atom-18 atom-19" d="M 99.0,313.7 L 77.4,334.5" style="fill:none;fill-rule:evenodd;stroke:#000000;stroke-width:2.0px;stroke-linecap:butt;stroke-linejoin:miter;stroke-opacity:1"/>
<path class="bond-19 atom-19 atom-3" d="M 77.4,334.5 L 73.4,371.6" style="fill:none;fill-rule:evenodd;stroke:#000000;stroke-width:2.0px;stroke-linecap:butt;stroke-linejoin:miter;stroke-opacity:1"/>
<path class="bond-20 atom-8 atom-4" d="M 130.1,412.9 L 94.3,402.6" style="fill:none;fill-rule:evenodd;stroke:#000000;stroke-width:2.0px;stroke-linecap:butt;stroke-linejoin:miter;stroke-opacity:1"/>
<path class="bond-21 atom-14 atom-9" d="M 180.6,364.2 L 164.2,397.7" style="fill:none;fill-rule:evenodd;stroke:#000000;stroke-width:2.0px;stroke-linecap:butt;stroke-linejoin:miter;stroke-opacity:1"/>
<path class="bond-22 atom-9 atom-20" d="M 161.9,403.2 L 163.3,403.6" style="fill:none;fill-rule:evenodd;stroke:#000000;stroke-width:1.0px;stroke-linecap:butt;stroke-linejoin:miter;stroke-opacity:1"/>
<path class="bond-22 atom-9 atom-20" d="M 159.5,408.6 L 162.4,409.4" style="fill:none;fill-rule:evenodd;stroke:#000000;stroke-width:1.0px;stroke-linecap:butt;stroke-linejoin:miter;stroke-opacity:1"/>
<path class="bond-22 atom-9 atom-20" d="M 157.2,414.0 L 161.5,415.2" style="fill:none;fill-rule:evenodd;stroke:#000000;stroke-width:1.0px;stroke-linecap:butt;stroke-linejoin:miter;stroke-opacity:1"/>
<path class="bond-22 atom-9 atom-20" d="M 154.9,419.4 L 160.6,421.1" style="fill:none;fill-rule:evenodd;stroke:#000000;stroke-width:1.0px;stroke-linecap:butt;stroke-linejoin:miter;stroke-opacity:1"/>
<path class="bond-22 atom-9 atom-20" d="M 152.5,424.8 L 159.7,426.9" style="fill:none;fill-rule:evenodd;stroke:#000000;stroke-width:1.0px;stroke-linecap:butt;stroke-linejoin:miter;stroke-opacity:1"/>
<path class="atom-0" d="M 24.6 411.1 L 28.0 416.7 Q 28.4 417.3, 28.9 418.3 Q 29.5 419.3, 29.5 419.4 L 29.5 411.1 L 30.9 411.1 L 30.9 421.7 L 29.5 421.7 L 25.8 415.6 Q 25.3 414.9, 24.9 414.1 Q 24.4 413.2, 24.3 413.0 L 24.3 421.7 L 22.9 421.7 L 22.9 411.1 L 24.6 411.1 " fill="#000000"/>
<path class="atom-0" d="M 32.2 412.9 L 35.8 412.9 L 35.8 413.7 L 32.2 413.7 L 32.2 412.9 " fill="#000000"/>
<path class="atom-6" d="M 94.0 457.6 L 97.4 463.2 Q 97.8 463.7, 98.3 464.7 Q 98.9 465.7, 98.9 465.8 L 98.9 457.6 L 100.3 457.6 L 100.3 468.2 L 98.9 468.2 L 95.1 462.0 Q 94.7 461.3, 94.3 460.5 Q 93.8 459.7, 93.7 459.4 L 93.7 468.2 L 92.3 468.2 L 92.3 457.6 L 94.0 457.6 " fill="#000000"/>
<path class="atom-6" d="M 101.5 459.5 L 103.4 459.5 L 103.4 457.5 L 104.2 457.5 L 104.2 459.5 L 106.1 459.5 L 106.1 460.2 L 104.2 460.2 L 104.2 462.2 L 103.4 462.2 L 103.4 460.2 L 101.5 460.2 L 101.5 459.5 " fill="#000000"/>
<path class="atom-6" d="M 92.2 469.2 L 93.6 469.2 L 93.6 473.7 L 99.0 473.7 L 99.0 469.2 L 100.4 469.2 L 100.4 479.8 L 99.0 479.8 L 99.0 474.9 L 93.6 474.9 L 93.6 479.8 L 92.2 479.8 L 92.2 469.2 " fill="#000000"/>
<path class="atom-6" d="M 101.7 479.4 Q 102.0 478.7, 102.6 478.4 Q 103.2 478.0, 104.0 478.0 Q 105.1 478.0, 105.7 478.6 Q 106.3 479.1, 106.3 480.2 Q 106.3 481.2, 105.5 482.2 Q 104.8 483.1, 103.2 484.3 L 106.4 484.3 L 106.4 485.1 L 101.7 485.1 L 101.7 484.4 Q 103.0 483.5, 103.8 482.8 Q 104.6 482.1, 104.9 481.5 Q 105.3 480.9, 105.3 480.2 Q 105.3 479.5, 105.0 479.2 Q 104.6 478.8, 104.0 478.8 Q 103.5 478.8, 103.1 479.0 Q 102.7 479.2, 102.5 479.7 L 101.7 479.4 " fill="#000000"/>
<path class="atom-17" d="M 153.3 270.0 Q 154.4 270.2, 154.9 270.9 Q 155.4 271.5, 155.4 272.4 Q 155.4 273.9, 154.4 274.7 Q 153.5 275.5, 151.8 275.5 L 148.2 275.5 L 148.2 264.9 L 151.3 264.9 Q 153.1 264.9, 154.0 265.7 Q 154.9 266.4, 154.9 267.7 Q 154.9 269.3, 153.3 270.0 M 149.6 266.1 L 149.6 269.5 L 151.3 269.5 Q 152.4 269.5, 152.9 269.0 Q 153.5 268.6, 153.5 267.7 Q 153.5 266.1, 151.3 266.1 L 149.6 266.1 M 151.8 274.3 Q 152.8 274.3, 153.3 273.8 Q 153.9 273.3, 153.9 272.4 Q 153.9 271.5, 153.3 271.1 Q 152.7 270.6, 151.5 270.6 L 149.6 270.6 L 149.6 274.3 L 151.8 274.3 " fill="#000000"/>
<path class="atom-17" d="M 157.2 267.8 L 157.4 268.9 Q 158.2 267.7, 159.5 267.7 Q 159.9 267.7, 160.5 267.9 L 160.2 269.1 Q 159.6 269.0, 159.2 269.0 Q 158.6 269.0, 158.2 269.2 Q 157.8 269.5, 157.5 270.0 L 157.5 275.5 L 156.1 275.5 L 156.1 267.8 L 157.2 267.8 " fill="#000000"/>
<path class="atom-18" d="M 101.9 303.3 L 105.4 308.9 Q 105.7 309.5, 106.3 310.5 Q 106.8 311.5, 106.9 311.6 L 106.9 303.3 L 108.3 303.3 L 108.3 313.9 L 106.8 313.9 L 103.1 307.8 Q 102.7 307.1, 102.2 306.3 Q 101.8 305.4, 101.6 305.2 L 101.6 313.9 L 100.2 313.9 L 100.2 303.3 L 101.9 303.3 " fill="#000000"/>
<path class="atom-20" d="M 149.8 428.3 L 151.2 428.3 L 151.2 432.8 L 156.6 432.8 L 156.6 428.3 L 158.0 428.3 L 158.0 438.9 L 156.6 438.9 L 156.6 434.0 L 151.2 434.0 L 151.2 438.9 L 149.8 438.9 L 149.8 428.3 " fill="#000000"/>
<path class="atom-15" d="M 176.8,328.0 L 176.8,328.1 L 176.8,328.2 L 176.8,328.2 L 176.8,328.3 L 176.8,328.3 L 176.7,328.4 L 176.7,328.5 L 176.7,328.5 L 176.6,328.6 L 176.6,328.6 L 176.5,328.6 L 176.5,328.7 L 176.4,328.7 L 176.4,328.7 L 176.3,328.7 L 176.2,328.8 L 176.2,328.8 L 176.1,328.8 L 176.0,328.8 L 176.0,328.8 L 175.9,328.8 L 175.9,328.7 L 175.8,328.7 L 175.7,328.7 L 175.7,328.7 L 175.6,328.6 L 175.6,328.6 L 175.5,328.5 L 175.5,328.5 L 175.5,328.4 L 175.4,328.4 L 175.4,328.3 L 175.4,328.3 L 175.4,328.2 L 175.4,328.1 L 175.4,328.1 L 175.4,328.0 L 175.4,327.9 L 175.4,327.9 L 175.4,327.8 L 175.4,327.8 L 175.4,327.7 L 175.5,327.6 L 175.5,327.6 L 175.5,327.5 L 175.6,327.5 L 175.6,327.4 L 175.7,327.4 L 175.7,327.4 L 175.8,327.3 L 175.9,327.3 L 175.9,327.3 L 176.0,327.3 L 176.0,327.3 L 176.1,327.3 L 176.2,327.3 L 176.2,327.3 L 176.3,327.3 L 176.4,327.3 L 176.4,327.4 L 176.5,327.4 L 176.5,327.4 L 176.6,327.5 L 176.6,327.5 L 176.7,327.6 L 176.7,327.6 L 176.7,327.7 L 176.8,327.7 L 176.8,327.8 L 176.8,327.8 L 176.8,327.9 L 176.8,328.0 L 176.8,328.0 L 176.1,328.0 Z" style="fill:#000000;fill-rule:evenodd;fill-opacity:1;stroke:#000000;stroke-width:0.0px;stroke-linecap:butt;stroke-linejoin:miter;stroke-opacity:1;"/>
<path class="bond-0 atom-0 atom-1" d="M 314.9,311.9 L 380.5,357.5" style="fill:none;fill-rule:evenodd;stroke:#000000;stroke-width:2.0px;stroke-linecap:butt;stroke-linejoin:miter;stroke-opacity:1"/>
<path class="bond-1 atom-1 atom-2" d="M 380.5,357.5 L 342.3,381.5" style="fill:none;fill-rule:evenodd;stroke:#000000;stroke-width:2.0px;stroke-linecap:butt;stroke-linejoin:miter;stroke-opacity:1"/>
<path class="bond-2 atom-2 atom-3" d="M 342.3,381.5 L 348.5,439.6" style="fill:none;fill-rule:evenodd;stroke:#000000;stroke-width:2.0px;stroke-linecap:butt;stroke-linejoin:miter;stroke-opacity:1"/>
<path class="bond-3 atom-3 atom-4" d="M 351.3,444.7 L 309.7,467.4" style="fill:none;fill-rule:evenodd;stroke:#000000;stroke-width:2.0px;stroke-linecap:butt;stroke-linejoin:miter;stroke-opacity:1"/>
<path class="bond-3 atom-3 atom-4" d="M 345.7,434.4 L 304.1,457.2" style="fill:none;fill-rule:evenodd;stroke:#000000;stroke-width:2.0px;stroke-linecap:butt;stroke-linejoin:miter;stroke-opacity:1"/>
<path class="bond-4 atom-3 atom-5" d="M 348.5,439.6 L 385.7,469.5" style="fill:none;fill-rule:evenodd;stroke:#000000;stroke-width:2.0px;stroke-linecap:butt;stroke-linejoin:miter;stroke-opacity:1"/>
<path class="bond-5 atom-5 atom-6" d="M 389.5,465.9 L 377.0,437.1" style="fill:none;fill-rule:evenodd;stroke:#000000;stroke-width:2.0px;stroke-linecap:butt;stroke-linejoin:miter;stroke-opacity:1"/>
<path class="bond-6 atom-6 atom-7" d="M 371.3,416.1 L 368.4,389.2" style="fill:none;fill-rule:evenodd;stroke:#000000;stroke-width:2.0px;stroke-linecap:butt;stroke-linejoin:miter;stroke-opacity:1"/>
<path class="bond-7 atom-7 atom-8" d="M 368.4,389.2 L 293.3,401.7" style="fill:none;fill-rule:evenodd;stroke:#000000;stroke-width:2.0px;stroke-linecap:butt;stroke-linejoin:miter;stroke-opacity:1"/>
<path class="bond-8 atom-7 atom-9" d="M 368.4,389.2 L 378.9,336.1" style="fill:none;fill-rule:evenodd;stroke:#000000;stroke-width:2.0px;stroke-linecap:butt;stroke-linejoin:miter;stroke-opacity:1"/>
<path class="bond-9 atom-5 atom-10" d="M 402.3,475.3 L 452.0,469.9" style="fill:none;fill-rule:evenodd;stroke:#000000;stroke-width:2.0px;stroke-linecap:butt;stroke-linejoin:miter;stroke-opacity:1"/>
<path class="bond-10 atom-10 atom-11" d="M 452.0,469.9 L 488.6,424.5" style="fill:none;fill-rule:evenodd;stroke:#000000;stroke-width:2.0px;stroke-linecap:butt;stroke-linejoin:miter;stroke-opacity:1"/>
<path class="bond-11 atom-11 atom-12" d="M 488.6,424.5 L 482.4,366.4" style="fill:none;fill-rule:evenodd;stroke:#000000;stroke-width:2.0px;stroke-linecap:butt;stroke-linejoin:miter;stroke-opacity:1"/>
<path class="bond-12 atom-12 atom-13" d="M 482.4,366.4 L 436.9,329.8" style="fill:none;fill-rule:evenodd;stroke:#000000;stroke-width:2.0px;stroke-linecap:butt;stroke-linejoin:miter;stroke-opacity:1"/>
<path class="bond-13 atom-13 atom-14" d="M 436.9,329.8 L 378.9,336.1" style="fill:none;fill-rule:evenodd;stroke:#000000;stroke-width:2.0px;stroke-linecap:butt;stroke-linejoin:miter;stroke-opacity:1"/>
<path class="bond-14 atom-9 atom-1" d="M 378.9,336.1 L 380.5,357.5" style="fill:none;fill-rule:evenodd;stroke:#000000;stroke-width:2.0px;stroke-linecap:butt;stroke-linejoin:miter;stroke-opacity:1"/>
<path class="bond-15 atom-14 atom-2" d="M 378.9,336.1 L 342.3,381.5" style="fill:none;fill-rule:evenodd;stroke:#000000;stroke-width:2.0px;stroke-linecap:butt;stroke-linejoin:miter;stroke-opacity:1"/>
<path class="bond-16 atom-13 atom-9" d="M 436.9,329.8 L 378.9,336.1" style="fill:none;fill-rule:evenodd;stroke:#000000;stroke-width:2.0px;stroke-linecap:butt;stroke-linejoin:miter;stroke-opacity:1"/>
<path class="bond-17 atom-1 atom-15" d="M 363.5,357.0 L 363.5,359.0" style="fill:none;fill-rule:evenodd;stroke:#000000;stroke-width:1.0px;stroke-linecap:butt;stroke-linejoin:miter;stroke-opacity:1"/>
<path class="bond-17 atom-1 atom-15" d="M 346.4,356.5 L 346.5,360.5" style="fill:none;fill-rule:evenodd;stroke:#000000;stroke-width:1.0px;stroke-linecap:butt;stroke-linejoin:miter;stroke-opacity:1"/>
<path class="bond-17 atom-1 atom-15" d="M 329.3,356.0 L 329.5,362.1" style="fill:none;fill-rule:evenodd;stroke:#000000;stroke-width:1.0px;stroke-linecap:butt;stroke-linejoin:miter;stroke-opacity:1"/>
<path class="bond-17 atom-1 atom-15" d="M 312.3,355.5 L 312.5,363.6" style="fill:none;fill-rule:evenodd;stroke:#000000;stroke-width:1.0px;stroke-linecap:butt;stroke-linejoin:miter;stroke-opacity:1"/>
<path class="bond-17 atom-1 atom-15" d="M 295.2,355.0 L 295.5,365.1" style="fill:none;fill-rule:evenodd;stroke:#000000;stroke-width:1.0px;stroke-linecap:butt;stroke-linejoin:miter;stroke-opacity:1"/>
<path class="bond-17 atom-1 atom-15" d="M 278.1,354.5 L 278.5,366.6" style="fill:none;fill-rule:evenodd;stroke:#000000;stroke-width:1.0px;stroke-linecap:butt;stroke-linejoin:miter;stroke-opacity:1"/>
<path class="bond-18 atom-7 atom-16" d="M 361.8,380.6 L 360.3,382.0" style="fill:none;fill-rule:evenodd;stroke:#000000;stroke-width:1.0px;stroke-linecap:butt;stroke-linejoin:miter;stroke-opacity:1"/>
<path class="bond-18 atom-7 atom-16" d="M 355.2,372.0 L 352.2,374.8" style="fill:none;fill-rule:evenodd;stroke:#000000;stroke-width:1.0px;stroke-linecap:butt;stroke-linejoin:miter;stroke-opacity:1"/>
<path class="bond-18 atom-7 atom-16" d="M 348.6,363.4 L 344.2,367.6" style="fill:none;fill-rule:evenodd;stroke:#000000;stroke-width:1.0px;stroke-linecap:butt;stroke-linejoin:miter;stroke-opacity:1"/>
<path class="bond-18 atom-7 atom-16" d="M 342.0,354.9 L 336.1,360.4" style="fill:none;fill-rule:evenodd;stroke:#000000;stroke-width:1.0px;stroke-linecap:butt;stroke-linejoin:miter;stroke-opacity:1"/>
<path class="bond-18 atom-7 atom-16" d="M 335.4,346.3 L 328.0,353.2" style="fill:none;fill-rule:evenodd;stroke:#000000;stroke-width:1.0px;stroke-linecap:butt;stroke-linejoin:miter;stroke-opacity:1"/>
<path class="bond-18 atom-7 atom-16" d="M 328.8,337.7 L 319.9,346.0" style="fill:none;fill-rule:evenodd;stroke:#000000;stroke-width:1.0px;stroke-linecap:butt;stroke-linejoin:miter;stroke-opacity:1"/>
<path class="bond-19 atom-13 atom-17" d="M 440.0,322.8 L 438.1,322.3" style="fill:none;fill-rule:evenodd;stroke:#000000;stroke-width:1.0px;stroke-linecap:butt;stroke-linejoin:miter;stroke-opacity:1"/>
<path class="bond-19 atom-13 atom-17" d="M 443.1,315.8 L 439.3,314.7" style="fill:none;fill-rule:evenodd;stroke:#000000;stroke-width:1.0px;stroke-linecap:butt;stroke-linejoin:miter;stroke-opacity:1"/>
<path class="bond-19 atom-13 atom-17" d="M 446.3,308.8 L 440.4,307.1" style="fill:none;fill-rule:evenodd;stroke:#000000;stroke-width:1.0px;stroke-linecap:butt;stroke-linejoin:miter;stroke-opacity:1"/>
<path class="bond-19 atom-13 atom-17" d="M 449.4,301.8 L 441.6,299.5" style="fill:none;fill-rule:evenodd;stroke:#000000;stroke-width:1.0px;stroke-linecap:butt;stroke-linejoin:miter;stroke-opacity:1"/>
<path class="bond-19 atom-13 atom-17" d="M 452.5,294.8 L 442.7,292.0" style="fill:none;fill-rule:evenodd;stroke:#000000;stroke-width:1.0px;stroke-linecap:butt;stroke-linejoin:miter;stroke-opacity:1"/>
<path class="bond-19 atom-13 atom-17" d="M 455.6,287.8 L 443.9,284.4" style="fill:none;fill-rule:evenodd;stroke:#000000;stroke-width:1.0px;stroke-linecap:butt;stroke-linejoin:miter;stroke-opacity:1"/>
<path class="atom-0" d="M 277.2 297.9 L 279.4 297.9 L 279.4 304.9 L 287.9 304.9 L 287.9 297.9 L 290.1 297.9 L 290.1 314.4 L 287.9 314.4 L 287.9 306.8 L 279.4 306.8 L 279.4 314.4 L 277.2 314.4 L 277.2 297.9 " fill="#000000"/>
<path class="atom-0" d="M 292.1 313.9 Q 292.5 312.8, 293.5 312.2 Q 294.4 311.7, 295.8 311.7 Q 297.4 311.7, 298.3 312.6 Q 299.3 313.4, 299.3 315.0 Q 299.3 316.7, 298.1 318.2 Q 296.9 319.7, 294.4 321.5 L 299.4 321.5 L 299.4 322.7 L 292.1 322.7 L 292.1 321.7 Q 294.1 320.2, 295.3 319.1 Q 296.5 318.1, 297.1 317.1 Q 297.7 316.1, 297.7 315.1 Q 297.7 314.1, 297.2 313.5 Q 296.7 312.9, 295.8 312.9 Q 294.9 312.9, 294.3 313.2 Q 293.7 313.6, 293.3 314.4 L 292.1 313.9 " fill="#000000"/>
<path class="atom-0" d="M 303.0 297.9 L 308.4 306.7 Q 308.9 307.5, 309.8 309.1 Q 310.7 310.6, 310.7 310.7 L 310.7 297.9 L 312.9 297.9 L 312.9 314.4 L 310.6 314.4 L 304.8 304.9 Q 304.1 303.7, 303.4 302.5 Q 302.7 301.2, 302.5 300.8 L 302.5 314.4 L 300.4 314.4 L 300.4 297.9 L 303.0 297.9 " fill="#000000"/>
<path class="atom-0" d="M 314.8 300.9 L 317.7 300.9 L 317.7 297.8 L 319.0 297.8 L 319.0 300.9 L 322.0 300.9 L 322.0 302.0 L 319.0 302.0 L 319.0 305.1 L 317.7 305.1 L 317.7 302.0 L 314.8 302.0 L 314.8 300.9 " fill="#000000"/>
<path class="atom-4" d="M 289.7 467.6 Q 289.7 463.6, 291.7 461.4 Q 293.7 459.2, 297.3 459.2 Q 301.0 459.2, 303.0 461.4 Q 304.9 463.6, 304.9 467.6 Q 304.9 471.6, 302.9 473.9 Q 300.9 476.2, 297.3 476.2 Q 293.7 476.2, 291.7 473.9 Q 289.7 471.6, 289.7 467.6 M 297.3 474.3 Q 299.9 474.3, 301.2 472.6 Q 302.6 470.9, 302.6 467.6 Q 302.6 464.4, 301.2 462.7 Q 299.9 461.1, 297.3 461.1 Q 294.8 461.1, 293.4 462.7 Q 292.1 464.3, 292.1 467.6 Q 292.1 470.9, 293.4 472.6 Q 294.8 474.3, 297.3 474.3 " fill="#000000"/>
<path class="atom-5" d="M 390.3 467.9 L 395.8 476.7 Q 396.3 477.5, 397.2 479.1 Q 398.0 480.7, 398.1 480.8 L 398.1 467.9 L 400.3 467.9 L 400.3 484.4 L 398.0 484.4 L 392.2 474.9 Q 391.5 473.7, 390.8 472.5 Q 390.1 471.2, 389.9 470.8 L 389.9 484.4 L 387.7 484.4 L 387.7 467.9 L 390.3 467.9 " fill="#000000"/>
<path class="atom-6" d="M 366.1 426.6 Q 366.1 422.5, 368.0 420.3 Q 369.9 418.1, 373.6 418.1 Q 377.0 418.1, 378.8 420.6 L 377.3 421.8 Q 375.9 420.1, 373.6 420.1 Q 371.1 420.1, 369.8 421.7 Q 368.5 423.4, 368.5 426.6 Q 368.5 429.8, 369.8 431.5 Q 371.2 433.2, 373.8 433.2 Q 375.7 433.2, 377.8 432.1 L 378.4 433.9 Q 377.6 434.4, 376.3 434.7 Q 375.0 435.1, 373.5 435.1 Q 369.9 435.1, 368.0 432.9 Q 366.1 430.7, 366.1 426.6 " fill="#000000"/>
<path class="atom-8" d="M 280.1 402.2 Q 281.7 402.6, 282.5 403.6 Q 283.3 404.6, 283.3 406.0 Q 283.3 408.3, 281.9 409.6 Q 280.4 410.9, 277.7 410.9 L 272.1 410.9 L 272.1 394.3 L 277.0 394.3 Q 279.8 394.3, 281.2 395.5 Q 282.7 396.6, 282.7 398.7 Q 282.7 401.2, 280.1 402.2 M 274.3 396.2 L 274.3 401.4 L 277.0 401.4 Q 278.6 401.4, 279.5 400.7 Q 280.3 400.1, 280.3 398.7 Q 280.3 396.2, 277.0 396.2 L 274.3 396.2 M 277.7 409.0 Q 279.3 409.0, 280.1 408.2 Q 281.0 407.5, 281.0 406.0 Q 281.0 404.6, 280.0 404.0 Q 279.1 403.3, 277.3 403.3 L 274.3 403.3 L 274.3 409.0 L 277.7 409.0 " fill="#000000"/>
<path class="atom-8" d="M 286.2 398.9 L 286.4 400.5 Q 287.7 398.7, 289.8 398.7 Q 290.4 398.7, 291.3 398.9 L 291.0 400.8 Q 289.9 400.6, 289.4 400.6 Q 288.4 400.6, 287.8 401.0 Q 287.1 401.4, 286.6 402.3 L 286.6 410.9 L 284.4 410.9 L 284.4 398.9 L 286.2 398.9 " fill="#000000"/>
<path class="atom-15" d="M 261.4 352.6 L 263.6 352.6 L 263.6 359.6 L 272.1 359.6 L 272.1 352.6 L 274.3 352.6 L 274.3 369.1 L 272.1 369.1 L 272.1 361.5 L 263.6 361.5 L 263.6 369.1 L 261.4 369.1 L 261.4 352.6 " fill="#000000"/>
<path class="atom-16" d="M 307.4 322.3 L 309.6 322.3 L 309.6 329.3 L 318.1 329.3 L 318.1 322.3 L 320.3 322.3 L 320.3 338.8 L 318.1 338.8 L 318.1 331.2 L 309.6 331.2 L 309.6 338.8 L 307.4 338.8 L 307.4 322.3 " fill="#000000"/>
<path class="atom-17" d="M 446.9 265.6 L 449.1 265.6 L 449.1 272.6 L 457.6 272.6 L 457.6 265.6 L 459.8 265.6 L 459.8 282.1 L 457.6 282.1 L 457.6 274.5 L 449.1 274.5 L 449.1 282.1 L 446.9 282.1 L 446.9 265.6 " fill="#000000"/>
<path class="atom-0" d="M 274.8,306.2 L 274.8,306.3 L 274.8,306.4 L 274.8,306.5 L 274.8,306.6 L 274.7,306.7 L 274.7,306.7 L 274.6,306.8 L 274.6,306.9 L 274.5,307.0 L 274.4,307.1 L 274.4,307.1 L 274.3,307.2 L 274.2,307.2 L 274.1,307.3 L 274.0,307.3 L 273.9,307.3 L 273.8,307.3 L 273.7,307.3 L 273.6,307.3 L 273.5,307.3 L 273.4,307.3 L 273.3,307.3 L 273.2,307.2 L 273.1,307.2 L 273.0,307.1 L 272.9,307.1 L 272.9,307.0 L 272.8,306.9 L 272.7,306.9 L 272.7,306.8 L 272.6,306.7 L 272.6,306.6 L 272.6,306.5 L 272.5,306.4 L 272.5,306.3 L 272.5,306.2 L 272.5,306.1 L 272.5,306.0 L 272.5,305.9 L 272.6,305.8 L 272.6,305.7 L 272.6,305.6 L 272.7,305.5 L 272.7,305.5 L 272.8,305.4 L 272.9,305.3 L 272.9,305.2 L 273.0,305.2 L 273.1,305.1 L 273.2,305.1 L 273.3,305.1 L 273.4,305.0 L 273.5,305.0 L 273.6,305.0 L 273.7,305.0 L 273.8,305.0 L 273.9,305.0 L 274.0,305.0 L 274.1,305.1 L 274.2,305.1 L 274.3,305.2 L 274.4,305.2 L 274.4,305.3 L 274.5,305.3 L 274.6,305.4 L 274.6,305.5 L 274.7,305.6 L 274.7,305.7 L 274.8,305.8 L 274.8,305.9 L 274.8,306.0 L 274.8,306.1 L 274.8,306.2 L 273.7,306.2 Z" style="fill:#000000;fill-rule:evenodd;fill-opacity:1;stroke:#000000;stroke-width:0.0px;stroke-linecap:butt;stroke-linejoin:miter;stroke-opacity:1;"/>
<path class="atom-10" d="M 460.2,469.9 L 460.2,470.0 L 460.2,470.1 L 460.2,470.2 L 460.1,470.3 L 460.1,470.4 L 460.0,470.5 L 460.0,470.6 L 459.9,470.7 L 459.9,470.7 L 459.8,470.8 L 459.7,470.9 L 459.6,470.9 L 459.5,471.0 L 459.4,471.0 L 459.4,471.0 L 459.3,471.1 L 459.2,471.1 L 459.1,471.1 L 459.0,471.1 L 458.9,471.1 L 458.8,471.1 L 458.7,471.0 L 458.6,471.0 L 458.5,470.9 L 458.4,470.9 L 458.3,470.8 L 458.2,470.8 L 458.2,470.7 L 458.1,470.6 L 458.0,470.5 L 458.0,470.5 L 458.0,470.4 L 457.9,470.3 L 457.9,470.2 L 457.9,470.1 L 457.9,470.0 L 457.9,469.9 L 457.9,469.8 L 457.9,469.7 L 457.9,469.6 L 458.0,469.5 L 458.0,469.4 L 458.0,469.3 L 458.1,469.2 L 458.2,469.1 L 458.2,469.1 L 458.3,469.0 L 458.4,468.9 L 458.5,468.9 L 458.6,468.8 L 458.7,468.8 L 458.8,468.8 L 458.9,468.8 L 459.0,468.8 L 459.1,468.8 L 459.2,468.8 L 459.3,468.8 L 459.4,468.8 L 459.4,468.8 L 459.5,468.9 L 459.6,468.9 L 459.7,469.0 L 459.8,469.0 L 459.9,469.1 L 459.9,469.2 L 460.0,469.3 L 460.0,469.3 L 460.1,469.4 L 460.1,469.5 L 460.2,469.6 L 460.2,469.7 L 460.2,469.8 L 460.2,469.9 L 459.0,469.9 Z" style="fill:#000000;fill-rule:evenodd;fill-opacity:1;stroke:#000000;stroke-width:0.0px;stroke-linecap:butt;stroke-linejoin:miter;stroke-opacity:1;"/>
<path class="atom-9" d="M 375.0,332.2 L 375.0,340.0 L 382.8,340.0 L 382.8,332.2 L 375.0,332.2" style="fill:none;stroke:#FF0000;stroke-width:2.0px;stroke-linecap:butt;stroke-linejoin:miter;stroke-opacity:1;"/>
<path class="bond-0 atom-0 atom-1" d="M 511.4,380.4 L 537.3,395.9" style="fill:none;fill-rule:evenodd;stroke:#000000;stroke-width:2.0px;stroke-linecap:butt;stroke-linejoin:miter;stroke-opacity:1"/>
<path class="bond-1 atom-1 atom-2" d="M 547.4,396.0 L 573.9,381.3" style="fill:none;fill-rule:evenodd;stroke:#000000;stroke-width:2.0px;stroke-linecap:butt;stroke-linejoin:miter;stroke-opacity:1"/>
<path class="bond-1 atom-1 atom-2" d="M 547.9,387.5 L 566.4,377.2" style="fill:none;fill-rule:evenodd;stroke:#000000;stroke-width:2.0px;stroke-linecap:butt;stroke-linejoin:miter;stroke-opacity:1"/>
<path class="bond-2 atom-2 atom-3" d="M 573.9,381.3 L 602.2,394.3" style="fill:none;fill-rule:evenodd;stroke:#000000;stroke-width:2.0px;stroke-linecap:butt;stroke-linejoin:miter;stroke-opacity:1"/>
<path class="bond-3 atom-3 atom-4" d="M 611.1,391.6 L 631.1,369.9" style="fill:none;fill-rule:evenodd;stroke:#000000;stroke-width:2.0px;stroke-linecap:butt;stroke-linejoin:miter;stroke-opacity:1"/>
<path class="bond-4 atom-4 atom-5" d="M 631.1,369.9 L 667.0,374.2" style="fill:none;fill-rule:evenodd;stroke:#000000;stroke-width:2.0px;stroke-linecap:butt;stroke-linejoin:miter;stroke-opacity:1"/>
<path class="bond-5 atom-5 atom-6" d="M 667.0,374.2 L 681.2,407.3" style="fill:none;fill-rule:evenodd;stroke:#000000;stroke-width:2.0px;stroke-linecap:butt;stroke-linejoin:miter;stroke-opacity:1"/>
<path class="bond-5 atom-5 atom-6" d="M 675.7,376.3 L 685.7,399.5" style="fill:none;fill-rule:evenodd;stroke:#000000;stroke-width:2.0px;stroke-linecap:butt;stroke-linejoin:miter;stroke-opacity:1"/>
<path class="bond-6 atom-6 atom-7" d="M 681.2,407.3 L 717.0,411.6" style="fill:none;fill-rule:evenodd;stroke:#000000;stroke-width:2.0px;stroke-linecap:butt;stroke-linejoin:miter;stroke-opacity:1"/>
<path class="bond-7 atom-7 atom-8" d="M 717.0,411.6 L 738.6,382.7" style="fill:none;fill-rule:evenodd;stroke:#000000;stroke-width:2.0px;stroke-linecap:butt;stroke-linejoin:miter;stroke-opacity:1"/>
<path class="bond-7 atom-7 atom-8" d="M 714.5,402.9 L 729.6,382.7" style="fill:none;fill-rule:evenodd;stroke:#000000;stroke-width:2.0px;stroke-linecap:butt;stroke-linejoin:miter;stroke-opacity:1"/>
<path class="bond-8 atom-8 atom-9" d="M 738.6,382.7 L 724.4,349.5" style="fill:none;fill-rule:evenodd;stroke:#000000;stroke-width:2.0px;stroke-linecap:butt;stroke-linejoin:miter;stroke-opacity:1"/>
<path class="bond-9 atom-9 atom-10" d="M 724.4,349.5 L 688.6,345.3" style="fill:none;fill-rule:evenodd;stroke:#000000;stroke-width:2.0px;stroke-linecap:butt;stroke-linejoin:miter;stroke-opacity:1"/>
<path class="bond-9 atom-9 atom-10" d="M 718.2,356.1 L 693.1,353.1" style="fill:none;fill-rule:evenodd;stroke:#000000;stroke-width:2.0px;stroke-linecap:butt;stroke-linejoin:miter;stroke-opacity:1"/>
<path class="bond-10 atom-4 atom-11" d="M 631.1,369.9 L 613.5,338.4" style="fill:none;fill-rule:evenodd;stroke:#000000;stroke-width:2.0px;stroke-linecap:butt;stroke-linejoin:miter;stroke-opacity:1"/>
<path class="bond-11 atom-11 atom-12" d="M 613.5,338.4 L 584.0,344.3" style="fill:none;fill-rule:evenodd;stroke:#000000;stroke-width:2.0px;stroke-linecap:butt;stroke-linejoin:miter;stroke-opacity:1"/>
<path class="bond-12 atom-12 atom-2" d="M 577.3,351.9 L 573.9,381.3" style="fill:none;fill-rule:evenodd;stroke:#000000;stroke-width:2.0px;stroke-linecap:butt;stroke-linejoin:miter;stroke-opacity:1"/>
<path class="bond-13 atom-10 atom-5" d="M 688.6,345.3 L 667.0,374.2" style="fill:none;fill-rule:evenodd;stroke:#000000;stroke-width:2.0px;stroke-linecap:butt;stroke-linejoin:miter;stroke-opacity:1"/>
<path class="atom-1" d="M 540.1 393.8 L 543.5 399.2 Q 543.8 399.7, 544.3 400.7 Q 544.9 401.7, 544.9 401.7 L 544.9 393.8 L 546.2 393.8 L 546.2 404.0 L 544.8 404.0 L 541.2 398.1 Q 540.8 397.4, 540.4 396.6 Q 539.9 395.8, 539.8 395.5 L 539.8 404.0 L 538.5 404.0 L 538.5 393.8 L 540.1 393.8 " fill="#000000"/>
<path class="atom-3" d="M 603.7 399.9 Q 603.9 399.9, 604.3 400.1 Q 604.8 400.3, 605.3 400.5 Q 605.9 400.6, 606.4 400.6 Q 607.3 400.6, 607.9 400.1 Q 608.5 399.7, 608.5 398.8 Q 608.5 398.3, 608.2 397.9 Q 607.9 397.6, 607.5 397.4 Q 607.0 397.2, 606.3 397.0 Q 605.4 396.7, 604.9 396.4 Q 604.3 396.2, 603.9 395.6 Q 603.6 395.1, 603.6 394.2 Q 603.6 392.9, 604.4 392.1 Q 605.3 391.3, 607.0 391.3 Q 608.2 391.3, 609.6 391.9 L 609.2 393.0 Q 608.0 392.5, 607.1 392.5 Q 606.1 392.5, 605.5 392.9 Q 605.0 393.3, 605.0 394.0 Q 605.0 394.5, 605.3 394.9 Q 605.6 395.2, 606.0 395.4 Q 606.4 395.6, 607.1 395.8 Q 608.0 396.1, 608.6 396.4 Q 609.1 396.7, 609.5 397.3 Q 609.9 397.8, 609.9 398.8 Q 609.9 400.2, 608.9 401.0 Q 608.0 401.8, 606.4 401.8 Q 605.5 401.8, 604.8 401.6 Q 604.2 401.4, 603.3 401.0 L 603.7 399.9 " fill="#000000"/>
<path class="atom-12" d="M 573.4 345.5 Q 573.4 343.0, 574.6 341.6 Q 575.9 340.3, 578.1 340.3 Q 580.4 340.3, 581.6 341.6 Q 582.8 343.0, 582.8 345.5 Q 582.8 347.9, 581.6 349.4 Q 580.4 350.8, 578.1 350.8 Q 575.9 350.8, 574.6 349.4 Q 573.4 348.0, 573.4 345.5 M 578.1 349.6 Q 579.7 349.6, 580.5 348.6 Q 581.4 347.5, 581.4 345.5 Q 581.4 343.5, 580.5 342.4 Q 579.7 341.4, 578.1 341.4 Q 576.6 341.4, 575.7 342.4 Q 574.9 343.4, 574.9 345.5 Q 574.9 347.5, 575.7 348.6 Q 576.6 349.6, 578.1 349.6 " fill="#000000"/>
<path class="bond-0 atom-0 atom-1" d="M 69.1,624.9 L 187.9,624.9" style="fill:none;fill-rule:evenodd;stroke:#000000;stroke-width:2.0px;stroke-linecap:butt;stroke-linejoin:miter;stroke-opacity:1"/>
<path class="atom-0" d="M 32.4 634.6 Q 32.7 634.7, 34.0 635.3 Q 35.4 635.9, 36.8 636.2 Q 38.3 636.5, 39.7 636.5 Q 42.4 636.5, 44.0 635.3 Q 45.5 633.9, 45.5 631.7 Q 45.5 630.1, 44.7 629.1 Q 44.0 628.2, 42.8 627.7 Q 41.6 627.1, 39.6 626.5 Q 37.0 625.8, 35.5 625.1 Q 34.0 624.3, 33.0 622.8 Q 31.9 621.3, 31.9 618.7 Q 31.9 615.2, 34.3 613.0 Q 36.8 610.8, 41.6 610.8 Q 44.8 610.8, 48.6 612.3 L 47.6 615.4 Q 44.2 614.0, 41.7 614.0 Q 38.9 614.0, 37.4 615.2 Q 35.9 616.3, 35.9 618.3 Q 35.9 619.8, 36.7 620.7 Q 37.5 621.6, 38.6 622.1 Q 39.8 622.7, 41.7 623.3 Q 44.2 624.1, 45.8 624.9 Q 47.3 625.7, 48.4 627.3 Q 49.5 628.9, 49.5 631.7 Q 49.5 635.6, 46.8 637.7 Q 44.2 639.8, 39.9 639.8 Q 37.4 639.8, 35.4 639.2 Q 33.6 638.7, 31.3 637.8 L 32.4 634.6 " fill="#000000"/>
<path class="atom-0" d="M 51.4 615.5 L 56.3 615.5 L 56.3 610.2 L 58.6 610.2 L 58.6 615.5 L 63.7 615.5 L 63.7 617.4 L 58.6 617.4 L 58.6 622.6 L 56.3 622.6 L 56.3 617.4 L 51.4 617.4 L 51.4 615.5 " fill="#000000"/>
<path class="atom-1" d="M 207.1 624.2 Q 209.8 624.9, 211.1 626.6 Q 212.5 628.3, 212.5 630.7 Q 212.5 634.6, 210.0 636.9 Q 207.5 639.1, 202.8 639.1 L 193.3 639.1 L 193.3 610.7 L 201.7 610.7 Q 206.5 610.7, 208.9 612.7 Q 211.4 614.7, 211.4 618.3 Q 211.4 622.5, 207.1 624.2 M 197.1 613.9 L 197.1 622.8 L 201.7 622.8 Q 204.5 622.8, 205.9 621.7 Q 207.4 620.5, 207.4 618.3 Q 207.4 613.9, 201.7 613.9 L 197.1 613.9 M 202.8 635.9 Q 205.6 635.9, 207.1 634.5 Q 208.5 633.2, 208.5 630.7 Q 208.5 628.4, 206.9 627.2 Q 205.3 626.0, 202.2 626.0 L 197.1 626.0 L 197.1 635.9 L 202.8 635.9 " fill="#000000"/>
<path class="atom-1" d="M 217.4 618.5 L 217.9 621.3 Q 220.0 618.1, 223.5 618.1 Q 224.7 618.1, 226.2 618.5 L 225.6 621.9 Q 223.9 621.5, 222.9 621.5 Q 221.2 621.5, 220.1 622.2 Q 219.0 622.8, 218.1 624.4 L 218.1 639.1 L 214.4 639.1 L 214.4 618.5 L 217.4 618.5 " fill="#000000"/>
<path class="atom-0" d="M 27.3,628.9 L 27.3,629.1 L 27.3,629.2 L 27.3,629.4 L 27.2,629.6 L 27.1,629.7 L 27.1,629.9 L 27.0,630.0 L 26.9,630.2 L 26.7,630.3 L 26.6,630.4 L 26.5,630.5 L 26.3,630.6 L 26.2,630.7 L 26.0,630.8 L 25.9,630.8 L 25.7,630.9 L 25.5,630.9 L 25.4,630.9 L 25.2,630.9 L 25.0,630.9 L 24.8,630.8 L 24.7,630.8 L 24.5,630.7 L 24.4,630.7 L 24.2,630.6 L 24.1,630.5 L 24.0,630.4 L 23.8,630.2 L 23.7,630.1 L 23.6,630.0 L 23.5,629.8 L 23.5,629.7 L 23.4,629.5 L 23.4,629.3 L 23.3,629.2 L 23.3,629.0 L 23.3,628.8 L 23.3,628.6 L 23.4,628.5 L 23.4,628.3 L 23.5,628.1 L 23.5,628.0 L 23.6,627.8 L 23.7,627.7 L 23.8,627.6 L 24.0,627.4 L 24.1,627.3 L 24.2,627.2 L 24.4,627.1 L 24.5,627.1 L 24.7,627.0 L 24.8,627.0 L 25.0,626.9 L 25.2,626.9 L 25.4,626.9 L 25.5,626.9 L 25.7,626.9 L 25.9,627.0 L 26.0,627.0 L 26.2,627.1 L 26.3,627.2 L 26.5,627.3 L 26.6,627.4 L 26.7,627.5 L 26.9,627.6 L 27.0,627.8 L 27.1,627.9 L 27.1,628.1 L 27.2,628.2 L 27.3,628.4 L 27.3,628.6 L 27.3,628.7 L 27.3,628.9 L 25.3,628.9 Z" style="fill:#000000;fill-rule:evenodd;fill-opacity:1;stroke:#000000;stroke-width:0.0px;stroke-linecap:butt;stroke-linejoin:miter;stroke-opacity:1;"/>
<path class="atom-0" d="M 27.3,620.9 L 27.3,621.1 L 27.3,621.2 L 27.3,621.4 L 27.2,621.6 L 27.1,621.7 L 27.1,621.9 L 27.0,622.0 L 26.9,622.2 L 26.7,622.3 L 26.6,622.4 L 26.5,622.5 L 26.3,622.6 L 26.2,622.7 L 26.0,622.8 L 25.9,622.8 L 25.7,622.9 L 25.5,622.9 L 25.4,622.9 L 25.2,622.9 L 25.0,622.9 L 24.8,622.8 L 24.7,622.8 L 24.5,622.7 L 24.4,622.7 L 24.2,622.6 L 24.1,622.5 L 24.0,622.4 L 23.8,622.2 L 23.7,622.1 L 23.6,622.0 L 23.5,621.8 L 23.5,621.7 L 23.4,621.5 L 23.4,621.3 L 23.3,621.2 L 23.3,621.0 L 23.3,620.8 L 23.3,620.6 L 23.4,620.5 L 23.4,620.3 L 23.5,620.1 L 23.5,620.0 L 23.6,619.8 L 23.7,619.7 L 23.8,619.6 L 24.0,619.4 L 24.1,619.3 L 24.2,619.2 L 24.4,619.1 L 24.5,619.1 L 24.7,619.0 L 24.8,619.0 L 25.0,618.9 L 25.2,618.9 L 25.4,618.9 L 25.5,618.9 L 25.7,618.9 L 25.9,619.0 L 26.0,619.0 L 26.2,619.1 L 26.3,619.2 L 26.5,619.3 L 26.6,619.4 L 26.7,619.5 L 26.9,619.6 L 27.0,619.8 L 27.1,619.9 L 27.1,620.1 L 27.2,620.2 L 27.3,620.4 L 27.3,620.6 L 27.3,620.7 L 27.3,620.9 L 25.3,620.9 Z" style="fill:#000000;fill-rule:evenodd;fill-opacity:1;stroke:#000000;stroke-width:0.0px;stroke-linecap:butt;stroke-linejoin:miter;stroke-opacity:1;"/>
<path class="bond-0 atom-0 atom-1" d="M 394.4,678.9 L 351.9,666.8" style="fill:none;fill-rule:evenodd;stroke:#000000;stroke-width:2.0px;stroke-linecap:butt;stroke-linejoin:miter;stroke-opacity:1"/>
<path class="bond-1 atom-1 atom-2" d="M 337.5,673.8 L 312.5,705.3" style="fill:none;fill-rule:evenodd;stroke:#000000;stroke-width:2.0px;stroke-linecap:butt;stroke-linejoin:miter;stroke-opacity:1"/>
<path class="bond-2 atom-1 atom-3" d="M 339.6,655.7 L 319.4,619.6" style="fill:none;fill-rule:evenodd;stroke:#000000;stroke-width:2.0px;stroke-linecap:butt;stroke-linejoin:miter;stroke-opacity:1"/>
<path class="bond-3 atom-3 atom-4" d="M 320.0,624.7 L 277.1,629.7" style="fill:none;fill-rule:evenodd;stroke:#000000;stroke-width:2.0px;stroke-linecap:butt;stroke-linejoin:miter;stroke-opacity:1"/>
<path class="bond-3 atom-3 atom-4" d="M 318.9,614.5 L 275.9,619.5" style="fill:none;fill-rule:evenodd;stroke:#000000;stroke-width:2.0px;stroke-linecap:butt;stroke-linejoin:miter;stroke-opacity:1"/>
<path class="bond-4 atom-3 atom-5" d="M 319.4,619.6 L 333.6,569.9" style="fill:none;fill-rule:evenodd;stroke:#000000;stroke-width:2.0px;stroke-linecap:butt;stroke-linejoin:miter;stroke-opacity:1"/>
<path class="bond-5 atom-5 atom-6" d="M 333.6,569.9 L 378.8,544.7" style="fill:none;fill-rule:evenodd;stroke:#000000;stroke-width:2.0px;stroke-linecap:butt;stroke-linejoin:miter;stroke-opacity:1"/>
<path class="bond-5 atom-5 atom-6" d="M 345.4,575.1 L 377.0,557.5" style="fill:none;fill-rule:evenodd;stroke:#000000;stroke-width:2.0px;stroke-linecap:butt;stroke-linejoin:miter;stroke-opacity:1"/>
<path class="bond-6 atom-6 atom-7" d="M 378.8,544.7 L 422.1,557.0" style="fill:none;fill-rule:evenodd;stroke:#000000;stroke-width:2.0px;stroke-linecap:butt;stroke-linejoin:miter;stroke-opacity:1"/>
<path class="bond-7 atom-7 atom-8" d="M 433.7,568.2 L 453.7,604.0" style="fill:none;fill-rule:evenodd;stroke:#000000;stroke-width:2.0px;stroke-linecap:butt;stroke-linejoin:miter;stroke-opacity:1"/>
<path class="bond-8 atom-8 atom-9" d="M 453.7,604.0 L 439.5,653.7" style="fill:none;fill-rule:evenodd;stroke:#000000;stroke-width:2.0px;stroke-linecap:butt;stroke-linejoin:miter;stroke-opacity:1"/>
<path class="bond-9 atom-9 atom-10" d="M 439.5,653.7 L 473.7,680.8" style="fill:none;fill-rule:evenodd;stroke:#000000;stroke-width:2.0px;stroke-linecap:butt;stroke-linejoin:miter;stroke-opacity:1"/>
<path class="bond-10 atom-9 atom-0" d="M 439.5,653.7 L 394.4,678.9" style="fill:none;fill-rule:evenodd;stroke:#000000;stroke-width:2.0px;stroke-linecap:butt;stroke-linejoin:miter;stroke-opacity:1"/>
<path class="atom-1" d="M 341.4 657.4 L 346.2 665.2 Q 346.7 666.0, 347.4 667.4 Q 348.2 668.7, 348.2 668.8 L 348.2 657.4 L 350.2 657.4 L 350.2 672.1 L 348.2 672.1 L 343.0 663.6 Q 342.4 662.6, 341.8 661.5 Q 341.2 660.3, 341.0 660.0 L 341.0 672.1 L 339.1 672.1 L 339.1 657.4 L 341.4 657.4 " fill="#000000"/>
<path class="atom-4" d="M 261.4 625.6 Q 261.4 622.1, 263.1 620.1 Q 264.8 618.2, 268.1 618.2 Q 271.3 618.2, 273.1 620.1 Q 274.8 622.1, 274.8 625.6 Q 274.8 629.2, 273.0 631.2 Q 271.3 633.2, 268.1 633.2 Q 264.9 633.2, 263.1 631.2 Q 261.4 629.2, 261.4 625.6 M 268.1 631.5 Q 270.3 631.5, 271.5 630.1 Q 272.7 628.6, 272.7 625.6 Q 272.7 622.7, 271.5 621.3 Q 270.3 619.8, 268.1 619.8 Q 265.9 619.8, 264.6 621.3 Q 263.4 622.7, 263.4 625.6 Q 263.4 628.6, 264.6 630.1 Q 265.9 631.5, 268.1 631.5 " fill="#000000"/>
<path class="atom-7" d="M 424.4 563.9 Q 424.5 563.9, 425.2 564.2 Q 425.9 564.5, 426.6 564.7 Q 427.4 564.8, 428.1 564.8 Q 429.5 564.8, 430.3 564.2 Q 431.1 563.5, 431.1 562.3 Q 431.1 561.5, 430.7 561.0 Q 430.3 560.5, 429.7 560.3 Q 429.1 560.0, 428.1 559.7 Q 426.8 559.3, 426.0 558.9 Q 425.2 558.5, 424.6 557.8 Q 424.1 557.0, 424.1 555.6 Q 424.1 553.8, 425.3 552.7 Q 426.6 551.5, 429.1 551.5 Q 430.8 551.5, 432.7 552.3 L 432.2 553.9 Q 430.5 553.2, 429.2 553.2 Q 427.7 553.2, 426.9 553.8 Q 426.2 554.4, 426.2 555.4 Q 426.2 556.2, 426.6 556.7 Q 427.0 557.1, 427.6 557.4 Q 428.2 557.7, 429.2 558.0 Q 430.5 558.4, 431.3 558.8 Q 432.0 559.2, 432.6 560.1 Q 433.2 560.9, 433.2 562.3 Q 433.2 564.4, 431.8 565.4 Q 430.5 566.5, 428.2 566.5 Q 426.9 566.5, 425.9 566.2 Q 425.0 566.0, 423.8 565.5 L 424.4 563.9 " fill="#000000"/>
<path class="atom-10" d="M 475.9 690.9 Q 476.1 690.9, 476.8 691.2 Q 477.5 691.5, 478.2 691.7 Q 479.0 691.8, 479.7 691.8 Q 481.1 691.8, 481.9 691.2 Q 482.7 690.5, 482.7 689.3 Q 482.7 688.5, 482.3 688.0 Q 481.9 687.5, 481.3 687.3 Q 480.7 687.0, 479.6 686.7 Q 478.3 686.3, 477.5 685.9 Q 476.8 685.5, 476.2 684.8 Q 475.7 684.0, 475.7 682.6 Q 475.7 680.8, 476.9 679.7 Q 478.2 678.5, 480.7 678.5 Q 482.4 678.5, 484.3 679.3 L 483.8 680.9 Q 482.0 680.2, 480.7 680.2 Q 479.3 680.2, 478.5 680.8 Q 477.7 681.4, 477.7 682.4 Q 477.7 683.2, 478.1 683.7 Q 478.6 684.1, 479.1 684.4 Q 479.7 684.7, 480.7 685.0 Q 482.0 685.4, 482.8 685.8 Q 483.6 686.2, 484.2 687.1 Q 484.8 687.9, 484.8 689.3 Q 484.8 691.4, 483.4 692.4 Q 482.0 693.5, 479.8 693.5 Q 478.5 693.5, 477.5 693.2 Q 476.5 693.0, 475.4 692.5 L 475.9 690.9 " fill="#000000"/>
<path class="atom-0" d="M 395.4,683.6 L 395.4,683.6 L 395.4,683.7 L 395.4,683.8 L 395.3,683.9 L 395.3,684.0 L 395.3,684.1 L 395.2,684.1 L 395.2,684.2 L 395.1,684.3 L 395.0,684.3 L 395.0,684.4 L 394.9,684.4 L 394.8,684.5 L 394.7,684.5 L 394.6,684.6 L 394.6,684.6 L 394.5,684.6 L 394.4,684.6 L 394.3,684.6 L 394.2,684.6 L 394.1,684.6 L 394.0,684.5 L 393.9,684.5 L 393.9,684.5 L 393.8,684.4 L 393.7,684.4 L 393.6,684.3 L 393.6,684.3 L 393.5,684.2 L 393.5,684.1 L 393.4,684.0 L 393.4,684.0 L 393.4,683.9 L 393.3,683.8 L 393.3,683.7 L 393.3,683.6 L 393.3,683.5 L 393.3,683.4 L 393.3,683.3 L 393.4,683.3 L 393.4,683.2 L 393.4,683.1 L 393.5,683.0 L 393.5,682.9 L 393.6,682.9 L 393.6,682.8 L 393.7,682.7 L 393.8,682.7 L 393.9,682.6 L 393.9,682.6 L 394.0,682.6 L 394.1,682.6 L 394.2,682.5 L 394.3,682.5 L 394.4,682.5 L 394.5,682.5 L 394.6,682.5 L 394.6,682.6 L 394.7,682.6 L 394.8,682.6 L 394.9,682.7 L 395.0,682.7 L 395.0,682.8 L 395.1,682.8 L 395.2,682.9 L 395.2,683.0 L 395.3,683.0 L 395.3,683.1 L 395.3,683.2 L 395.4,683.3 L 395.4,683.4 L 395.4,683.5 L 395.4,683.6 L 394.4,683.6 Z" style="fill:#000000;fill-rule:evenodd;fill-opacity:1;stroke:#000000;stroke-width:0.0px;stroke-linecap:butt;stroke-linejoin:miter;stroke-opacity:1;"/>
<path class="atom-10" d="M 488.9,685.8 L 488.9,685.9 L 488.9,686.0 L 488.9,686.1 L 488.8,686.2 L 488.8,686.3 L 488.8,686.3 L 488.7,686.4 L 488.7,686.5 L 488.6,686.6 L 488.5,686.6 L 488.5,686.7 L 488.4,686.7 L 488.3,686.8 L 488.2,686.8 L 488.1,686.8 L 488.1,686.8 L 488.0,686.9 L 487.9,686.9 L 487.8,686.9 L 487.7,686.9 L 487.6,686.8 L 487.5,686.8 L 487.4,686.8 L 487.4,686.7 L 487.3,686.7 L 487.2,686.6 L 487.2,686.6 L 487.1,686.5 L 487.0,686.5 L 487.0,686.4 L 486.9,686.3 L 486.9,686.2 L 486.9,686.1 L 486.9,686.1 L 486.8,686.0 L 486.8,685.9 L 486.8,685.8 L 486.8,685.7 L 486.9,685.6 L 486.9,685.5 L 486.9,685.4 L 486.9,685.4 L 487.0,685.3 L 487.0,685.2 L 487.1,685.1 L 487.2,685.1 L 487.2,685.0 L 487.3,685.0 L 487.4,684.9 L 487.4,684.9 L 487.5,684.8 L 487.6,684.8 L 487.7,684.8 L 487.8,684.8 L 487.9,684.8 L 488.0,684.8 L 488.1,684.8 L 488.1,684.8 L 488.2,684.9 L 488.3,684.9 L 488.4,684.9 L 488.5,685.0 L 488.5,685.0 L 488.6,685.1 L 488.7,685.2 L 488.7,685.2 L 488.8,685.3 L 488.8,685.4 L 488.8,685.5 L 488.9,685.6 L 488.9,685.7 L 488.9,685.7 L 488.9,685.8 L 487.9,685.8 Z" style="fill:#000000;fill-rule:evenodd;fill-opacity:1;stroke:#000000;stroke-width:0.0px;stroke-linecap:butt;stroke-linejoin:miter;stroke-opacity:1;"/>
<path class="atom-0" d="M 590.5 618.0 Q 590.5 611.0, 593.7 607.3 Q 597.1 603.6, 603.3 603.6 Q 609.2 603.6, 612.3 607.7 L 609.7 609.9 Q 607.4 606.9, 603.3 606.9 Q 599.1 606.9, 596.8 609.8 Q 594.5 612.6, 594.5 618.0 Q 594.5 623.6, 596.9 626.5 Q 599.2 629.4, 603.8 629.4 Q 606.9 629.4, 610.5 627.5 L 611.7 630.5 Q 610.2 631.5, 607.9 632.0 Q 605.7 632.6, 603.2 632.6 Q 597.1 632.6, 593.7 628.8 Q 590.5 625.1, 590.5 618.0 " fill="#000000"/>
<path class="atom-0" d="M 613.9 603.9 L 617.7 603.9 L 617.7 616.0 L 632.2 616.0 L 632.2 603.9 L 636.1 603.9 L 636.1 632.2 L 632.2 632.2 L 632.2 619.2 L 617.7 619.2 L 617.7 632.2 L 613.9 632.2 L 613.9 603.9 " fill="#000000"/>
<path class="atom-0" d="M 639.5 631.2 Q 640.2 629.5, 641.8 628.5 Q 643.5 627.5, 645.7 627.5 Q 648.6 627.5, 650.1 629.0 Q 651.7 630.6, 651.7 633.3 Q 651.7 636.1, 649.7 638.6 Q 647.6 641.2, 643.4 644.3 L 652.0 644.3 L 652.0 646.4 L 639.5 646.4 L 639.5 644.6 Q 642.9 642.1, 645.0 640.3 Q 647.1 638.5, 648.1 636.8 Q 649.1 635.1, 649.1 633.4 Q 649.1 631.6, 648.2 630.6 Q 647.3 629.6, 645.7 629.6 Q 644.2 629.6, 643.2 630.2 Q 642.2 630.8, 641.5 632.2 L 639.5 631.2 " fill="#000000"/>
<path class="atom-0" d="M 640.9 608.6 L 650.6 608.6 L 650.6 610.7 L 640.9 610.7 L 640.9 608.6 " fill="#000000"/>
<path class="atom-0" d="M 660.0,617.9 L 660.0,618.1 L 660.0,618.3 L 660.0,618.4 L 659.9,618.6 L 659.9,618.8 L 659.8,618.9 L 659.7,619.1 L 659.6,619.2 L 659.5,619.3 L 659.4,619.4 L 659.2,619.5 L 659.1,619.6 L 658.9,619.7 L 658.8,619.8 L 658.6,619.8 L 658.4,619.9 L 658.3,619.9 L 658.1,619.9 L 657.9,619.9 L 657.7,619.9 L 657.6,619.9 L 657.4,619.8 L 657.3,619.8 L 657.1,619.7 L 656.9,619.6 L 656.8,619.5 L 656.7,619.4 L 656.6,619.3 L 656.4,619.1 L 656.4,619.0 L 656.3,618.8 L 656.2,618.7 L 656.1,618.5 L 656.1,618.3 L 656.1,618.2 L 656.0,618.0 L 656.0,617.8 L 656.1,617.7 L 656.1,617.5 L 656.1,617.3 L 656.2,617.2 L 656.3,617.0 L 656.4,616.9 L 656.4,616.7 L 656.6,616.6 L 656.7,616.5 L 656.8,616.3 L 656.9,616.2 L 657.1,616.2 L 657.3,616.1 L 657.4,616.0 L 657.6,616.0 L 657.7,615.9 L 657.9,615.9 L 658.1,615.9 L 658.3,615.9 L 658.4,616.0 L 658.6,616.0 L 658.8,616.1 L 658.9,616.1 L 659.1,616.2 L 659.2,616.3 L 659.4,616.4 L 659.5,616.5 L 659.6,616.6 L 659.7,616.8 L 659.8,616.9 L 659.9,617.1 L 659.9,617.2 L 660.0,617.4 L 660.0,617.6 L 660.0,617.7 L 660.0,617.9 L 658.0,617.9 Z" style="fill:#000000;fill-rule:evenodd;fill-opacity:1;stroke:#000000;stroke-width:0.0px;stroke-linecap:butt;stroke-linejoin:miter;stroke-opacity:1;"/>
</svg>