<svg xmlns="http://www.w3.org/2000/svg" xmlns:rdkit="http://www.rdkit.org/xml" xmlns:xlink="http://www.w3.org/1999/xlink" version="1.1" baseProfile="full" xml:space="preserve" width="750px" height="750px" viewBox="0 0 750 750">
<!-- END OF HEADER -->
<rect style="opacity:1.0;fill:#FFFFFF;stroke:none" width="750.0" height="750.0" x="0.0" y="0.0"> </rect>
<path class="bond-0 atom-0 atom-1" d="M 170.0,111.9 L 102.3,151.0" style="fill:none;fill-rule:evenodd;stroke:#000000;stroke-width:2.0px;stroke-linecap:butt;stroke-linejoin:miter;stroke-opacity:1"/>
<path class="bond-1 atom-1 atom-2" d="M 97.6,159.1 L 29.8,119.9" style="fill:none;fill-rule:evenodd;stroke:#000000;stroke-width:2.0px;stroke-linecap:butt;stroke-linejoin:miter;stroke-opacity:1"/>
<path class="bond-1 atom-1 atom-2" d="M 106.9,142.9 L 39.2,103.8" style="fill:none;fill-rule:evenodd;stroke:#000000;stroke-width:2.0px;stroke-linecap:butt;stroke-linejoin:miter;stroke-opacity:1"/>
<path class="atom-0" d="M 177.3 91.1 L 185.9 105.1 Q 186.8 106.5, 188.2 109.0 Q 189.6 111.5, 189.6 111.6 L 189.6 91.1 L 193.2 91.1 L 193.2 117.5 L 189.5 117.5 L 180.2 102.2 Q 179.1 100.4, 178.0 98.4 Q 176.9 96.3, 176.5 95.7 L 176.5 117.5 L 173.1 117.5 L 173.1 91.1 L 177.3 91.1 " fill="#000000"/>
<path class="atom-0" d="M 196.3 91.1 L 199.8 91.1 L 199.8 102.3 L 213.4 102.3 L 213.4 91.1 L 216.9 91.1 L 216.9 117.5 L 213.4 117.5 L 213.4 105.3 L 199.8 105.3 L 199.8 117.5 L 196.3 117.5 L 196.3 91.1 " fill="#000000"/>
<path class="atom-0" d="M 220.1 95.8 L 224.8 95.8 L 224.8 90.9 L 226.9 90.9 L 226.9 95.8 L 231.6 95.8 L 231.6 97.6 L 226.9 97.6 L 226.9 102.5 L 224.8 102.5 L 224.8 97.6 L 220.1 97.6 L 220.1 95.8 " fill="#000000"/>
<path class="atom-2" d="M 15.5 91.1 L 24.2 105.1 Q 25.1 106.5, 26.5 109.0 Q 27.8 111.5, 27.9 111.6 L 27.9 91.1 L 31.4 91.1 L 31.4 117.5 L 27.8 117.5 L 18.5 102.2 Q 17.4 100.4, 16.3 98.4 Q 15.1 96.3, 14.8 95.7 L 14.8 117.5 L 11.4 117.5 L 11.4 91.1 L 15.5 91.1 " fill="#000000"/>
<path class="atom-2" d="M 34.5 95.4 L 43.6 95.4 L 43.6 97.4 L 34.5 97.4 L 34.5 95.4 " fill="#000000"/>
<path class="atom-0" d="M 239.1,108.0 L 239.1,108.2 L 239.1,108.3 L 239.0,108.5 L 239.0,108.7 L 238.9,108.8 L 238.9,109.0 L 238.8,109.1 L 238.7,109.2 L 238.6,109.3 L 238.5,109.4 L 238.3,109.5 L 238.2,109.6 L 238.1,109.7 L 237.9,109.8 L 237.8,109.8 L 237.6,109.9 L 237.4,109.9 L 237.3,109.9 L 237.1,109.9 L 237.0,109.9 L 236.8,109.8 L 236.6,109.8 L 236.5,109.7 L 236.3,109.7 L 236.2,109.6 L 236.1,109.5 L 236.0,109.4 L 235.8,109.3 L 235.7,109.2 L 235.7,109.0 L 235.6,108.9 L 235.5,108.7 L 235.5,108.6 L 235.4,108.4 L 235.4,108.3 L 235.4,108.1 L 235.4,107.9 L 235.4,107.8 L 235.4,107.6 L 235.5,107.5 L 235.5,107.3 L 235.6,107.2 L 235.7,107.0 L 235.7,106.9 L 235.8,106.8 L 236.0,106.7 L 236.1,106.6 L 236.2,106.5 L 236.3,106.4 L 236.5,106.3 L 236.6,106.3 L 236.8,106.2 L 237.0,106.2 L 237.1,106.2 L 237.3,106.2 L 237.4,106.2 L 237.6,106.2 L 237.8,106.2 L 237.9,106.3 L 238.1,106.3 L 238.2,106.4 L 238.3,106.5 L 238.5,106.6 L 238.6,106.7 L 238.7,106.8 L 238.8,107.0 L 238.9,107.1 L 238.9,107.2 L 239.0,107.4 L 239.0,107.6 L 239.1,107.7 L 239.1,107.9 L 239.1,108.0 L 237.2,108.0 Z" style="fill:#000000;fill-rule:evenodd;fill-opacity:1;stroke:#000000;stroke-width:0.0px;stroke-linecap:butt;stroke-linejoin:miter;stroke-opacity:1;"/>
<path class="atom-0" d="M 239.1,100.6 L 239.1,100.7 L 239.1,100.9 L 239.0,101.0 L 239.0,101.2 L 238.9,101.3 L 238.9,101.5 L 238.8,101.6 L 238.7,101.7 L 238.6,101.9 L 238.5,102.0 L 238.3,102.1 L 238.2,102.2 L 238.1,102.2 L 237.9,102.3 L 237.8,102.4 L 237.6,102.4 L 237.4,102.4 L 237.3,102.4 L 237.1,102.4 L 237.0,102.4 L 236.8,102.4 L 236.6,102.3 L 236.5,102.3 L 236.3,102.2 L 236.2,102.1 L 236.1,102.0 L 236.0,101.9 L 235.8,101.8 L 235.7,101.7 L 235.7,101.5 L 235.6,101.4 L 235.5,101.3 L 235.5,101.1 L 235.4,101.0 L 235.4,100.8 L 235.4,100.6 L 235.4,100.5 L 235.4,100.3 L 235.4,100.2 L 235.5,100.0 L 235.5,99.9 L 235.6,99.7 L 235.7,99.6 L 235.7,99.4 L 235.8,99.3 L 236.0,99.2 L 236.1,99.1 L 236.2,99.0 L 236.3,98.9 L 236.5,98.8 L 236.6,98.8 L 236.8,98.7 L 237.0,98.7 L 237.1,98.7 L 237.3,98.7 L 237.4,98.7 L 237.6,98.7 L 237.8,98.8 L 237.9,98.8 L 238.1,98.9 L 238.2,99.0 L 238.3,99.0 L 238.5,99.1 L 238.6,99.3 L 238.7,99.4 L 238.8,99.5 L 238.9,99.6 L 238.9,99.8 L 239.0,99.9 L 239.0,100.1 L 239.1,100.2 L 239.1,100.4 L 239.1,100.6 L 237.2,100.6 Z" style="fill:#000000;fill-rule:evenodd;fill-opacity:1;stroke:#000000;stroke-width:0.0px;stroke-linecap:butt;stroke-linejoin:miter;stroke-opacity:1;"/>
<path class="bond-0 atom-0 atom-1" d="M 289.0,124.4 L 304.2,116.1" style="fill:none;fill-rule:evenodd;stroke:#000000;stroke-width:2.0px;stroke-linecap:butt;stroke-linejoin:miter;stroke-opacity:1"/>
<path class="bond-1 atom-1 atom-2" d="M 313.9,116.5 L 338.4,131.6" style="fill:none;fill-rule:evenodd;stroke:#000000;stroke-width:2.0px;stroke-linecap:butt;stroke-linejoin:miter;stroke-opacity:1"/>
<path class="bond-2 atom-2 atom-3" d="M 338.4,131.6 L 368.7,115.2" style="fill:none;fill-rule:evenodd;stroke:#000000;stroke-width:2.0px;stroke-linecap:butt;stroke-linejoin:miter;stroke-opacity:1"/>
<path class="bond-2 atom-2 atom-3" d="M 339.7,123.0 L 360.9,111.6" style="fill:none;fill-rule:evenodd;stroke:#000000;stroke-width:2.0px;stroke-linecap:butt;stroke-linejoin:miter;stroke-opacity:1"/>
<path class="bond-3 atom-3 atom-4" d="M 368.7,115.2 L 393.2,130.2" style="fill:none;fill-rule:evenodd;stroke:#000000;stroke-width:2.0px;stroke-linecap:butt;stroke-linejoin:miter;stroke-opacity:1"/>
<path class="bond-4 atom-4 atom-5" d="M 402.9,130.6 L 423.5,119.4" style="fill:none;fill-rule:evenodd;stroke:#000000;stroke-width:2.0px;stroke-linecap:butt;stroke-linejoin:miter;stroke-opacity:1"/>
<path class="bond-5 atom-5 atom-6" d="M 433.2,119.8 L 452.8,131.9" style="fill:none;fill-rule:evenodd;stroke:#000000;stroke-width:2.0px;stroke-linecap:butt;stroke-linejoin:miter;stroke-opacity:1"/>
<path class="bond-6 atom-6 atom-7" d="M 467.9,129.4 L 486.2,119.5" style="fill:none;fill-rule:evenodd;stroke:#000000;stroke-width:2.0px;stroke-linecap:butt;stroke-linejoin:miter;stroke-opacity:1"/>
<path class="atom-0" d="M 261.4 125.0 L 262.7 125.0 L 262.7 129.2 L 267.7 129.2 L 267.7 125.0 L 269.0 125.0 L 269.0 134.8 L 267.7 134.8 L 267.7 130.3 L 262.7 130.3 L 262.7 134.8 L 261.4 134.8 L 261.4 125.0 " fill="#000000"/>
<path class="atom-0" d="M 273.3 136.3 Q 273.9 136.4, 274.2 136.8 Q 274.5 137.2, 274.5 137.9 Q 274.5 138.4, 274.2 138.9 Q 274.0 139.3, 273.5 139.5 Q 273.0 139.7, 272.3 139.7 Q 271.6 139.7, 271.1 139.5 Q 270.6 139.3, 270.2 138.8 L 270.7 138.2 Q 271.1 138.7, 271.4 138.8 Q 271.8 139.0, 272.3 139.0 Q 272.9 139.0, 273.2 138.7 Q 273.6 138.4, 273.6 137.9 Q 273.6 137.2, 273.2 136.9 Q 272.9 136.6, 272.1 136.6 L 271.6 136.6 L 271.6 136.0 L 272.0 136.0 Q 272.7 136.0, 273.1 135.7 Q 273.5 135.4, 273.5 134.8 Q 273.5 134.4, 273.1 134.1 Q 272.8 133.9, 272.3 133.9 Q 271.8 133.9, 271.4 134.1 Q 271.1 134.2, 270.9 134.7 L 270.2 134.4 Q 270.5 133.9, 271.0 133.5 Q 271.5 133.1, 272.3 133.1 Q 273.3 133.1, 273.8 133.6 Q 274.4 134.0, 274.4 134.8 Q 274.4 135.3, 274.1 135.7 Q 273.8 136.0, 273.3 136.3 " fill="#000000"/>
<path class="atom-0" d="M 276.6 125.0 L 279.8 130.2 Q 280.1 130.7, 280.6 131.6 Q 281.1 132.5, 281.1 132.6 L 281.1 125.0 L 282.4 125.0 L 282.4 134.8 L 281.1 134.8 L 277.7 129.1 Q 277.3 128.5, 276.8 127.7 Q 276.4 126.9, 276.3 126.7 L 276.3 134.8 L 275.0 134.8 L 275.0 125.0 L 276.6 125.0 " fill="#000000"/>
<path class="atom-0" d="M 283.6 126.8 L 285.3 126.8 L 285.3 125.0 L 286.1 125.0 L 286.1 126.8 L 287.8 126.8 L 287.8 127.4 L 286.1 127.4 L 286.1 129.2 L 285.3 129.2 L 285.3 127.4 L 283.6 127.4 L 283.6 126.8 " fill="#000000"/>
<path class="atom-1" d="M 306.9 108.6 L 310.1 113.8 Q 310.4 114.3, 310.9 115.2 Q 311.4 116.1, 311.4 116.2 L 311.4 108.6 L 312.7 108.6 L 312.7 118.4 L 311.4 118.4 L 308.0 112.7 Q 307.6 112.1, 307.1 111.3 Q 306.7 110.6, 306.6 110.3 L 306.6 118.4 L 305.3 118.4 L 305.3 108.6 L 306.9 108.6 " fill="#000000"/>
<path class="atom-1" d="M 313.9 110.2 L 317.2 110.2 L 317.2 111.0 L 313.9 111.0 L 313.9 110.2 " fill="#000000"/>
<path class="atom-4" d="M 395.9 128.3 L 399.1 133.5 Q 399.4 134.0, 399.9 134.9 Q 400.4 135.9, 400.4 135.9 L 400.4 128.3 L 401.7 128.3 L 401.7 138.1 L 400.4 138.1 L 397.0 132.4 Q 396.6 131.8, 396.1 131.0 Q 395.7 130.3, 395.6 130.0 L 395.6 138.1 L 394.3 138.1 L 394.3 128.3 L 395.9 128.3 " fill="#000000"/>
<path class="atom-4" d="M 394.2 139.1 L 395.5 139.1 L 395.5 143.2 L 400.5 143.2 L 400.5 139.1 L 401.8 139.1 L 401.8 148.8 L 400.5 148.8 L 400.5 144.3 L 395.5 144.3 L 395.5 148.8 L 394.2 148.8 L 394.2 139.1 " fill="#000000"/>
<path class="atom-5" d="M 426.2 112.0 L 429.4 117.1 Q 429.7 117.6, 430.2 118.6 Q 430.7 119.5, 430.7 119.5 L 430.7 112.0 L 432.0 112.0 L 432.0 121.7 L 430.7 121.7 L 427.3 116.1 Q 426.9 115.4, 426.4 114.6 Q 426.0 113.9, 425.9 113.6 L 425.9 121.7 L 424.6 121.7 L 424.6 112.0 L 426.2 112.0 " fill="#000000"/>
<path class="atom-5" d="M 424.5 101.2 L 425.8 101.2 L 425.8 105.4 L 430.8 105.4 L 430.8 101.2 L 432.2 101.2 L 432.2 111.0 L 430.8 111.0 L 430.8 106.5 L 425.8 106.5 L 425.8 111.0 L 424.5 111.0 L 424.5 101.2 " fill="#000000"/>
<path class="atom-5" d="M 433.3 110.6 Q 433.6 110.0, 434.1 109.7 Q 434.7 109.3, 435.5 109.3 Q 436.5 109.3, 437.0 109.9 Q 437.6 110.4, 437.6 111.3 Q 437.6 112.3, 436.8 113.2 Q 436.1 114.1, 434.7 115.1 L 437.7 115.1 L 437.7 115.9 L 433.3 115.9 L 433.3 115.2 Q 434.5 114.4, 435.2 113.8 Q 436.0 113.1, 436.3 112.5 Q 436.6 112.0, 436.6 111.4 Q 436.6 110.8, 436.3 110.4 Q 436.0 110.1, 435.5 110.1 Q 435.0 110.1, 434.6 110.3 Q 434.3 110.5, 434.0 111.0 L 433.3 110.6 " fill="#000000"/>
<path class="atom-5" d="M 433.4 103.0 L 435.1 103.0 L 435.1 101.2 L 435.9 101.2 L 435.9 103.0 L 437.6 103.0 L 437.6 103.6 L 435.9 103.6 L 435.9 105.5 L 435.1 105.5 L 435.1 103.6 L 433.4 103.6 L 433.4 103.0 " fill="#000000"/>
<path class="atom-6" d="M 455.5 130.0 L 458.7 135.2 Q 459.0 135.7, 459.5 136.6 Q 460.1 137.5, 460.1 137.6 L 460.1 130.0 L 461.4 130.0 L 461.4 139.8 L 460.0 139.8 L 456.6 134.1 Q 456.2 133.5, 455.8 132.7 Q 455.4 131.9, 455.2 131.7 L 455.2 139.8 L 454.0 139.8 L 454.0 130.0 L 455.5 130.0 " fill="#000000"/>
<path class="atom-6" d="M 462.5 131.8 L 464.2 131.8 L 464.2 130.0 L 465.0 130.0 L 465.0 131.8 L 466.8 131.8 L 466.8 132.4 L 465.0 132.4 L 465.0 134.2 L 464.2 134.2 L 464.2 132.4 L 462.5 132.4 L 462.5 131.8 " fill="#000000"/>
<path class="atom-7" d="M 487.3 113.6 L 488.6 113.6 L 488.6 123.4 L 487.3 123.4 L 487.3 113.6 " fill="#000000"/>
<path class="atom-2" d="M 339.1,134.7 L 339.1,134.7 L 339.1,134.8 L 339.0,134.8 L 339.0,134.9 L 339.0,134.9 L 339.0,135.0 L 339.0,135.0 L 338.9,135.1 L 338.9,135.1 L 338.8,135.2 L 338.8,135.2 L 338.7,135.2 L 338.7,135.3 L 338.6,135.3 L 338.6,135.3 L 338.5,135.3 L 338.5,135.3 L 338.4,135.3 L 338.3,135.3 L 338.3,135.3 L 338.2,135.3 L 338.2,135.3 L 338.1,135.3 L 338.1,135.3 L 338.0,135.2 L 338.0,135.2 L 337.9,135.2 L 337.9,135.1 L 337.8,135.1 L 337.8,135.0 L 337.8,135.0 L 337.7,134.9 L 337.7,134.9 L 337.7,134.8 L 337.7,134.7 L 337.7,134.7 L 337.7,134.6 L 337.7,134.6 L 337.7,134.5 L 337.7,134.4 L 337.7,134.4 L 337.8,134.3 L 337.8,134.3 L 337.8,134.2 L 337.9,134.2 L 337.9,134.2 L 338.0,134.1 L 338.0,134.1 L 338.1,134.0 L 338.1,134.0 L 338.2,134.0 L 338.2,134.0 L 338.3,134.0 L 338.3,134.0 L 338.4,134.0 L 338.5,134.0 L 338.5,134.0 L 338.6,134.0 L 338.6,134.0 L 338.7,134.0 L 338.7,134.1 L 338.8,134.1 L 338.8,134.1 L 338.9,134.2 L 338.9,134.2 L 339.0,134.3 L 339.0,134.3 L 339.0,134.4 L 339.0,134.4 L 339.0,134.5 L 339.1,134.5 L 339.1,134.6 L 339.1,134.7 L 338.4,134.7 Z" style="fill:#000000;fill-rule:evenodd;fill-opacity:1;stroke:#000000;stroke-width:0.0px;stroke-linecap:butt;stroke-linejoin:miter;stroke-opacity:1;"/>
<path class="atom-3" d="M 369.4,112.1 L 369.4,112.1 L 369.4,112.2 L 369.4,112.2 L 369.3,112.3 L 369.3,112.4 L 369.3,112.4 L 369.3,112.5 L 369.2,112.5 L 369.2,112.5 L 369.1,112.6 L 369.1,112.6 L 369.0,112.7 L 369.0,112.7 L 368.9,112.7 L 368.9,112.7 L 368.8,112.7 L 368.8,112.8 L 368.7,112.8 L 368.6,112.8 L 368.6,112.7 L 368.5,112.7 L 368.5,112.7 L 368.4,112.7 L 368.4,112.7 L 368.3,112.6 L 368.3,112.6 L 368.2,112.6 L 368.2,112.5 L 368.1,112.5 L 368.1,112.4 L 368.1,112.4 L 368.0,112.3 L 368.0,112.3 L 368.0,112.2 L 368.0,112.2 L 368.0,112.1 L 368.0,112.0 L 368.0,112.0 L 368.0,111.9 L 368.0,111.9 L 368.0,111.8 L 368.1,111.8 L 368.1,111.7 L 368.1,111.7 L 368.2,111.6 L 368.2,111.6 L 368.3,111.5 L 368.3,111.5 L 368.4,111.5 L 368.4,111.4 L 368.5,111.4 L 368.5,111.4 L 368.6,111.4 L 368.6,111.4 L 368.7,111.4 L 368.8,111.4 L 368.8,111.4 L 368.9,111.4 L 368.9,111.4 L 369.0,111.4 L 369.0,111.5 L 369.1,111.5 L 369.1,111.5 L 369.2,111.6 L 369.2,111.6 L 369.3,111.7 L 369.3,111.7 L 369.3,111.8 L 369.3,111.8 L 369.4,111.9 L 369.4,111.9 L 369.4,112.0 L 369.4,112.1 L 368.7,112.1 Z" style="fill:#000000;fill-rule:evenodd;fill-opacity:1;stroke:#000000;stroke-width:0.0px;stroke-linecap:butt;stroke-linejoin:miter;stroke-opacity:1;"/>
<path class="atom-6" d="M 469.5,136.3 L 469.5,136.3 L 469.5,136.4 L 469.5,136.4 L 469.5,136.5 L 469.5,136.5 L 469.4,136.6 L 469.4,136.7 L 469.4,136.7 L 469.3,136.7 L 469.3,136.8 L 469.2,136.8 L 469.2,136.9 L 469.1,136.9 L 469.1,136.9 L 469.0,136.9 L 469.0,136.9 L 468.9,136.9 L 468.9,137.0 L 468.8,136.9 L 468.7,136.9 L 468.7,136.9 L 468.6,136.9 L 468.6,136.9 L 468.5,136.9 L 468.5,136.8 L 468.4,136.8 L 468.4,136.8 L 468.3,136.7 L 468.3,136.7 L 468.3,136.6 L 468.2,136.6 L 468.2,136.5 L 468.2,136.5 L 468.2,136.4 L 468.2,136.4 L 468.1,136.3 L 468.1,136.2 L 468.2,136.2 L 468.2,136.1 L 468.2,136.1 L 468.2,136.0 L 468.2,135.9 L 468.3,135.9 L 468.3,135.8 L 468.3,135.8 L 468.4,135.8 L 468.4,135.7 L 468.5,135.7 L 468.5,135.7 L 468.6,135.6 L 468.6,135.6 L 468.7,135.6 L 468.7,135.6 L 468.8,135.6 L 468.9,135.6 L 468.9,135.6 L 469.0,135.6 L 469.0,135.6 L 469.1,135.6 L 469.1,135.6 L 469.2,135.7 L 469.2,135.7 L 469.3,135.7 L 469.3,135.8 L 469.4,135.8 L 469.4,135.9 L 469.4,135.9 L 469.5,136.0 L 469.5,136.0 L 469.5,136.1 L 469.5,136.1 L 469.5,136.2 L 469.5,136.3 L 468.8,136.3 Z" style="fill:#000000;fill-rule:evenodd;fill-opacity:1;stroke:#000000;stroke-width:0.0px;stroke-linecap:butt;stroke-linejoin:miter;stroke-opacity:1;"/>
<path class="atom-6" d="M 469.5,133.5 L 469.5,133.6 L 469.5,133.6 L 469.5,133.7 L 469.5,133.7 L 469.5,133.8 L 469.4,133.8 L 469.4,133.9 L 469.4,133.9 L 469.3,134.0 L 469.3,134.0 L 469.2,134.1 L 469.2,134.1 L 469.1,134.1 L 469.1,134.1 L 469.0,134.2 L 469.0,134.2 L 468.9,134.2 L 468.9,134.2 L 468.8,134.2 L 468.7,134.2 L 468.7,134.2 L 468.6,134.2 L 468.6,134.1 L 468.5,134.1 L 468.5,134.1 L 468.4,134.0 L 468.4,134.0 L 468.3,134.0 L 468.3,133.9 L 468.3,133.9 L 468.2,133.8 L 468.2,133.8 L 468.2,133.7 L 468.2,133.7 L 468.2,133.6 L 468.1,133.5 L 468.1,133.5 L 468.2,133.4 L 468.2,133.4 L 468.2,133.3 L 468.2,133.2 L 468.2,133.2 L 468.3,133.1 L 468.3,133.1 L 468.3,133.0 L 468.4,133.0 L 468.4,133.0 L 468.5,132.9 L 468.5,132.9 L 468.6,132.9 L 468.6,132.9 L 468.7,132.8 L 468.7,132.8 L 468.8,132.8 L 468.9,132.8 L 468.9,132.8 L 469.0,132.8 L 469.0,132.8 L 469.1,132.9 L 469.1,132.9 L 469.2,132.9 L 469.2,132.9 L 469.3,133.0 L 469.3,133.0 L 469.4,133.1 L 469.4,133.1 L 469.4,133.2 L 469.5,133.2 L 469.5,133.3 L 469.5,133.3 L 469.5,133.4 L 469.5,133.4 L 469.5,133.5 L 468.8,133.5 Z" style="fill:#000000;fill-rule:evenodd;fill-opacity:1;stroke:#000000;stroke-width:0.0px;stroke-linecap:butt;stroke-linejoin:miter;stroke-opacity:1;"/>
<path class="bond-0 atom-0 atom-1" d="M 700.1,134.6 L 644.8,102.7" style="fill:none;fill-rule:evenodd;stroke:#000000;stroke-width:2.0px;stroke-linecap:butt;stroke-linejoin:miter;stroke-opacity:1"/>
<path class="bond-1 atom-1 atom-2" d="M 627.2,110.4 L 587.4,133.4" style="fill:none;fill-rule:evenodd;stroke:#000000;stroke-width:2.0px;stroke-linecap:butt;stroke-linejoin:miter;stroke-opacity:1"/>
<path class="bond-1 atom-1 atom-2" d="M 618.3,95.0 L 578.5,117.9" style="fill:none;fill-rule:evenodd;stroke:#000000;stroke-width:2.0px;stroke-linecap:butt;stroke-linejoin:miter;stroke-opacity:1"/>
<path class="atom-0" d="M 704.0 149.7 Q 704.3 149.8, 705.5 150.3 Q 706.6 150.8, 707.9 151.1 Q 709.2 151.4, 710.5 151.4 Q 712.9 151.4, 714.3 150.2 Q 715.7 149.1, 715.7 147.0 Q 715.7 145.6, 715.0 144.8 Q 714.3 143.9, 713.2 143.5 Q 712.2 143.0, 710.4 142.5 Q 708.1 141.8, 706.8 141.1 Q 705.5 140.5, 704.5 139.1 Q 703.6 137.8, 703.6 135.5 Q 703.6 132.3, 705.7 130.3 Q 707.9 128.4, 712.2 128.4 Q 715.1 128.4, 718.4 129.8 L 717.6 132.5 Q 714.6 131.3, 712.3 131.3 Q 709.8 131.3, 708.5 132.3 Q 707.1 133.3, 707.1 135.1 Q 707.1 136.4, 707.8 137.2 Q 708.5 138.1, 709.5 138.5 Q 710.6 139.0, 712.3 139.5 Q 714.6 140.2, 715.9 141.0 Q 717.3 141.7, 718.2 143.1 Q 719.2 144.6, 719.2 147.0 Q 719.2 150.5, 716.9 152.4 Q 714.6 154.3, 710.7 154.3 Q 708.4 154.3, 706.7 153.8 Q 705.0 153.3, 703.0 152.5 L 704.0 149.7 " fill="#000000"/>
<path class="atom-0" d="M 720.9 132.6 L 725.4 132.6 L 725.4 127.9 L 727.4 127.9 L 727.4 132.6 L 731.9 132.6 L 731.9 134.3 L 727.4 134.3 L 727.4 139.0 L 725.4 139.0 L 725.4 134.3 L 720.9 134.3 L 720.9 132.6 " fill="#000000"/>
<path class="atom-1" d="M 626.6 105.0 Q 626.9 105.1, 628.1 105.6 Q 629.3 106.1, 630.6 106.4 Q 631.9 106.7, 633.2 106.7 Q 635.6 106.7, 637.0 105.6 Q 638.4 104.4, 638.4 102.4 Q 638.4 101.0, 637.7 100.1 Q 637.0 99.3, 635.9 98.8 Q 634.8 98.3, 633.0 97.8 Q 630.8 97.1, 629.4 96.5 Q 628.1 95.8, 627.1 94.5 Q 626.2 93.1, 626.2 90.8 Q 626.2 87.6, 628.4 85.7 Q 630.5 83.7, 634.8 83.7 Q 637.8 83.7, 641.1 85.1 L 640.3 87.9 Q 637.2 86.6, 634.9 86.6 Q 632.5 86.6, 631.1 87.6 Q 629.8 88.7, 629.8 90.4 Q 629.8 91.8, 630.5 92.6 Q 631.2 93.4, 632.2 93.9 Q 633.2 94.3, 634.9 94.9 Q 637.2 95.6, 638.6 96.3 Q 639.9 97.0, 640.9 98.5 Q 641.9 99.9, 641.9 102.4 Q 641.9 105.9, 639.5 107.8 Q 637.2 109.6, 633.3 109.6 Q 631.1 109.6, 629.4 109.1 Q 627.7 108.7, 625.7 107.8 L 626.6 105.0 " fill="#000000"/>
<path class="atom-2" d="M 511.4 128.3 L 514.8 128.3 L 514.8 139.1 L 527.7 139.1 L 527.7 128.3 L 531.2 128.3 L 531.2 153.6 L 527.7 153.6 L 527.7 142.0 L 514.8 142.0 L 514.8 153.6 L 511.4 153.6 L 511.4 128.3 " fill="#000000"/>
<path class="atom-2" d="M 534.2 152.7 Q 534.9 151.2, 536.3 150.3 Q 537.8 149.4, 539.8 149.4 Q 542.3 149.4, 543.7 150.8 Q 545.2 152.1, 545.2 154.6 Q 545.2 157.0, 543.3 159.3 Q 541.5 161.7, 537.7 164.4 L 545.4 164.4 L 545.4 166.3 L 534.2 166.3 L 534.2 164.7 Q 537.3 162.5, 539.1 160.8 Q 541.0 159.2, 541.9 157.7 Q 542.8 156.2, 542.8 154.7 Q 542.8 153.1, 542.0 152.2 Q 541.2 151.3, 539.8 151.3 Q 538.5 151.3, 537.6 151.8 Q 536.7 152.4, 536.0 153.6 L 534.2 152.7 " fill="#000000"/>
<path class="atom-2" d="M 550.9 128.3 L 559.1 141.7 Q 560.0 143.1, 561.3 145.5 Q 562.6 147.8, 562.7 148.0 L 562.7 128.3 L 566.0 128.3 L 566.0 153.6 L 562.6 153.6 L 553.7 139.0 Q 552.6 137.3, 551.5 135.3 Q 550.5 133.3, 550.1 132.7 L 550.1 153.6 L 546.9 153.6 L 546.9 128.3 L 550.9 128.3 " fill="#000000"/>
<path class="atom-2" d="M 569.0 132.9 L 573.5 132.9 L 573.5 128.2 L 575.4 128.2 L 575.4 132.9 L 580.0 132.9 L 580.0 134.6 L 575.4 134.6 L 575.4 139.3 L 573.5 139.3 L 573.5 134.6 L 569.0 134.6 L 569.0 132.9 " fill="#000000"/>
<path class="atom-0" d="M 739.1,144.6 L 739.1,144.7 L 739.1,144.9 L 739.0,145.0 L 739.0,145.2 L 738.9,145.3 L 738.8,145.4 L 738.8,145.6 L 738.7,145.7 L 738.6,145.8 L 738.5,145.9 L 738.3,146.0 L 738.2,146.1 L 738.1,146.2 L 737.9,146.2 L 737.8,146.3 L 737.6,146.3 L 737.5,146.3 L 737.3,146.3 L 737.2,146.3 L 737.0,146.3 L 736.9,146.3 L 736.7,146.3 L 736.6,146.2 L 736.4,146.1 L 736.3,146.1 L 736.2,146.0 L 736.1,145.9 L 736.0,145.8 L 735.9,145.6 L 735.8,145.5 L 735.7,145.4 L 735.6,145.2 L 735.6,145.1 L 735.6,144.9 L 735.5,144.8 L 735.5,144.6 L 735.5,144.5 L 735.5,144.3 L 735.6,144.2 L 735.6,144.0 L 735.6,143.9 L 735.7,143.7 L 735.8,143.6 L 735.9,143.5 L 736.0,143.4 L 736.1,143.3 L 736.2,143.2 L 736.3,143.1 L 736.4,143.0 L 736.6,142.9 L 736.7,142.9 L 736.9,142.8 L 737.0,142.8 L 737.2,142.8 L 737.3,142.8 L 737.5,142.8 L 737.6,142.8 L 737.8,142.8 L 737.9,142.9 L 738.1,143.0 L 738.2,143.0 L 738.3,143.1 L 738.5,143.2 L 738.6,143.3 L 738.7,143.4 L 738.8,143.5 L 738.8,143.7 L 738.9,143.8 L 739.0,144.0 L 739.0,144.1 L 739.1,144.3 L 739.1,144.4 L 739.1,144.6 L 737.3,144.6 Z" style="fill:#000000;fill-rule:evenodd;fill-opacity:1;stroke:#000000;stroke-width:0.0px;stroke-linecap:butt;stroke-linejoin:miter;stroke-opacity:1;"/>
<path class="atom-0" d="M 739.1,137.4 L 739.1,137.6 L 739.1,137.7 L 739.0,137.9 L 739.0,138.0 L 738.9,138.2 L 738.8,138.3 L 738.8,138.4 L 738.7,138.5 L 738.6,138.7 L 738.5,138.8 L 738.3,138.9 L 738.2,138.9 L 738.1,139.0 L 737.9,139.1 L 737.8,139.1 L 737.6,139.2 L 737.5,139.2 L 737.3,139.2 L 737.2,139.2 L 737.0,139.2 L 736.9,139.2 L 736.7,139.1 L 736.6,139.1 L 736.4,139.0 L 736.3,138.9 L 736.2,138.8 L 736.1,138.7 L 736.0,138.6 L 735.9,138.5 L 735.8,138.4 L 735.7,138.2 L 735.6,138.1 L 735.6,137.9 L 735.6,137.8 L 735.5,137.6 L 735.5,137.5 L 735.5,137.3 L 735.5,137.2 L 735.6,137.0 L 735.6,136.9 L 735.6,136.7 L 735.7,136.6 L 735.8,136.5 L 735.9,136.3 L 736.0,136.2 L 736.1,136.1 L 736.2,136.0 L 736.3,135.9 L 736.4,135.8 L 736.6,135.8 L 736.7,135.7 L 736.9,135.7 L 737.0,135.6 L 737.2,135.6 L 737.3,135.6 L 737.5,135.6 L 737.6,135.7 L 737.8,135.7 L 737.9,135.7 L 738.1,135.8 L 738.2,135.9 L 738.3,136.0 L 738.5,136.1 L 738.6,136.2 L 738.7,136.3 L 738.8,136.4 L 738.8,136.5 L 738.9,136.7 L 739.0,136.8 L 739.0,137.0 L 739.1,137.1 L 739.1,137.3 L 739.1,137.4 L 737.3,137.4 Z" style="fill:#000000;fill-rule:evenodd;fill-opacity:1;stroke:#000000;stroke-width:0.0px;stroke-linecap:butt;stroke-linejoin:miter;stroke-opacity:1;"/>
<path class="atom-1" d="M 649.0,96.3 L 649.0,96.5 L 649.0,96.6 L 649.0,96.8 L 648.9,96.9 L 648.9,97.1 L 648.8,97.2 L 648.7,97.3 L 648.6,97.5 L 648.5,97.6 L 648.4,97.7 L 648.3,97.8 L 648.2,97.9 L 648.0,97.9 L 647.9,98.0 L 647.8,98.0 L 647.6,98.1 L 647.5,98.1 L 647.3,98.1 L 647.1,98.1 L 647.0,98.1 L 646.8,98.1 L 646.7,98.0 L 646.6,98.0 L 646.4,97.9 L 646.3,97.8 L 646.2,97.7 L 646.0,97.6 L 645.9,97.5 L 645.8,97.4 L 645.7,97.3 L 645.7,97.1 L 645.6,97.0 L 645.6,96.9 L 645.5,96.7 L 645.5,96.6 L 645.5,96.4 L 645.5,96.3 L 645.5,96.1 L 645.5,95.9 L 645.6,95.8 L 645.6,95.7 L 645.7,95.5 L 645.7,95.4 L 645.8,95.3 L 645.9,95.1 L 646.0,95.0 L 646.2,94.9 L 646.3,94.8 L 646.4,94.8 L 646.6,94.7 L 646.7,94.6 L 646.8,94.6 L 647.0,94.6 L 647.1,94.5 L 647.3,94.5 L 647.5,94.6 L 647.6,94.6 L 647.8,94.6 L 647.9,94.7 L 648.0,94.7 L 648.2,94.8 L 648.3,94.9 L 648.4,95.0 L 648.5,95.1 L 648.6,95.2 L 648.7,95.3 L 648.8,95.4 L 648.9,95.6 L 648.9,95.7 L 649.0,95.9 L 649.0,96.0 L 649.0,96.2 L 649.0,96.3 L 647.3,96.3 Z" style="fill:#000000;fill-rule:evenodd;fill-opacity:1;stroke:#000000;stroke-width:0.0px;stroke-linecap:butt;stroke-linejoin:miter;stroke-opacity:1;"/>
<path class="bond-0 atom-0 atom-1" d="M 204.1,382.2 L 223.4,371.5" style="fill:none;fill-rule:evenodd;stroke:#000000;stroke-width:2.0px;stroke-linecap:butt;stroke-linejoin:miter;stroke-opacity:1"/>
<path class="bond-1 atom-0 atom-2" d="M 204.1,382.2 L 185.2,370.9" style="fill:none;fill-rule:evenodd;stroke:#000000;stroke-width:2.0px;stroke-linecap:butt;stroke-linejoin:miter;stroke-opacity:1"/>
<path class="bond-2 atom-2 atom-3" d="M 177.8,370.7 L 162.1,379.4" style="fill:none;fill-rule:evenodd;stroke:#000000;stroke-width:2.0px;stroke-linecap:butt;stroke-linejoin:miter;stroke-opacity:1"/>
<path class="bond-3 atom-3 atom-4" d="M 154.7,379.2 L 139.1,369.8" style="fill:none;fill-rule:evenodd;stroke:#000000;stroke-width:2.0px;stroke-linecap:butt;stroke-linejoin:miter;stroke-opacity:1"/>
<path class="bond-4 atom-4 atom-5" d="M 132.6,369.6 L 116.5,378.5" style="fill:none;fill-rule:evenodd;stroke:#000000;stroke-width:2.0px;stroke-linecap:butt;stroke-linejoin:miter;stroke-opacity:1"/>
<path class="bond-4 atom-4 atom-5" d="M 132.7,375.6 L 121.5,381.8" style="fill:none;fill-rule:evenodd;stroke:#000000;stroke-width:2.0px;stroke-linecap:butt;stroke-linejoin:miter;stroke-opacity:1"/>
<path class="bond-5 atom-5 atom-6" d="M 109.1,378.4 L 93.5,369.0" style="fill:none;fill-rule:evenodd;stroke:#000000;stroke-width:2.0px;stroke-linecap:butt;stroke-linejoin:miter;stroke-opacity:1"/>
<path class="bond-6 atom-6 atom-7" d="M 86.9,368.8 L 67.2,379.8" style="fill:none;fill-rule:evenodd;stroke:#000000;stroke-width:2.0px;stroke-linecap:butt;stroke-linejoin:miter;stroke-opacity:1"/>
<path class="bond-7 atom-7 atom-8" d="M 67.2,379.8 L 44.6,366.2" style="fill:none;fill-rule:evenodd;stroke:#000000;stroke-width:2.0px;stroke-linecap:butt;stroke-linejoin:miter;stroke-opacity:1"/>
<path class="bond-8 atom-8 atom-9" d="M 45.9,368.5 L 30.9,376.8" style="fill:none;fill-rule:evenodd;stroke:#000000;stroke-width:2.0px;stroke-linecap:butt;stroke-linejoin:miter;stroke-opacity:1"/>
<path class="bond-8 atom-8 atom-9" d="M 43.3,363.9 L 28.3,372.2" style="fill:none;fill-rule:evenodd;stroke:#000000;stroke-width:2.0px;stroke-linecap:butt;stroke-linejoin:miter;stroke-opacity:1"/>
<path class="atom-1" d="M 225.5 365.7 L 227.9 369.7 Q 228.2 370.1, 228.5 370.8 Q 228.9 371.5, 229.0 371.5 L 229.0 365.7 L 229.9 365.7 L 229.9 373.2 L 228.9 373.2 L 226.3 368.9 Q 226.0 368.3, 225.7 367.8 Q 225.3 367.2, 225.3 367.0 L 225.3 373.2 L 224.3 373.2 L 224.3 365.7 L 225.5 365.7 " fill="#000000"/>
<path class="atom-1" d="M 230.8 365.7 L 231.8 365.7 L 231.8 368.9 L 235.6 368.9 L 235.6 365.7 L 236.7 365.7 L 236.7 373.2 L 235.6 373.2 L 235.6 369.7 L 231.8 369.7 L 231.8 373.2 L 230.8 373.2 L 230.8 365.7 " fill="#000000"/>
<path class="atom-2" d="M 179.8 364.9 L 182.3 368.9 Q 182.5 369.2, 182.9 370.0 Q 183.3 370.7, 183.3 370.7 L 183.3 364.9 L 184.3 364.9 L 184.3 372.4 L 183.3 372.4 L 180.7 368.0 Q 180.4 367.5, 180.0 367.0 Q 179.7 366.4, 179.6 366.2 L 179.6 372.4 L 178.7 372.4 L 178.7 364.9 L 179.8 364.9 " fill="#000000"/>
<path class="atom-2" d="M 178.6 356.7 L 179.6 356.7 L 179.6 359.9 L 183.4 359.9 L 183.4 356.7 L 184.4 356.7 L 184.4 364.2 L 183.4 364.2 L 183.4 360.7 L 179.6 360.7 L 179.6 364.2 L 178.6 364.2 L 178.6 356.7 " fill="#000000"/>
<path class="atom-2" d="M 185.3 363.9 Q 185.5 363.4, 185.9 363.2 Q 186.4 362.9, 187.0 362.9 Q 187.7 362.9, 188.1 363.3 Q 188.5 363.7, 188.5 364.4 Q 188.5 365.2, 188.0 365.8 Q 187.5 366.5, 186.3 367.3 L 188.6 367.3 L 188.6 367.9 L 185.3 367.9 L 185.3 367.4 Q 186.2 366.8, 186.8 366.3 Q 187.3 365.8, 187.6 365.4 Q 187.8 364.9, 187.8 364.5 Q 187.8 364.0, 187.6 363.7 Q 187.4 363.5, 187.0 363.5 Q 186.6 363.5, 186.3 363.6 Q 186.0 363.8, 185.8 364.1 L 185.3 363.9 " fill="#000000"/>
<path class="atom-2" d="M 185.3 358.0 L 186.6 358.0 L 186.6 356.7 L 187.2 356.7 L 187.2 358.0 L 188.6 358.0 L 188.6 358.5 L 187.2 358.5 L 187.2 359.9 L 186.6 359.9 L 186.6 358.5 L 185.3 358.5 L 185.3 358.0 " fill="#000000"/>
<path class="atom-3" d="M 156.8 377.7 L 159.2 381.6 Q 159.5 382.0, 159.9 382.7 Q 160.2 383.4, 160.3 383.5 L 160.3 377.7 L 161.3 377.7 L 161.3 385.1 L 160.2 385.1 L 157.6 380.8 Q 157.3 380.3, 157.0 379.7 Q 156.7 379.1, 156.6 379.0 L 156.6 385.1 L 155.6 385.1 L 155.6 377.7 L 156.8 377.7 " fill="#000000"/>
<path class="atom-3" d="M 155.5 385.9 L 156.5 385.9 L 156.5 389.1 L 160.3 389.1 L 160.3 385.9 L 161.3 385.9 L 161.3 393.3 L 160.3 393.3 L 160.3 389.9 L 156.5 389.9 L 156.5 393.3 L 155.5 393.3 L 155.5 385.9 " fill="#000000"/>
<path class="atom-4" d="M 135.7 364.1 Q 136.9 364.1, 137.6 364.7 Q 138.2 365.2, 138.2 366.3 Q 138.2 367.3, 137.6 367.9 Q 136.9 368.5, 135.7 368.5 L 134.5 368.5 L 134.5 371.6 L 133.5 371.6 L 133.5 364.1 L 135.7 364.1 M 135.7 367.6 Q 136.4 367.6, 136.8 367.3 Q 137.2 367.0, 137.2 366.3 Q 137.2 365.6, 136.8 365.3 Q 136.4 364.9, 135.7 364.9 L 134.5 364.9 L 134.5 367.6 L 135.7 367.6 " fill="#000000"/>
<path class="atom-5" d="M 111.1 376.9 L 113.6 380.8 Q 113.8 381.2, 114.2 381.9 Q 114.6 382.6, 114.6 382.7 L 114.6 376.9 L 115.6 376.9 L 115.6 384.3 L 114.6 384.3 L 112.0 380.0 Q 111.7 379.5, 111.3 378.9 Q 111.0 378.3, 110.9 378.2 L 110.9 384.3 L 110.0 384.3 L 110.0 376.9 L 111.1 376.9 " fill="#000000"/>
<path class="atom-6" d="M 88.1 369.6 Q 88.2 369.6, 88.5 369.8 Q 88.9 369.9, 89.3 370.0 Q 89.7 370.1, 90.0 370.1 Q 90.7 370.1, 91.1 369.8 Q 91.6 369.4, 91.6 368.8 Q 91.6 368.4, 91.3 368.1 Q 91.1 367.9, 90.8 367.7 Q 90.5 367.6, 90.0 367.5 Q 89.3 367.3, 88.9 367.1 Q 88.5 366.9, 88.2 366.5 Q 88.0 366.1, 88.0 365.4 Q 88.0 364.5, 88.6 363.9 Q 89.3 363.3, 90.5 363.3 Q 91.4 363.3, 92.4 363.7 L 92.1 364.5 Q 91.2 364.2, 90.5 364.2 Q 89.8 364.2, 89.4 364.5 Q 89.0 364.8, 89.0 365.3 Q 89.0 365.7, 89.2 365.9 Q 89.4 366.2, 89.7 366.3 Q 90.0 366.4, 90.5 366.6 Q 91.2 366.8, 91.6 367.0 Q 92.0 367.2, 92.3 367.7 Q 92.6 368.1, 92.6 368.8 Q 92.6 369.8, 91.9 370.4 Q 91.2 370.9, 90.1 370.9 Q 89.4 370.9, 88.9 370.8 Q 88.4 370.7, 87.8 370.4 L 88.1 369.6 " fill="#000000"/>
<path class="atom-9" d="M 11.4 375.3 L 12.4 375.3 L 12.4 378.5 L 16.2 378.5 L 16.2 375.3 L 17.2 375.3 L 17.2 382.8 L 16.2 382.8 L 16.2 379.3 L 12.4 379.3 L 12.4 382.8 L 11.4 382.8 L 11.4 375.3 " fill="#000000"/>
<path class="atom-9" d="M 18.1 379.0 Q 18.1 377.2, 19.0 376.2 Q 19.9 375.2, 21.5 375.2 Q 23.2 375.2, 24.1 376.2 Q 25.0 377.2, 25.0 379.0 Q 25.0 380.8, 24.1 381.9 Q 23.2 382.9, 21.5 382.9 Q 19.9 382.9, 19.0 381.9 Q 18.1 380.8, 18.1 379.0 M 21.5 382.0 Q 22.7 382.0, 23.3 381.3 Q 23.9 380.5, 23.9 379.0 Q 23.9 377.5, 23.3 376.8 Q 22.7 376.1, 21.5 376.1 Q 20.4 376.1, 19.8 376.8 Q 19.2 377.5, 19.2 379.0 Q 19.2 380.5, 19.8 381.3 Q 20.4 382.0, 21.5 382.0 " fill="#000000"/>
<path class="atom-9" d="M 25.5 376.5 L 26.8 376.5 L 26.8 375.2 L 27.4 375.2 L 27.4 376.5 L 28.7 376.5 L 28.7 377.0 L 27.4 377.0 L 27.4 378.4 L 26.8 378.4 L 26.8 377.0 L 25.5 377.0 L 25.5 376.5 " fill="#000000"/>
<path class="atom-0" d="M 205.6,384.6 L 205.6,384.6 L 205.6,384.7 L 205.6,384.7 L 205.6,384.8 L 205.6,384.8 L 205.6,384.8 L 205.6,384.9 L 205.5,384.9 L 205.5,385.0 L 205.5,385.0 L 205.4,385.0 L 205.4,385.0 L 205.3,385.1 L 205.3,385.1 L 205.3,385.1 L 205.2,385.1 L 205.2,385.1 L 205.1,385.1 L 205.1,385.1 L 205.0,385.1 L 205.0,385.1 L 205.0,385.1 L 204.9,385.1 L 204.9,385.0 L 204.8,385.0 L 204.8,385.0 L 204.8,385.0 L 204.7,384.9 L 204.7,384.9 L 204.7,384.9 L 204.7,384.8 L 204.6,384.8 L 204.6,384.7 L 204.6,384.7 L 204.6,384.7 L 204.6,384.6 L 204.6,384.6 L 204.6,384.5 L 204.6,384.5 L 204.6,384.4 L 204.6,384.4 L 204.7,384.3 L 204.7,384.3 L 204.7,384.3 L 204.7,384.2 L 204.8,384.2 L 204.8,384.2 L 204.8,384.1 L 204.9,384.1 L 204.9,384.1 L 205.0,384.1 L 205.0,384.1 L 205.0,384.1 L 205.1,384.1 L 205.1,384.1 L 205.2,384.1 L 205.2,384.1 L 205.3,384.1 L 205.3,384.1 L 205.3,384.1 L 205.4,384.1 L 205.4,384.2 L 205.5,384.2 L 205.5,384.2 L 205.5,384.2 L 205.6,384.3 L 205.6,384.3 L 205.6,384.4 L 205.6,384.4 L 205.6,384.4 L 205.6,384.5 L 205.6,384.5 L 205.6,384.6 L 205.1,384.6 Z" style="fill:#000000;fill-rule:evenodd;fill-opacity:1;stroke:#000000;stroke-width:0.0px;stroke-linecap:butt;stroke-linejoin:miter;stroke-opacity:1;"/>
<path class="atom-0" d="M 203.5,384.6 L 203.5,384.6 L 203.5,384.7 L 203.5,384.7 L 203.5,384.8 L 203.5,384.8 L 203.5,384.8 L 203.4,384.9 L 203.4,384.9 L 203.4,385.0 L 203.4,385.0 L 203.3,385.0 L 203.3,385.0 L 203.2,385.1 L 203.2,385.1 L 203.2,385.1 L 203.1,385.1 L 203.1,385.1 L 203.0,385.1 L 203.0,385.1 L 202.9,385.1 L 202.9,385.1 L 202.8,385.1 L 202.8,385.1 L 202.8,385.0 L 202.7,385.0 L 202.7,385.0 L 202.7,385.0 L 202.6,384.9 L 202.6,384.9 L 202.6,384.9 L 202.5,384.8 L 202.5,384.8 L 202.5,384.7 L 202.5,384.7 L 202.5,384.7 L 202.5,384.6 L 202.5,384.6 L 202.5,384.5 L 202.5,384.5 L 202.5,384.4 L 202.5,384.4 L 202.5,384.3 L 202.6,384.3 L 202.6,384.3 L 202.6,384.2 L 202.7,384.2 L 202.7,384.2 L 202.7,384.1 L 202.8,384.1 L 202.8,384.1 L 202.8,384.1 L 202.9,384.1 L 202.9,384.1 L 203.0,384.1 L 203.0,384.1 L 203.1,384.1 L 203.1,384.1 L 203.2,384.1 L 203.2,384.1 L 203.2,384.1 L 203.3,384.1 L 203.3,384.2 L 203.4,384.2 L 203.4,384.2 L 203.4,384.2 L 203.4,384.3 L 203.5,384.3 L 203.5,384.4 L 203.5,384.4 L 203.5,384.4 L 203.5,384.5 L 203.5,384.5 L 203.5,384.6 L 203.0,384.6 Z" style="fill:#000000;fill-rule:evenodd;fill-opacity:1;stroke:#000000;stroke-width:0.0px;stroke-linecap:butt;stroke-linejoin:miter;stroke-opacity:1;"/>
<path class="atom-1" d="M 238.8,369.4 L 238.8,369.5 L 238.8,369.5 L 238.8,369.6 L 238.7,369.6 L 238.7,369.7 L 238.7,369.7 L 238.7,369.7 L 238.6,369.8 L 238.6,369.8 L 238.6,369.8 L 238.5,369.9 L 238.5,369.9 L 238.5,369.9 L 238.4,369.9 L 238.4,369.9 L 238.3,370.0 L 238.3,370.0 L 238.3,370.0 L 238.2,370.0 L 238.2,370.0 L 238.1,370.0 L 238.1,369.9 L 238.0,369.9 L 238.0,369.9 L 238.0,369.9 L 237.9,369.9 L 237.9,369.8 L 237.8,369.8 L 237.8,369.8 L 237.8,369.7 L 237.8,369.7 L 237.8,369.6 L 237.7,369.6 L 237.7,369.6 L 237.7,369.5 L 237.7,369.5 L 237.7,369.4 L 237.7,369.4 L 237.7,369.3 L 237.7,369.3 L 237.8,369.2 L 237.8,369.2 L 237.8,369.2 L 237.8,369.1 L 237.8,369.1 L 237.9,369.1 L 237.9,369.0 L 238.0,369.0 L 238.0,369.0 L 238.0,369.0 L 238.1,368.9 L 238.1,368.9 L 238.2,368.9 L 238.2,368.9 L 238.3,368.9 L 238.3,368.9 L 238.3,368.9 L 238.4,368.9 L 238.4,368.9 L 238.5,369.0 L 238.5,369.0 L 238.5,369.0 L 238.6,369.0 L 238.6,369.1 L 238.6,369.1 L 238.7,369.1 L 238.7,369.2 L 238.7,369.2 L 238.7,369.3 L 238.8,369.3 L 238.8,369.4 L 238.8,369.4 L 238.8,369.4 L 238.2,369.4 Z" style="fill:#000000;fill-rule:evenodd;fill-opacity:1;stroke:#000000;stroke-width:0.0px;stroke-linecap:butt;stroke-linejoin:miter;stroke-opacity:1;"/>
<path class="atom-7" d="M 67.7,382.2 L 67.7,382.2 L 67.7,382.3 L 67.7,382.3 L 67.7,382.3 L 67.6,382.4 L 67.6,382.4 L 67.6,382.5 L 67.6,382.5 L 67.5,382.5 L 67.5,382.6 L 67.5,382.6 L 67.4,382.6 L 67.4,382.6 L 67.3,382.7 L 67.3,382.7 L 67.3,382.7 L 67.2,382.7 L 67.2,382.7 L 67.1,382.7 L 67.1,382.7 L 67.0,382.7 L 67.0,382.7 L 67.0,382.6 L 66.9,382.6 L 66.9,382.6 L 66.8,382.6 L 66.8,382.5 L 66.8,382.5 L 66.7,382.5 L 66.7,382.4 L 66.7,382.4 L 66.7,382.4 L 66.7,382.3 L 66.6,382.3 L 66.6,382.2 L 66.6,382.2 L 66.6,382.1 L 66.6,382.1 L 66.6,382.1 L 66.7,382.0 L 66.7,382.0 L 66.7,381.9 L 66.7,381.9 L 66.7,381.8 L 66.8,381.8 L 66.8,381.8 L 66.8,381.7 L 66.9,381.7 L 66.9,381.7 L 67.0,381.7 L 67.0,381.7 L 67.0,381.7 L 67.1,381.6 L 67.1,381.6 L 67.2,381.6 L 67.2,381.6 L 67.3,381.6 L 67.3,381.7 L 67.3,381.7 L 67.4,381.7 L 67.4,381.7 L 67.5,381.7 L 67.5,381.8 L 67.5,381.8 L 67.6,381.8 L 67.6,381.9 L 67.6,381.9 L 67.6,381.9 L 67.7,382.0 L 67.7,382.0 L 67.7,382.1 L 67.7,382.1 L 67.7,382.2 L 67.2,382.2 Z" style="fill:#000000;fill-rule:evenodd;fill-opacity:1;stroke:#000000;stroke-width:0.0px;stroke-linecap:butt;stroke-linejoin:miter;stroke-opacity:1;"/>
<path class="atom-8" d="M 45.1,363.8 L 45.1,363.9 L 45.1,363.9 L 45.1,364.0 L 45.1,364.0 L 45.1,364.1 L 45.0,364.1 L 45.0,364.1 L 45.0,364.2 L 45.0,364.2 L 44.9,364.2 L 44.9,364.3 L 44.8,364.3 L 44.8,364.3 L 44.8,364.3 L 44.7,364.4 L 44.7,364.4 L 44.6,364.4 L 44.6,364.4 L 44.5,364.4 L 44.5,364.4 L 44.5,364.4 L 44.4,364.3 L 44.4,364.3 L 44.3,364.3 L 44.3,364.3 L 44.2,364.3 L 44.2,364.2 L 44.2,364.2 L 44.2,364.2 L 44.1,364.1 L 44.1,364.1 L 44.1,364.0 L 44.1,364.0 L 44.1,364.0 L 44.1,363.9 L 44.0,363.9 L 44.0,363.8 L 44.1,363.8 L 44.1,363.7 L 44.1,363.7 L 44.1,363.6 L 44.1,363.6 L 44.1,363.6 L 44.2,363.5 L 44.2,363.5 L 44.2,363.5 L 44.2,363.4 L 44.3,363.4 L 44.3,363.4 L 44.4,363.4 L 44.4,363.3 L 44.5,363.3 L 44.5,363.3 L 44.5,363.3 L 44.6,363.3 L 44.6,363.3 L 44.7,363.3 L 44.7,363.3 L 44.8,363.4 L 44.8,363.4 L 44.8,363.4 L 44.9,363.4 L 44.9,363.4 L 45.0,363.5 L 45.0,363.5 L 45.0,363.5 L 45.0,363.6 L 45.1,363.6 L 45.1,363.7 L 45.1,363.7 L 45.1,363.8 L 45.1,363.8 L 45.1,363.8 L 44.6,363.8 Z" style="fill:#000000;fill-rule:evenodd;fill-opacity:1;stroke:#000000;stroke-width:0.0px;stroke-linecap:butt;stroke-linejoin:miter;stroke-opacity:1;"/>
<path class="bond-0 atom-1 atom-0" d="M 316.4,358.5 L 315.3,360.0" style="fill:none;fill-rule:evenodd;stroke:#000000;stroke-width:1.0px;stroke-linecap:butt;stroke-linejoin:miter;stroke-opacity:1"/>
<path class="bond-0 atom-1 atom-0" d="M 310.7,352.8 L 308.3,355.8" style="fill:none;fill-rule:evenodd;stroke:#000000;stroke-width:1.0px;stroke-linecap:butt;stroke-linejoin:miter;stroke-opacity:1"/>
<path class="bond-0 atom-1 atom-0" d="M 304.9,347.0 L 301.4,351.6" style="fill:none;fill-rule:evenodd;stroke:#000000;stroke-width:1.0px;stroke-linecap:butt;stroke-linejoin:miter;stroke-opacity:1"/>
<path class="bond-0 atom-1 atom-0" d="M 299.2,341.3 L 294.4,347.3" style="fill:none;fill-rule:evenodd;stroke:#000000;stroke-width:1.0px;stroke-linecap:butt;stroke-linejoin:miter;stroke-opacity:1"/>
<path class="bond-0 atom-1 atom-0" d="M 293.4,335.6 L 287.5,343.1" style="fill:none;fill-rule:evenodd;stroke:#000000;stroke-width:1.0px;stroke-linecap:butt;stroke-linejoin:miter;stroke-opacity:1"/>
<path class="bond-0 atom-1 atom-0" d="M 287.7,329.8 L 280.5,338.9" style="fill:none;fill-rule:evenodd;stroke:#000000;stroke-width:1.0px;stroke-linecap:butt;stroke-linejoin:miter;stroke-opacity:1"/>
<path class="bond-1 atom-1 atom-2" d="M 322.2,364.3 L 315.5,411.2" style="fill:none;fill-rule:evenodd;stroke:#000000;stroke-width:2.0px;stroke-linecap:butt;stroke-linejoin:miter;stroke-opacity:1"/>
<path class="bond-2 atom-1 atom-3" d="M 322.2,364.3 L 366.3,346.6" style="fill:none;fill-rule:evenodd;stroke:#000000;stroke-width:2.0px;stroke-linecap:butt;stroke-linejoin:miter;stroke-opacity:1"/>
<path class="bond-3 atom-3 atom-4" d="M 385.0,350.2 L 413.8,372.8" style="fill:none;fill-rule:evenodd;stroke:#000000;stroke-width:2.0px;stroke-linecap:butt;stroke-linejoin:miter;stroke-opacity:1"/>
<path class="bond-4 atom-4 atom-5" d="M 430.0,374.8 L 461.0,356.2 L 465.3,366.8 Z" style="fill:#000000;fill-rule:evenodd;fill-opacity:1;stroke:#000000;stroke-width:1.0px;stroke-linecap:butt;stroke-linejoin:miter;stroke-opacity:1;"/>
<path class="atom-0" d="M 269.3 328.3 Q 270.9 328.7, 271.6 329.7 Q 272.4 330.6, 272.4 332.0 Q 272.4 334.3, 271.0 335.6 Q 269.6 336.8, 266.8 336.8 L 261.4 336.8 L 261.4 320.5 L 266.2 320.5 Q 269.0 320.5, 270.4 321.7 Q 271.8 322.8, 271.8 324.9 Q 271.8 327.3, 269.3 328.3 M 263.6 322.4 L 263.6 327.5 L 266.2 327.5 Q 267.8 327.5, 268.6 326.8 Q 269.5 326.2, 269.5 324.9 Q 269.5 322.4, 266.2 322.4 L 263.6 322.4 M 266.8 335.0 Q 268.4 335.0, 269.3 334.2 Q 270.1 333.5, 270.1 332.0 Q 270.1 330.7, 269.2 330.0 Q 268.3 329.3, 266.5 329.3 L 263.6 329.3 L 263.6 335.0 L 266.8 335.0 " fill="#000000"/>
<path class="atom-0" d="M 275.3 325.0 L 275.5 326.6 Q 276.8 324.8, 278.8 324.8 Q 279.4 324.8, 280.3 325.0 L 280.0 327.0 Q 279.0 326.7, 278.4 326.7 Q 277.4 326.7, 276.8 327.1 Q 276.2 327.5, 275.7 328.4 L 275.7 336.8 L 273.5 336.8 L 273.5 325.0 L 275.3 325.0 " fill="#000000"/>
<path class="atom-2" d="M 312.9 413.1 L 315.1 413.1 L 315.1 429.5 L 312.9 429.5 L 312.9 413.1 " fill="#000000"/>
<path class="atom-3" d="M 368.2 342.9 Q 368.2 339.0, 370.1 336.8 Q 372.0 334.6, 375.7 334.6 Q 379.3 334.6, 381.2 336.8 Q 383.1 339.0, 383.1 342.9 Q 383.1 346.8, 381.2 349.1 Q 379.2 351.3, 375.7 351.3 Q 372.1 351.3, 370.1 349.1 Q 368.2 346.9, 368.2 342.9 M 375.7 349.5 Q 378.1 349.5, 379.5 347.8 Q 380.8 346.1, 380.8 342.9 Q 380.8 339.7, 379.5 338.1 Q 378.1 336.4, 375.7 336.4 Q 373.2 336.4, 371.8 338.0 Q 370.5 339.6, 370.5 342.9 Q 370.5 346.2, 371.8 347.8 Q 373.2 349.5, 375.7 349.5 " fill="#000000"/>
<path class="atom-4" d="M 420.6 370.3 Q 423.4 370.3, 424.8 371.5 Q 426.2 372.8, 426.2 375.0 Q 426.2 377.3, 424.7 378.6 Q 423.3 379.9, 420.6 379.9 L 418.0 379.9 L 418.0 386.6 L 415.7 386.6 L 415.7 370.3 L 420.6 370.3 M 420.6 378.0 Q 422.2 378.0, 423.0 377.3 Q 423.9 376.5, 423.9 375.0 Q 423.9 373.6, 423.0 372.9 Q 422.2 372.1, 420.6 372.1 L 418.0 372.1 L 418.0 378.0 L 420.6 378.0 " fill="#000000"/>
<path class="atom-4" d="M 414.6 388.2 L 416.8 388.2 L 416.8 395.1 L 425.1 395.1 L 425.1 388.2 L 427.3 388.2 L 427.3 404.5 L 425.1 404.5 L 425.1 397.0 L 416.8 397.0 L 416.8 404.5 L 414.6 404.5 L 414.6 388.2 " fill="#000000"/>
<path class="atom-5" d="M 466.9 357.0 Q 466.9 353.1, 468.9 350.9 Q 470.8 348.7, 474.4 348.7 Q 478.0 348.7, 480.0 350.9 Q 481.9 353.1, 481.9 357.0 Q 481.9 361.0, 479.9 363.2 Q 478.0 365.5, 474.4 365.5 Q 470.8 365.5, 468.9 363.2 Q 466.9 361.0, 466.9 357.0 M 474.4 363.6 Q 476.9 363.6, 478.2 362.0 Q 479.6 360.3, 479.6 357.0 Q 479.6 353.8, 478.2 352.2 Q 476.9 350.6, 474.4 350.6 Q 471.9 350.6, 470.6 352.2 Q 469.2 353.8, 469.2 357.0 Q 469.2 360.3, 470.6 362.0 Q 471.9 363.6, 474.4 363.6 " fill="#000000"/>
<path class="atom-5" d="M 483.1 351.4 L 488.6 351.4 L 488.6 352.6 L 483.1 352.6 L 483.1 351.4 " fill="#000000"/>
<path class="bond-0 atom-0 atom-1" d="M 733.3,369.8 L 690.3,388.1" style="fill:none;fill-rule:evenodd;stroke:#000000;stroke-width:2.0px;stroke-linecap:butt;stroke-linejoin:miter;stroke-opacity:1"/>
<path class="bond-1 atom-1 atom-2" d="M 657.4,389.7 L 618.4,360.3" style="fill:none;fill-rule:evenodd;stroke:#000000;stroke-width:2.0px;stroke-linecap:butt;stroke-linejoin:miter;stroke-opacity:1"/>
<path class="bond-2 atom-2 atom-3" d="M 597.3,356.9 L 559.0,373.2" style="fill:none;fill-rule:evenodd;stroke:#000000;stroke-width:2.0px;stroke-linecap:butt;stroke-linejoin:miter;stroke-opacity:1"/>
<path class="atom-0" d="M 735.8 357.5 L 738.6 357.5 L 738.6 378.9 L 735.8 378.9 L 735.8 357.5 " fill="#000000"/>
<path class="atom-1" d="M 663.3 387.0 L 670.3 398.2 Q 671.0 399.4, 672.1 401.4 Q 673.2 403.4, 673.2 403.5 L 673.2 387.0 L 676.1 387.0 L 676.1 408.3 L 673.2 408.3 L 665.7 395.9 Q 664.8 394.5, 663.9 392.8 Q 663.0 391.2, 662.7 390.7 L 662.7 408.3 L 659.9 408.3 L 659.9 387.0 L 663.3 387.0 " fill="#000000"/>
<path class="atom-1" d="M 678.6 390.8 L 682.3 390.8 L 682.3 386.8 L 684.0 386.8 L 684.0 390.8 L 687.8 390.8 L 687.8 392.2 L 684.0 392.2 L 684.0 396.2 L 682.3 396.2 L 682.3 392.2 L 678.6 392.2 L 678.6 390.8 " fill="#000000"/>
<path class="atom-1" d="M 659.7 410.4 L 662.5 410.4 L 662.5 419.4 L 673.4 419.4 L 673.4 410.4 L 676.3 410.4 L 676.3 431.7 L 673.4 431.7 L 673.4 421.9 L 662.5 421.9 L 662.5 431.7 L 659.7 431.7 L 659.7 410.4 " fill="#000000"/>
<path class="atom-2" d="M 603.2 341.7 L 610.2 353.0 Q 610.8 354.1, 612.0 356.2 Q 613.1 358.2, 613.1 358.3 L 613.1 341.7 L 616.0 341.7 L 616.0 363.0 L 613.0 363.0 L 605.5 350.7 Q 604.7 349.3, 603.7 347.6 Q 602.8 346.0, 602.6 345.4 L 602.6 363.0 L 599.8 363.0 L 599.8 341.7 L 603.2 341.7 " fill="#000000"/>
<path class="atom-2" d="M 599.5 318.3 L 602.4 318.3 L 602.4 327.4 L 613.3 327.4 L 613.3 318.3 L 616.2 318.3 L 616.2 339.6 L 613.3 339.6 L 613.3 329.8 L 602.4 329.8 L 602.4 339.6 L 599.5 339.6 L 599.5 318.3 " fill="#000000"/>
<path class="atom-3" d="M 511.4 371.2 L 514.3 371.2 L 514.3 380.3 L 525.1 380.3 L 525.1 371.2 L 528.0 371.2 L 528.0 392.5 L 525.1 392.5 L 525.1 382.7 L 514.3 382.7 L 514.3 392.5 L 511.4 392.5 L 511.4 371.2 " fill="#000000"/>
<path class="atom-3" d="M 534.0 371.2 L 540.9 382.5 Q 541.6 383.6, 542.7 385.6 Q 543.9 387.6, 543.9 387.7 L 543.9 371.2 L 546.7 371.2 L 546.7 392.5 L 543.8 392.5 L 536.3 380.2 Q 535.5 378.7, 534.5 377.1 Q 533.6 375.4, 533.4 374.9 L 533.4 392.5 L 530.6 392.5 L 530.6 371.2 L 534.0 371.2 " fill="#000000"/>
<path class="atom-3" d="M 549.2 374.7 L 556.5 374.7 L 556.5 376.3 L 549.2 376.3 L 549.2 374.7 " fill="#000000"/>
<path class="atom-1" d="M 693.9,397.6 L 693.9,397.7 L 693.8,397.9 L 693.8,398.0 L 693.8,398.1 L 693.7,398.2 L 693.7,398.3 L 693.6,398.5 L 693.5,398.6 L 693.4,398.7 L 693.3,398.7 L 693.2,398.8 L 693.1,398.9 L 693.0,399.0 L 692.9,399.0 L 692.8,399.1 L 692.6,399.1 L 692.5,399.1 L 692.4,399.1 L 692.3,399.1 L 692.1,399.1 L 692.0,399.1 L 691.9,399.0 L 691.8,399.0 L 691.6,398.9 L 691.5,398.9 L 691.4,398.8 L 691.3,398.7 L 691.2,398.6 L 691.2,398.5 L 691.1,398.4 L 691.0,398.3 L 691.0,398.2 L 690.9,398.1 L 690.9,397.9 L 690.9,397.8 L 690.9,397.7 L 690.9,397.5 L 690.9,397.4 L 690.9,397.3 L 690.9,397.2 L 691.0,397.0 L 691.0,396.9 L 691.1,396.8 L 691.2,396.7 L 691.2,396.6 L 691.3,396.5 L 691.4,396.4 L 691.5,396.3 L 691.6,396.3 L 691.8,396.2 L 691.9,396.2 L 692.0,396.1 L 692.1,396.1 L 692.3,396.1 L 692.4,396.1 L 692.5,396.1 L 692.6,396.1 L 692.8,396.2 L 692.9,396.2 L 693.0,396.3 L 693.1,396.3 L 693.2,396.4 L 693.3,396.5 L 693.4,396.6 L 693.5,396.7 L 693.6,396.8 L 693.7,396.9 L 693.7,397.0 L 693.8,397.1 L 693.8,397.2 L 693.8,397.3 L 693.9,397.5 L 693.9,397.6 L 692.4,397.6 Z" style="fill:#000000;fill-rule:evenodd;fill-opacity:1;stroke:#000000;stroke-width:0.0px;stroke-linecap:butt;stroke-linejoin:miter;stroke-opacity:1;"/>
<path class="bond-0 atom-0 atom-1" d="M 14.8,639.3 L 45.1,621.8" style="fill:none;fill-rule:evenodd;stroke:#000000;stroke-width:2.0px;stroke-linecap:butt;stroke-linejoin:miter;stroke-opacity:1"/>
<path class="bond-0 atom-0 atom-1" d="M 18.9,646.4 L 49.2,628.9" style="fill:none;fill-rule:evenodd;stroke:#000000;stroke-width:2.0px;stroke-linecap:butt;stroke-linejoin:miter;stroke-opacity:1"/>
<path class="bond-1 atom-1 atom-2" d="M 57.3,625.3 L 80.9,639.0" style="fill:none;fill-rule:evenodd;stroke:#000000;stroke-width:2.0px;stroke-linecap:butt;stroke-linejoin:miter;stroke-opacity:1"/>
<path class="bond-2 atom-2 atom-3" d="M 94.2,639.0 L 117.2,625.7" style="fill:none;fill-rule:evenodd;stroke:#000000;stroke-width:2.0px;stroke-linecap:butt;stroke-linejoin:miter;stroke-opacity:1"/>
<path class="bond-3 atom-3 atom-4" d="M 128.6,625.7 L 153.2,639.9" style="fill:none;fill-rule:evenodd;stroke:#000000;stroke-width:2.0px;stroke-linecap:butt;stroke-linejoin:miter;stroke-opacity:1"/>
<path class="bond-4 atom-4 atom-5" d="M 163.3,639.9 L 193.6,622.4" style="fill:none;fill-rule:evenodd;stroke:#000000;stroke-width:2.0px;stroke-linecap:butt;stroke-linejoin:miter;stroke-opacity:1"/>
<path class="bond-5 atom-5 atom-6" d="M 195.6,618.9 L 225.3,636.0" style="fill:none;fill-rule:evenodd;stroke:#000000;stroke-width:2.0px;stroke-linecap:butt;stroke-linejoin:miter;stroke-opacity:1"/>
<path class="bond-5 atom-5 atom-6" d="M 191.6,625.9 L 221.2,643.0" style="fill:none;fill-rule:evenodd;stroke:#000000;stroke-width:2.0px;stroke-linecap:butt;stroke-linejoin:miter;stroke-opacity:1"/>
<path class="atom-1" d="M 49.0 626.4 Q 49.1 626.4, 49.6 626.7 Q 50.2 626.9, 50.7 627.0 Q 51.4 627.2, 51.9 627.2 Q 53.0 627.2, 53.7 626.6 Q 54.3 626.1, 54.3 625.2 Q 54.3 624.5, 54.0 624.1 Q 53.7 623.8, 53.2 623.5 Q 52.7 623.3, 51.9 623.1 Q 50.8 622.8, 50.2 622.5 Q 49.6 622.2, 49.2 621.6 Q 48.8 620.9, 48.8 619.9 Q 48.8 618.4, 49.7 617.5 Q 50.7 616.7, 52.7 616.7 Q 54.0 616.7, 55.5 617.3 L 55.2 618.5 Q 53.8 618.0, 52.7 618.0 Q 51.6 618.0, 51.0 618.4 Q 50.4 618.9, 50.4 619.7 Q 50.4 620.3, 50.7 620.7 Q 51.0 621.1, 51.5 621.3 Q 52.0 621.5, 52.7 621.7 Q 53.8 622.1, 54.4 622.4 Q 55.0 622.7, 55.5 623.4 Q 55.9 624.0, 55.9 625.2 Q 55.9 626.8, 54.8 627.6 Q 53.8 628.5, 52.0 628.5 Q 51.0 628.5, 50.2 628.3 Q 49.4 628.0, 48.5 627.7 L 49.0 626.4 " fill="#000000"/>
<path class="atom-1" d="M 47.7 603.6 L 49.3 603.6 L 49.3 608.5 L 55.2 608.5 L 55.2 603.6 L 56.7 603.6 L 56.7 615.2 L 55.2 615.2 L 55.2 609.8 L 49.3 609.8 L 49.3 615.2 L 47.7 615.2 L 47.7 603.6 " fill="#000000"/>
<path class="atom-1" d="M 58.1 605.7 L 60.2 605.7 L 60.2 603.6 L 61.1 603.6 L 61.1 605.7 L 63.2 605.7 L 63.2 606.5 L 61.1 606.5 L 61.1 608.6 L 60.2 608.6 L 60.2 606.5 L 58.1 606.5 L 58.1 605.7 " fill="#000000"/>
<path class="atom-2" d="M 82.3 642.9 Q 82.3 640.1, 83.6 638.5 Q 85.0 637.0, 87.6 637.0 Q 90.1 637.0, 91.5 638.5 Q 92.9 640.1, 92.9 642.9 Q 92.9 645.7, 91.5 647.3 Q 90.1 648.8, 87.6 648.8 Q 85.0 648.8, 83.6 647.3 Q 82.3 645.7, 82.3 642.9 M 87.6 647.5 Q 89.3 647.5, 90.3 646.4 Q 91.2 645.2, 91.2 642.9 Q 91.2 640.6, 90.3 639.4 Q 89.3 638.3, 87.6 638.3 Q 85.8 638.3, 84.8 639.4 Q 83.9 640.6, 83.9 642.9 Q 83.9 645.2, 84.8 646.4 Q 85.8 647.5, 87.6 647.5 " fill="#000000"/>
<path class="atom-3" d="M 120.4 616.6 L 124.1 622.8 Q 124.5 623.4, 125.1 624.5 Q 125.7 625.5, 125.8 625.6 L 125.8 616.6 L 127.3 616.6 L 127.3 628.2 L 125.7 628.2 L 121.6 621.5 Q 121.2 620.7, 120.7 619.8 Q 120.2 618.9, 120.0 618.6 L 120.0 628.2 L 118.5 628.2 L 118.5 616.6 L 120.4 616.6 " fill="#000000"/>
<path class="atom-3" d="M 128.6 618.7 L 130.7 618.7 L 130.7 616.6 L 131.6 616.6 L 131.6 618.7 L 133.7 618.7 L 133.7 619.5 L 131.6 619.5 L 131.6 621.6 L 130.7 621.6 L 130.7 619.5 L 128.6 619.5 L 128.6 618.7 " fill="#000000"/>
<path class="atom-4" d="M 155.0 646.8 Q 155.1 646.8, 155.7 647.1 Q 156.2 647.3, 156.8 647.4 Q 157.4 647.6, 158.0 647.6 Q 159.1 647.6, 159.7 647.0 Q 160.3 646.5, 160.3 645.6 Q 160.3 644.9, 160.0 644.6 Q 159.7 644.2, 159.2 643.9 Q 158.7 643.7, 157.9 643.5 Q 156.9 643.2, 156.3 642.9 Q 155.7 642.6, 155.2 642.0 Q 154.8 641.4, 154.8 640.3 Q 154.8 638.9, 155.8 638.0 Q 156.8 637.1, 158.7 637.1 Q 160.1 637.1, 161.6 637.7 L 161.2 639.0 Q 159.8 638.4, 158.8 638.4 Q 157.6 638.4, 157.0 638.9 Q 156.4 639.3, 156.4 640.1 Q 156.4 640.7, 156.7 641.1 Q 157.1 641.5, 157.5 641.7 Q 158.0 641.9, 158.8 642.2 Q 159.8 642.5, 160.4 642.8 Q 161.1 643.1, 161.5 643.8 Q 162.0 644.5, 162.0 645.6 Q 162.0 647.2, 160.9 648.0 Q 159.8 648.9, 158.0 648.9 Q 157.0 648.9, 156.2 648.7 Q 155.5 648.5, 154.5 648.1 L 155.0 646.8 " fill="#000000"/>
<path class="atom-6" d="M 226.4 637.0 L 230.2 643.2 Q 230.6 643.8, 231.2 644.9 Q 231.8 646.0, 231.8 646.0 L 231.8 637.0 L 233.3 637.0 L 233.3 648.6 L 231.7 648.6 L 227.7 641.9 Q 227.2 641.1, 226.7 640.2 Q 226.2 639.3, 226.1 639.0 L 226.1 648.6 L 224.6 648.6 L 224.6 637.0 L 226.4 637.0 " fill="#000000"/>
<path class="atom-6" d="M 234.7 639.0 L 238.6 639.0 L 238.6 639.8 L 234.7 639.8 L 234.7 639.0 " fill="#000000"/>
<path class="atom-0" d="M 12.8,644.5 L 12.8,644.5 L 12.8,644.6 L 12.8,644.7 L 12.7,644.7 L 12.7,644.8 L 12.7,644.9 L 12.6,644.9 L 12.6,645.0 L 12.6,645.0 L 12.5,645.1 L 12.5,645.1 L 12.4,645.2 L 12.3,645.2 L 12.3,645.2 L 12.2,645.2 L 12.1,645.3 L 12.1,645.3 L 12.0,645.3 L 11.9,645.3 L 11.9,645.3 L 11.8,645.2 L 11.7,645.2 L 11.7,645.2 L 11.6,645.2 L 11.5,645.1 L 11.5,645.1 L 11.4,645.0 L 11.4,645.0 L 11.3,644.9 L 11.3,644.9 L 11.2,644.8 L 11.2,644.8 L 11.2,644.7 L 11.2,644.6 L 11.2,644.6 L 11.2,644.5 L 11.2,644.4 L 11.2,644.3 L 11.2,644.3 L 11.2,644.2 L 11.2,644.1 L 11.2,644.1 L 11.3,644.0 L 11.3,644.0 L 11.4,643.9 L 11.4,643.9 L 11.5,643.8 L 11.5,643.8 L 11.6,643.7 L 11.7,643.7 L 11.7,643.7 L 11.8,643.7 L 11.9,643.6 L 11.9,643.6 L 12.0,643.6 L 12.1,643.6 L 12.1,643.7 L 12.2,643.7 L 12.3,643.7 L 12.3,643.7 L 12.4,643.8 L 12.5,643.8 L 12.5,643.8 L 12.6,643.9 L 12.6,643.9 L 12.6,644.0 L 12.7,644.1 L 12.7,644.1 L 12.7,644.2 L 12.8,644.2 L 12.8,644.3 L 12.8,644.4 L 12.8,644.5 L 12.0,644.5 Z" style="fill:#000000;fill-rule:evenodd;fill-opacity:1;stroke:#000000;stroke-width:0.0px;stroke-linecap:butt;stroke-linejoin:miter;stroke-opacity:1;"/>
<path class="atom-0" d="M 12.8,641.2 L 12.8,641.3 L 12.8,641.3 L 12.8,641.4 L 12.7,641.5 L 12.7,641.5 L 12.7,641.6 L 12.6,641.7 L 12.6,641.7 L 12.6,641.8 L 12.5,641.8 L 12.5,641.9 L 12.4,641.9 L 12.3,641.9 L 12.3,642.0 L 12.2,642.0 L 12.1,642.0 L 12.1,642.0 L 12.0,642.0 L 11.9,642.0 L 11.9,642.0 L 11.8,642.0 L 11.7,642.0 L 11.7,641.9 L 11.6,641.9 L 11.5,641.9 L 11.5,641.8 L 11.4,641.8 L 11.4,641.7 L 11.3,641.7 L 11.3,641.6 L 11.2,641.6 L 11.2,641.5 L 11.2,641.4 L 11.2,641.4 L 11.2,641.3 L 11.2,641.2 L 11.2,641.2 L 11.2,641.1 L 11.2,641.0 L 11.2,640.9 L 11.2,640.9 L 11.2,640.8 L 11.3,640.8 L 11.3,640.7 L 11.4,640.6 L 11.4,640.6 L 11.5,640.5 L 11.5,640.5 L 11.6,640.5 L 11.7,640.4 L 11.7,640.4 L 11.8,640.4 L 11.9,640.4 L 11.9,640.4 L 12.0,640.4 L 12.1,640.4 L 12.1,640.4 L 12.2,640.4 L 12.3,640.4 L 12.3,640.5 L 12.4,640.5 L 12.5,640.5 L 12.5,640.6 L 12.6,640.6 L 12.6,640.7 L 12.6,640.7 L 12.7,640.8 L 12.7,640.8 L 12.7,640.9 L 12.8,641.0 L 12.8,641.0 L 12.8,641.1 L 12.8,641.2 L 12.0,641.2 Z" style="fill:#000000;fill-rule:evenodd;fill-opacity:1;stroke:#000000;stroke-width:0.0px;stroke-linecap:butt;stroke-linejoin:miter;stroke-opacity:1;"/>
<path class="atom-1" d="M 53.0,602.3 L 53.0,602.4 L 53.0,602.5 L 53.0,602.5 L 53.0,602.6 L 53.0,602.7 L 52.9,602.7 L 52.9,602.8 L 52.8,602.8 L 52.8,602.9 L 52.8,602.9 L 52.7,603.0 L 52.6,603.0 L 52.6,603.1 L 52.5,603.1 L 52.4,603.1 L 52.4,603.1 L 52.3,603.1 L 52.2,603.1 L 52.2,603.1 L 52.1,603.1 L 52.0,603.1 L 52.0,603.1 L 51.9,603.1 L 51.8,603.0 L 51.8,603.0 L 51.7,603.0 L 51.7,602.9 L 51.6,602.9 L 51.6,602.8 L 51.5,602.8 L 51.5,602.7 L 51.5,602.6 L 51.4,602.6 L 51.4,602.5 L 51.4,602.4 L 51.4,602.4 L 51.4,602.3 L 51.4,602.2 L 51.4,602.2 L 51.4,602.1 L 51.5,602.0 L 51.5,602.0 L 51.5,601.9 L 51.6,601.8 L 51.6,601.8 L 51.7,601.7 L 51.7,601.7 L 51.8,601.6 L 51.8,601.6 L 51.9,601.6 L 52.0,601.6 L 52.0,601.5 L 52.1,601.5 L 52.2,601.5 L 52.2,601.5 L 52.3,601.5 L 52.4,601.5 L 52.4,601.5 L 52.5,601.6 L 52.6,601.6 L 52.6,601.6 L 52.7,601.7 L 52.8,601.7 L 52.8,601.8 L 52.8,601.8 L 52.9,601.9 L 52.9,601.9 L 53.0,602.0 L 53.0,602.1 L 53.0,602.1 L 53.0,602.2 L 53.0,602.3 L 53.0,602.3 L 52.2,602.3 Z" style="fill:#000000;fill-rule:evenodd;fill-opacity:1;stroke:#000000;stroke-width:0.0px;stroke-linecap:butt;stroke-linejoin:miter;stroke-opacity:1;"/>
<path class="atom-3" d="M 125.4,615.4 L 125.4,615.4 L 125.3,615.5 L 125.3,615.6 L 125.3,615.6 L 125.3,615.7 L 125.3,615.8 L 125.2,615.8 L 125.2,615.9 L 125.1,615.9 L 125.1,616.0 L 125.0,616.0 L 125.0,616.1 L 124.9,616.1 L 124.8,616.1 L 124.8,616.1 L 124.7,616.2 L 124.6,616.2 L 124.6,616.2 L 124.5,616.2 L 124.4,616.2 L 124.3,616.1 L 124.3,616.1 L 124.2,616.1 L 124.2,616.1 L 124.1,616.0 L 124.0,616.0 L 124.0,615.9 L 123.9,615.9 L 123.9,615.8 L 123.8,615.8 L 123.8,615.7 L 123.8,615.7 L 123.8,615.6 L 123.7,615.5 L 123.7,615.5 L 123.7,615.4 L 123.7,615.3 L 123.7,615.2 L 123.7,615.2 L 123.8,615.1 L 123.8,615.0 L 123.8,615.0 L 123.8,614.9 L 123.9,614.9 L 123.9,614.8 L 124.0,614.8 L 124.0,614.7 L 124.1,614.7 L 124.2,614.6 L 124.2,614.6 L 124.3,614.6 L 124.3,614.6 L 124.4,614.5 L 124.5,614.5 L 124.6,614.5 L 124.6,614.5 L 124.7,614.5 L 124.8,614.6 L 124.8,614.6 L 124.9,614.6 L 125.0,614.6 L 125.0,614.7 L 125.1,614.7 L 125.1,614.8 L 125.2,614.8 L 125.2,614.9 L 125.3,614.9 L 125.3,615.0 L 125.3,615.1 L 125.3,615.1 L 125.3,615.2 L 125.4,615.3 L 125.4,615.4 L 124.5,615.4 Z" style="fill:#000000;fill-rule:evenodd;fill-opacity:1;stroke:#000000;stroke-width:0.0px;stroke-linecap:butt;stroke-linejoin:miter;stroke-opacity:1;"/>
<path class="atom-3" d="M 122.1,615.4 L 122.1,615.4 L 122.1,615.5 L 122.1,615.6 L 122.0,615.6 L 122.0,615.7 L 122.0,615.8 L 121.9,615.8 L 121.9,615.9 L 121.9,615.9 L 121.8,616.0 L 121.8,616.0 L 121.7,616.1 L 121.6,616.1 L 121.6,616.1 L 121.5,616.1 L 121.4,616.2 L 121.4,616.2 L 121.3,616.2 L 121.2,616.2 L 121.2,616.2 L 121.1,616.1 L 121.0,616.1 L 121.0,616.1 L 120.9,616.1 L 120.8,616.0 L 120.8,616.0 L 120.7,615.9 L 120.7,615.9 L 120.6,615.8 L 120.6,615.8 L 120.5,615.7 L 120.5,615.7 L 120.5,615.6 L 120.5,615.5 L 120.5,615.5 L 120.5,615.4 L 120.5,615.3 L 120.5,615.2 L 120.5,615.2 L 120.5,615.1 L 120.5,615.0 L 120.5,615.0 L 120.6,614.9 L 120.6,614.9 L 120.7,614.8 L 120.7,614.8 L 120.8,614.7 L 120.8,614.7 L 120.9,614.6 L 121.0,614.6 L 121.0,614.6 L 121.1,614.6 L 121.2,614.5 L 121.2,614.5 L 121.3,614.5 L 121.4,614.5 L 121.4,614.5 L 121.5,614.6 L 121.6,614.6 L 121.6,614.6 L 121.7,614.6 L 121.8,614.7 L 121.8,614.7 L 121.9,614.8 L 121.9,614.8 L 121.9,614.9 L 122.0,614.9 L 122.0,615.0 L 122.0,615.1 L 122.1,615.1 L 122.1,615.2 L 122.1,615.3 L 122.1,615.4 L 121.3,615.4 Z" style="fill:#000000;fill-rule:evenodd;fill-opacity:1;stroke:#000000;stroke-width:0.0px;stroke-linecap:butt;stroke-linejoin:miter;stroke-opacity:1;"/>
<path class="bond-0 atom-0 atom-1" d="M 268.0,623.4 L 282.4,614.5" style="fill:none;fill-rule:evenodd;stroke:#000000;stroke-width:2.0px;stroke-linecap:butt;stroke-linejoin:miter;stroke-opacity:1"/>
<path class="bond-0 atom-0 atom-1" d="M 270.9,628.1 L 285.3,619.1" style="fill:none;fill-rule:evenodd;stroke:#000000;stroke-width:2.0px;stroke-linecap:butt;stroke-linejoin:miter;stroke-opacity:1"/>
<path class="bond-1 atom-1 atom-2" d="M 292.8,616.4 L 308.8,624.9" style="fill:none;fill-rule:evenodd;stroke:#000000;stroke-width:2.0px;stroke-linecap:butt;stroke-linejoin:miter;stroke-opacity:1"/>
<path class="bond-2 atom-2 atom-3" d="M 316.6,624.5 L 336.1,612.3" style="fill:none;fill-rule:evenodd;stroke:#000000;stroke-width:2.0px;stroke-linecap:butt;stroke-linejoin:miter;stroke-opacity:1"/>
<path class="bond-3 atom-3 atom-4" d="M 336.1,612.3 L 357.0,623.5" style="fill:none;fill-rule:evenodd;stroke:#000000;stroke-width:2.0px;stroke-linecap:butt;stroke-linejoin:miter;stroke-opacity:1"/>
<path class="bond-4 atom-4 atom-5" d="M 367.7,620.7 L 379.9,613.1" style="fill:none;fill-rule:evenodd;stroke:#000000;stroke-width:2.0px;stroke-linecap:butt;stroke-linejoin:miter;stroke-opacity:1"/>
<path class="bond-5 atom-5 atom-6" d="M 387.7,612.7 L 404.3,621.6" style="fill:none;fill-rule:evenodd;stroke:#000000;stroke-width:2.0px;stroke-linecap:butt;stroke-linejoin:miter;stroke-opacity:1"/>
<path class="bond-6 atom-6 atom-7" d="M 415.9,618.8 L 428.2,611.2" style="fill:none;fill-rule:evenodd;stroke:#000000;stroke-width:2.0px;stroke-linecap:butt;stroke-linejoin:miter;stroke-opacity:1"/>
<path class="bond-7 atom-7 atom-8" d="M 435.0,610.8 L 452.5,620.2" style="fill:none;fill-rule:evenodd;stroke:#000000;stroke-width:2.0px;stroke-linecap:butt;stroke-linejoin:miter;stroke-opacity:1"/>
<path class="bond-7 atom-7 atom-8" d="M 435.0,617.1 L 447.3,623.6" style="fill:none;fill-rule:evenodd;stroke:#000000;stroke-width:2.0px;stroke-linecap:butt;stroke-linejoin:miter;stroke-opacity:1"/>
<path class="bond-8 atom-8 atom-9" d="M 460.2,619.3 L 473.0,608.0 L 476.0,612.7 Z" style="fill:#000000;fill-rule:evenodd;fill-opacity:1;stroke:#000000;stroke-width:1.0px;stroke-linecap:butt;stroke-linejoin:miter;stroke-opacity:1;"/>
<path class="bond-9 atom-8 atom-10" d="M 456.1,627.0 L 456.7,644.7" style="fill:none;fill-rule:evenodd;stroke:#000000;stroke-width:2.0px;stroke-linecap:butt;stroke-linejoin:miter;stroke-opacity:1"/>
<path class="atom-0" d="M 261.4 628.6 Q 261.4 626.7, 262.3 625.7 Q 263.2 624.6, 264.9 624.6 Q 266.7 624.6, 267.6 625.7 Q 268.5 626.7, 268.5 628.6 Q 268.5 630.5, 267.6 631.6 Q 266.7 632.7, 264.9 632.7 Q 263.2 632.7, 262.3 631.6 Q 261.4 630.5, 261.4 628.6 M 264.9 631.8 Q 266.1 631.8, 266.8 631.0 Q 267.4 630.2, 267.4 628.6 Q 267.4 627.1, 266.8 626.3 Q 266.1 625.5, 264.9 625.5 Q 263.8 625.5, 263.1 626.3 Q 262.5 627.1, 262.5 628.6 Q 262.5 630.2, 263.1 631.0 Q 263.8 631.8, 264.9 631.8 " fill="#000000"/>
<path class="atom-1" d="M 284.8 614.0 Q 284.8 612.1, 285.7 611.1 Q 286.6 610.0, 288.3 610.0 Q 290.1 610.0, 291.0 611.1 Q 291.9 612.1, 291.9 614.0 Q 291.9 615.9, 291.0 617.0 Q 290.1 618.1, 288.3 618.1 Q 286.6 618.1, 285.7 617.0 Q 284.8 615.9, 284.8 614.0 M 288.3 617.2 Q 289.5 617.2, 290.2 616.4 Q 290.8 615.6, 290.8 614.0 Q 290.8 612.5, 290.2 611.7 Q 289.5 610.9, 288.3 610.9 Q 287.1 610.9, 286.5 611.7 Q 285.9 612.5, 285.9 614.0 Q 285.9 615.6, 286.5 616.4 Q 287.1 617.2, 288.3 617.2 " fill="#000000"/>
<path class="atom-1" d="M 292.5 611.4 L 293.9 611.4 L 293.9 610.0 L 294.5 610.0 L 294.5 611.4 L 295.9 611.4 L 295.9 612.0 L 294.5 612.0 L 294.5 613.4 L 293.9 613.4 L 293.9 612.0 L 292.5 612.0 L 292.5 611.4 " fill="#000000"/>
<path class="atom-2" d="M 311.0 623.0 L 313.5 627.2 Q 313.8 627.6, 314.2 628.3 Q 314.6 629.1, 314.6 629.1 L 314.6 623.0 L 315.6 623.0 L 315.6 630.8 L 314.6 630.8 L 311.8 626.3 Q 311.5 625.8, 311.2 625.2 Q 310.8 624.6, 310.7 624.4 L 310.7 630.8 L 309.7 630.8 L 309.7 623.0 L 311.0 623.0 " fill="#000000"/>
<path class="atom-2" d="M 309.6 631.6 L 310.7 631.6 L 310.7 634.9 L 314.7 634.9 L 314.7 631.6 L 315.7 631.6 L 315.7 639.4 L 314.7 639.4 L 314.7 635.8 L 310.7 635.8 L 310.7 639.4 L 309.6 639.4 L 309.6 631.6 " fill="#000000"/>
<path class="atom-4" d="M 360.2 621.4 Q 361.6 621.4, 362.2 622.0 Q 362.9 622.6, 362.9 623.7 Q 362.9 624.8, 362.2 625.4 Q 361.5 626.0, 360.2 626.0 L 359.0 626.0 L 359.0 629.2 L 357.9 629.2 L 357.9 621.4 L 360.2 621.4 M 360.2 625.1 Q 361.0 625.1, 361.4 624.7 Q 361.8 624.4, 361.8 623.7 Q 361.8 623.0, 361.4 622.6 Q 361.0 622.3, 360.2 622.3 L 359.0 622.3 L 359.0 625.1 L 360.2 625.1 " fill="#000000"/>
<path class="atom-4" d="M 363.4 622.8 L 364.8 622.8 L 364.8 621.3 L 365.4 621.3 L 365.4 622.8 L 366.8 622.8 L 366.8 623.3 L 365.4 623.3 L 365.4 624.8 L 364.8 624.8 L 364.8 623.3 L 363.4 623.3 L 363.4 622.8 " fill="#000000"/>
<path class="atom-5" d="M 382.1 606.8 L 384.6 610.9 Q 384.9 611.3, 385.3 612.1 Q 385.7 612.8, 385.7 612.8 L 385.7 606.8 L 386.8 606.8 L 386.8 614.6 L 385.7 614.6 L 383.0 610.1 Q 382.6 609.5, 382.3 608.9 Q 382.0 608.3, 381.9 608.1 L 381.9 614.6 L 380.9 614.6 L 380.9 606.8 L 382.1 606.8 " fill="#000000"/>
<path class="atom-5" d="M 387.7 608.2 L 389.1 608.2 L 389.1 606.7 L 389.7 606.7 L 389.7 608.2 L 391.1 608.2 L 391.1 608.7 L 389.7 608.7 L 389.7 610.2 L 389.1 610.2 L 389.1 608.7 L 387.7 608.7 L 387.7 608.2 " fill="#000000"/>
<path class="atom-6" d="M 406.4 619.7 L 409.0 623.9 Q 409.2 624.3, 409.7 625.0 Q 410.1 625.8, 410.1 625.8 L 410.1 619.7 L 411.1 619.7 L 411.1 627.5 L 410.1 627.5 L 407.3 623.0 Q 407.0 622.5, 406.6 621.9 Q 406.3 621.3, 406.2 621.1 L 406.2 627.5 L 405.2 627.5 L 405.2 619.7 L 406.4 619.7 " fill="#000000"/>
<path class="atom-6" d="M 412.0 621.1 L 413.4 621.1 L 413.4 619.7 L 414.0 619.7 L 414.0 621.1 L 415.4 621.1 L 415.4 621.7 L 414.0 621.7 L 414.0 623.1 L 413.4 623.1 L 413.4 621.7 L 412.0 621.7 L 412.0 621.1 " fill="#000000"/>
<path class="atom-6" d="M 405.1 628.3 L 406.2 628.3 L 406.2 631.6 L 410.2 631.6 L 410.2 628.3 L 411.2 628.3 L 411.2 636.1 L 410.2 636.1 L 410.2 632.5 L 406.2 632.5 L 406.2 636.1 L 405.1 636.1 L 405.1 628.3 " fill="#000000"/>
<path class="atom-7" d="M 431.4 605.1 Q 432.7 605.1, 433.4 605.7 Q 434.0 606.3, 434.0 607.4 Q 434.0 608.5, 433.4 609.1 Q 432.7 609.7, 431.4 609.7 L 430.1 609.7 L 430.1 612.9 L 429.1 612.9 L 429.1 605.1 L 431.4 605.1 M 431.4 608.8 Q 432.1 608.8, 432.5 608.5 Q 432.9 608.1, 432.9 607.4 Q 432.9 606.7, 432.5 606.4 Q 432.1 606.0, 431.4 606.0 L 430.1 606.0 L 430.1 608.8 L 431.4 608.8 " fill="#000000"/>
<path class="atom-7" d="M 428.5 596.5 L 429.6 596.5 L 429.6 599.9 L 433.5 599.9 L 433.5 596.5 L 434.6 596.5 L 434.6 604.3 L 433.5 604.3 L 433.5 600.7 L 429.6 600.7 L 429.6 604.3 L 428.5 604.3 L 428.5 596.5 " fill="#000000"/>
<path class="atom-8" d="M 453.7 624.7 Q 453.8 624.7, 454.1 624.9 Q 454.5 625.0, 454.9 625.1 Q 455.3 625.2, 455.7 625.2 Q 456.5 625.2, 456.9 624.8 Q 457.3 624.5, 457.3 623.8 Q 457.3 623.4, 457.1 623.2 Q 456.9 622.9, 456.5 622.7 Q 456.2 622.6, 455.7 622.4 Q 455.0 622.2, 454.6 622.0 Q 454.1 621.8, 453.8 621.4 Q 453.6 621.0, 453.6 620.3 Q 453.6 619.3, 454.2 618.7 Q 454.9 618.1, 456.2 618.1 Q 457.1 618.1, 458.1 618.5 L 457.9 619.4 Q 457.0 619.0, 456.3 619.0 Q 455.5 619.0, 455.1 619.3 Q 454.7 619.6, 454.7 620.2 Q 454.7 620.6, 454.9 620.8 Q 455.1 621.1, 455.4 621.2 Q 455.7 621.4, 456.3 621.5 Q 457.0 621.8, 457.4 622.0 Q 457.8 622.2, 458.1 622.6 Q 458.4 623.1, 458.4 623.8 Q 458.4 624.9, 457.7 625.5 Q 457.0 626.1, 455.8 626.1 Q 455.1 626.1, 454.5 625.9 Q 454.0 625.8, 453.4 625.5 L 453.7 624.7 " fill="#000000"/>
<path class="atom-9" d="M 477.6 603.5 L 480.1 607.6 Q 480.4 608.0, 480.8 608.8 Q 481.2 609.5, 481.2 609.5 L 481.2 603.5 L 482.3 603.5 L 482.3 611.3 L 481.2 611.3 L 478.4 606.8 Q 478.1 606.2, 477.8 605.6 Q 477.4 605.0, 477.3 604.8 L 477.3 611.3 L 476.3 611.3 L 476.3 603.5 L 477.6 603.5 " fill="#000000"/>
<path class="atom-9" d="M 483.2 604.9 L 484.5 604.9 L 484.5 603.4 L 485.2 603.4 L 485.2 604.9 L 486.6 604.9 L 486.6 605.4 L 485.2 605.4 L 485.2 606.9 L 484.5 606.9 L 484.5 605.4 L 483.2 605.4 L 483.2 604.9 " fill="#000000"/>
<path class="atom-10" d="M 456.3 645.6 L 457.4 645.6 L 457.4 653.5 L 456.3 653.5 L 456.3 645.6 " fill="#000000"/>
<path class="atom-3" d="M 336.6,609.9 L 336.6,609.9 L 336.6,609.9 L 336.6,610.0 L 336.6,610.0 L 336.6,610.1 L 336.6,610.1 L 336.5,610.2 L 336.5,610.2 L 336.5,610.2 L 336.4,610.3 L 336.4,610.3 L 336.4,610.3 L 336.3,610.3 L 336.3,610.4 L 336.2,610.4 L 336.2,610.4 L 336.1,610.4 L 336.1,610.4 L 336.0,610.4 L 336.0,610.4 L 335.9,610.4 L 335.9,610.4 L 335.9,610.4 L 335.8,610.3 L 335.8,610.3 L 335.7,610.3 L 335.7,610.3 L 335.7,610.2 L 335.6,610.2 L 335.6,610.1 L 335.6,610.1 L 335.6,610.1 L 335.6,610.0 L 335.5,610.0 L 335.5,609.9 L 335.5,609.9 L 335.5,609.8 L 335.5,609.8 L 335.5,609.7 L 335.6,609.7 L 335.6,609.6 L 335.6,609.6 L 335.6,609.6 L 335.6,609.5 L 335.7,609.5 L 335.7,609.4 L 335.7,609.4 L 335.8,609.4 L 335.8,609.4 L 335.9,609.3 L 335.9,609.3 L 335.9,609.3 L 336.0,609.3 L 336.0,609.3 L 336.1,609.3 L 336.1,609.3 L 336.2,609.3 L 336.2,609.3 L 336.3,609.3 L 336.3,609.4 L 336.4,609.4 L 336.4,609.4 L 336.4,609.4 L 336.5,609.5 L 336.5,609.5 L 336.5,609.5 L 336.6,609.6 L 336.6,609.6 L 336.6,609.7 L 336.6,609.7 L 336.6,609.8 L 336.6,609.8 L 336.6,609.9 L 336.1,609.9 Z" style="fill:#000000;fill-rule:evenodd;fill-opacity:1;stroke:#000000;stroke-width:0.0px;stroke-linecap:butt;stroke-linejoin:miter;stroke-opacity:1;"/>
<path class="atom-4" d="M 369.0,626.4 L 369.0,626.4 L 369.0,626.5 L 369.0,626.5 L 369.0,626.6 L 369.0,626.6 L 369.0,626.7 L 368.9,626.7 L 368.9,626.7 L 368.9,626.8 L 368.8,626.8 L 368.8,626.8 L 368.8,626.9 L 368.7,626.9 L 368.7,626.9 L 368.6,626.9 L 368.6,626.9 L 368.5,626.9 L 368.5,626.9 L 368.5,626.9 L 368.4,626.9 L 368.4,626.9 L 368.3,626.9 L 368.3,626.9 L 368.2,626.9 L 368.2,626.9 L 368.1,626.8 L 368.1,626.8 L 368.1,626.8 L 368.0,626.7 L 368.0,626.7 L 368.0,626.6 L 368.0,626.6 L 368.0,626.6 L 368.0,626.5 L 367.9,626.5 L 367.9,626.4 L 367.9,626.4 L 367.9,626.3 L 368.0,626.3 L 368.0,626.2 L 368.0,626.2 L 368.0,626.1 L 368.0,626.1 L 368.0,626.1 L 368.1,626.0 L 368.1,626.0 L 368.1,626.0 L 368.2,625.9 L 368.2,625.9 L 368.3,625.9 L 368.3,625.9 L 368.4,625.9 L 368.4,625.8 L 368.5,625.8 L 368.5,625.8 L 368.5,625.8 L 368.6,625.8 L 368.6,625.9 L 368.7,625.9 L 368.7,625.9 L 368.8,625.9 L 368.8,625.9 L 368.8,626.0 L 368.9,626.0 L 368.9,626.0 L 368.9,626.1 L 369.0,626.1 L 369.0,626.2 L 369.0,626.2 L 369.0,626.2 L 369.0,626.3 L 369.0,626.3 L 369.0,626.4 L 368.5,626.4 Z" style="fill:#000000;fill-rule:evenodd;fill-opacity:1;stroke:#000000;stroke-width:0.0px;stroke-linecap:butt;stroke-linejoin:miter;stroke-opacity:1;"/>
<path class="atom-4" d="M 369.0,624.2 L 369.0,624.2 L 369.0,624.3 L 369.0,624.3 L 369.0,624.4 L 369.0,624.4 L 369.0,624.5 L 368.9,624.5 L 368.9,624.5 L 368.9,624.6 L 368.8,624.6 L 368.8,624.6 L 368.8,624.7 L 368.7,624.7 L 368.7,624.7 L 368.6,624.7 L 368.6,624.7 L 368.5,624.7 L 368.5,624.7 L 368.5,624.7 L 368.4,624.7 L 368.4,624.7 L 368.3,624.7 L 368.3,624.7 L 368.2,624.7 L 368.2,624.6 L 368.1,624.6 L 368.1,624.6 L 368.1,624.6 L 368.0,624.5 L 368.0,624.5 L 368.0,624.4 L 368.0,624.4 L 368.0,624.3 L 368.0,624.3 L 367.9,624.3 L 367.9,624.2 L 367.9,624.2 L 367.9,624.1 L 368.0,624.1 L 368.0,624.0 L 368.0,624.0 L 368.0,623.9 L 368.0,623.9 L 368.0,623.9 L 368.1,623.8 L 368.1,623.8 L 368.1,623.8 L 368.2,623.7 L 368.2,623.7 L 368.3,623.7 L 368.3,623.7 L 368.4,623.6 L 368.4,623.6 L 368.5,623.6 L 368.5,623.6 L 368.5,623.6 L 368.6,623.6 L 368.6,623.7 L 368.7,623.7 L 368.7,623.7 L 368.8,623.7 L 368.8,623.7 L 368.8,623.8 L 368.9,623.8 L 368.9,623.8 L 368.9,623.9 L 369.0,623.9 L 369.0,624.0 L 369.0,624.0 L 369.0,624.0 L 369.0,624.1 L 369.0,624.1 L 369.0,624.2 L 368.5,624.2 Z" style="fill:#000000;fill-rule:evenodd;fill-opacity:1;stroke:#000000;stroke-width:0.0px;stroke-linecap:butt;stroke-linejoin:miter;stroke-opacity:1;"/>
<path class="atom-5" d="M 385.5,605.9 L 385.5,606.0 L 385.5,606.0 L 385.5,606.0 L 385.4,606.1 L 385.4,606.1 L 385.4,606.2 L 385.4,606.2 L 385.3,606.3 L 385.3,606.3 L 385.3,606.3 L 385.2,606.4 L 385.2,606.4 L 385.2,606.4 L 385.1,606.4 L 385.1,606.4 L 385.0,606.4 L 385.0,606.5 L 384.9,606.5 L 384.9,606.5 L 384.8,606.5 L 384.8,606.4 L 384.7,606.4 L 384.7,606.4 L 384.7,606.4 L 384.6,606.4 L 384.6,606.3 L 384.5,606.3 L 384.5,606.3 L 384.5,606.2 L 384.5,606.2 L 384.4,606.2 L 384.4,606.1 L 384.4,606.1 L 384.4,606.0 L 384.4,606.0 L 384.4,605.9 L 384.4,605.9 L 384.4,605.8 L 384.4,605.8 L 384.4,605.7 L 384.4,605.7 L 384.4,605.7 L 384.5,605.6 L 384.5,605.6 L 384.5,605.5 L 384.5,605.5 L 384.6,605.5 L 384.6,605.4 L 384.7,605.4 L 384.7,605.4 L 384.7,605.4 L 384.8,605.4 L 384.8,605.4 L 384.9,605.4 L 384.9,605.4 L 385.0,605.4 L 385.0,605.4 L 385.1,605.4 L 385.1,605.4 L 385.2,605.4 L 385.2,605.4 L 385.2,605.5 L 385.3,605.5 L 385.3,605.5 L 385.3,605.6 L 385.4,605.6 L 385.4,605.6 L 385.4,605.7 L 385.4,605.7 L 385.5,605.8 L 385.5,605.8 L 385.5,605.9 L 385.5,605.9 L 384.9,605.9 Z" style="fill:#000000;fill-rule:evenodd;fill-opacity:1;stroke:#000000;stroke-width:0.0px;stroke-linecap:butt;stroke-linejoin:miter;stroke-opacity:1;"/>
<path class="atom-5" d="M 383.3,605.9 L 383.3,606.0 L 383.3,606.0 L 383.2,606.0 L 383.2,606.1 L 383.2,606.1 L 383.2,606.2 L 383.2,606.2 L 383.1,606.3 L 383.1,606.3 L 383.1,606.3 L 383.0,606.4 L 383.0,606.4 L 383.0,606.4 L 382.9,606.4 L 382.9,606.4 L 382.8,606.4 L 382.8,606.5 L 382.7,606.5 L 382.7,606.5 L 382.6,606.5 L 382.6,606.4 L 382.5,606.4 L 382.5,606.4 L 382.5,606.4 L 382.4,606.4 L 382.4,606.3 L 382.3,606.3 L 382.3,606.3 L 382.3,606.2 L 382.2,606.2 L 382.2,606.2 L 382.2,606.1 L 382.2,606.1 L 382.2,606.0 L 382.2,606.0 L 382.2,605.9 L 382.2,605.9 L 382.2,605.8 L 382.2,605.8 L 382.2,605.7 L 382.2,605.7 L 382.2,605.7 L 382.2,605.6 L 382.3,605.6 L 382.3,605.5 L 382.3,605.5 L 382.4,605.5 L 382.4,605.4 L 382.5,605.4 L 382.5,605.4 L 382.5,605.4 L 382.6,605.4 L 382.6,605.4 L 382.7,605.4 L 382.7,605.4 L 382.8,605.4 L 382.8,605.4 L 382.9,605.4 L 382.9,605.4 L 383.0,605.4 L 383.0,605.4 L 383.0,605.5 L 383.1,605.5 L 383.1,605.5 L 383.1,605.6 L 383.2,605.6 L 383.2,605.6 L 383.2,605.7 L 383.2,605.7 L 383.2,605.8 L 383.3,605.8 L 383.3,605.9 L 383.3,605.9 L 382.7,605.9 Z" style="fill:#000000;fill-rule:evenodd;fill-opacity:1;stroke:#000000;stroke-width:0.0px;stroke-linecap:butt;stroke-linejoin:miter;stroke-opacity:1;"/>
<path class="atom-6" d="M 417.6,623.6 L 417.6,623.7 L 417.6,623.7 L 417.6,623.8 L 417.6,623.8 L 417.6,623.9 L 417.6,623.9 L 417.5,623.9 L 417.5,624.0 L 417.5,624.0 L 417.5,624.1 L 417.4,624.1 L 417.4,624.1 L 417.3,624.1 L 417.3,624.2 L 417.2,624.2 L 417.2,624.2 L 417.2,624.2 L 417.1,624.2 L 417.1,624.2 L 417.0,624.2 L 417.0,624.2 L 416.9,624.2 L 416.9,624.1 L 416.8,624.1 L 416.8,624.1 L 416.8,624.1 L 416.7,624.0 L 416.7,624.0 L 416.7,624.0 L 416.6,623.9 L 416.6,623.9 L 416.6,623.8 L 416.6,623.8 L 416.6,623.8 L 416.5,623.7 L 416.5,623.7 L 416.5,623.6 L 416.5,623.6 L 416.6,623.5 L 416.6,623.5 L 416.6,623.4 L 416.6,623.4 L 416.6,623.3 L 416.7,623.3 L 416.7,623.3 L 416.7,623.2 L 416.8,623.2 L 416.8,623.2 L 416.8,623.2 L 416.9,623.1 L 416.9,623.1 L 417.0,623.1 L 417.0,623.1 L 417.1,623.1 L 417.1,623.1 L 417.2,623.1 L 417.2,623.1 L 417.2,623.1 L 417.3,623.1 L 417.3,623.1 L 417.4,623.2 L 417.4,623.2 L 417.5,623.2 L 417.5,623.2 L 417.5,623.3 L 417.5,623.3 L 417.6,623.4 L 417.6,623.4 L 417.6,623.4 L 417.6,623.5 L 417.6,623.5 L 417.6,623.6 L 417.6,623.6 L 417.1,623.6 Z" style="fill:#000000;fill-rule:evenodd;fill-opacity:1;stroke:#000000;stroke-width:0.0px;stroke-linecap:butt;stroke-linejoin:miter;stroke-opacity:1;"/>
<path class="atom-7" d="M 436.8,609.0 L 436.8,609.1 L 436.8,609.1 L 436.8,609.2 L 436.8,609.2 L 436.8,609.3 L 436.7,609.3 L 436.7,609.3 L 436.7,609.4 L 436.7,609.4 L 436.6,609.4 L 436.6,609.5 L 436.5,609.5 L 436.5,609.5 L 436.5,609.5 L 436.4,609.6 L 436.4,609.6 L 436.3,609.6 L 436.3,609.6 L 436.2,609.6 L 436.2,609.6 L 436.1,609.6 L 436.1,609.6 L 436.0,609.5 L 436.0,609.5 L 436.0,609.5 L 435.9,609.5 L 435.9,609.4 L 435.9,609.4 L 435.8,609.4 L 435.8,609.3 L 435.8,609.3 L 435.8,609.2 L 435.7,609.2 L 435.7,609.1 L 435.7,609.1 L 435.7,609.1 L 435.7,609.0 L 435.7,609.0 L 435.7,608.9 L 435.7,608.9 L 435.8,608.8 L 435.8,608.8 L 435.8,608.7 L 435.8,608.7 L 435.9,608.7 L 435.9,608.6 L 435.9,608.6 L 436.0,608.6 L 436.0,608.5 L 436.0,608.5 L 436.1,608.5 L 436.1,608.5 L 436.2,608.5 L 436.2,608.5 L 436.3,608.5 L 436.3,608.5 L 436.4,608.5 L 436.4,608.5 L 436.5,608.5 L 436.5,608.5 L 436.5,608.6 L 436.6,608.6 L 436.6,608.6 L 436.7,608.6 L 436.7,608.7 L 436.7,608.7 L 436.7,608.8 L 436.8,608.8 L 436.8,608.8 L 436.8,608.9 L 436.8,608.9 L 436.8,609.0 L 436.8,609.0 L 436.3,609.0 Z" style="fill:#000000;fill-rule:evenodd;fill-opacity:1;stroke:#000000;stroke-width:0.0px;stroke-linecap:butt;stroke-linejoin:miter;stroke-opacity:1;"/>
<path class="atom-9" d="M 488.8,604.6 L 488.8,604.7 L 488.8,604.7 L 488.8,604.8 L 488.7,604.8 L 488.7,604.8 L 488.7,604.9 L 488.7,604.9 L 488.6,605.0 L 488.6,605.0 L 488.6,605.0 L 488.5,605.1 L 488.5,605.1 L 488.5,605.1 L 488.4,605.1 L 488.4,605.1 L 488.3,605.2 L 488.3,605.2 L 488.2,605.2 L 488.2,605.2 L 488.1,605.2 L 488.1,605.2 L 488.0,605.1 L 488.0,605.1 L 488.0,605.1 L 487.9,605.1 L 487.9,605.1 L 487.8,605.0 L 487.8,605.0 L 487.8,605.0 L 487.8,604.9 L 487.7,604.9 L 487.7,604.8 L 487.7,604.8 L 487.7,604.7 L 487.7,604.7 L 487.7,604.6 L 487.7,604.6 L 487.7,604.5 L 487.7,604.5 L 487.7,604.5 L 487.7,604.4 L 487.7,604.4 L 487.8,604.3 L 487.8,604.3 L 487.8,604.3 L 487.8,604.2 L 487.9,604.2 L 487.9,604.2 L 488.0,604.1 L 488.0,604.1 L 488.0,604.1 L 488.1,604.1 L 488.1,604.1 L 488.2,604.1 L 488.2,604.1 L 488.3,604.1 L 488.3,604.1 L 488.4,604.1 L 488.4,604.1 L 488.5,604.1 L 488.5,604.1 L 488.5,604.2 L 488.6,604.2 L 488.6,604.2 L 488.6,604.3 L 488.7,604.3 L 488.7,604.3 L 488.7,604.4 L 488.7,604.4 L 488.8,604.5 L 488.8,604.5 L 488.8,604.6 L 488.8,604.6 L 488.2,604.6 Z" style="fill:#000000;fill-rule:evenodd;fill-opacity:1;stroke:#000000;stroke-width:0.0px;stroke-linecap:butt;stroke-linejoin:miter;stroke-opacity:1;"/>
<path class="atom-9" d="M 488.8,610.1 L 488.8,610.2 L 488.8,610.2 L 488.8,610.3 L 488.7,610.3 L 488.7,610.4 L 488.7,610.4 L 488.7,610.4 L 488.6,610.5 L 488.6,610.5 L 488.6,610.6 L 488.5,610.6 L 488.5,610.6 L 488.5,610.6 L 488.4,610.7 L 488.4,610.7 L 488.3,610.7 L 488.3,610.7 L 488.2,610.7 L 488.2,610.7 L 488.1,610.7 L 488.1,610.7 L 488.0,610.7 L 488.0,610.6 L 488.0,610.6 L 487.9,610.6 L 487.9,610.6 L 487.8,610.5 L 487.8,610.5 L 487.8,610.5 L 487.8,610.4 L 487.7,610.4 L 487.7,610.3 L 487.7,610.3 L 487.7,610.3 L 487.7,610.2 L 487.7,610.2 L 487.7,610.1 L 487.7,610.1 L 487.7,610.0 L 487.7,610.0 L 487.7,609.9 L 487.7,609.9 L 487.8,609.8 L 487.8,609.8 L 487.8,609.8 L 487.8,609.7 L 487.9,609.7 L 487.9,609.7 L 488.0,609.6 L 488.0,609.6 L 488.0,609.6 L 488.1,609.6 L 488.1,609.6 L 488.2,609.6 L 488.2,609.6 L 488.3,609.6 L 488.3,609.6 L 488.4,609.6 L 488.4,609.6 L 488.5,609.6 L 488.5,609.7 L 488.5,609.7 L 488.6,609.7 L 488.6,609.7 L 488.6,609.8 L 488.7,609.8 L 488.7,609.9 L 488.7,609.9 L 488.7,609.9 L 488.8,610.0 L 488.8,610.0 L 488.8,610.1 L 488.8,610.1 L 488.2,610.1 Z" style="fill:#000000;fill-rule:evenodd;fill-opacity:1;stroke:#000000;stroke-width:0.0px;stroke-linecap:butt;stroke-linejoin:miter;stroke-opacity:1;"/>
<path class="atom-9" d="M 488.8,607.4 L 488.8,607.4 L 488.8,607.5 L 488.8,607.5 L 488.7,607.6 L 488.7,607.6 L 488.7,607.6 L 488.7,607.7 L 488.6,607.7 L 488.6,607.8 L 488.6,607.8 L 488.5,607.8 L 488.5,607.9 L 488.5,607.9 L 488.4,607.9 L 488.4,607.9 L 488.3,607.9 L 488.3,607.9 L 488.2,607.9 L 488.2,607.9 L 488.1,607.9 L 488.1,607.9 L 488.0,607.9 L 488.0,607.9 L 488.0,607.9 L 487.9,607.8 L 487.9,607.8 L 487.8,607.8 L 487.8,607.7 L 487.8,607.7 L 487.8,607.7 L 487.7,607.6 L 487.7,607.6 L 487.7,607.5 L 487.7,607.5 L 487.7,607.4 L 487.7,607.4 L 487.7,607.4 L 487.7,607.3 L 487.7,607.3 L 487.7,607.2 L 487.7,607.2 L 487.7,607.1 L 487.8,607.1 L 487.8,607.0 L 487.8,607.0 L 487.8,607.0 L 487.9,606.9 L 487.9,606.9 L 488.0,606.9 L 488.0,606.9 L 488.0,606.9 L 488.1,606.8 L 488.1,606.8 L 488.2,606.8 L 488.2,606.8 L 488.3,606.8 L 488.3,606.8 L 488.4,606.8 L 488.4,606.9 L 488.5,606.9 L 488.5,606.9 L 488.5,606.9 L 488.6,607.0 L 488.6,607.0 L 488.6,607.0 L 488.7,607.1 L 488.7,607.1 L 488.7,607.1 L 488.7,607.2 L 488.8,607.2 L 488.8,607.3 L 488.8,607.3 L 488.8,607.4 L 488.2,607.4 Z" style="fill:#000000;fill-rule:evenodd;fill-opacity:1;stroke:#000000;stroke-width:0.0px;stroke-linecap:butt;stroke-linejoin:miter;stroke-opacity:1;"/>
<path class="bond-0 atom-0 atom-1" d="M 570.2,646.0 L 633.4,609.5" style="fill:none;fill-rule:evenodd;stroke:#000000;stroke-width:2.0px;stroke-linecap:butt;stroke-linejoin:miter;stroke-opacity:1"/>
<path class="bond-1 atom-1 atom-2" d="M 658.5,609.5 L 730.5,651.1" style="fill:none;fill-rule:evenodd;stroke:#000000;stroke-width:2.0px;stroke-linecap:butt;stroke-linejoin:miter;stroke-opacity:1"/>
<path class="atom-0" d="M 519.7 640.0 L 523.6 640.0 L 523.6 652.1 L 538.1 652.1 L 538.1 640.0 L 541.9 640.0 L 541.9 668.4 L 538.1 668.4 L 538.1 655.3 L 523.6 655.3 L 523.6 668.4 L 519.7 668.4 L 519.7 640.0 " fill="#000000"/>
<path class="atom-0" d="M 549.8 640.0 L 559.1 655.0 Q 560.0 656.5, 561.5 659.2 Q 562.9 661.9, 563.0 662.0 L 563.0 640.0 L 566.8 640.0 L 566.8 668.4 L 562.9 668.4 L 552.9 652.0 Q 551.8 650.0, 550.5 647.8 Q 549.3 645.6, 549.0 645.0 L 549.0 668.4 L 545.3 668.4 L 545.3 640.0 L 549.8 640.0 " fill="#000000"/>
<path class="atom-1" d="M 638.0 612.0 Q 638.3 612.1, 639.6 612.7 Q 640.9 613.2, 642.4 613.6 Q 643.8 613.9, 645.3 613.9 Q 648.0 613.9, 649.5 612.6 Q 651.1 611.3, 651.1 609.0 Q 651.1 607.5, 650.3 606.5 Q 649.5 605.6, 648.3 605.0 Q 647.1 604.5, 645.1 603.9 Q 642.6 603.2, 641.1 602.4 Q 639.6 601.7, 638.5 600.2 Q 637.5 598.7, 637.5 596.1 Q 637.5 592.6, 639.9 590.4 Q 642.3 588.2, 647.1 588.2 Q 650.4 588.2, 654.1 589.7 L 653.2 592.8 Q 649.8 591.4, 647.2 591.4 Q 644.5 591.4, 643.0 592.6 Q 641.4 593.7, 641.5 595.6 Q 641.5 597.2, 642.2 598.1 Q 643.0 599.0, 644.1 599.5 Q 645.3 600.0, 647.2 600.6 Q 649.8 601.4, 651.3 602.2 Q 652.8 603.0, 653.9 604.7 Q 655.0 606.3, 655.0 609.0 Q 655.0 613.0, 652.4 615.1 Q 649.8 617.2, 645.4 617.2 Q 642.9 617.2, 641.0 616.6 Q 639.1 616.1, 636.9 615.2 L 638.0 612.0 " fill="#000000"/>
<path class="atom-1" d="M 656.9 592.8 L 661.9 592.8 L 661.9 587.6 L 664.1 587.6 L 664.1 592.8 L 669.2 592.8 L 669.2 594.7 L 664.1 594.7 L 664.1 600.0 L 661.9 600.0 L 661.9 594.7 L 656.9 594.7 L 656.9 592.8 " fill="#000000"/>
<path class="atom-2" d="M 734.0 640.0 L 737.8 640.0 L 737.8 668.4 L 734.0 668.4 L 734.0 640.0 " fill="#000000"/>
<path class="atom-0" d="M 515.7,654.2 L 515.7,654.4 L 515.7,654.5 L 515.7,654.7 L 515.6,654.9 L 515.6,655.0 L 515.5,655.2 L 515.4,655.3 L 515.3,655.5 L 515.2,655.6 L 515.0,655.7 L 514.9,655.8 L 514.8,655.9 L 514.6,656.0 L 514.5,656.1 L 514.3,656.1 L 514.1,656.2 L 514.0,656.2 L 513.8,656.2 L 513.6,656.2 L 513.4,656.2 L 513.3,656.1 L 513.1,656.1 L 512.9,656.0 L 512.8,656.0 L 512.6,655.9 L 512.5,655.8 L 512.4,655.6 L 512.2,655.5 L 512.1,655.4 L 512.0,655.3 L 512.0,655.1 L 511.9,654.9 L 511.8,654.8 L 511.8,654.6 L 511.8,654.4 L 511.7,654.3 L 511.7,654.1 L 511.8,653.9 L 511.8,653.8 L 511.8,653.6 L 511.9,653.4 L 512.0,653.3 L 512.0,653.1 L 512.1,653.0 L 512.2,652.9 L 512.4,652.7 L 512.5,652.6 L 512.6,652.5 L 512.8,652.4 L 512.9,652.4 L 513.1,652.3 L 513.3,652.2 L 513.4,652.2 L 513.6,652.2 L 513.8,652.2 L 514.0,652.2 L 514.1,652.2 L 514.3,652.3 L 514.5,652.3 L 514.6,652.4 L 514.8,652.5 L 514.9,652.6 L 515.0,652.7 L 515.2,652.8 L 515.3,652.9 L 515.4,653.1 L 515.5,653.2 L 515.6,653.4 L 515.6,653.5 L 515.7,653.7 L 515.7,653.8 L 515.7,654.0 L 515.7,654.2 L 513.7,654.2 Z" style="fill:#000000;fill-rule:evenodd;fill-opacity:1;stroke:#000000;stroke-width:0.0px;stroke-linecap:butt;stroke-linejoin:miter;stroke-opacity:1;"/>
<path class="atom-1" d="M 648.0,584.6 L 647.9,584.8 L 647.9,584.9 L 647.9,585.1 L 647.8,585.3 L 647.8,585.4 L 647.7,585.6 L 647.6,585.7 L 647.5,585.9 L 647.4,586.0 L 647.3,586.1 L 647.1,586.2 L 647.0,586.3 L 646.8,586.4 L 646.7,586.5 L 646.5,586.5 L 646.3,586.6 L 646.2,586.6 L 646.0,586.6 L 645.8,586.6 L 645.6,586.6 L 645.5,586.5 L 645.3,586.5 L 645.2,586.4 L 645.0,586.3 L 644.9,586.3 L 644.7,586.2 L 644.6,586.0 L 644.5,585.9 L 644.4,585.8 L 644.3,585.7 L 644.2,585.5 L 644.1,585.3 L 644.0,585.2 L 644.0,585.0 L 644.0,584.8 L 644.0,584.7 L 644.0,584.5 L 644.0,584.3 L 644.0,584.2 L 644.0,584.0 L 644.1,583.8 L 644.2,583.7 L 644.3,583.5 L 644.4,583.4 L 644.5,583.3 L 644.6,583.1 L 644.7,583.0 L 644.9,582.9 L 645.0,582.8 L 645.2,582.8 L 645.3,582.7 L 645.5,582.6 L 645.6,582.6 L 645.8,582.6 L 646.0,582.6 L 646.2,582.6 L 646.3,582.6 L 646.5,582.7 L 646.7,582.7 L 646.8,582.8 L 647.0,582.9 L 647.1,583.0 L 647.3,583.1 L 647.4,583.2 L 647.5,583.3 L 647.6,583.5 L 647.7,583.6 L 647.8,583.8 L 647.8,583.9 L 647.9,584.1 L 647.9,584.2 L 647.9,584.4 L 648.0,584.6 L 646.0,584.6 Z" style="fill:#000000;fill-rule:evenodd;fill-opacity:1;stroke:#000000;stroke-width:0.0px;stroke-linecap:butt;stroke-linejoin:miter;stroke-opacity:1;"/>
</svg>