<svg xmlns="http://www.w3.org/2000/svg" xmlns:rdkit="http://www.rdkit.org/xml" xmlns:xlink="http://www.w3.org/1999/xlink" version="1.1" baseProfile="full" xml:space="preserve" width="750px" height="750px" viewBox="0 0 750 750">
<!-- END OF HEADER -->
<rect style="opacity:1.0;fill:#FFFFFF;stroke:none" width="750.0" height="750.0" x="0.0" y="0.0"> </rect>
<path class="bond-0 atom-0 atom-1" d="M 188.1,124.8 L 55.0,124.8" style="fill:none;fill-rule:evenodd;stroke:#000000;stroke-width:2.0px;stroke-linecap:butt;stroke-linejoin:miter;stroke-opacity:1"/>
<path class="atom-0" d="M 207.4 124.1 Q 210.1 124.8, 211.5 126.5 Q 212.9 128.1, 212.9 130.6 Q 212.9 134.5, 210.4 136.7 Q 207.9 138.9, 203.2 138.9 L 193.6 138.9 L 193.6 110.6 L 202.0 110.6 Q 206.8 110.6, 209.3 112.6 Q 211.7 114.5, 211.7 118.1 Q 211.7 122.4, 207.4 124.1 M 197.4 113.8 L 197.4 122.7 L 202.0 122.7 Q 204.8 122.7, 206.2 121.6 Q 207.7 120.4, 207.7 118.1 Q 207.7 113.8, 202.0 113.8 L 197.4 113.8 M 203.2 135.7 Q 205.9 135.7, 207.4 134.4 Q 208.9 133.1, 208.9 130.6 Q 208.9 128.3, 207.2 127.1 Q 205.6 125.9, 202.6 125.9 L 197.4 125.9 L 197.4 135.7 L 203.2 135.7 " fill="#000000"/>
<path class="atom-0" d="M 217.8 118.4 L 218.2 121.2 Q 220.4 118.0, 223.9 118.0 Q 225.0 118.0, 226.5 118.4 L 225.9 121.8 Q 224.2 121.4, 223.2 121.4 Q 221.6 121.4, 220.4 122.1 Q 219.4 122.7, 218.5 124.3 L 218.5 138.9 L 214.7 138.9 L 214.7 118.4 L 217.8 118.4 " fill="#000000"/>
<path class="atom-1" d="M 23.5 124.9 Q 23.5 118.1, 26.8 114.3 Q 30.2 110.5, 36.5 110.5 Q 42.8 110.5, 46.1 114.3 Q 49.5 118.1, 49.5 124.9 Q 49.5 131.7, 46.1 135.7 Q 42.7 139.5, 36.5 139.5 Q 30.2 139.5, 26.8 135.7 Q 23.5 131.8, 23.5 124.9 M 36.5 136.3 Q 40.8 136.3, 43.1 133.5 Q 45.5 130.5, 45.5 124.9 Q 45.5 119.3, 43.1 116.5 Q 40.8 113.7, 36.5 113.7 Q 32.2 113.7, 29.8 116.5 Q 27.5 119.3, 27.5 124.9 Q 27.5 130.6, 29.8 133.5 Q 32.2 136.3, 36.5 136.3 " fill="#000000"/>
<path class="atom-1" d="M 51.5 115.1 L 61.2 115.1 L 61.2 117.2 L 51.5 117.2 L 51.5 115.1 " fill="#000000"/>
<path class="bond-0 atom-0 atom-1" d="M 361.3,118.4 L 445.9,118.4" style="fill:none;fill-rule:evenodd;stroke:#000000;stroke-width:2.0px;stroke-linecap:butt;stroke-linejoin:miter;stroke-opacity:1"/>
<path class="atom-0" d="M 280.2 104.3 L 284.0 104.3 L 284.0 116.3 L 298.5 116.3 L 298.5 104.3 L 302.3 104.3 L 302.3 132.6 L 298.5 132.6 L 298.5 119.5 L 284.0 119.5 L 284.0 132.6 L 280.2 132.6 L 280.2 104.3 " fill="#000000"/>
<path class="atom-0" d="M 305.8 131.6 Q 306.5 129.8, 308.1 128.9 Q 309.7 127.8, 312.0 127.8 Q 314.8 127.8, 316.4 129.4 Q 318.0 130.9, 318.0 133.6 Q 318.0 136.4, 315.9 139.0 Q 313.9 141.6, 309.7 144.6 L 318.3 144.6 L 318.3 146.8 L 305.7 146.8 L 305.7 145.0 Q 309.2 142.5, 311.3 140.7 Q 313.4 138.8, 314.4 137.1 Q 315.4 135.5, 315.4 133.8 Q 315.4 132.0, 314.5 131.0 Q 313.6 130.0, 312.0 130.0 Q 310.5 130.0, 309.5 130.6 Q 308.5 131.2, 307.8 132.5 L 305.8 131.6 " fill="#000000"/>
<path class="atom-0" d="M 324.4 104.3 L 333.7 119.3 Q 334.6 120.8, 336.1 123.4 Q 337.5 126.1, 337.6 126.3 L 337.6 104.3 L 341.4 104.3 L 341.4 132.6 L 337.5 132.6 L 327.5 116.2 Q 326.4 114.3, 325.1 112.1 Q 323.9 109.9, 323.6 109.2 L 323.6 132.6 L 319.9 132.6 L 319.9 104.3 L 324.4 104.3 " fill="#000000"/>
<path class="atom-0" d="M 344.7 109.4 L 349.7 109.4 L 349.7 104.1 L 351.9 104.1 L 351.9 109.4 L 357.0 109.4 L 357.0 111.3 L 351.9 111.3 L 351.9 116.6 L 349.7 116.6 L 349.7 111.3 L 344.7 111.3 L 344.7 109.4 " fill="#000000"/>
<path class="atom-1" d="M 450.2 119.4 Q 450.2 112.4, 453.5 108.7 Q 456.8 105.0, 463.1 105.0 Q 468.9 105.0, 472.1 109.1 L 469.4 111.3 Q 467.1 108.3, 463.1 108.3 Q 458.8 108.3, 456.5 111.1 Q 454.3 114.0, 454.3 119.4 Q 454.3 125.0, 456.6 127.9 Q 459.0 130.8, 463.5 130.8 Q 466.7 130.8, 470.3 128.9 L 471.4 131.9 Q 469.9 132.9, 467.7 133.4 Q 465.5 134.0, 463.0 134.0 Q 456.8 134.0, 453.5 130.2 Q 450.2 126.5, 450.2 119.4 " fill="#000000"/>
<path class="atom-1" d="M 473.7 103.3 L 477.3 103.3 L 477.3 133.6 L 473.7 133.6 L 473.7 103.3 " fill="#000000"/>
<path class="atom-0" d="M 276.2,118.4 L 276.2,118.6 L 276.1,118.8 L 276.1,118.9 L 276.1,119.1 L 276.0,119.3 L 275.9,119.4 L 275.8,119.6 L 275.7,119.7 L 275.6,119.8 L 275.5,119.9 L 275.3,120.1 L 275.2,120.1 L 275.0,120.2 L 274.9,120.3 L 274.7,120.4 L 274.6,120.4 L 274.4,120.4 L 274.2,120.4 L 274.0,120.4 L 273.9,120.4 L 273.7,120.4 L 273.5,120.3 L 273.4,120.3 L 273.2,120.2 L 273.1,120.1 L 272.9,120.0 L 272.8,119.9 L 272.7,119.8 L 272.6,119.6 L 272.5,119.5 L 272.4,119.3 L 272.3,119.2 L 272.3,119.0 L 272.2,118.9 L 272.2,118.7 L 272.2,118.5 L 272.2,118.3 L 272.2,118.2 L 272.2,118.0 L 272.3,117.8 L 272.3,117.7 L 272.4,117.5 L 272.5,117.4 L 272.6,117.2 L 272.7,117.1 L 272.8,117.0 L 272.9,116.9 L 273.1,116.8 L 273.2,116.7 L 273.4,116.6 L 273.5,116.5 L 273.7,116.5 L 273.9,116.5 L 274.0,116.4 L 274.2,116.4 L 274.4,116.4 L 274.6,116.5 L 274.7,116.5 L 274.9,116.6 L 275.0,116.6 L 275.2,116.7 L 275.3,116.8 L 275.5,116.9 L 275.6,117.0 L 275.7,117.2 L 275.8,117.3 L 275.9,117.4 L 276.0,117.6 L 276.1,117.8 L 276.1,117.9 L 276.1,118.1 L 276.2,118.3 L 276.2,118.4 L 274.2,118.4 Z" style="fill:#000000;fill-rule:evenodd;fill-opacity:1;stroke:#000000;stroke-width:0.0px;stroke-linecap:butt;stroke-linejoin:miter;stroke-opacity:1;"/>
<path class="bond-0 atom-0 atom-1" d="M 559.2,143.2 L 562.2,123.4" style="fill:none;fill-rule:evenodd;stroke:#000000;stroke-width:2.0px;stroke-linecap:butt;stroke-linejoin:miter;stroke-opacity:1"/>
<path class="bond-1 atom-1 atom-2" d="M 559.2,114.6 L 538.5,98.1" style="fill:none;fill-rule:evenodd;stroke:#000000;stroke-width:2.0px;stroke-linecap:butt;stroke-linejoin:miter;stroke-opacity:1"/>
<path class="bond-2 atom-2 atom-3" d="M 538.5,98.1 L 522.6,118.0" style="fill:none;fill-rule:evenodd;stroke:#000000;stroke-width:2.0px;stroke-linecap:butt;stroke-linejoin:miter;stroke-opacity:1"/>
<path class="bond-3 atom-2 atom-4" d="M 538.5,98.1 L 554.4,78.2" style="fill:none;fill-rule:evenodd;stroke:#000000;stroke-width:2.0px;stroke-linecap:butt;stroke-linejoin:miter;stroke-opacity:1"/>
<path class="bond-4 atom-2 atom-5" d="M 538.5,98.1 L 517.7,81.5" style="fill:none;fill-rule:evenodd;stroke:#000000;stroke-width:2.0px;stroke-linecap:butt;stroke-linejoin:miter;stroke-opacity:1"/>
<path class="bond-5 atom-1 atom-6" d="M 566.9,116.2 L 592.2,106.2" style="fill:none;fill-rule:evenodd;stroke:#000000;stroke-width:2.0px;stroke-linecap:butt;stroke-linejoin:miter;stroke-opacity:1"/>
<path class="bond-6 atom-6 atom-7" d="M 592.2,106.2 L 616.8,125.8" style="fill:none;fill-rule:evenodd;stroke:#000000;stroke-width:2.0px;stroke-linecap:butt;stroke-linejoin:miter;stroke-opacity:1"/>
<path class="bond-7 atom-7 atom-8" d="M 616.8,125.8 L 646.0,114.4" style="fill:none;fill-rule:evenodd;stroke:#000000;stroke-width:2.0px;stroke-linecap:butt;stroke-linejoin:miter;stroke-opacity:1"/>
<path class="bond-8 atom-8 atom-9" d="M 646.0,114.4 L 650.6,83.3" style="fill:none;fill-rule:evenodd;stroke:#000000;stroke-width:2.0px;stroke-linecap:butt;stroke-linejoin:miter;stroke-opacity:1"/>
<path class="bond-8 atom-8 atom-9" d="M 652.9,110.6 L 656.1,88.9" style="fill:none;fill-rule:evenodd;stroke:#000000;stroke-width:2.0px;stroke-linecap:butt;stroke-linejoin:miter;stroke-opacity:1"/>
<path class="bond-9 atom-9 atom-10" d="M 650.6,83.3 L 679.8,71.9" style="fill:none;fill-rule:evenodd;stroke:#000000;stroke-width:2.0px;stroke-linecap:butt;stroke-linejoin:miter;stroke-opacity:1"/>
<path class="bond-10 atom-10 atom-11" d="M 679.8,71.9 L 704.4,91.5" style="fill:none;fill-rule:evenodd;stroke:#000000;stroke-width:2.0px;stroke-linecap:butt;stroke-linejoin:miter;stroke-opacity:1"/>
<path class="bond-10 atom-10 atom-11" d="M 679.6,79.7 L 696.8,93.4" style="fill:none;fill-rule:evenodd;stroke:#000000;stroke-width:2.0px;stroke-linecap:butt;stroke-linejoin:miter;stroke-opacity:1"/>
<path class="bond-11 atom-11 atom-12" d="M 704.4,91.5 L 729.1,81.8" style="fill:none;fill-rule:evenodd;stroke:#000000;stroke-width:2.0px;stroke-linecap:butt;stroke-linejoin:miter;stroke-opacity:1"/>
<path class="bond-12 atom-11 atom-13" d="M 704.4,91.5 L 699.7,122.5" style="fill:none;fill-rule:evenodd;stroke:#000000;stroke-width:2.0px;stroke-linecap:butt;stroke-linejoin:miter;stroke-opacity:1"/>
<path class="bond-13 atom-13 atom-14" d="M 699.7,122.5 L 670.5,133.9" style="fill:none;fill-rule:evenodd;stroke:#000000;stroke-width:2.0px;stroke-linecap:butt;stroke-linejoin:miter;stroke-opacity:1"/>
<path class="bond-13 atom-13 atom-14" d="M 693.0,118.3 L 672.6,126.4" style="fill:none;fill-rule:evenodd;stroke:#000000;stroke-width:2.0px;stroke-linecap:butt;stroke-linejoin:miter;stroke-opacity:1"/>
<path class="bond-14 atom-14 atom-15" d="M 670.5,133.9 L 665.8,164.9" style="fill:none;fill-rule:evenodd;stroke:#000000;stroke-width:2.0px;stroke-linecap:butt;stroke-linejoin:miter;stroke-opacity:1"/>
<path class="bond-15 atom-15 atom-16" d="M 666.9,167.9 L 642.1,177.6" style="fill:none;fill-rule:evenodd;stroke:#000000;stroke-width:2.0px;stroke-linecap:butt;stroke-linejoin:miter;stroke-opacity:1"/>
<path class="bond-15 atom-15 atom-16" d="M 664.6,162.0 L 639.8,171.7" style="fill:none;fill-rule:evenodd;stroke:#000000;stroke-width:2.0px;stroke-linecap:butt;stroke-linejoin:miter;stroke-opacity:1"/>
<path class="bond-16 atom-7 atom-17" d="M 615.1,131.8 L 616.6,132.1" style="fill:none;fill-rule:evenodd;stroke:#000000;stroke-width:1.0px;stroke-linecap:butt;stroke-linejoin:miter;stroke-opacity:1"/>
<path class="bond-16 atom-7 atom-17" d="M 613.4,137.8 L 616.5,138.3" style="fill:none;fill-rule:evenodd;stroke:#000000;stroke-width:1.0px;stroke-linecap:butt;stroke-linejoin:miter;stroke-opacity:1"/>
<path class="bond-16 atom-7 atom-17" d="M 611.7,143.8 L 616.3,144.5" style="fill:none;fill-rule:evenodd;stroke:#000000;stroke-width:1.0px;stroke-linecap:butt;stroke-linejoin:miter;stroke-opacity:1"/>
<path class="bond-16 atom-7 atom-17" d="M 610.0,149.8 L 616.2,150.8" style="fill:none;fill-rule:evenodd;stroke:#000000;stroke-width:1.0px;stroke-linecap:butt;stroke-linejoin:miter;stroke-opacity:1"/>
<path class="bond-17 atom-14 atom-8" d="M 670.5,133.9 L 646.0,114.4" style="fill:none;fill-rule:evenodd;stroke:#000000;stroke-width:2.0px;stroke-linecap:butt;stroke-linejoin:miter;stroke-opacity:1"/>
<path class="atom-0" d="M 555.7 144.3 L 561.0 144.3 L 561.0 145.3 L 556.9 145.3 L 556.9 148.0 L 560.5 148.0 L 560.5 149.0 L 556.9 149.0 L 556.9 153.1 L 555.7 153.1 L 555.7 144.3 " fill="#000000"/>
<path class="atom-1" d="M 560.5 120.7 Q 560.6 120.8, 561.0 121.0 Q 561.5 121.1, 561.9 121.2 Q 562.4 121.3, 562.8 121.3 Q 563.7 121.3, 564.2 120.9 Q 564.6 120.5, 564.6 119.8 Q 564.6 119.3, 564.4 119.0 Q 564.2 118.7, 563.8 118.6 Q 563.4 118.4, 562.8 118.2 Q 562.0 118.0, 561.5 117.7 Q 561.0 117.5, 560.7 117.0 Q 560.4 116.6, 560.4 115.8 Q 560.4 114.6, 561.1 114.0 Q 561.9 113.3, 563.4 113.3 Q 564.4 113.3, 565.6 113.8 L 565.3 114.7 Q 564.2 114.3, 563.4 114.3 Q 562.6 114.3, 562.1 114.6 Q 561.6 115.0, 561.6 115.6 Q 561.6 116.1, 561.9 116.4 Q 562.1 116.7, 562.5 116.8 Q 562.8 117.0, 563.4 117.2 Q 564.2 117.4, 564.7 117.7 Q 565.2 117.9, 565.5 118.4 Q 565.9 118.9, 565.9 119.8 Q 565.9 121.0, 565.1 121.7 Q 564.2 122.4, 562.9 122.4 Q 562.1 122.4, 561.5 122.2 Q 560.9 122.0, 560.2 121.7 L 560.5 120.7 " fill="#000000"/>
<path class="atom-1" d="M 559.6 103.2 L 560.8 103.2 L 560.8 107.0 L 565.3 107.0 L 565.3 103.2 L 566.5 103.2 L 566.5 112.1 L 565.3 112.1 L 565.3 108.0 L 560.8 108.0 L 560.8 112.1 L 559.6 112.1 L 559.6 103.2 " fill="#000000"/>
<path class="atom-3" d="M 516.3 118.2 L 521.6 118.2 L 521.6 119.2 L 517.5 119.2 L 517.5 121.9 L 521.1 121.9 L 521.1 122.9 L 517.5 122.9 L 517.5 127.1 L 516.3 127.1 L 516.3 118.2 " fill="#000000"/>
<path class="atom-4" d="M 555.4 69.2 L 560.7 69.2 L 560.7 70.2 L 556.6 70.2 L 556.6 72.9 L 560.3 72.9 L 560.3 73.9 L 556.6 73.9 L 556.6 78.1 L 555.4 78.1 L 555.4 69.2 " fill="#000000"/>
<path class="atom-5" d="M 511.4 74.1 L 516.6 74.1 L 516.6 75.1 L 512.6 75.1 L 512.6 77.8 L 516.2 77.8 L 516.2 78.9 L 512.6 78.9 L 512.6 83.0 L 511.4 83.0 L 511.4 74.1 " fill="#000000"/>
<path class="atom-12" d="M 730.1 80.3 Q 730.1 78.1, 731.2 77.0 Q 732.2 75.8, 734.2 75.8 Q 736.0 75.8, 737.0 77.1 L 736.2 77.8 Q 735.4 76.8, 734.2 76.8 Q 732.8 76.8, 732.1 77.7 Q 731.4 78.6, 731.4 80.3 Q 731.4 82.1, 732.1 83.0 Q 732.9 83.9, 734.3 83.9 Q 735.3 83.9, 736.4 83.3 L 736.8 84.2 Q 736.3 84.5, 735.6 84.7 Q 734.9 84.9, 734.1 84.9 Q 732.2 84.9, 731.2 83.7 Q 730.1 82.5, 730.1 80.3 " fill="#000000"/>
<path class="atom-12" d="M 737.5 75.2 L 738.6 75.2 L 738.6 84.8 L 737.5 84.8 L 737.5 75.2 " fill="#000000"/>
<path class="atom-16" d="M 625.2 171.9 L 626.4 171.9 L 626.4 175.7 L 630.9 175.7 L 630.9 171.9 L 632.1 171.9 L 632.1 180.8 L 630.9 180.8 L 630.9 176.7 L 626.4 176.7 L 626.4 180.8 L 625.2 180.8 L 625.2 171.9 " fill="#000000"/>
<path class="atom-16" d="M 634.6 171.9 L 637.5 176.6 Q 637.8 177.1, 638.3 178.0 Q 638.7 178.8, 638.8 178.8 L 638.8 171.9 L 640.0 171.9 L 640.0 180.8 L 638.7 180.8 L 635.6 175.7 Q 635.2 175.1, 634.9 174.4 Q 634.5 173.7, 634.4 173.5 L 634.4 180.8 L 633.2 180.8 L 633.2 171.9 L 634.6 171.9 " fill="#000000"/>
<path class="atom-17" d="M 609.4 152.4 L 614.7 152.4 L 614.7 153.4 L 610.6 153.4 L 610.6 156.1 L 614.3 156.1 L 614.3 157.1 L 610.6 157.1 L 610.6 161.3 L 609.4 161.3 L 609.4 152.4 " fill="#000000"/>
<path class="bond-0 atom-0 atom-1" d="M 127.2,372.3 L 150.8,378.8" style="fill:none;fill-rule:evenodd;stroke:#000000;stroke-width:2.0px;stroke-linecap:butt;stroke-linejoin:miter;stroke-opacity:1"/>
<path class="bond-0 atom-0 atom-1" d="M 132.2,367.8 L 148.8,372.4" style="fill:none;fill-rule:evenodd;stroke:#000000;stroke-width:2.0px;stroke-linecap:butt;stroke-linejoin:miter;stroke-opacity:1"/>
<path class="bond-0 atom-0 atom-1" d="M 129.2,378.7 L 145.8,383.2" style="fill:none;fill-rule:evenodd;stroke:#000000;stroke-width:2.0px;stroke-linecap:butt;stroke-linejoin:miter;stroke-opacity:1"/>
<path class="bond-1 atom-1 atom-2" d="M 150.8,378.8 L 174.4,385.3" style="fill:none;fill-rule:evenodd;stroke:#000000;stroke-width:2.0px;stroke-linecap:butt;stroke-linejoin:miter;stroke-opacity:1"/>
<path class="bond-2 atom-2 atom-3" d="M 181.5,399.9 L 185.0,413.5" style="fill:none;fill-rule:evenodd;stroke:#000000;stroke-width:2.0px;stroke-linecap:butt;stroke-linejoin:miter;stroke-opacity:1"/>
<path class="bond-3 atom-3 atom-4" d="M 185.0,413.5 L 212.1,421.0" style="fill:none;fill-rule:evenodd;stroke:#000000;stroke-width:2.0px;stroke-linecap:butt;stroke-linejoin:miter;stroke-opacity:1"/>
<path class="bond-4 atom-4 atom-5" d="M 210.1,419.0 L 225.6,403.7" style="fill:none;fill-rule:evenodd;stroke:#000000;stroke-width:2.0px;stroke-linecap:butt;stroke-linejoin:miter;stroke-opacity:1"/>
<path class="bond-4 atom-4 atom-5" d="M 214.1,423.0 L 229.5,407.7" style="fill:none;fill-rule:evenodd;stroke:#000000;stroke-width:2.0px;stroke-linecap:butt;stroke-linejoin:miter;stroke-opacity:1"/>
<path class="bond-5 atom-4 atom-6" d="M 212.1,421.0 L 217.9,443.2" style="fill:none;fill-rule:evenodd;stroke:#000000;stroke-width:2.0px;stroke-linecap:butt;stroke-linejoin:miter;stroke-opacity:1"/>
<path class="bond-6 atom-2 atom-7" d="M 182.9,381.3 L 197.9,366.5" style="fill:none;fill-rule:evenodd;stroke:#000000;stroke-width:2.0px;stroke-linecap:butt;stroke-linejoin:miter;stroke-opacity:1"/>
<path class="bond-7 atom-7 atom-8" d="M 197.9,366.5 L 225.7,371.1" style="fill:none;fill-rule:evenodd;stroke:#000000;stroke-width:2.0px;stroke-linecap:butt;stroke-linejoin:miter;stroke-opacity:1"/>
<path class="bond-8 atom-8 atom-9" d="M 225.7,371.1 L 238.6,346.2" style="fill:none;fill-rule:evenodd;stroke:#000000;stroke-width:2.0px;stroke-linecap:butt;stroke-linejoin:miter;stroke-opacity:1"/>
<path class="bond-9 atom-9 atom-10" d="M 238.6,346.2 L 218.9,326.1" style="fill:none;fill-rule:evenodd;stroke:#000000;stroke-width:2.0px;stroke-linecap:butt;stroke-linejoin:miter;stroke-opacity:1"/>
<path class="bond-10 atom-10 atom-11" d="M 218.9,326.1 L 193.7,338.7" style="fill:none;fill-rule:evenodd;stroke:#000000;stroke-width:2.0px;stroke-linecap:butt;stroke-linejoin:miter;stroke-opacity:1"/>
<path class="bond-11 atom-11 atom-12" d="M 193.7,338.7 L 172.7,327.8" style="fill:none;fill-rule:evenodd;stroke:#000000;stroke-width:2.0px;stroke-linecap:butt;stroke-linejoin:miter;stroke-opacity:1"/>
<path class="bond-12 atom-12 atom-13" d="M 168.6,320.9 L 167.5,297.7" style="fill:none;fill-rule:evenodd;stroke:#000000;stroke-width:2.0px;stroke-linecap:butt;stroke-linejoin:miter;stroke-opacity:1"/>
<path class="bond-13 atom-0 atom-14" d="M 120.2,374.7 L 103.7,391.1" style="fill:none;fill-rule:evenodd;stroke:#000000;stroke-width:2.0px;stroke-linecap:butt;stroke-linejoin:miter;stroke-opacity:1"/>
<path class="bond-14 atom-14 atom-15" d="M 106.4,390.3 L 112.2,412.6" style="fill:none;fill-rule:evenodd;stroke:#000000;stroke-width:2.0px;stroke-linecap:butt;stroke-linejoin:miter;stroke-opacity:1"/>
<path class="bond-14 atom-14 atom-15" d="M 100.9,391.8 L 106.7,414.0" style="fill:none;fill-rule:evenodd;stroke:#000000;stroke-width:2.0px;stroke-linecap:butt;stroke-linejoin:miter;stroke-opacity:1"/>
<path class="bond-15 atom-14 atom-16" d="M 103.7,391.1 L 76.6,383.6" style="fill:none;fill-rule:evenodd;stroke:#000000;stroke-width:2.0px;stroke-linecap:butt;stroke-linejoin:miter;stroke-opacity:1"/>
<path class="bond-16 atom-16 atom-17" d="M 76.6,383.6 L 49.3,390.7" style="fill:none;fill-rule:evenodd;stroke:#000000;stroke-width:2.0px;stroke-linecap:butt;stroke-linejoin:miter;stroke-opacity:1"/>
<path class="bond-17 atom-17 atom-18" d="M 49.3,390.7 L 21.3,391.9" style="fill:none;fill-rule:evenodd;stroke:#000000;stroke-width:2.0px;stroke-linecap:butt;stroke-linejoin:miter;stroke-opacity:1"/>
<path class="bond-17 atom-17 atom-18" d="M 44.9,385.2 L 25.2,386.1" style="fill:none;fill-rule:evenodd;stroke:#000000;stroke-width:2.0px;stroke-linecap:butt;stroke-linejoin:miter;stroke-opacity:1"/>
<path class="bond-18 atom-18 atom-19" d="M 21.3,391.9 L 11.4,365.6" style="fill:none;fill-rule:evenodd;stroke:#000000;stroke-width:2.0px;stroke-linecap:butt;stroke-linejoin:miter;stroke-opacity:1"/>
<path class="bond-19 atom-19 atom-20" d="M 11.4,365.6 L 33.3,348.1" style="fill:none;fill-rule:evenodd;stroke:#000000;stroke-width:2.0px;stroke-linecap:butt;stroke-linejoin:miter;stroke-opacity:1"/>
<path class="bond-19 atom-19 atom-20" d="M 18.2,367.4 L 33.6,355.1" style="fill:none;fill-rule:evenodd;stroke:#000000;stroke-width:2.0px;stroke-linecap:butt;stroke-linejoin:miter;stroke-opacity:1"/>
<path class="bond-20 atom-20 atom-21" d="M 33.3,348.1 L 56.8,363.5" style="fill:none;fill-rule:evenodd;stroke:#000000;stroke-width:2.0px;stroke-linecap:butt;stroke-linejoin:miter;stroke-opacity:1"/>
<path class="bond-21 atom-11 atom-7" d="M 193.7,338.7 L 197.9,366.5" style="fill:none;fill-rule:evenodd;stroke:#000000;stroke-width:2.0px;stroke-linecap:butt;stroke-linejoin:miter;stroke-opacity:1"/>
<path class="bond-22 atom-21 atom-16" d="M 56.8,363.5 L 76.6,383.6" style="fill:none;fill-rule:evenodd;stroke:#000000;stroke-width:2.0px;stroke-linecap:butt;stroke-linejoin:miter;stroke-opacity:1"/>
<path class="bond-22 atom-21 atom-16" d="M 55.8,370.5 L 69.6,384.5" style="fill:none;fill-rule:evenodd;stroke:#000000;stroke-width:2.0px;stroke-linecap:butt;stroke-linejoin:miter;stroke-opacity:1"/>
<path class="bond-23 atom-21 atom-17" d="M 56.8,363.5 L 49.3,390.7" style="fill:none;fill-rule:evenodd;stroke:#000000;stroke-width:2.0px;stroke-linecap:butt;stroke-linejoin:miter;stroke-opacity:1"/>
<path class="atom-0" d="M 121.4 374.0 Q 121.5 374.1, 121.9 374.2 Q 122.3 374.4, 122.7 374.5 Q 123.1 374.6, 123.5 374.6 Q 124.3 374.6, 124.7 374.2 Q 125.1 373.9, 125.1 373.2 Q 125.1 372.8, 124.9 372.5 Q 124.7 372.2, 124.4 372.1 Q 124.0 371.9, 123.5 371.8 Q 122.8 371.6, 122.3 371.4 Q 121.9 371.2, 121.6 370.7 Q 121.3 370.3, 121.3 369.6 Q 121.3 368.6, 122.0 368.0 Q 122.7 367.3, 124.0 367.3 Q 124.9 367.3, 126.0 367.8 L 125.7 368.6 Q 124.8 368.3, 124.1 368.3 Q 123.3 368.3, 122.9 368.6 Q 122.4 368.9, 122.4 369.4 Q 122.4 369.9, 122.7 370.1 Q 122.9 370.4, 123.2 370.5 Q 123.5 370.7, 124.1 370.9 Q 124.8 371.1, 125.2 371.3 Q 125.6 371.5, 125.9 372.0 Q 126.3 372.4, 126.3 373.2 Q 126.3 374.3, 125.5 374.9 Q 124.8 375.5, 123.6 375.5 Q 122.8 375.5, 122.3 375.3 Q 121.8 375.2, 121.1 374.9 L 121.4 374.0 " fill="#000000"/>
<path class="atom-2" d="M 177.7 382.3 Q 179.1 382.3, 179.8 382.9 Q 180.5 383.5, 180.5 384.6 Q 180.5 385.7, 179.7 386.4 Q 179.1 387.0, 177.7 387.0 L 176.5 387.0 L 176.5 390.2 L 175.4 390.2 L 175.4 382.3 L 177.7 382.3 M 177.7 386.1 Q 178.5 386.1, 178.9 385.7 Q 179.3 385.3, 179.3 384.6 Q 179.3 383.9, 178.9 383.6 Q 178.5 383.2, 177.7 383.2 L 176.5 383.2 L 176.5 386.1 L 177.7 386.1 " fill="#000000"/>
<path class="atom-2" d="M 181.0 383.7 L 182.4 383.7 L 182.4 382.2 L 183.0 382.2 L 183.0 383.7 L 184.5 383.7 L 184.5 384.3 L 183.0 384.3 L 183.0 385.7 L 182.4 385.7 L 182.4 384.3 L 181.0 384.3 L 181.0 383.7 " fill="#000000"/>
<path class="atom-2" d="M 174.8 391.0 L 175.9 391.0 L 175.9 394.4 L 180.0 394.4 L 180.0 391.0 L 181.0 391.0 L 181.0 399.0 L 180.0 399.0 L 180.0 395.3 L 175.9 395.3 L 175.9 399.0 L 174.8 399.0 L 174.8 391.0 " fill="#000000"/>
<path class="atom-5" d="M 228.5 401.2 Q 228.5 399.3, 229.4 398.3 Q 230.4 397.2, 232.1 397.2 Q 233.9 397.2, 234.8 398.3 Q 235.8 399.3, 235.8 401.2 Q 235.8 403.2, 234.8 404.3 Q 233.9 405.4, 232.1 405.4 Q 230.4 405.4, 229.4 404.3 Q 228.5 403.2, 228.5 401.2 M 232.1 404.5 Q 233.3 404.5, 234.0 403.7 Q 234.7 402.8, 234.7 401.2 Q 234.7 399.7, 234.0 398.9 Q 233.3 398.1, 232.1 398.1 Q 230.9 398.1, 230.3 398.9 Q 229.6 399.7, 229.6 401.2 Q 229.6 402.8, 230.3 403.7 Q 230.9 404.5, 232.1 404.5 " fill="#000000"/>
<path class="atom-6" d="M 215.5 448.2 Q 215.5 446.3, 216.5 445.2 Q 217.4 444.1, 219.2 444.1 Q 221.0 444.1, 221.9 445.2 Q 222.8 446.3, 222.8 448.2 Q 222.8 450.1, 221.9 451.2 Q 220.9 452.3, 219.2 452.3 Q 217.4 452.3, 216.5 451.2 Q 215.5 450.1, 215.5 448.2 M 219.2 451.4 Q 220.4 451.4, 221.1 450.6 Q 221.7 449.8, 221.7 448.2 Q 221.7 446.6, 221.1 445.8 Q 220.4 445.0, 219.2 445.0 Q 218.0 445.0, 217.3 445.8 Q 216.7 446.6, 216.7 448.2 Q 216.7 449.8, 217.3 450.6 Q 218.0 451.4, 219.2 451.4 " fill="#000000"/>
<path class="atom-6" d="M 223.4 445.4 L 226.1 445.4 L 226.1 446.0 L 223.4 446.0 L 223.4 445.4 " fill="#000000"/>
<path class="atom-12" d="M 154.6 321.8 L 155.7 321.8 L 155.7 325.2 L 159.7 325.2 L 159.7 321.8 L 160.8 321.8 L 160.8 329.8 L 159.7 329.8 L 159.7 326.1 L 155.7 326.1 L 155.7 329.8 L 154.6 329.8 L 154.6 321.8 " fill="#000000"/>
<path class="atom-12" d="M 161.8 329.5 Q 162.0 329.0, 162.4 328.7 Q 162.9 328.4, 163.5 328.4 Q 164.3 328.4, 164.8 328.8 Q 165.2 329.3, 165.2 330.0 Q 165.2 330.8, 164.7 331.6 Q 164.1 332.3, 162.9 333.1 L 165.3 333.1 L 165.3 333.7 L 161.8 333.7 L 161.8 333.2 Q 162.8 332.5, 163.3 332.0 Q 163.9 331.5, 164.2 331.0 Q 164.5 330.6, 164.5 330.1 Q 164.5 329.6, 164.2 329.3 Q 164.0 329.0, 163.5 329.0 Q 163.1 329.0, 162.8 329.2 Q 162.6 329.4, 162.4 329.7 L 161.8 329.5 " fill="#000000"/>
<path class="atom-12" d="M 167.0 321.8 L 169.6 326.0 Q 169.9 326.4, 170.3 327.2 Q 170.7 327.9, 170.7 328.0 L 170.7 321.8 L 171.8 321.8 L 171.8 329.8 L 170.7 329.8 L 167.9 325.1 Q 167.6 324.6, 167.2 324.0 Q 166.9 323.4, 166.8 323.2 L 166.8 329.8 L 165.8 329.8 L 165.8 321.8 L 167.0 321.8 " fill="#000000"/>
<path class="atom-12" d="M 172.7 323.2 L 174.1 323.2 L 174.1 321.7 L 174.8 321.7 L 174.8 323.2 L 176.2 323.2 L 176.2 323.8 L 174.8 323.8 L 174.8 325.2 L 174.1 325.2 L 174.1 323.8 L 172.7 323.8 L 172.7 323.2 " fill="#000000"/>
<path class="atom-15" d="M 107.1 418.3 Q 107.1 416.4, 108.0 415.3 Q 109.0 414.2, 110.7 414.2 Q 112.5 414.2, 113.5 415.3 Q 114.4 416.4, 114.4 418.3 Q 114.4 420.2, 113.4 421.3 Q 112.5 422.4, 110.7 422.4 Q 109.0 422.4, 108.0 421.3 Q 107.1 420.2, 107.1 418.3 M 110.7 421.5 Q 112.0 421.5, 112.6 420.7 Q 113.3 419.9, 113.3 418.3 Q 113.3 416.7, 112.6 415.9 Q 112.0 415.1, 110.7 415.1 Q 109.5 415.1, 108.9 415.9 Q 108.2 416.7, 108.2 418.3 Q 108.2 419.9, 108.9 420.7 Q 109.5 421.5, 110.7 421.5 " fill="#000000"/>
<path class="bond-0 atom-0 atom-1" d="M 304.5,383.4 L 284.4,366.5" style="fill:none;fill-rule:evenodd;stroke:#000000;stroke-width:2.0px;stroke-linecap:butt;stroke-linejoin:miter;stroke-opacity:1"/>
<path class="bond-1 atom-0 atom-2" d="M 314.8,385.9 L 349.1,373.5" style="fill:none;fill-rule:evenodd;stroke:#000000;stroke-width:2.0px;stroke-linecap:butt;stroke-linejoin:miter;stroke-opacity:1"/>
<path class="bond-2 atom-2 atom-3" d="M 349.1,373.5 L 381.2,400.6" style="fill:none;fill-rule:evenodd;stroke:#000000;stroke-width:2.0px;stroke-linecap:butt;stroke-linejoin:miter;stroke-opacity:1"/>
<path class="bond-2 atom-2 atom-3" d="M 348.5,384.0 L 371.0,403.0" style="fill:none;fill-rule:evenodd;stroke:#000000;stroke-width:2.0px;stroke-linecap:butt;stroke-linejoin:miter;stroke-opacity:1"/>
<path class="bond-3 atom-3 atom-4" d="M 381.2,400.6 L 414.8,388.5" style="fill:none;fill-rule:evenodd;stroke:#000000;stroke-width:2.0px;stroke-linecap:butt;stroke-linejoin:miter;stroke-opacity:1"/>
<path class="bond-4 atom-4 atom-5" d="M 426.6,390.4 L 455.5,409.9" style="fill:none;fill-rule:evenodd;stroke:#000000;stroke-width:2.0px;stroke-linecap:butt;stroke-linejoin:miter;stroke-opacity:1"/>
<path class="bond-5 atom-5 atom-6" d="M 455.5,409.9 L 488.6,384.2" style="fill:none;fill-rule:evenodd;stroke:#000000;stroke-width:2.0px;stroke-linecap:butt;stroke-linejoin:miter;stroke-opacity:1"/>
<path class="bond-5 atom-5 atom-6" d="M 455.3,399.4 L 478.5,381.4" style="fill:none;fill-rule:evenodd;stroke:#000000;stroke-width:2.0px;stroke-linecap:butt;stroke-linejoin:miter;stroke-opacity:1"/>
<path class="bond-6 atom-6 atom-7" d="M 488.6,384.2 L 474.4,344.7" style="fill:none;fill-rule:evenodd;stroke:#000000;stroke-width:2.0px;stroke-linecap:butt;stroke-linejoin:miter;stroke-opacity:1"/>
<path class="bond-7 atom-7 atom-8" d="M 474.4,344.7 L 438.3,345.8" style="fill:none;fill-rule:evenodd;stroke:#000000;stroke-width:2.0px;stroke-linecap:butt;stroke-linejoin:miter;stroke-opacity:1"/>
<path class="bond-7 atom-7 atom-8" d="M 469.2,353.2 L 444.0,354.0" style="fill:none;fill-rule:evenodd;stroke:#000000;stroke-width:2.0px;stroke-linecap:butt;stroke-linejoin:miter;stroke-opacity:1"/>
<path class="bond-8 atom-8 atom-4" d="M 430.3,353.4 L 422.9,379.0" style="fill:none;fill-rule:evenodd;stroke:#000000;stroke-width:2.0px;stroke-linecap:butt;stroke-linejoin:miter;stroke-opacity:1"/>
<path class="atom-0" d="M 306.3 391.9 Q 306.4 391.9, 307.0 392.2 Q 307.5 392.4, 308.1 392.5 Q 308.8 392.7, 309.4 392.7 Q 310.5 392.7, 311.1 392.1 Q 311.8 391.6, 311.8 390.6 Q 311.8 390.0, 311.5 389.6 Q 311.1 389.2, 310.6 388.9 Q 310.1 388.7, 309.3 388.5 Q 308.2 388.2, 307.6 387.9 Q 307.0 387.6, 306.5 386.9 Q 306.1 386.3, 306.1 385.2 Q 306.1 383.7, 307.1 382.8 Q 308.1 381.9, 310.1 381.9 Q 311.5 381.9, 313.1 382.5 L 312.7 383.8 Q 311.3 383.2, 310.2 383.2 Q 309.0 383.2, 308.4 383.7 Q 307.8 384.2, 307.8 385.0 Q 307.8 385.6, 308.1 386.0 Q 308.4 386.4, 308.9 386.6 Q 309.4 386.8, 310.2 387.1 Q 311.3 387.4, 311.9 387.8 Q 312.5 388.1, 313.0 388.8 Q 313.5 389.5, 313.5 390.6 Q 313.5 392.3, 312.4 393.2 Q 311.3 394.0, 309.4 394.0 Q 308.4 394.0, 307.6 393.8 Q 306.8 393.6, 305.8 393.2 L 306.3 391.9 " fill="#000000"/>
<path class="atom-1" d="M 261.4 354.8 L 263.0 354.8 L 263.0 359.9 L 269.1 359.9 L 269.1 354.8 L 270.7 354.8 L 270.7 366.7 L 269.1 366.7 L 269.1 361.2 L 263.0 361.2 L 263.0 366.7 L 261.4 366.7 L 261.4 354.8 " fill="#000000"/>
<path class="atom-1" d="M 272.1 360.7 Q 272.1 357.9, 273.5 356.3 Q 274.9 354.7, 277.6 354.7 Q 280.2 354.7, 281.6 356.3 Q 283.0 357.9, 283.0 360.7 Q 283.0 363.6, 281.6 365.3 Q 280.2 366.9, 277.6 366.9 Q 274.9 366.9, 273.5 365.3 Q 272.1 363.7, 272.1 360.7 M 277.6 365.6 Q 279.4 365.6, 280.3 364.4 Q 281.3 363.1, 281.3 360.7 Q 281.3 358.4, 280.3 357.2 Q 279.4 356.0, 277.6 356.0 Q 275.7 356.0, 274.7 357.2 Q 273.8 358.4, 273.8 360.7 Q 273.8 363.1, 274.7 364.4 Q 275.7 365.6, 277.6 365.6 " fill="#000000"/>
<path class="atom-4" d="M 418.1 380.4 L 422.0 386.7 Q 422.4 387.3, 423.0 388.5 Q 423.6 389.6, 423.7 389.6 L 423.7 380.4 L 425.2 380.4 L 425.2 392.3 L 423.6 392.3 L 419.4 385.4 Q 418.9 384.6, 418.4 383.7 Q 417.9 382.8, 417.8 382.5 L 417.8 392.3 L 416.2 392.3 L 416.2 380.4 L 418.1 380.4 " fill="#000000"/>
<path class="atom-8" d="M 429.8 340.1 L 433.7 346.4 Q 434.1 347.0, 434.7 348.1 Q 435.3 349.2, 435.3 349.3 L 435.3 340.1 L 436.9 340.1 L 436.9 352.0 L 435.3 352.0 L 431.1 345.1 Q 430.6 344.3, 430.1 343.4 Q 429.6 342.4, 429.4 342.1 L 429.4 352.0 L 427.9 352.0 L 427.9 340.1 L 429.8 340.1 " fill="#000000"/>
<path class="bond-0 atom-0 atom-1" d="M 634.7,360.6 L 592.6,316.5 L 605.7,306.9 Z" style="fill:#000000;fill-rule:evenodd;fill-opacity:1;stroke:#000000;stroke-width:1.0px;stroke-linecap:butt;stroke-linejoin:miter;stroke-opacity:1;"/>
<path class="bond-1 atom-1 atom-2" d="M 599.1,311.7 L 521.9,336.8" style="fill:none;fill-rule:evenodd;stroke:#000000;stroke-width:2.0px;stroke-linecap:butt;stroke-linejoin:miter;stroke-opacity:1"/>
<path class="bond-2 atom-2 atom-3" d="M 521.9,336.8 L 521.9,403.7" style="fill:none;fill-rule:evenodd;stroke:#000000;stroke-width:2.0px;stroke-linecap:butt;stroke-linejoin:miter;stroke-opacity:1"/>
<path class="bond-3 atom-3 atom-4" d="M 535.2,422.3 L 599.1,443.1" style="fill:none;fill-rule:evenodd;stroke:#000000;stroke-width:2.0px;stroke-linecap:butt;stroke-linejoin:miter;stroke-opacity:1"/>
<path class="bond-4 atom-0 atom-5" d="M 656.9,369.3 L 714.8,369.3" style="fill:none;fill-rule:evenodd;stroke:#000000;stroke-width:2.0px;stroke-linecap:butt;stroke-linejoin:miter;stroke-opacity:1"/>
<path class="bond-4 atom-0 atom-5" d="M 656.9,385.5 L 714.8,385.5" style="fill:none;fill-rule:evenodd;stroke:#000000;stroke-width:2.0px;stroke-linecap:butt;stroke-linejoin:miter;stroke-opacity:1"/>
<path class="bond-5 atom-4 atom-0" d="M 599.1,443.1 L 636.8,391.2" style="fill:none;fill-rule:evenodd;stroke:#000000;stroke-width:2.0px;stroke-linecap:butt;stroke-linejoin:miter;stroke-opacity:1"/>
<path class="atom-0" d="M 640.4 385.3 Q 640.6 385.4, 641.7 385.8 Q 642.8 386.3, 644.0 386.6 Q 645.2 386.8, 646.3 386.8 Q 648.5 386.8, 649.8 385.8 Q 651.0 384.7, 651.0 382.9 Q 651.0 381.6, 650.4 380.8 Q 649.8 380.0, 648.8 379.6 Q 647.8 379.2, 646.2 378.7 Q 644.1 378.1, 642.9 377.5 Q 641.7 376.9, 640.8 375.7 Q 640.0 374.5, 640.0 372.4 Q 640.0 369.5, 641.9 367.7 Q 643.9 365.9, 647.8 365.9 Q 650.5 365.9, 653.5 367.2 L 652.8 369.7 Q 650.0 368.6, 647.9 368.6 Q 645.7 368.6, 644.4 369.5 Q 643.2 370.4, 643.2 372.0 Q 643.2 373.2, 643.9 374.0 Q 644.5 374.7, 645.4 375.1 Q 646.4 375.6, 647.9 376.1 Q 650.0 376.7, 651.2 377.4 Q 652.5 378.0, 653.3 379.3 Q 654.3 380.6, 654.3 382.9 Q 654.3 386.1, 652.1 387.8 Q 650.0 389.5, 646.5 389.5 Q 644.4 389.5, 642.8 389.0 Q 641.3 388.6, 639.5 387.8 L 640.4 385.3 " fill="#000000"/>
<path class="atom-3" d="M 511.4 418.1 Q 511.4 412.5, 514.1 409.4 Q 516.8 406.4, 521.9 406.4 Q 527.0 406.4, 529.7 409.4 Q 532.5 412.5, 532.5 418.1 Q 532.5 423.6, 529.7 426.8 Q 527.0 430.0, 521.9 430.0 Q 516.9 430.0, 514.1 426.8 Q 511.4 423.7, 511.4 418.1 M 521.9 427.4 Q 525.4 427.4, 527.3 425.0 Q 529.2 422.7, 529.2 418.1 Q 529.2 413.5, 527.3 411.3 Q 525.4 409.0, 521.9 409.0 Q 518.4 409.0, 516.5 411.2 Q 514.6 413.5, 514.6 418.1 Q 514.6 422.7, 516.5 425.0 Q 518.4 427.4, 521.9 427.4 " fill="#000000"/>
<path class="atom-5" d="M 717.5 377.5 Q 717.5 371.9, 720.3 368.8 Q 723.0 365.8, 728.1 365.8 Q 733.2 365.8, 735.9 368.8 Q 738.6 371.9, 738.6 377.5 Q 738.6 383.0, 735.9 386.2 Q 733.1 389.4, 728.1 389.4 Q 723.0 389.4, 720.3 386.2 Q 717.5 383.1, 717.5 377.5 M 728.1 386.8 Q 731.6 386.8, 733.5 384.4 Q 735.4 382.1, 735.4 377.5 Q 735.4 372.9, 733.5 370.7 Q 731.6 368.4, 728.1 368.4 Q 724.6 368.4, 722.7 370.6 Q 720.8 372.9, 720.8 377.5 Q 720.8 382.1, 722.7 384.4 Q 724.6 386.8, 728.1 386.8 " fill="#000000"/>
<path class="bond-0 atom-0 atom-1" d="M 227.9,654.6 L 238.6,625.0" style="fill:none;fill-rule:evenodd;stroke:#000000;stroke-width:2.0px;stroke-linecap:butt;stroke-linejoin:miter;stroke-opacity:1"/>
<path class="bond-1 atom-1 atom-2" d="M 238.6,625.0 L 225.4,588.7" style="fill:none;fill-rule:evenodd;stroke:#000000;stroke-width:2.0px;stroke-linecap:butt;stroke-linejoin:miter;stroke-opacity:1"/>
<path class="bond-2 atom-2 atom-3" d="M 225.4,588.7 L 198.2,573.0" style="fill:none;fill-rule:evenodd;stroke:#000000;stroke-width:2.0px;stroke-linecap:butt;stroke-linejoin:miter;stroke-opacity:1"/>
<path class="bond-3 atom-3 atom-4" d="M 185.6,570.4 L 153.8,576.1" style="fill:none;fill-rule:evenodd;stroke:#000000;stroke-width:2.0px;stroke-linecap:butt;stroke-linejoin:miter;stroke-opacity:1"/>
<path class="bond-4 atom-4 atom-5" d="M 153.8,576.1 L 128.9,605.7" style="fill:none;fill-rule:evenodd;stroke:#000000;stroke-width:2.0px;stroke-linecap:butt;stroke-linejoin:miter;stroke-opacity:1"/>
<path class="bond-4 atom-4 atom-5" d="M 156.0,585.5 L 138.6,606.2" style="fill:none;fill-rule:evenodd;stroke:#000000;stroke-width:2.0px;stroke-linecap:butt;stroke-linejoin:miter;stroke-opacity:1"/>
<path class="bond-5 atom-5 atom-6" d="M 128.9,605.7 L 92.1,593.7" style="fill:none;fill-rule:evenodd;stroke:#000000;stroke-width:2.0px;stroke-linecap:butt;stroke-linejoin:miter;stroke-opacity:1"/>
<path class="bond-6 atom-6 atom-7" d="M 92.1,593.7 L 69.4,625.0" style="fill:none;fill-rule:evenodd;stroke:#000000;stroke-width:2.0px;stroke-linecap:butt;stroke-linejoin:miter;stroke-opacity:1"/>
<path class="bond-6 atom-6 atom-7" d="M 95.0,603.0 L 79.1,624.9" style="fill:none;fill-rule:evenodd;stroke:#000000;stroke-width:2.0px;stroke-linecap:butt;stroke-linejoin:miter;stroke-opacity:1"/>
<path class="bond-7 atom-7 atom-8" d="M 69.4,625.0 L 30.7,625.0" style="fill:none;fill-rule:evenodd;stroke:#000000;stroke-width:2.0px;stroke-linecap:butt;stroke-linejoin:miter;stroke-opacity:1"/>
<path class="bond-8 atom-8 atom-9" d="M 30.7,625.0 L 11.4,591.5" style="fill:none;fill-rule:evenodd;stroke:#000000;stroke-width:2.0px;stroke-linecap:butt;stroke-linejoin:miter;stroke-opacity:1"/>
<path class="bond-9 atom-8 atom-10" d="M 30.7,625.0 L 11.4,658.5" style="fill:none;fill-rule:evenodd;stroke:#000000;stroke-width:2.0px;stroke-linecap:butt;stroke-linejoin:miter;stroke-opacity:1"/>
<path class="bond-10 atom-7 atom-11" d="M 69.4,625.0 L 92.1,656.3" style="fill:none;fill-rule:evenodd;stroke:#000000;stroke-width:2.0px;stroke-linecap:butt;stroke-linejoin:miter;stroke-opacity:1"/>
<path class="bond-11 atom-11 atom-12" d="M 92.1,656.3 L 128.9,644.4" style="fill:none;fill-rule:evenodd;stroke:#000000;stroke-width:2.0px;stroke-linecap:butt;stroke-linejoin:miter;stroke-opacity:1"/>
<path class="bond-11 atom-11 atom-12" d="M 95.3,647.2 L 121.0,638.8" style="fill:none;fill-rule:evenodd;stroke:#000000;stroke-width:2.0px;stroke-linecap:butt;stroke-linejoin:miter;stroke-opacity:1"/>
<path class="bond-12 atom-12 atom-13" d="M 128.9,644.4 L 153.8,674.0" style="fill:none;fill-rule:evenodd;stroke:#000000;stroke-width:2.0px;stroke-linecap:butt;stroke-linejoin:miter;stroke-opacity:1"/>
<path class="bond-13 atom-13 atom-14" d="M 153.8,674.0 L 186.5,679.8" style="fill:none;fill-rule:evenodd;stroke:#000000;stroke-width:2.0px;stroke-linecap:butt;stroke-linejoin:miter;stroke-opacity:1"/>
<path class="bond-13 atom-13 atom-14" d="M 160.0,667.3 L 182.9,671.3" style="fill:none;fill-rule:evenodd;stroke:#000000;stroke-width:2.0px;stroke-linecap:butt;stroke-linejoin:miter;stroke-opacity:1"/>
<path class="bond-14 atom-14 atom-0" d="M 197.3,677.6 L 220.0,664.5" style="fill:none;fill-rule:evenodd;stroke:#000000;stroke-width:2.0px;stroke-linecap:butt;stroke-linejoin:miter;stroke-opacity:1"/>
<path class="bond-15 atom-12 atom-5" d="M 128.9,644.4 L 128.9,605.7" style="fill:none;fill-rule:evenodd;stroke:#000000;stroke-width:2.0px;stroke-linecap:butt;stroke-linejoin:miter;stroke-opacity:1"/>
<path class="atom-0" d="M 223.0 655.9 L 226.6 661.7 Q 226.9 662.3, 227.5 663.3 Q 228.1 664.4, 228.1 664.4 L 228.1 655.9 L 229.6 655.9 L 229.6 666.9 L 228.1 666.9 L 224.2 660.5 Q 223.8 659.8, 223.3 658.9 Q 222.8 658.1, 222.7 657.8 L 222.7 666.9 L 221.2 666.9 L 221.2 655.9 L 223.0 655.9 " fill="#000000"/>
<path class="atom-0" d="M 230.8 657.7 L 234.6 657.7 L 234.6 658.5 L 230.8 658.5 L 230.8 657.7 " fill="#000000"/>
<path class="atom-3" d="M 186.9 569.4 Q 186.9 566.7, 188.2 565.3 Q 189.5 563.8, 191.9 563.8 Q 194.3 563.8, 195.6 565.3 Q 196.9 566.7, 196.9 569.4 Q 196.9 572.0, 195.6 573.5 Q 194.3 575.0, 191.9 575.0 Q 189.5 575.0, 188.2 573.5 Q 186.9 572.0, 186.9 569.4 M 191.9 573.8 Q 193.6 573.8, 194.5 572.7 Q 195.4 571.6, 195.4 569.4 Q 195.4 567.2, 194.5 566.1 Q 193.6 565.0, 191.9 565.0 Q 190.2 565.0, 189.3 566.1 Q 188.4 567.2, 188.4 569.4 Q 188.4 571.6, 189.3 572.7 Q 190.2 573.8, 191.9 573.8 " fill="#000000"/>
<path class="atom-14" d="M 189.5 675.3 L 193.1 681.1 Q 193.4 681.6, 194.0 682.7 Q 194.6 683.7, 194.6 683.8 L 194.6 675.3 L 196.1 675.3 L 196.1 686.2 L 194.6 686.2 L 190.7 679.9 Q 190.3 679.1, 189.8 678.3 Q 189.3 677.4, 189.2 677.2 L 189.2 686.2 L 187.7 686.2 L 187.7 675.3 L 189.5 675.3 " fill="#000000"/>
<path class="bond-0 atom-0 atom-1" d="M 434.7,611.8 L 362.9,653.2" style="fill:none;fill-rule:evenodd;stroke:#000000;stroke-width:2.0px;stroke-linecap:butt;stroke-linejoin:miter;stroke-opacity:1"/>
<path class="bond-1 atom-1 atom-2" d="M 357.8,662.0 L 286.1,620.6" style="fill:none;fill-rule:evenodd;stroke:#000000;stroke-width:2.0px;stroke-linecap:butt;stroke-linejoin:miter;stroke-opacity:1"/>
<path class="bond-1 atom-1 atom-2" d="M 368.0,644.4 L 296.2,602.9" style="fill:none;fill-rule:evenodd;stroke:#000000;stroke-width:2.0px;stroke-linecap:butt;stroke-linejoin:miter;stroke-opacity:1"/>
<path class="atom-0" d="M 438.0 602.4 Q 438.0 595.6, 441.4 591.8 Q 444.8 588.0, 451.0 588.0 Q 457.3 588.0, 460.7 591.8 Q 464.0 595.6, 464.0 602.4 Q 464.0 609.3, 460.6 613.2 Q 457.2 617.1, 451.0 617.1 Q 444.8 617.1, 441.4 613.2 Q 438.0 609.3, 438.0 602.4 M 451.0 613.9 Q 455.4 613.9, 457.7 611.0 Q 460.0 608.1, 460.0 602.4 Q 460.0 596.8, 457.7 594.0 Q 455.4 591.2, 451.0 591.2 Q 446.7 591.2, 444.4 594.0 Q 442.0 596.8, 442.0 602.4 Q 442.0 608.1, 444.4 611.0 Q 446.7 613.9, 451.0 613.9 " fill="#000000"/>
<path class="atom-0" d="M 466.0 588.3 L 469.9 588.3 L 469.9 600.4 L 484.4 600.4 L 484.4 588.3 L 488.2 588.3 L 488.2 616.6 L 484.4 616.6 L 484.4 603.6 L 469.9 603.6 L 469.9 616.6 L 466.0 616.6 L 466.0 588.3 " fill="#000000"/>
<path class="atom-2" d="M 261.8 602.4 Q 261.8 595.6, 265.2 591.8 Q 268.5 588.0, 274.8 588.0 Q 281.1 588.0, 284.4 591.8 Q 287.8 595.6, 287.8 602.4 Q 287.8 609.3, 284.4 613.2 Q 281.0 617.1, 274.8 617.1 Q 268.6 617.1, 265.2 613.2 Q 261.8 609.3, 261.8 602.4 M 274.8 613.9 Q 279.1 613.9, 281.4 611.0 Q 283.8 608.1, 283.8 602.4 Q 283.8 596.8, 281.4 594.0 Q 279.1 591.2, 274.8 591.2 Q 270.5 591.2, 268.1 594.0 Q 265.8 596.8, 265.8 602.4 Q 265.8 608.1, 268.1 611.0 Q 270.5 613.9, 274.8 613.9 " fill="#000000"/>
<path class="bond-0 atom-0 atom-1" d="M 712.0,639.4 L 721.2,640.1" style="fill:none;fill-rule:evenodd;stroke:#000000;stroke-width:2.0px;stroke-linecap:butt;stroke-linejoin:miter;stroke-opacity:1"/>
<path class="bond-1 atom-1 atom-2" d="M 726.0,638.2 L 734.1,631.2" style="fill:none;fill-rule:evenodd;stroke:#000000;stroke-width:2.0px;stroke-linecap:butt;stroke-linejoin:miter;stroke-opacity:1"/>
<path class="bond-2 atom-2 atom-3" d="M 734.1,631.2 L 735.2,617.4" style="fill:none;fill-rule:evenodd;stroke:#000000;stroke-width:2.0px;stroke-linecap:butt;stroke-linejoin:miter;stroke-opacity:1"/>
<path class="bond-3 atom-3 atom-4" d="M 735.2,617.4 L 726.1,606.8" style="fill:none;fill-rule:evenodd;stroke:#000000;stroke-width:2.0px;stroke-linecap:butt;stroke-linejoin:miter;stroke-opacity:1"/>
<path class="bond-4 atom-4 atom-5" d="M 726.1,606.8 L 723.6,593.2" style="fill:none;fill-rule:evenodd;stroke:#000000;stroke-width:2.0px;stroke-linecap:butt;stroke-linejoin:miter;stroke-opacity:1"/>
<path class="bond-5 atom-4 atom-6" d="M 726.1,606.8 L 738.6,600.8" style="fill:none;fill-rule:evenodd;stroke:#000000;stroke-width:2.0px;stroke-linecap:butt;stroke-linejoin:miter;stroke-opacity:1"/>
<path class="bond-6 atom-4 atom-7" d="M 726.1,606.8 L 714.7,606.0" style="fill:none;fill-rule:evenodd;stroke:#000000;stroke-width:2.0px;stroke-linecap:butt;stroke-linejoin:miter;stroke-opacity:1"/>
<path class="bond-7 atom-7 atom-8" d="M 709.9,607.8 L 701.7,614.8" style="fill:none;fill-rule:evenodd;stroke:#000000;stroke-width:2.0px;stroke-linecap:butt;stroke-linejoin:miter;stroke-opacity:1"/>
<path class="bond-8 atom-8 atom-9" d="M 701.7,614.8 L 700.9,626.1" style="fill:none;fill-rule:evenodd;stroke:#000000;stroke-width:2.0px;stroke-linecap:butt;stroke-linejoin:miter;stroke-opacity:1"/>
<path class="bond-9 atom-9 atom-10" d="M 699.7,631.3 L 697.0,639.2" style="fill:none;fill-rule:evenodd;stroke:#000000;stroke-width:2.0px;stroke-linecap:butt;stroke-linejoin:miter;stroke-opacity:1"/>
<path class="bond-9 atom-9 atom-10" d="M 701.9,633.4 L 700.0,638.9" style="fill:none;fill-rule:evenodd;stroke:#000000;stroke-width:2.0px;stroke-linecap:butt;stroke-linejoin:miter;stroke-opacity:1"/>
<path class="bond-10 atom-10 atom-11" d="M 692.5,644.8 L 686.4,651.8 L 684.6,649.7 Z" style="fill:#000000;fill-rule:evenodd;fill-opacity:1;stroke:#000000;stroke-width:1.0px;stroke-linecap:butt;stroke-linejoin:miter;stroke-opacity:1;"/>
<path class="bond-11 atom-11 atom-12" d="M 685.5,650.8 L 672.4,646.2" style="fill:none;fill-rule:evenodd;stroke:#000000;stroke-width:2.0px;stroke-linecap:butt;stroke-linejoin:miter;stroke-opacity:1"/>
<path class="bond-12 atom-12 atom-13" d="M 672.4,646.2 L 664.0,653.5" style="fill:none;fill-rule:evenodd;stroke:#000000;stroke-width:2.0px;stroke-linecap:butt;stroke-linejoin:miter;stroke-opacity:1"/>
<path class="bond-13 atom-13 atom-14" d="M 659.8,654.5 L 648.8,650.6" style="fill:none;fill-rule:evenodd;stroke:#000000;stroke-width:2.0px;stroke-linecap:butt;stroke-linejoin:miter;stroke-opacity:1"/>
<path class="bond-14 atom-14 atom-15" d="M 647.4,650.9 L 645.4,639.9" style="fill:none;fill-rule:evenodd;stroke:#000000;stroke-width:2.0px;stroke-linecap:butt;stroke-linejoin:miter;stroke-opacity:1"/>
<path class="bond-14 atom-14 atom-15" d="M 650.2,650.4 L 648.1,639.4" style="fill:none;fill-rule:evenodd;stroke:#000000;stroke-width:2.0px;stroke-linecap:butt;stroke-linejoin:miter;stroke-opacity:1"/>
<path class="bond-15 atom-14 atom-16" d="M 648.8,650.6 L 638.3,659.7" style="fill:none;fill-rule:evenodd;stroke:#000000;stroke-width:2.0px;stroke-linecap:butt;stroke-linejoin:miter;stroke-opacity:1"/>
<path class="bond-16 atom-16 atom-17" d="M 638.3,659.7 L 627.3,655.8" style="fill:none;fill-rule:evenodd;stroke:#000000;stroke-width:2.0px;stroke-linecap:butt;stroke-linejoin:miter;stroke-opacity:1"/>
<path class="bond-17 atom-17 atom-18" d="M 623.1,656.8 L 614.6,664.1" style="fill:none;fill-rule:evenodd;stroke:#000000;stroke-width:2.0px;stroke-linecap:butt;stroke-linejoin:miter;stroke-opacity:1"/>
<path class="bond-18 atom-18 atom-19" d="M 614.6,664.1 L 601.5,659.5" style="fill:none;fill-rule:evenodd;stroke:#000000;stroke-width:2.0px;stroke-linecap:butt;stroke-linejoin:miter;stroke-opacity:1"/>
<path class="bond-19 atom-19 atom-20" d="M 601.5,659.5 L 591.0,668.5" style="fill:none;fill-rule:evenodd;stroke:#000000;stroke-width:2.0px;stroke-linecap:butt;stroke-linejoin:miter;stroke-opacity:1"/>
<path class="bond-20 atom-20 atom-21" d="M 591.0,668.5 L 580.0,664.7" style="fill:none;fill-rule:evenodd;stroke:#000000;stroke-width:2.0px;stroke-linecap:butt;stroke-linejoin:miter;stroke-opacity:1"/>
<path class="bond-21 atom-21 atom-22" d="M 577.4,661.3 L 575.4,650.3" style="fill:none;fill-rule:evenodd;stroke:#000000;stroke-width:2.0px;stroke-linecap:butt;stroke-linejoin:miter;stroke-opacity:1"/>
<path class="bond-22 atom-22 atom-23" d="M 574.5,649.2 L 582.6,642.3" style="fill:none;fill-rule:evenodd;stroke:#000000;stroke-width:2.0px;stroke-linecap:butt;stroke-linejoin:miter;stroke-opacity:1"/>
<path class="bond-22 atom-22 atom-23" d="M 576.3,651.3 L 584.4,644.4" style="fill:none;fill-rule:evenodd;stroke:#000000;stroke-width:2.0px;stroke-linecap:butt;stroke-linejoin:miter;stroke-opacity:1"/>
<path class="bond-23 atom-22 atom-24" d="M 575.4,650.3 L 564.7,646.5" style="fill:none;fill-rule:evenodd;stroke:#000000;stroke-width:2.0px;stroke-linecap:butt;stroke-linejoin:miter;stroke-opacity:1"/>
<path class="bond-24 atom-24 atom-25" d="M 561.8,643.1 L 559.7,632.0" style="fill:none;fill-rule:evenodd;stroke:#000000;stroke-width:2.0px;stroke-linecap:butt;stroke-linejoin:miter;stroke-opacity:1"/>
<path class="bond-25 atom-25 atom-26" d="M 559.7,632.0 L 546.6,627.4" style="fill:none;fill-rule:evenodd;stroke:#000000;stroke-width:2.0px;stroke-linecap:butt;stroke-linejoin:miter;stroke-opacity:1"/>
<path class="bond-26 atom-26 atom-27" d="M 546.6,627.4 L 544.0,613.8" style="fill:none;fill-rule:evenodd;stroke:#000000;stroke-width:2.0px;stroke-linecap:butt;stroke-linejoin:miter;stroke-opacity:1"/>
<path class="bond-27 atom-27 atom-28" d="M 544.0,613.8 L 530.9,609.2" style="fill:none;fill-rule:evenodd;stroke:#000000;stroke-width:2.0px;stroke-linecap:butt;stroke-linejoin:miter;stroke-opacity:1"/>
<path class="bond-28 atom-28 atom-29" d="M 530.9,609.2 L 528.9,598.2" style="fill:none;fill-rule:evenodd;stroke:#000000;stroke-width:2.0px;stroke-linecap:butt;stroke-linejoin:miter;stroke-opacity:1"/>
<path class="bond-29 atom-29 atom-30" d="M 526.6,594.9 L 515.3,590.9" style="fill:none;fill-rule:evenodd;stroke:#000000;stroke-width:2.0px;stroke-linecap:butt;stroke-linejoin:miter;stroke-opacity:1"/>
<path class="bond-30 atom-30 atom-31" d="M 513.9,591.2 L 511.4,577.5" style="fill:none;fill-rule:evenodd;stroke:#000000;stroke-width:2.0px;stroke-linecap:butt;stroke-linejoin:miter;stroke-opacity:1"/>
<path class="bond-30 atom-30 atom-31" d="M 516.7,590.7 L 514.1,577.0" style="fill:none;fill-rule:evenodd;stroke:#000000;stroke-width:2.0px;stroke-linecap:butt;stroke-linejoin:miter;stroke-opacity:1"/>
<path class="bond-31 atom-21 atom-32" d="M 575.8,665.7 L 567.4,673.0" style="fill:none;fill-rule:evenodd;stroke:#000000;stroke-width:2.0px;stroke-linecap:butt;stroke-linejoin:miter;stroke-opacity:1"/>
<path class="bond-32 atom-17 atom-33" d="M 624.7,652.5 L 622.6,641.4" style="fill:none;fill-rule:evenodd;stroke:#000000;stroke-width:2.0px;stroke-linecap:butt;stroke-linejoin:miter;stroke-opacity:1"/>
<path class="bond-33 atom-33 atom-34" d="M 622.6,641.4 L 609.5,636.8" style="fill:none;fill-rule:evenodd;stroke:#000000;stroke-width:2.0px;stroke-linecap:butt;stroke-linejoin:miter;stroke-opacity:1"/>
<path class="bond-34 atom-34 atom-35" d="M 609.5,636.8 L 607.5,626.0" style="fill:none;fill-rule:evenodd;stroke:#000000;stroke-width:2.0px;stroke-linecap:butt;stroke-linejoin:miter;stroke-opacity:1"/>
<path class="bond-35 atom-9 atom-0" d="M 702.5,630.8 L 707.7,636.8" style="fill:none;fill-rule:evenodd;stroke:#000000;stroke-width:2.0px;stroke-linecap:butt;stroke-linejoin:miter;stroke-opacity:1"/>
<path class="bond-36 atom-10 atom-0" d="M 697.9,641.4 L 707.7,639.6" style="fill:none;fill-rule:evenodd;stroke:#000000;stroke-width:2.0px;stroke-linecap:butt;stroke-linejoin:miter;stroke-opacity:1"/>
<path class="atom-0" d="M 708.8 637.1 L 710.2 639.3 Q 710.3 639.5, 710.5 639.9 Q 710.8 640.3, 710.8 640.4 L 710.8 637.1 L 711.3 637.1 L 711.3 641.3 L 710.8 641.3 L 709.3 638.9 Q 709.1 638.6, 708.9 638.2 Q 708.7 637.9, 708.7 637.8 L 708.7 641.3 L 708.1 641.3 L 708.1 637.1 L 708.8 637.1 " fill="#000000"/>
<path class="atom-0" d="M 711.8 637.8 L 712.6 637.8 L 712.6 637.0 L 712.9 637.0 L 712.9 637.8 L 713.7 637.8 L 713.7 638.1 L 712.9 638.1 L 712.9 638.9 L 712.6 638.9 L 712.6 638.1 L 711.8 638.1 L 711.8 637.8 " fill="#000000"/>
<path class="atom-1" d="M 721.6 640.3 Q 721.6 639.2, 722.1 638.7 Q 722.6 638.1, 723.6 638.1 Q 724.5 638.1, 725.0 638.7 Q 725.5 639.2, 725.5 640.3 Q 725.5 641.3, 725.0 641.9 Q 724.5 642.5, 723.6 642.5 Q 722.6 642.5, 722.1 641.9 Q 721.6 641.3, 721.6 640.3 M 723.6 642.0 Q 724.2 642.0, 724.6 641.6 Q 724.9 641.1, 724.9 640.3 Q 724.9 639.4, 724.6 639.0 Q 724.2 638.6, 723.6 638.6 Q 722.9 638.6, 722.6 639.0 Q 722.2 639.4, 722.2 640.3 Q 722.2 641.1, 722.6 641.6 Q 722.9 642.0, 723.6 642.0 " fill="#000000"/>
<path class="atom-7" d="M 710.3 605.8 Q 710.3 604.8, 710.8 604.2 Q 711.3 603.6, 712.3 603.6 Q 713.2 603.6, 713.7 604.2 Q 714.2 604.8, 714.2 605.8 Q 714.2 606.8, 713.7 607.4 Q 713.2 608.0, 712.3 608.0 Q 711.3 608.0, 710.8 607.4 Q 710.3 606.8, 710.3 605.8 M 712.3 607.5 Q 712.9 607.5, 713.3 607.1 Q 713.6 606.6, 713.6 605.8 Q 713.6 605.0, 713.3 604.5 Q 712.9 604.1, 712.3 604.1 Q 711.6 604.1, 711.3 604.5 Q 710.9 604.9, 710.9 605.8 Q 710.9 606.6, 711.3 607.1 Q 711.6 607.5, 712.3 607.5 " fill="#000000"/>
<path class="atom-9" d="M 699.5 630.1 Q 699.5 630.1, 699.7 630.2 Q 699.9 630.3, 700.1 630.4 Q 700.4 630.4, 700.6 630.4 Q 701.0 630.4, 701.2 630.2 Q 701.5 630.0, 701.5 629.7 Q 701.5 629.4, 701.3 629.3 Q 701.2 629.1, 701.0 629.1 Q 700.9 629.0, 700.6 628.9 Q 700.2 628.8, 700.0 628.7 Q 699.7 628.6, 699.6 628.3 Q 699.4 628.1, 699.4 627.7 Q 699.4 627.2, 699.8 626.9 Q 700.1 626.5, 700.9 626.5 Q 701.3 626.5, 701.9 626.8 L 701.8 627.2 Q 701.3 627.0, 700.9 627.0 Q 700.5 627.0, 700.2 627.2 Q 700.0 627.4, 700.0 627.7 Q 700.0 627.9, 700.1 628.0 Q 700.2 628.2, 700.4 628.2 Q 700.6 628.3, 700.9 628.4 Q 701.3 628.5, 701.5 628.7 Q 701.7 628.8, 701.9 629.0 Q 702.0 629.3, 702.0 629.7 Q 702.0 630.3, 701.6 630.6 Q 701.3 630.9, 700.6 630.9 Q 700.2 630.9, 699.9 630.8 Q 699.7 630.7, 699.3 630.6 L 699.5 630.1 " fill="#000000"/>
<path class="atom-10" d="M 690.9 639.6 L 691.5 639.6 L 691.5 641.4 L 693.6 641.4 L 693.6 639.6 L 694.2 639.6 L 694.2 643.9 L 693.6 643.9 L 693.6 641.9 L 691.5 641.9 L 691.5 643.9 L 690.9 643.9 L 690.9 639.6 " fill="#000000"/>
<path class="atom-10" d="M 696.0 639.6 Q 696.7 639.6, 697.1 640.0 Q 697.4 640.3, 697.4 640.9 Q 697.4 641.5, 697.1 641.8 Q 696.7 642.1, 696.0 642.1 L 695.3 642.1 L 695.3 643.9 L 694.7 643.9 L 694.7 639.6 L 696.0 639.6 M 696.0 641.7 Q 696.4 641.7, 696.6 641.5 Q 696.8 641.3, 696.8 640.9 Q 696.8 640.5, 696.6 640.3 Q 696.4 640.1, 696.0 640.1 L 695.3 640.1 L 695.3 641.7 L 696.0 641.7 " fill="#000000"/>
<path class="atom-13" d="M 661.0 653.1 L 662.4 655.4 Q 662.5 655.6, 662.7 656.0 Q 662.9 656.4, 663.0 656.4 L 663.0 653.1 L 663.5 653.1 L 663.5 657.4 L 662.9 657.4 L 661.4 654.9 Q 661.3 654.6, 661.1 654.3 Q 660.9 653.9, 660.9 653.8 L 660.9 657.4 L 660.3 657.4 L 660.3 653.1 L 661.0 653.1 " fill="#000000"/>
<path class="atom-13" d="M 660.2 657.8 L 660.8 657.8 L 660.8 659.6 L 663.0 659.6 L 663.0 657.8 L 663.6 657.8 L 663.6 662.0 L 663.0 662.0 L 663.0 660.1 L 660.8 660.1 L 660.8 662.0 L 660.2 662.0 L 660.2 657.8 " fill="#000000"/>
<path class="atom-15" d="M 644.3 637.0 Q 644.3 636.0, 644.8 635.4 Q 645.3 634.8, 646.3 634.8 Q 647.2 634.8, 647.7 635.4 Q 648.2 636.0, 648.2 637.0 Q 648.2 638.0, 647.7 638.6 Q 647.2 639.2, 646.3 639.2 Q 645.3 639.2, 644.8 638.6 Q 644.3 638.0, 644.3 637.0 M 646.3 638.7 Q 646.9 638.7, 647.2 638.3 Q 647.6 637.8, 647.6 637.0 Q 647.6 636.2, 647.2 635.7 Q 646.9 635.3, 646.3 635.3 Q 645.6 635.3, 645.3 635.7 Q 644.9 636.2, 644.9 637.0 Q 644.9 637.8, 645.3 638.3 Q 645.6 638.7, 646.3 638.7 " fill="#000000"/>
<path class="atom-17" d="M 624.2 652.9 L 625.6 655.2 Q 625.8 655.4, 626.0 655.8 Q 626.2 656.2, 626.2 656.2 L 626.2 652.9 L 626.8 652.9 L 626.8 657.2 L 626.2 657.2 L 624.7 654.7 Q 624.5 654.4, 624.4 654.1 Q 624.2 653.8, 624.1 653.7 L 624.1 657.2 L 623.6 657.2 L 623.6 652.9 L 624.2 652.9 " fill="#000000"/>
<path class="atom-21" d="M 577.0 661.8 L 578.4 664.1 Q 578.5 664.3, 578.7 664.7 Q 579.0 665.1, 579.0 665.1 L 579.0 661.8 L 579.5 661.8 L 579.5 666.1 L 578.9 666.1 L 577.5 663.6 Q 577.3 663.3, 577.1 663.0 Q 576.9 662.6, 576.9 662.5 L 576.9 666.1 L 576.3 666.1 L 576.3 661.8 L 577.0 661.8 " fill="#000000"/>
<path class="atom-23" d="M 583.9 641.3 Q 583.9 640.2, 584.4 639.7 Q 585.0 639.1, 585.9 639.1 Q 586.8 639.1, 587.3 639.7 Q 587.8 640.2, 587.8 641.3 Q 587.8 642.3, 587.3 642.9 Q 586.8 643.5, 585.9 643.5 Q 585.0 643.5, 584.4 642.9 Q 583.9 642.3, 583.9 641.3 M 585.9 643.0 Q 586.5 643.0, 586.9 642.5 Q 587.2 642.1, 587.2 641.3 Q 587.2 640.4, 586.9 640.0 Q 586.5 639.6, 585.9 639.6 Q 585.2 639.6, 584.9 640.0 Q 584.5 640.4, 584.5 641.3 Q 584.5 642.1, 584.9 642.5 Q 585.2 643.0, 585.9 643.0 " fill="#000000"/>
<path class="atom-24" d="M 560.3 645.7 Q 560.3 644.7, 560.8 644.1 Q 561.3 643.5, 562.3 643.5 Q 563.2 643.5, 563.7 644.1 Q 564.2 644.7, 564.2 645.7 Q 564.2 646.7, 563.7 647.3 Q 563.2 647.9, 562.3 647.9 Q 561.3 647.9, 560.8 647.3 Q 560.3 646.7, 560.3 645.7 M 562.3 647.4 Q 562.9 647.4, 563.3 647.0 Q 563.6 646.5, 563.6 645.7 Q 563.6 644.9, 563.3 644.4 Q 562.9 644.0, 562.3 644.0 Q 561.6 644.0, 561.3 644.4 Q 560.9 644.9, 560.9 645.7 Q 560.9 646.5, 561.3 647.0 Q 561.6 647.4, 562.3 647.4 " fill="#000000"/>
<path class="atom-29" d="M 527.2 597.0 Q 527.2 597.0, 527.4 597.1 Q 527.6 597.2, 527.8 597.2 Q 528.1 597.3, 528.3 597.3 Q 528.7 597.3, 528.9 597.1 Q 529.2 596.9, 529.2 596.6 Q 529.2 596.3, 529.0 596.2 Q 528.9 596.0, 528.7 596.0 Q 528.6 595.9, 528.3 595.8 Q 527.9 595.7, 527.7 595.6 Q 527.4 595.5, 527.3 595.2 Q 527.1 595.0, 527.1 594.6 Q 527.1 594.1, 527.5 593.7 Q 527.8 593.4, 528.6 593.4 Q 529.1 593.4, 529.6 593.7 L 529.5 594.1 Q 529.0 593.9, 528.6 593.9 Q 528.2 593.9, 527.9 594.1 Q 527.7 594.2, 527.7 594.5 Q 527.7 594.8, 527.8 594.9 Q 527.9 595.0, 528.1 595.1 Q 528.3 595.2, 528.6 595.3 Q 529.0 595.4, 529.2 595.5 Q 529.4 595.7, 529.6 595.9 Q 529.7 596.1, 529.7 596.6 Q 529.7 597.1, 529.4 597.5 Q 529.0 597.8, 528.3 597.8 Q 527.9 597.8, 527.6 597.7 Q 527.4 597.6, 527.0 597.5 L 527.2 597.0 " fill="#000000"/>
<path class="atom-35" d="M 605.3 623.3 Q 605.3 622.3, 605.8 621.7 Q 606.3 621.1, 607.3 621.1 Q 608.1 621.1, 608.6 621.8 L 608.2 622.1 Q 607.9 621.6, 607.3 621.6 Q 606.6 621.6, 606.3 622.1 Q 605.9 622.5, 605.9 623.3 Q 605.9 624.2, 606.3 624.6 Q 606.6 625.0, 607.3 625.0 Q 607.8 625.0, 608.3 624.7 L 608.5 625.2 Q 608.3 625.3, 607.9 625.4 Q 607.6 625.5, 607.2 625.5 Q 606.3 625.5, 605.8 624.9 Q 605.3 624.4, 605.3 623.3 " fill="#000000"/>
<path class="atom-35" d="M 608.8 620.9 L 609.4 620.9 L 609.4 625.4 L 608.8 625.4 L 608.8 620.9 " fill="#000000"/>
<path class="atom-0" d="M 714.9,639.2 L 714.9,639.2 L 714.9,639.2 L 714.9,639.3 L 714.9,639.3 L 714.9,639.3 L 714.8,639.3 L 714.8,639.4 L 714.8,639.4 L 714.8,639.4 L 714.8,639.4 L 714.8,639.4 L 714.7,639.5 L 714.7,639.5 L 714.7,639.5 L 714.7,639.5 L 714.6,639.5 L 714.6,639.5 L 714.6,639.5 L 714.6,639.5 L 714.5,639.5 L 714.5,639.5 L 714.5,639.5 L 714.5,639.5 L 714.4,639.5 L 714.4,639.4 L 714.4,639.4 L 714.4,639.4 L 714.4,639.4 L 714.3,639.4 L 714.3,639.4 L 714.3,639.3 L 714.3,639.3 L 714.3,639.3 L 714.3,639.3 L 714.3,639.2 L 714.3,639.2 L 714.3,639.2 L 714.3,639.2 L 714.3,639.1 L 714.3,639.1 L 714.3,639.1 L 714.3,639.1 L 714.3,639.0 L 714.3,639.0 L 714.4,639.0 L 714.4,639.0 L 714.4,639.0 L 714.4,638.9 L 714.4,638.9 L 714.5,638.9 L 714.5,638.9 L 714.5,638.9 L 714.5,638.9 L 714.6,638.9 L 714.6,638.9 L 714.6,638.9 L 714.6,638.9 L 714.7,638.9 L 714.7,638.9 L 714.7,638.9 L 714.7,638.9 L 714.8,638.9 L 714.8,639.0 L 714.8,639.0 L 714.8,639.0 L 714.8,639.0 L 714.8,639.0 L 714.9,639.1 L 714.9,639.1 L 714.9,639.1 L 714.9,639.1 L 714.9,639.2 L 714.9,639.2 L 714.6,639.2 Z" style="fill:#000000;fill-rule:evenodd;fill-opacity:1;stroke:#000000;stroke-width:0.0px;stroke-linecap:butt;stroke-linejoin:miter;stroke-opacity:1;"/>
</svg>