<svg xmlns="http://www.w3.org/2000/svg" xmlns:rdkit="http://www.rdkit.org/xml" xmlns:xlink="http://www.w3.org/1999/xlink" version="1.1" baseProfile="full" xml:space="preserve" width="750px" height="750px" viewBox="0 0 750 750">
<!-- END OF HEADER -->
<rect style="opacity:1.0;fill:#FFFFFF;stroke:none" width="750.0" height="750.0" x="0.0" y="0.0"> </rect>
<path class="bond-0 atom-0 atom-1" d="M 67.1,95.0 L 62.6,47.5" style="fill:none;fill-rule:evenodd;stroke:#000000;stroke-width:2.0px;stroke-linecap:butt;stroke-linejoin:miter;stroke-opacity:1"/>
<path class="bond-1 atom-0 atom-2" d="M 59.9,106.7 L 11.4,116.5" style="fill:none;fill-rule:evenodd;stroke:#000000;stroke-width:2.0px;stroke-linecap:butt;stroke-linejoin:miter;stroke-opacity:1"/>
<path class="bond-2 atom-2 atom-3" d="M 11.4,116.5 L 49.6,159.9" style="fill:none;fill-rule:evenodd;stroke:#000000;stroke-width:2.0px;stroke-linecap:butt;stroke-linejoin:miter;stroke-opacity:1"/>
<path class="bond-3 atom-3 atom-4" d="M 49.6,159.9 L 87.9,188.3" style="fill:none;fill-rule:evenodd;stroke:#000000;stroke-width:2.0px;stroke-linecap:butt;stroke-linejoin:miter;stroke-opacity:1"/>
<path class="bond-3 atom-3 atom-4" d="M 62.2,154.8 L 89.1,174.7" style="fill:none;fill-rule:evenodd;stroke:#000000;stroke-width:2.0px;stroke-linecap:butt;stroke-linejoin:miter;stroke-opacity:1"/>
<path class="bond-4 atom-4 atom-5" d="M 104.1,188.5 L 143.1,160.8" style="fill:none;fill-rule:evenodd;stroke:#000000;stroke-width:2.0px;stroke-linecap:butt;stroke-linejoin:miter;stroke-opacity:1"/>
<path class="bond-5 atom-5 atom-6" d="M 143.1,160.8 L 199.5,173.4" style="fill:none;fill-rule:evenodd;stroke:#000000;stroke-width:2.0px;stroke-linecap:butt;stroke-linejoin:miter;stroke-opacity:1"/>
<path class="bond-5 atom-5 atom-6" d="M 154.1,151.4 L 193.6,160.2" style="fill:none;fill-rule:evenodd;stroke:#000000;stroke-width:2.0px;stroke-linecap:butt;stroke-linejoin:miter;stroke-opacity:1"/>
<path class="bond-6 atom-6 atom-7" d="M 199.5,173.4 L 238.6,130.8" style="fill:none;fill-rule:evenodd;stroke:#000000;stroke-width:2.0px;stroke-linecap:butt;stroke-linejoin:miter;stroke-opacity:1"/>
<path class="bond-7 atom-7 atom-8" d="M 238.6,130.8 L 221.3,75.7" style="fill:none;fill-rule:evenodd;stroke:#000000;stroke-width:2.0px;stroke-linecap:butt;stroke-linejoin:miter;stroke-opacity:1"/>
<path class="bond-7 atom-7 atom-8" d="M 225.0,126.0 L 212.9,87.4" style="fill:none;fill-rule:evenodd;stroke:#000000;stroke-width:2.0px;stroke-linecap:butt;stroke-linejoin:miter;stroke-opacity:1"/>
<path class="bond-8 atom-8 atom-9" d="M 221.3,75.7 L 164.9,63.1" style="fill:none;fill-rule:evenodd;stroke:#000000;stroke-width:2.0px;stroke-linecap:butt;stroke-linejoin:miter;stroke-opacity:1"/>
<path class="bond-9 atom-9 atom-10" d="M 164.9,63.1 L 125.8,105.6" style="fill:none;fill-rule:evenodd;stroke:#000000;stroke-width:2.0px;stroke-linecap:butt;stroke-linejoin:miter;stroke-opacity:1"/>
<path class="bond-9 atom-9 atom-10" d="M 167.6,77.3 L 140.2,107.1" style="fill:none;fill-rule:evenodd;stroke:#000000;stroke-width:2.0px;stroke-linecap:butt;stroke-linejoin:miter;stroke-opacity:1"/>
<path class="bond-10 atom-3 atom-0" d="M 49.6,159.9 L 64.6,115.2" style="fill:none;fill-rule:evenodd;stroke:#000000;stroke-width:2.0px;stroke-linecap:butt;stroke-linejoin:miter;stroke-opacity:1"/>
<path class="bond-11 atom-10 atom-0" d="M 125.8,105.6 L 85.2,105.2" style="fill:none;fill-rule:evenodd;stroke:#000000;stroke-width:2.0px;stroke-linecap:butt;stroke-linejoin:miter;stroke-opacity:1"/>
<path class="bond-12 atom-10 atom-5" d="M 125.8,105.6 L 143.1,160.8" style="fill:none;fill-rule:evenodd;stroke:#000000;stroke-width:2.0px;stroke-linecap:butt;stroke-linejoin:miter;stroke-opacity:1"/>
<path class="atom-0" d="M 64.4 96.9 L 69.8 105.5 Q 70.3 106.4, 71.1 108.0 Q 72.0 109.5, 72.1 109.6 L 72.1 96.9 L 74.2 96.9 L 74.2 113.2 L 72.0 113.2 L 66.2 103.8 Q 65.6 102.7, 64.8 101.4 Q 64.1 100.1, 63.9 99.7 L 63.9 113.2 L 61.8 113.2 L 61.8 96.9 L 64.4 96.9 " fill="#000000"/>
<path class="atom-0" d="M 76.1 99.8 L 79.0 99.8 L 79.0 96.8 L 80.3 96.8 L 80.3 99.8 L 83.3 99.8 L 83.3 100.9 L 80.3 100.9 L 80.3 104.0 L 79.0 104.0 L 79.0 100.9 L 76.1 100.9 L 76.1 99.8 " fill="#000000"/>
<path class="atom-4" d="M 92.4 186.1 L 97.8 194.8 Q 98.3 195.6, 99.2 197.2 Q 100.0 198.7, 100.1 198.8 L 100.1 186.1 L 102.2 186.1 L 102.2 202.5 L 100.0 202.5 L 94.2 193.0 Q 93.6 191.9, 92.8 190.6 Q 92.2 189.3, 91.9 189.0 L 91.9 202.5 L 89.8 202.5 L 89.8 186.1 L 92.4 186.1 " fill="#000000"/>
<path class="bond-0 atom-0 atom-1" d="M 421.0,32.2 L 409.4,62.7" style="fill:none;fill-rule:evenodd;stroke:#000000;stroke-width:2.0px;stroke-linecap:butt;stroke-linejoin:miter;stroke-opacity:1"/>
<path class="bond-0 atom-0 atom-1" d="M 414.9,29.8 L 403.3,60.3" style="fill:none;fill-rule:evenodd;stroke:#000000;stroke-width:2.0px;stroke-linecap:butt;stroke-linejoin:miter;stroke-opacity:1"/>
<path class="bond-1 atom-1 atom-2" d="M 406.3,61.5 L 426.9,86.9" style="fill:none;fill-rule:evenodd;stroke:#000000;stroke-width:2.0px;stroke-linecap:butt;stroke-linejoin:miter;stroke-opacity:1"/>
<path class="bond-2 atom-2 atom-3" d="M 426.9,86.9 L 415.2,117.4" style="fill:none;fill-rule:evenodd;stroke:#000000;stroke-width:2.0px;stroke-linecap:butt;stroke-linejoin:miter;stroke-opacity:1"/>
<path class="bond-3 atom-3 atom-4" d="M 415.2,117.4 L 431.2,137.1" style="fill:none;fill-rule:evenodd;stroke:#000000;stroke-width:2.0px;stroke-linecap:butt;stroke-linejoin:miter;stroke-opacity:1"/>
<path class="bond-4 atom-4 atom-5" d="M 433.6,148.5 L 424.1,173.3" style="fill:none;fill-rule:evenodd;stroke:#000000;stroke-width:2.0px;stroke-linecap:butt;stroke-linejoin:miter;stroke-opacity:1"/>
<path class="bond-5 atom-5 atom-6" d="M 424.1,173.3 L 444.7,198.7" style="fill:none;fill-rule:evenodd;stroke:#000000;stroke-width:2.0px;stroke-linecap:butt;stroke-linejoin:miter;stroke-opacity:1"/>
<path class="bond-6 atom-6 atom-7" d="M 444.7,198.7 L 476.9,193.5" style="fill:none;fill-rule:evenodd;stroke:#000000;stroke-width:2.0px;stroke-linecap:butt;stroke-linejoin:miter;stroke-opacity:1"/>
<path class="bond-7 atom-7 atom-8" d="M 476.9,193.5 L 488.6,163.0" style="fill:none;fill-rule:evenodd;stroke:#000000;stroke-width:2.0px;stroke-linecap:butt;stroke-linejoin:miter;stroke-opacity:1"/>
<path class="bond-8 atom-8 atom-9" d="M 488.6,163.0 L 468.1,137.6" style="fill:none;fill-rule:evenodd;stroke:#000000;stroke-width:2.0px;stroke-linecap:butt;stroke-linejoin:miter;stroke-opacity:1"/>
<path class="bond-9 atom-1 atom-10" d="M 406.3,61.5 L 378.6,65.9" style="fill:none;fill-rule:evenodd;stroke:#000000;stroke-width:2.0px;stroke-linecap:butt;stroke-linejoin:miter;stroke-opacity:1"/>
<path class="bond-10 atom-10 atom-11" d="M 369.4,61.0 L 353.5,41.3" style="fill:none;fill-rule:evenodd;stroke:#000000;stroke-width:2.0px;stroke-linecap:butt;stroke-linejoin:miter;stroke-opacity:1"/>
<path class="bond-11 atom-10 atom-12" d="M 371.9,72.3 L 362.3,97.2" style="fill:none;fill-rule:evenodd;stroke:#000000;stroke-width:2.0px;stroke-linecap:butt;stroke-linejoin:miter;stroke-opacity:1"/>
<path class="bond-12 atom-12 atom-13" d="M 364.9,95.1 L 380.8,114.7" style="fill:none;fill-rule:evenodd;stroke:#000000;stroke-width:2.0px;stroke-linecap:butt;stroke-linejoin:miter;stroke-opacity:1"/>
<path class="bond-12 atom-12 atom-13" d="M 359.8,99.2 L 375.7,118.8" style="fill:none;fill-rule:evenodd;stroke:#000000;stroke-width:2.0px;stroke-linecap:butt;stroke-linejoin:miter;stroke-opacity:1"/>
<path class="bond-13 atom-12 atom-14" d="M 362.3,97.2 L 330.1,102.3" style="fill:none;fill-rule:evenodd;stroke:#000000;stroke-width:2.0px;stroke-linecap:butt;stroke-linejoin:miter;stroke-opacity:1"/>
<path class="bond-14 atom-14 atom-15" d="M 330.1,102.3 L 309.5,76.9" style="fill:none;fill-rule:evenodd;stroke:#000000;stroke-width:2.0px;stroke-linecap:butt;stroke-linejoin:miter;stroke-opacity:1"/>
<path class="bond-14 atom-14 atom-15" d="M 321.9,102.6 L 307.5,84.8" style="fill:none;fill-rule:evenodd;stroke:#000000;stroke-width:2.0px;stroke-linecap:butt;stroke-linejoin:miter;stroke-opacity:1"/>
<path class="bond-15 atom-15 atom-16" d="M 309.5,76.9 L 277.2,82.0" style="fill:none;fill-rule:evenodd;stroke:#000000;stroke-width:2.0px;stroke-linecap:butt;stroke-linejoin:miter;stroke-opacity:1"/>
<path class="bond-16 atom-16 atom-17" d="M 277.2,82.0 L 265.5,112.6" style="fill:none;fill-rule:evenodd;stroke:#000000;stroke-width:2.0px;stroke-linecap:butt;stroke-linejoin:miter;stroke-opacity:1"/>
<path class="bond-16 atom-16 atom-17" d="M 281.6,89.0 L 273.4,110.3" style="fill:none;fill-rule:evenodd;stroke:#000000;stroke-width:2.0px;stroke-linecap:butt;stroke-linejoin:miter;stroke-opacity:1"/>
<path class="bond-17 atom-17 atom-18" d="M 265.5,112.6 L 286.1,137.9" style="fill:none;fill-rule:evenodd;stroke:#000000;stroke-width:2.0px;stroke-linecap:butt;stroke-linejoin:miter;stroke-opacity:1"/>
<path class="bond-18 atom-18 atom-19" d="M 286.1,137.9 L 318.4,132.8" style="fill:none;fill-rule:evenodd;stroke:#000000;stroke-width:2.0px;stroke-linecap:butt;stroke-linejoin:miter;stroke-opacity:1"/>
<path class="bond-18 atom-18 atom-19" d="M 289.9,130.7 L 312.5,127.1" style="fill:none;fill-rule:evenodd;stroke:#000000;stroke-width:2.0px;stroke-linecap:butt;stroke-linejoin:miter;stroke-opacity:1"/>
<path class="bond-19 atom-19 atom-20" d="M 318.4,132.8 L 339.0,158.2" style="fill:none;fill-rule:evenodd;stroke:#000000;stroke-width:2.0px;stroke-linecap:butt;stroke-linejoin:miter;stroke-opacity:1"/>
<path class="bond-20 atom-20 atom-21" d="M 339.0,158.2 L 327.3,188.7" style="fill:none;fill-rule:evenodd;stroke:#000000;stroke-width:2.0px;stroke-linecap:butt;stroke-linejoin:miter;stroke-opacity:1"/>
<path class="bond-21 atom-21 atom-22" d="M 327.3,188.7 L 332.4,221.0" style="fill:none;fill-rule:evenodd;stroke:#000000;stroke-width:2.0px;stroke-linecap:butt;stroke-linejoin:miter;stroke-opacity:1"/>
<path class="bond-22 atom-22 atom-23" d="M 332.4,221.0 L 301.9,209.3" style="fill:none;fill-rule:evenodd;stroke:#000000;stroke-width:2.0px;stroke-linecap:butt;stroke-linejoin:miter;stroke-opacity:1"/>
<path class="bond-23 atom-23 atom-24" d="M 301.9,209.3 L 271.3,214.1" style="fill:none;fill-rule:evenodd;stroke:#000000;stroke-width:2.0px;stroke-linecap:butt;stroke-linejoin:miter;stroke-opacity:1"/>
<path class="bond-24 atom-9 atom-4" d="M 468.1,137.6 L 440.4,142.1" style="fill:none;fill-rule:evenodd;stroke:#000000;stroke-width:2.0px;stroke-linecap:butt;stroke-linejoin:miter;stroke-opacity:1"/>
<path class="bond-25 atom-19 atom-14" d="M 318.4,132.8 L 330.1,102.3" style="fill:none;fill-rule:evenodd;stroke:#000000;stroke-width:2.0px;stroke-linecap:butt;stroke-linejoin:miter;stroke-opacity:1"/>
<path class="bond-26 atom-23 atom-21" d="M 301.9,209.3 L 327.3,188.7" style="fill:none;fill-rule:evenodd;stroke:#000000;stroke-width:2.0px;stroke-linecap:butt;stroke-linejoin:miter;stroke-opacity:1"/>
<path class="atom-4" d="M 433.7 138.2 L 436.8 143.1 Q 437.1 143.5, 437.6 144.4 Q 438.0 145.3, 438.1 145.3 L 438.1 138.2 L 439.3 138.2 L 439.3 147.4 L 438.0 147.4 L 434.8 142.1 Q 434.4 141.4, 434.0 140.7 Q 433.6 140.0, 433.5 139.8 L 433.5 147.4 L 432.3 147.4 L 432.3 138.2 L 433.7 138.2 " fill="#000000"/>
<path class="atom-10" d="M 372.0 62.0 L 375.0 66.9 Q 375.3 67.4, 375.8 68.3 Q 376.3 69.1, 376.3 69.2 L 376.3 62.0 L 377.5 62.0 L 377.5 71.3 L 376.3 71.3 L 373.0 65.9 Q 372.6 65.3, 372.2 64.6 Q 371.8 63.8, 371.7 63.6 L 371.7 71.3 L 370.5 71.3 L 370.5 62.0 L 372.0 62.0 " fill="#000000"/>
<path class="atom-13" d="M 378.7 122.6 Q 378.7 120.3, 379.8 119.1 Q 380.9 117.9, 382.9 117.9 Q 385.0 117.9, 386.1 119.1 Q 387.2 120.3, 387.2 122.6 Q 387.2 124.8, 386.1 126.1 Q 385.0 127.4, 382.9 127.4 Q 380.9 127.4, 379.8 126.1 Q 378.7 124.8, 378.7 122.6 M 382.9 126.3 Q 384.3 126.3, 385.1 125.4 Q 385.9 124.4, 385.9 122.6 Q 385.9 120.7, 385.1 119.8 Q 384.3 118.9, 382.9 118.9 Q 381.5 118.9, 380.7 119.8 Q 380.0 120.7, 380.0 122.6 Q 380.0 124.4, 380.7 125.4 Q 381.5 126.3, 382.9 126.3 " fill="#000000"/>
<path class="atom-24" d="M 261.4 214.7 Q 261.4 212.4, 262.4 211.2 Q 263.5 210.0, 265.6 210.0 Q 267.5 210.0, 268.5 211.4 L 267.6 212.1 Q 266.9 211.1, 265.6 211.1 Q 264.2 211.1, 263.4 212.0 Q 262.7 213.0, 262.7 214.7 Q 262.7 216.6, 263.5 217.5 Q 264.2 218.4, 265.7 218.4 Q 266.7 218.4, 267.9 217.8 L 268.3 218.8 Q 267.8 219.1, 267.1 219.3 Q 266.3 219.5, 265.5 219.5 Q 263.5 219.5, 262.4 218.3 Q 261.4 217.0, 261.4 214.7 " fill="#000000"/>
<path class="atom-24" d="M 269.0 209.5 L 270.2 209.5 L 270.2 219.4 L 269.0 219.4 L 269.0 209.5 " fill="#000000"/>
<path class="atom-0" d="M 422.6,32.3 L 422.6,32.4 L 422.6,32.4 L 422.6,32.5 L 422.5,32.5 L 422.5,32.6 L 422.5,32.6 L 422.5,32.7 L 422.4,32.7 L 422.4,32.8 L 422.3,32.8 L 422.3,32.8 L 422.3,32.9 L 422.2,32.9 L 422.2,32.9 L 422.1,32.9 L 422.0,32.9 L 422.0,32.9 L 421.9,33.0 L 421.9,32.9 L 421.8,32.9 L 421.8,32.9 L 421.7,32.9 L 421.7,32.9 L 421.6,32.9 L 421.6,32.8 L 421.5,32.8 L 421.5,32.8 L 421.4,32.7 L 421.4,32.7 L 421.4,32.6 L 421.3,32.6 L 421.3,32.5 L 421.3,32.5 L 421.3,32.4 L 421.3,32.4 L 421.3,32.3 L 421.3,32.3 L 421.3,32.2 L 421.3,32.2 L 421.3,32.1 L 421.3,32.0 L 421.3,32.0 L 421.4,31.9 L 421.4,31.9 L 421.4,31.9 L 421.5,31.8 L 421.5,31.8 L 421.6,31.8 L 421.6,31.7 L 421.7,31.7 L 421.7,31.7 L 421.8,31.7 L 421.8,31.7 L 421.9,31.6 L 421.9,31.6 L 422.0,31.6 L 422.0,31.7 L 422.1,31.7 L 422.2,31.7 L 422.2,31.7 L 422.3,31.7 L 422.3,31.8 L 422.3,31.8 L 422.4,31.8 L 422.4,31.9 L 422.5,31.9 L 422.5,32.0 L 422.5,32.0 L 422.5,32.1 L 422.6,32.1 L 422.6,32.2 L 422.6,32.2 L 422.6,32.3 L 421.9,32.3 Z" style="fill:#000000;fill-rule:evenodd;fill-opacity:1;stroke:#000000;stroke-width:0.0px;stroke-linecap:butt;stroke-linejoin:miter;stroke-opacity:1;"/>
<path class="atom-0" d="M 422.6,29.7 L 422.6,29.7 L 422.6,29.8 L 422.6,29.8 L 422.5,29.9 L 422.5,30.0 L 422.5,30.0 L 422.5,30.1 L 422.4,30.1 L 422.4,30.1 L 422.3,30.2 L 422.3,30.2 L 422.3,30.2 L 422.2,30.3 L 422.2,30.3 L 422.1,30.3 L 422.0,30.3 L 422.0,30.3 L 421.9,30.3 L 421.9,30.3 L 421.8,30.3 L 421.8,30.3 L 421.7,30.3 L 421.7,30.3 L 421.6,30.3 L 421.6,30.2 L 421.5,30.2 L 421.5,30.2 L 421.4,30.1 L 421.4,30.1 L 421.4,30.0 L 421.3,30.0 L 421.3,29.9 L 421.3,29.9 L 421.3,29.8 L 421.3,29.8 L 421.3,29.7 L 421.3,29.7 L 421.3,29.6 L 421.3,29.5 L 421.3,29.5 L 421.3,29.4 L 421.3,29.4 L 421.4,29.3 L 421.4,29.3 L 421.4,29.2 L 421.5,29.2 L 421.5,29.2 L 421.6,29.1 L 421.6,29.1 L 421.7,29.1 L 421.7,29.1 L 421.8,29.0 L 421.8,29.0 L 421.9,29.0 L 421.9,29.0 L 422.0,29.0 L 422.0,29.0 L 422.1,29.1 L 422.2,29.1 L 422.2,29.1 L 422.3,29.1 L 422.3,29.2 L 422.3,29.2 L 422.4,29.2 L 422.4,29.3 L 422.5,29.3 L 422.5,29.4 L 422.5,29.4 L 422.5,29.5 L 422.6,29.5 L 422.6,29.6 L 422.6,29.6 L 422.6,29.7 L 421.9,29.7 Z" style="fill:#000000;fill-rule:evenodd;fill-opacity:1;stroke:#000000;stroke-width:0.0px;stroke-linecap:butt;stroke-linejoin:miter;stroke-opacity:1;"/>
<path class="bond-0 atom-0 atom-1" d="M 675.5,111.6 L 606.3,151.5" style="fill:none;fill-rule:evenodd;stroke:#000000;stroke-width:2.0px;stroke-linecap:butt;stroke-linejoin:miter;stroke-opacity:1"/>
<path class="bond-1 atom-1 atom-2" d="M 601.5,159.8 L 534.5,121.1" style="fill:none;fill-rule:evenodd;stroke:#000000;stroke-width:2.0px;stroke-linecap:butt;stroke-linejoin:miter;stroke-opacity:1"/>
<path class="bond-1 atom-1 atom-2" d="M 611.1,143.3 L 544.1,104.6" style="fill:none;fill-rule:evenodd;stroke:#000000;stroke-width:2.0px;stroke-linecap:butt;stroke-linejoin:miter;stroke-opacity:1"/>
<path class="atom-0" d="M 682.9 90.4 L 691.7 104.7 Q 692.6 106.1, 694.0 108.6 Q 695.4 111.2, 695.5 111.3 L 695.5 90.4 L 699.1 90.4 L 699.1 117.4 L 695.4 117.4 L 685.9 101.7 Q 684.8 99.9, 683.6 97.8 Q 682.5 95.7, 682.1 95.1 L 682.1 117.4 L 678.6 117.4 L 678.6 90.4 L 682.9 90.4 " fill="#000000"/>
<path class="atom-0" d="M 702.3 90.4 L 705.9 90.4 L 705.9 101.8 L 719.7 101.8 L 719.7 90.4 L 723.4 90.4 L 723.4 117.4 L 719.7 117.4 L 719.7 104.9 L 705.9 104.9 L 705.9 117.4 L 702.3 117.4 L 702.3 90.4 " fill="#000000"/>
<path class="atom-0" d="M 726.7 116.4 Q 727.3 114.7, 728.9 113.8 Q 730.5 112.8, 732.6 112.8 Q 735.3 112.8, 736.8 114.3 Q 738.3 115.8, 738.3 118.4 Q 738.3 121.0, 736.4 123.5 Q 734.4 125.9, 730.4 128.8 L 738.6 128.8 L 738.6 130.9 L 726.6 130.9 L 726.6 129.2 Q 730.0 126.8, 731.9 125.0 Q 733.9 123.3, 734.9 121.7 Q 735.8 120.1, 735.8 118.5 Q 735.8 116.8, 735.0 115.8 Q 734.1 114.9, 732.6 114.9 Q 731.2 114.9, 730.2 115.4 Q 729.3 116.0, 728.6 117.3 L 726.7 116.4 " fill="#000000"/>
<path class="atom-2" d="M 511.4 103.9 Q 511.4 97.5, 514.6 93.8 Q 517.8 90.2, 523.8 90.2 Q 529.7 90.2, 532.9 93.8 Q 536.1 97.5, 536.1 103.9 Q 536.1 110.5, 532.9 114.2 Q 529.7 117.9, 523.8 117.9 Q 517.8 117.9, 514.6 114.2 Q 511.4 110.5, 511.4 103.9 M 523.8 114.9 Q 527.9 114.9, 530.1 112.1 Q 532.3 109.4, 532.3 103.9 Q 532.3 98.6, 530.1 96.0 Q 527.9 93.3, 523.8 93.3 Q 519.6 93.3, 517.4 95.9 Q 515.2 98.6, 515.2 103.9 Q 515.2 109.4, 517.4 112.1 Q 519.6 114.9, 523.8 114.9 " fill="#000000"/>
<path class="bond-0 atom-0 atom-1" d="M 96.1,410.1 L 73.3,390.3" style="fill:none;fill-rule:evenodd;stroke:#000000;stroke-width:2.0px;stroke-linecap:butt;stroke-linejoin:miter;stroke-opacity:1"/>
<path class="bond-1 atom-1 atom-2" d="M 73.3,390.3 L 38.9,402.2" style="fill:none;fill-rule:evenodd;stroke:#000000;stroke-width:2.0px;stroke-linecap:butt;stroke-linejoin:miter;stroke-opacity:1"/>
<path class="bond-1 atom-1 atom-2" d="M 65.8,385.2 L 41.7,393.5" style="fill:none;fill-rule:evenodd;stroke:#000000;stroke-width:2.0px;stroke-linecap:butt;stroke-linejoin:miter;stroke-opacity:1"/>
<path class="bond-2 atom-2 atom-3" d="M 38.9,402.2 L 11.4,378.3" style="fill:none;fill-rule:evenodd;stroke:#000000;stroke-width:2.0px;stroke-linecap:butt;stroke-linejoin:miter;stroke-opacity:1"/>
<path class="bond-3 atom-3 atom-4" d="M 11.4,378.3 L 18.3,342.5" style="fill:none;fill-rule:evenodd;stroke:#000000;stroke-width:2.0px;stroke-linecap:butt;stroke-linejoin:miter;stroke-opacity:1"/>
<path class="bond-3 atom-3 atom-4" d="M 19.6,374.3 L 24.4,349.3" style="fill:none;fill-rule:evenodd;stroke:#000000;stroke-width:2.0px;stroke-linecap:butt;stroke-linejoin:miter;stroke-opacity:1"/>
<path class="bond-4 atom-4 atom-5" d="M 18.3,342.5 L 52.8,330.6" style="fill:none;fill-rule:evenodd;stroke:#000000;stroke-width:2.0px;stroke-linecap:butt;stroke-linejoin:miter;stroke-opacity:1"/>
<path class="bond-5 atom-5 atom-6" d="M 52.8,330.6 L 80.3,354.5" style="fill:none;fill-rule:evenodd;stroke:#000000;stroke-width:2.0px;stroke-linecap:butt;stroke-linejoin:miter;stroke-opacity:1"/>
<path class="bond-5 atom-5 atom-6" d="M 52.1,339.7 L 71.4,356.5" style="fill:none;fill-rule:evenodd;stroke:#000000;stroke-width:2.0px;stroke-linecap:butt;stroke-linejoin:miter;stroke-opacity:1"/>
<path class="bond-6 atom-6 atom-7" d="M 80.3,354.5 L 110.2,344.2" style="fill:none;fill-rule:evenodd;stroke:#000000;stroke-width:2.0px;stroke-linecap:butt;stroke-linejoin:miter;stroke-opacity:1"/>
<path class="bond-7 atom-7 atom-8" d="M 119.2,346.6 L 137.1,362.1" style="fill:none;fill-rule:evenodd;stroke:#000000;stroke-width:2.0px;stroke-linecap:butt;stroke-linejoin:miter;stroke-opacity:1"/>
<path class="bond-8 atom-8 atom-9" d="M 147.3,364.8 L 171.6,356.4" style="fill:none;fill-rule:evenodd;stroke:#000000;stroke-width:2.0px;stroke-linecap:butt;stroke-linejoin:miter;stroke-opacity:1"/>
<path class="bond-9 atom-9 atom-10" d="M 181.8,359.1 L 204.2,378.6" style="fill:none;fill-rule:evenodd;stroke:#000000;stroke-width:2.0px;stroke-linecap:butt;stroke-linejoin:miter;stroke-opacity:1"/>
<path class="bond-10 atom-10 atom-11" d="M 204.2,378.6 L 238.6,366.7" style="fill:none;fill-rule:evenodd;stroke:#000000;stroke-width:2.0px;stroke-linecap:butt;stroke-linejoin:miter;stroke-opacity:1"/>
<path class="bond-11 atom-6 atom-1" d="M 80.3,354.5 L 73.3,390.3" style="fill:none;fill-rule:evenodd;stroke:#000000;stroke-width:2.0px;stroke-linecap:butt;stroke-linejoin:miter;stroke-opacity:1"/>
<path class="atom-0" d="M 102.3 413.9 Q 103.3 414.2, 103.8 414.8 Q 104.3 415.4, 104.3 416.3 Q 104.3 417.7, 103.4 418.6 Q 102.5 419.4, 100.8 419.4 L 97.3 419.4 L 97.3 409.0 L 100.4 409.0 Q 102.1 409.0, 103.0 409.8 Q 103.9 410.5, 103.9 411.8 Q 103.9 413.3, 102.3 413.9 M 98.7 410.2 L 98.7 413.4 L 100.4 413.4 Q 101.4 413.4, 101.9 413.0 Q 102.5 412.6, 102.5 411.8 Q 102.5 410.2, 100.4 410.2 L 98.7 410.2 M 100.8 418.2 Q 101.8 418.2, 102.3 417.7 Q 102.9 417.2, 102.9 416.3 Q 102.9 415.5, 102.3 415.1 Q 101.7 414.6, 100.6 414.6 L 98.7 414.6 L 98.7 418.2 L 100.8 418.2 " fill="#000000"/>
<path class="atom-0" d="M 106.1 411.9 L 106.3 412.9 Q 107.1 411.7, 108.3 411.7 Q 108.8 411.7, 109.3 411.9 L 109.1 413.1 Q 108.5 413.0, 108.1 413.0 Q 107.5 413.0, 107.1 413.2 Q 106.7 413.4, 106.4 414.0 L 106.4 419.4 L 105.0 419.4 L 105.0 411.9 L 106.1 411.9 " fill="#000000"/>
<path class="atom-7" d="M 111.8 346.2 Q 111.9 346.2, 112.4 346.4 Q 112.9 346.7, 113.4 346.8 Q 113.9 346.9, 114.5 346.9 Q 115.4 346.9, 116.0 346.4 Q 116.6 346.0, 116.6 345.1 Q 116.6 344.6, 116.3 344.2 Q 116.0 343.9, 115.6 343.7 Q 115.1 343.5, 114.4 343.3 Q 113.5 343.0, 112.9 342.7 Q 112.4 342.5, 112.0 341.9 Q 111.6 341.3, 111.6 340.4 Q 111.6 339.1, 112.5 338.3 Q 113.4 337.5, 115.1 337.5 Q 116.3 337.5, 117.7 338.1 L 117.4 339.2 Q 116.1 338.7, 115.2 338.7 Q 114.2 338.7, 113.6 339.1 Q 113.1 339.5, 113.1 340.2 Q 113.1 340.8, 113.4 341.1 Q 113.7 341.5, 114.1 341.7 Q 114.5 341.8, 115.2 342.1 Q 116.1 342.4, 116.7 342.6 Q 117.2 342.9, 117.6 343.5 Q 118.0 344.1, 118.0 345.1 Q 118.0 346.6, 117.1 347.3 Q 116.1 348.1, 114.5 348.1 Q 113.6 348.1, 112.9 347.9 Q 112.2 347.7, 111.4 347.4 L 111.8 346.2 " fill="#000000"/>
<path class="atom-8" d="M 139.9 361.4 L 143.3 366.9 Q 143.7 367.4, 144.2 368.4 Q 144.7 369.4, 144.8 369.4 L 144.8 361.4 L 146.1 361.4 L 146.1 371.7 L 144.7 371.7 L 141.1 365.7 Q 140.7 365.0, 140.2 364.2 Q 139.8 363.4, 139.7 363.2 L 139.7 371.7 L 138.3 371.7 L 138.3 361.4 L 139.9 361.4 " fill="#000000"/>
<path class="atom-8" d="M 138.2 372.8 L 139.6 372.8 L 139.6 377.1 L 144.9 377.1 L 144.9 372.8 L 146.3 372.8 L 146.3 383.1 L 144.9 383.1 L 144.9 378.3 L 139.6 378.3 L 139.6 383.1 L 138.2 383.1 L 138.2 372.8 " fill="#000000"/>
<path class="atom-9" d="M 174.4 349.5 L 177.8 355.0 Q 178.1 355.5, 178.7 356.5 Q 179.2 357.5, 179.2 357.5 L 179.2 349.5 L 180.6 349.5 L 180.6 359.8 L 179.2 359.8 L 175.5 353.9 Q 175.1 353.2, 174.7 352.4 Q 174.2 351.6, 174.1 351.3 L 174.1 359.8 L 172.8 359.8 L 172.8 349.5 L 174.4 349.5 " fill="#000000"/>
<path class="atom-9" d="M 172.6 338.2 L 174.0 338.2 L 174.0 342.6 L 179.3 342.6 L 179.3 338.2 L 180.7 338.2 L 180.7 348.5 L 179.3 348.5 L 179.3 343.7 L 174.0 343.7 L 174.0 348.5 L 172.6 348.5 L 172.6 338.2 " fill="#000000"/>
<path class="bond-0 atom-0 atom-1" d="M 444.4,376.1 L 444.4,373.6" style="fill:none;fill-rule:evenodd;stroke:#000000;stroke-width:1.0px;stroke-linecap:butt;stroke-linejoin:miter;stroke-opacity:1"/>
<path class="bond-0 atom-0 atom-1" d="M 453.2,377.4 L 453.2,372.3" style="fill:none;fill-rule:evenodd;stroke:#000000;stroke-width:1.0px;stroke-linecap:butt;stroke-linejoin:miter;stroke-opacity:1"/>
<path class="bond-0 atom-0 atom-1" d="M 462.1,378.6 L 462.1,371.0" style="fill:none;fill-rule:evenodd;stroke:#000000;stroke-width:1.0px;stroke-linecap:butt;stroke-linejoin:miter;stroke-opacity:1"/>
<path class="bond-0 atom-0 atom-1" d="M 470.9,379.9 L 470.9,369.8" style="fill:none;fill-rule:evenodd;stroke:#000000;stroke-width:1.0px;stroke-linecap:butt;stroke-linejoin:miter;stroke-opacity:1"/>
<path class="bond-0 atom-0 atom-1" d="M 479.8,381.1 L 479.8,368.5" style="fill:none;fill-rule:evenodd;stroke:#000000;stroke-width:1.0px;stroke-linecap:butt;stroke-linejoin:miter;stroke-opacity:1"/>
<path class="bond-0 atom-0 atom-1" d="M 488.6,382.4 L 488.6,367.3" style="fill:none;fill-rule:evenodd;stroke:#000000;stroke-width:1.0px;stroke-linecap:butt;stroke-linejoin:miter;stroke-opacity:1"/>
<path class="bond-1 atom-0 atom-2" d="M 404.9,388.6 L 375.0,440.4" style="fill:none;fill-rule:evenodd;stroke:#000000;stroke-width:2.0px;stroke-linecap:butt;stroke-linejoin:miter;stroke-opacity:1"/>
<path class="bond-2 atom-2 atom-3" d="M 375.0,440.4 L 311.6,440.4" style="fill:none;fill-rule:evenodd;stroke:#000000;stroke-width:2.0px;stroke-linecap:butt;stroke-linejoin:miter;stroke-opacity:1"/>
<path class="bond-3 atom-3 atom-4" d="M 291.5,427.1 L 261.4,374.8" style="fill:none;fill-rule:evenodd;stroke:#000000;stroke-width:2.0px;stroke-linecap:butt;stroke-linejoin:miter;stroke-opacity:1"/>
<path class="bond-4 atom-4 atom-5" d="M 261.4,374.8 L 299.2,309.2" style="fill:none;fill-rule:evenodd;stroke:#000000;stroke-width:2.0px;stroke-linecap:butt;stroke-linejoin:miter;stroke-opacity:1"/>
<path class="bond-5 atom-5 atom-6" d="M 299.2,309.2 L 362.7,309.2" style="fill:none;fill-rule:evenodd;stroke:#000000;stroke-width:2.0px;stroke-linecap:butt;stroke-linejoin:miter;stroke-opacity:1"/>
<path class="bond-6 atom-6 atom-0" d="M 382.9,322.9 L 405.3,361.6" style="fill:none;fill-rule:evenodd;stroke:#000000;stroke-width:2.0px;stroke-linecap:butt;stroke-linejoin:miter;stroke-opacity:1"/>
<path class="atom-0" d="M 406.8 382.2 Q 407.1 382.3, 408.1 382.7 Q 409.1 383.1, 410.2 383.4 Q 411.3 383.7, 412.4 383.7 Q 414.4 383.7, 415.6 382.7 Q 416.8 381.7, 416.8 380.0 Q 416.8 378.8, 416.2 378.0 Q 415.6 377.3, 414.7 376.9 Q 413.8 376.5, 412.2 376.1 Q 410.3 375.5, 409.2 375.0 Q 408.1 374.4, 407.2 373.3 Q 406.5 372.1, 406.5 370.2 Q 406.5 367.5, 408.3 365.8 Q 410.1 364.1, 413.8 364.1 Q 416.2 364.1, 419.1 365.3 L 418.4 367.7 Q 415.8 366.6, 413.8 366.6 Q 411.8 366.6, 410.6 367.5 Q 409.5 368.3, 409.5 369.8 Q 409.5 371.0, 410.1 371.7 Q 410.7 372.3, 411.5 372.7 Q 412.4 373.1, 413.8 373.6 Q 415.8 374.2, 416.9 374.8 Q 418.1 375.4, 418.9 376.7 Q 419.8 377.9, 419.8 380.0 Q 419.8 382.9, 417.8 384.5 Q 415.8 386.1, 412.5 386.1 Q 410.6 386.1, 409.1 385.7 Q 407.7 385.3, 406.0 384.6 L 406.8 382.2 " fill="#000000"/>
<path class="atom-0" d="M 421.2 367.7 L 425.0 367.7 L 425.0 363.7 L 426.6 363.7 L 426.6 367.7 L 430.5 367.7 L 430.5 369.1 L 426.6 369.1 L 426.6 373.1 L 425.0 373.1 L 425.0 369.1 L 421.2 369.1 L 421.2 367.7 " fill="#000000"/>
<path class="atom-3" d="M 289.4 440.5 Q 289.4 435.4, 291.9 432.5 Q 294.5 429.6, 299.2 429.6 Q 304.0 429.6, 306.5 432.5 Q 309.1 435.4, 309.1 440.5 Q 309.1 445.7, 306.5 448.7 Q 303.9 451.6, 299.2 451.6 Q 294.5 451.6, 291.9 448.7 Q 289.4 445.7, 289.4 440.5 M 299.2 449.2 Q 302.5 449.2, 304.3 447.0 Q 306.1 444.8, 306.1 440.5 Q 306.1 436.3, 304.3 434.2 Q 302.5 432.0, 299.2 432.0 Q 296.0 432.0, 294.2 434.1 Q 292.4 436.3, 292.4 440.5 Q 292.4 444.8, 294.2 447.0 Q 296.0 449.2, 299.2 449.2 " fill="#000000"/>
<path class="atom-6" d="M 365.2 309.3 Q 365.2 304.1, 367.7 301.3 Q 370.2 298.4, 375.0 298.4 Q 379.8 298.4, 382.3 301.3 Q 384.8 304.1, 384.8 309.3 Q 384.8 314.5, 382.3 317.5 Q 379.7 320.4, 375.0 320.4 Q 370.3 320.4, 367.7 317.5 Q 365.2 314.5, 365.2 309.3 M 375.0 318.0 Q 378.3 318.0, 380.0 315.8 Q 381.8 313.6, 381.8 309.3 Q 381.8 305.1, 380.0 303.0 Q 378.3 300.8, 375.0 300.8 Q 371.7 300.8, 369.9 302.9 Q 368.2 305.0, 368.2 309.3 Q 368.2 313.6, 369.9 315.8 Q 371.7 318.0, 375.0 318.0 " fill="#000000"/>
<path class="bond-0 atom-0 atom-1" d="M 630.2,312.5 L 630.2,401.6" style="fill:none;fill-rule:evenodd;stroke:#000000;stroke-width:2.0px;stroke-linecap:butt;stroke-linejoin:miter;stroke-opacity:1"/>
<path class="bond-0 atom-0 atom-1" d="M 608.7,312.5 L 608.7,401.6" style="fill:none;fill-rule:evenodd;stroke:#000000;stroke-width:2.0px;stroke-linecap:butt;stroke-linejoin:miter;stroke-opacity:1"/>
<path class="bond-1 atom-1 atom-2" d="M 619.4,401.6 L 696.0,445.8" style="fill:none;fill-rule:evenodd;stroke:#000000;stroke-width:2.0px;stroke-linecap:butt;stroke-linejoin:miter;stroke-opacity:1"/>
<path class="bond-2 atom-1 atom-3" d="M 619.4,401.6 L 526.3,455.3" style="fill:none;fill-rule:evenodd;stroke:#000000;stroke-width:2.0px;stroke-linecap:butt;stroke-linejoin:miter;stroke-opacity:1"/>
<path class="atom-0" d="M 611.4 303.8 Q 611.7 303.9, 613.0 304.4 Q 614.4 305.0, 615.8 305.4 Q 617.3 305.7, 618.7 305.7 Q 621.4 305.7, 623.0 304.4 Q 624.5 303.1, 624.5 300.8 Q 624.5 299.2, 623.7 298.3 Q 623.0 297.3, 621.8 296.8 Q 620.6 296.3, 618.6 295.7 Q 616.0 294.9, 614.5 294.2 Q 613.0 293.5, 612.0 292.0 Q 610.9 290.4, 610.9 287.9 Q 610.9 284.3, 613.3 282.1 Q 615.8 279.9, 620.6 279.9 Q 623.8 279.9, 627.6 281.5 L 626.6 284.6 Q 623.2 283.2, 620.7 283.2 Q 617.9 283.2, 616.4 284.3 Q 614.9 285.4, 614.9 287.4 Q 614.9 288.9, 615.7 289.8 Q 616.5 290.8, 617.6 291.3 Q 618.8 291.8, 620.7 292.4 Q 623.2 293.2, 624.8 294.0 Q 626.3 294.8, 627.4 296.4 Q 628.5 298.0, 628.5 300.8 Q 628.5 304.7, 625.8 306.8 Q 623.2 308.9, 618.9 308.9 Q 616.4 308.9, 614.4 308.4 Q 612.6 307.8, 610.3 306.9 L 611.4 303.8 " fill="#000000"/>
<path class="atom-2" d="M 699.5 455.4 Q 699.5 448.6, 702.9 444.8 Q 706.2 441.0, 712.5 441.0 Q 718.8 441.0, 722.2 444.8 Q 725.5 448.6, 725.5 455.4 Q 725.5 462.3, 722.1 466.2 Q 718.7 470.1, 712.5 470.1 Q 706.3 470.1, 702.9 466.2 Q 699.5 462.3, 699.5 455.4 M 712.5 466.9 Q 716.8 466.9, 719.2 464.0 Q 721.5 461.1, 721.5 455.4 Q 721.5 449.8, 719.2 447.0 Q 716.8 444.2, 712.5 444.2 Q 708.2 444.2, 705.8 447.0 Q 703.5 449.8, 703.5 455.4 Q 703.5 461.1, 705.8 464.0 Q 708.2 466.9, 712.5 466.9 " fill="#000000"/>
<path class="atom-2" d="M 727.5 445.6 L 737.2 445.6 L 737.2 447.7 L 727.5 447.7 L 727.5 445.6 " fill="#000000"/>
<path class="atom-3" d="M 516.3,459.3 L 516.3,459.5 L 516.3,459.7 L 516.2,459.8 L 516.2,460.0 L 516.1,460.1 L 516.0,460.3 L 515.9,460.4 L 515.8,460.6 L 515.7,460.7 L 515.6,460.8 L 515.5,460.9 L 515.3,461.0 L 515.2,461.1 L 515.0,461.2 L 514.9,461.2 L 514.7,461.3 L 514.5,461.3 L 514.3,461.3 L 514.2,461.3 L 514.0,461.3 L 513.8,461.3 L 513.7,461.2 L 513.5,461.1 L 513.3,461.1 L 513.2,461.0 L 513.1,460.9 L 512.9,460.8 L 512.8,460.6 L 512.7,460.5 L 512.6,460.4 L 512.5,460.2 L 512.4,460.1 L 512.4,459.9 L 512.3,459.7 L 512.3,459.6 L 512.3,459.4 L 512.3,459.2 L 512.3,459.1 L 512.3,458.9 L 512.4,458.7 L 512.4,458.6 L 512.5,458.4 L 512.6,458.3 L 512.7,458.1 L 512.8,458.0 L 512.9,457.9 L 513.1,457.7 L 513.2,457.6 L 513.3,457.6 L 513.5,457.5 L 513.7,457.4 L 513.8,457.4 L 514.0,457.3 L 514.2,457.3 L 514.3,457.3 L 514.5,457.3 L 514.7,457.4 L 514.9,457.4 L 515.0,457.4 L 515.2,457.5 L 515.3,457.6 L 515.5,457.7 L 515.6,457.8 L 515.7,457.9 L 515.8,458.0 L 515.9,458.2 L 516.0,458.3 L 516.1,458.5 L 516.2,458.6 L 516.2,458.8 L 516.3,459.0 L 516.3,459.1 L 516.3,459.3 L 514.3,459.3 Z" style="fill:#000000;fill-rule:evenodd;fill-opacity:1;stroke:#000000;stroke-width:0.0px;stroke-linecap:butt;stroke-linejoin:miter;stroke-opacity:1;"/>
<path class="atom-3" d="M 516.3,451.3 L 516.3,451.5 L 516.3,451.7 L 516.2,451.8 L 516.2,452.0 L 516.1,452.1 L 516.0,452.3 L 515.9,452.4 L 515.8,452.6 L 515.7,452.7 L 515.6,452.8 L 515.5,452.9 L 515.3,453.0 L 515.2,453.1 L 515.0,453.2 L 514.9,453.2 L 514.7,453.3 L 514.5,453.3 L 514.3,453.3 L 514.2,453.3 L 514.0,453.3 L 513.8,453.3 L 513.7,453.2 L 513.5,453.1 L 513.3,453.1 L 513.2,453.0 L 513.1,452.9 L 512.9,452.8 L 512.8,452.6 L 512.7,452.5 L 512.6,452.4 L 512.5,452.2 L 512.4,452.1 L 512.4,451.9 L 512.3,451.7 L 512.3,451.6 L 512.3,451.4 L 512.3,451.2 L 512.3,451.1 L 512.3,450.9 L 512.4,450.7 L 512.4,450.6 L 512.5,450.4 L 512.6,450.3 L 512.7,450.1 L 512.8,450.0 L 512.9,449.9 L 513.1,449.7 L 513.2,449.6 L 513.3,449.6 L 513.5,449.5 L 513.7,449.4 L 513.8,449.4 L 514.0,449.3 L 514.2,449.3 L 514.3,449.3 L 514.5,449.3 L 514.7,449.4 L 514.9,449.4 L 515.0,449.4 L 515.2,449.5 L 515.3,449.6 L 515.5,449.7 L 515.6,449.8 L 515.7,449.9 L 515.8,450.0 L 515.9,450.2 L 516.0,450.3 L 516.1,450.5 L 516.2,450.6 L 516.2,450.8 L 516.3,451.0 L 516.3,451.1 L 516.3,451.3 L 514.3,451.3 Z" style="fill:#000000;fill-rule:evenodd;fill-opacity:1;stroke:#000000;stroke-width:0.0px;stroke-linecap:butt;stroke-linejoin:miter;stroke-opacity:1;"/>
<path class="bond-0 atom-0 atom-1" d="M 66.0,604.3 L 73.1,608.5" style="fill:none;fill-rule:evenodd;stroke:#000000;stroke-width:2.0px;stroke-linecap:butt;stroke-linejoin:miter;stroke-opacity:1"/>
<path class="bond-1 atom-1 atom-2" d="M 73.5,611.7 L 21.2,617.9" style="fill:none;fill-rule:evenodd;stroke:#000000;stroke-width:2.0px;stroke-linecap:butt;stroke-linejoin:miter;stroke-opacity:1"/>
<path class="bond-1 atom-1 atom-2" d="M 72.7,605.3 L 20.4,611.5" style="fill:none;fill-rule:evenodd;stroke:#000000;stroke-width:2.0px;stroke-linecap:butt;stroke-linejoin:miter;stroke-opacity:1"/>
<path class="bond-2 atom-1 atom-3" d="M 73.1,608.5 L 76.4,640.1" style="fill:none;fill-rule:evenodd;stroke:#000000;stroke-width:2.0px;stroke-linecap:butt;stroke-linejoin:miter;stroke-opacity:1"/>
<path class="bond-3 atom-3 atom-4" d="M 76.4,640.1 L 92.8,642.5" style="fill:none;fill-rule:evenodd;stroke:#000000;stroke-width:2.0px;stroke-linecap:butt;stroke-linejoin:miter;stroke-opacity:1"/>
<path class="bond-3 atom-3 atom-4" d="M 79.8,634.0 L 91.3,635.7" style="fill:none;fill-rule:evenodd;stroke:#000000;stroke-width:2.0px;stroke-linecap:butt;stroke-linejoin:miter;stroke-opacity:1"/>
<path class="bond-4 atom-4 atom-5" d="M 92.8,642.5 L 97.9,667.2" style="fill:none;fill-rule:evenodd;stroke:#000000;stroke-width:2.0px;stroke-linecap:butt;stroke-linejoin:miter;stroke-opacity:1"/>
<path class="bond-5 atom-5 atom-6" d="M 97.9,667.2 L 122.6,666.5" style="fill:none;fill-rule:evenodd;stroke:#000000;stroke-width:2.0px;stroke-linecap:butt;stroke-linejoin:miter;stroke-opacity:1"/>
<path class="bond-5 atom-5 atom-6" d="M 101.4,660.6 L 118.7,660.1" style="fill:none;fill-rule:evenodd;stroke:#000000;stroke-width:2.0px;stroke-linecap:butt;stroke-linejoin:miter;stroke-opacity:1"/>
<path class="bond-6 atom-6 atom-7" d="M 122.6,666.5 L 137.0,679.6" style="fill:none;fill-rule:evenodd;stroke:#000000;stroke-width:2.0px;stroke-linecap:butt;stroke-linejoin:miter;stroke-opacity:1"/>
<path class="bond-7 atom-7 atom-8" d="M 137.0,679.6 L 165.3,663.8" style="fill:none;fill-rule:evenodd;stroke:#000000;stroke-width:2.0px;stroke-linecap:butt;stroke-linejoin:miter;stroke-opacity:1"/>
<path class="bond-8 atom-8 atom-9" d="M 167.6,661.6 L 185.0,679.5" style="fill:none;fill-rule:evenodd;stroke:#000000;stroke-width:2.0px;stroke-linecap:butt;stroke-linejoin:miter;stroke-opacity:1"/>
<path class="bond-8 atom-8 atom-9" d="M 163.0,666.1 L 180.3,684.0" style="fill:none;fill-rule:evenodd;stroke:#000000;stroke-width:2.0px;stroke-linecap:butt;stroke-linejoin:miter;stroke-opacity:1"/>
<path class="bond-9 atom-8 atom-10" d="M 165.3,663.8 L 178.6,641.6" style="fill:none;fill-rule:evenodd;stroke:#000000;stroke-width:2.0px;stroke-linecap:butt;stroke-linejoin:miter;stroke-opacity:1"/>
<path class="bond-10 atom-10 atom-11" d="M 186.4,638.7 L 209.8,652.7" style="fill:none;fill-rule:evenodd;stroke:#000000;stroke-width:2.0px;stroke-linecap:butt;stroke-linejoin:miter;stroke-opacity:1"/>
<path class="bond-11 atom-11 atom-12" d="M 209.8,652.7 L 238.1,636.9" style="fill:none;fill-rule:evenodd;stroke:#000000;stroke-width:2.0px;stroke-linecap:butt;stroke-linejoin:miter;stroke-opacity:1"/>
<path class="bond-12 atom-12 atom-13" d="M 238.1,636.9 L 238.6,604.5" style="fill:none;fill-rule:evenodd;stroke:#000000;stroke-width:2.0px;stroke-linecap:butt;stroke-linejoin:miter;stroke-opacity:1"/>
<path class="bond-13 atom-13 atom-14" d="M 238.6,604.5 L 210.8,587.8" style="fill:none;fill-rule:evenodd;stroke:#000000;stroke-width:2.0px;stroke-linecap:butt;stroke-linejoin:miter;stroke-opacity:1"/>
<path class="bond-14 atom-14 atom-15" d="M 210.8,587.8 L 182.5,603.6" style="fill:none;fill-rule:evenodd;stroke:#000000;stroke-width:2.0px;stroke-linecap:butt;stroke-linejoin:miter;stroke-opacity:1"/>
<path class="bond-15 atom-15 atom-16" d="M 182.5,603.6 L 166.7,575.3" style="fill:none;fill-rule:evenodd;stroke:#000000;stroke-width:2.0px;stroke-linecap:butt;stroke-linejoin:miter;stroke-opacity:1"/>
<path class="bond-16 atom-16 atom-17" d="M 166.7,575.3 L 138.9,558.6" style="fill:none;fill-rule:evenodd;stroke:#000000;stroke-width:2.0px;stroke-linecap:butt;stroke-linejoin:miter;stroke-opacity:1"/>
<path class="bond-16 atom-16 atom-17" d="M 159.2,578.3 L 139.7,566.7" style="fill:none;fill-rule:evenodd;stroke:#000000;stroke-width:2.0px;stroke-linecap:butt;stroke-linejoin:miter;stroke-opacity:1"/>
<path class="bond-17 atom-17 atom-18" d="M 138.9,558.6 L 106.5,558.1" style="fill:none;fill-rule:evenodd;stroke:#000000;stroke-width:2.0px;stroke-linecap:butt;stroke-linejoin:miter;stroke-opacity:1"/>
<path class="bond-18 atom-18 atom-19" d="M 106.5,558.1 L 78.1,573.9" style="fill:none;fill-rule:evenodd;stroke:#000000;stroke-width:2.0px;stroke-linecap:butt;stroke-linejoin:miter;stroke-opacity:1"/>
<path class="bond-18 atom-18 atom-19" d="M 105.4,566.1 L 85.5,577.2" style="fill:none;fill-rule:evenodd;stroke:#000000;stroke-width:2.0px;stroke-linecap:butt;stroke-linejoin:miter;stroke-opacity:1"/>
<path class="bond-19 atom-7 atom-20" d="M 137.0,679.6 L 108.7,664.5" style="fill:none;fill-rule:evenodd;stroke:#000000;stroke-width:2.0px;stroke-linecap:butt;stroke-linejoin:miter;stroke-opacity:1"/>
<path class="bond-20 atom-20 atom-21" d="M 108.7,664.5 L 91.5,654.3" style="fill:none;fill-rule:evenodd;stroke:#000000;stroke-width:2.0px;stroke-linecap:butt;stroke-linejoin:miter;stroke-opacity:1"/>
<path class="bond-20 atom-20 atom-21" d="M 109.5,657.4 L 97.4,650.2" style="fill:none;fill-rule:evenodd;stroke:#000000;stroke-width:2.0px;stroke-linecap:butt;stroke-linejoin:miter;stroke-opacity:1"/>
<path class="bond-21 atom-21 atom-22" d="M 84.5,646.3 L 82.4,642.6" style="fill:none;fill-rule:evenodd;stroke:#000000;stroke-width:2.0px;stroke-linecap:butt;stroke-linejoin:miter;stroke-opacity:1"/>
<path class="bond-21 atom-21 atom-22" d="M 89.8,642.6 L 88.4,640.0" style="fill:none;fill-rule:evenodd;stroke:#000000;stroke-width:2.0px;stroke-linecap:butt;stroke-linejoin:miter;stroke-opacity:1"/>
<path class="bond-22 atom-19 atom-0" d="M 78.1,573.9 L 64.8,596.1" style="fill:none;fill-rule:evenodd;stroke:#000000;stroke-width:2.0px;stroke-linecap:butt;stroke-linejoin:miter;stroke-opacity:1"/>
<path class="bond-23 atom-22 atom-0" d="M 72.9,624.8 L 64.2,607.3" style="fill:none;fill-rule:evenodd;stroke:#000000;stroke-width:2.0px;stroke-linecap:butt;stroke-linejoin:miter;stroke-opacity:1"/>
<path class="bond-24 atom-15 atom-10" d="M 182.5,603.6 L 182.1,630.4" style="fill:none;fill-rule:evenodd;stroke:#000000;stroke-width:2.0px;stroke-linecap:butt;stroke-linejoin:miter;stroke-opacity:1"/>
<path class="bond-25 atom-15 atom-23" d="M 184.5,598.8 L 183.3,598.5" style="fill:none;fill-rule:evenodd;stroke:#000000;stroke-width:1.0px;stroke-linecap:butt;stroke-linejoin:miter;stroke-opacity:1"/>
<path class="bond-25 atom-15 atom-23" d="M 186.4,594.1 L 184.1,593.4" style="fill:none;fill-rule:evenodd;stroke:#000000;stroke-width:1.0px;stroke-linecap:butt;stroke-linejoin:miter;stroke-opacity:1"/>
<path class="bond-25 atom-15 atom-23" d="M 188.4,589.3 L 184.9,588.3" style="fill:none;fill-rule:evenodd;stroke:#000000;stroke-width:1.0px;stroke-linecap:butt;stroke-linejoin:miter;stroke-opacity:1"/>
<path class="bond-25 atom-15 atom-23" d="M 190.4,584.6 L 185.7,583.3" style="fill:none;fill-rule:evenodd;stroke:#000000;stroke-width:1.0px;stroke-linecap:butt;stroke-linejoin:miter;stroke-opacity:1"/>
<path class="bond-25 atom-15 atom-23" d="M 192.4,579.8 L 186.6,578.2" style="fill:none;fill-rule:evenodd;stroke:#000000;stroke-width:1.0px;stroke-linecap:butt;stroke-linejoin:miter;stroke-opacity:1"/>
<path class="atom-0" d="M 59.4 597.1 L 62.4 601.9 Q 62.7 602.4, 63.2 603.3 Q 63.7 604.2, 63.7 604.2 L 63.7 597.1 L 65.0 597.1 L 65.0 606.3 L 63.7 606.3 L 60.5 600.9 Q 60.1 600.3, 59.7 599.6 Q 59.3 598.9, 59.2 598.7 L 59.2 606.3 L 58.0 606.3 L 58.0 597.1 L 59.4 597.1 " fill="#000000"/>
<path class="atom-2" d="M 11.4 615.3 Q 11.4 613.1, 12.5 611.9 Q 13.5 610.7, 15.6 610.7 Q 17.6 610.7, 18.7 611.9 Q 19.8 613.1, 19.8 615.3 Q 19.8 617.6, 18.7 618.8 Q 17.6 620.1, 15.6 620.1 Q 13.6 620.1, 12.5 618.8 Q 11.4 617.6, 11.4 615.3 M 15.6 619.1 Q 17.0 619.1, 17.7 618.1 Q 18.5 617.2, 18.5 615.3 Q 18.5 613.5, 17.7 612.6 Q 17.0 611.7, 15.6 611.7 Q 14.2 611.7, 13.4 612.6 Q 12.7 613.5, 12.7 615.3 Q 12.7 617.2, 13.4 618.1 Q 14.2 619.1, 15.6 619.1 " fill="#000000"/>
<path class="atom-9" d="M 183.7 687.2 Q 183.7 684.9, 184.7 683.7 Q 185.8 682.5, 187.9 682.5 Q 189.9 682.5, 191.0 683.7 Q 192.1 684.9, 192.1 687.2 Q 192.1 689.4, 191.0 690.7 Q 189.9 691.9, 187.9 691.9 Q 185.8 691.9, 184.7 690.7 Q 183.7 689.4, 183.7 687.2 M 187.9 690.9 Q 189.3 690.9, 190.0 689.9 Q 190.8 689.0, 190.8 687.2 Q 190.8 685.4, 190.0 684.4 Q 189.3 683.5, 187.9 683.5 Q 186.5 683.5, 185.7 684.4 Q 185.0 685.3, 185.0 687.2 Q 185.0 689.0, 185.7 689.9 Q 186.5 690.9, 187.9 690.9 " fill="#000000"/>
<path class="atom-10" d="M 179.9 631.4 L 182.9 636.3 Q 183.2 636.8, 183.7 637.6 Q 184.2 638.5, 184.2 638.6 L 184.2 631.4 L 185.4 631.4 L 185.4 640.6 L 184.2 640.6 L 181.0 635.3 Q 180.6 634.7, 180.2 634.0 Q 179.8 633.2, 179.7 633.0 L 179.7 640.6 L 178.5 640.6 L 178.5 631.4 L 179.9 631.4 " fill="#000000"/>
<path class="atom-21" d="M 76.4 647.3 L 77.6 647.3 L 77.6 651.2 L 82.3 651.2 L 82.3 647.3 L 83.6 647.3 L 83.6 656.5 L 82.3 656.5 L 82.3 652.3 L 77.6 652.3 L 77.6 656.5 L 76.4 656.5 L 76.4 647.3 " fill="#000000"/>
<path class="atom-21" d="M 87.4 647.3 Q 88.9 647.3, 89.7 648.0 Q 90.5 648.7, 90.5 650.0 Q 90.5 651.3, 89.7 652.0 Q 88.9 652.7, 87.4 652.7 L 85.9 652.7 L 85.9 656.5 L 84.7 656.5 L 84.7 647.3 L 87.4 647.3 M 87.4 651.7 Q 88.3 651.7, 88.7 651.3 Q 89.2 650.8, 89.2 650.0 Q 89.2 649.2, 88.7 648.8 Q 88.3 648.4, 87.4 648.4 L 85.9 648.4 L 85.9 651.7 L 87.4 651.7 " fill="#000000"/>
<path class="atom-22" d="M 75.4 625.8 Q 77.0 625.8, 77.8 626.5 Q 78.6 627.2, 78.6 628.5 Q 78.6 629.8, 77.7 630.5 Q 76.9 631.2, 75.4 631.2 L 73.9 631.2 L 73.9 635.0 L 72.7 635.0 L 72.7 625.8 L 75.4 625.8 M 75.4 630.2 Q 76.3 630.2, 76.8 629.8 Q 77.3 629.3, 77.3 628.5 Q 77.3 627.7, 76.8 627.3 Q 76.3 626.9, 75.4 626.9 L 73.9 626.9 L 73.9 630.2 L 75.4 630.2 " fill="#000000"/>
<path class="atom-22" d="M 72.0 635.9 L 73.3 635.9 L 73.3 639.8 L 78.0 639.8 L 78.0 635.9 L 79.2 635.9 L 79.2 645.1 L 78.0 645.1 L 78.0 640.9 L 73.3 640.9 L 73.3 645.1 L 72.0 645.1 L 72.0 635.9 " fill="#000000"/>
<path class="atom-22" d="M 80.3 644.8 Q 80.6 644.2, 81.1 643.9 Q 81.6 643.6, 82.4 643.6 Q 83.3 643.6, 83.8 644.1 Q 84.3 644.6, 84.3 645.4 Q 84.3 646.3, 83.6 647.2 Q 83.0 648.0, 81.6 649.0 L 84.4 649.0 L 84.4 649.7 L 80.3 649.7 L 80.3 649.1 Q 81.5 648.3, 82.1 647.7 Q 82.8 647.1, 83.1 646.6 Q 83.5 646.0, 83.5 645.5 Q 83.5 644.9, 83.2 644.6 Q 82.9 644.3, 82.4 644.3 Q 81.9 644.3, 81.6 644.5 Q 81.2 644.6, 81.0 645.1 L 80.3 644.8 " fill="#000000"/>
<path class="atom-23" d="M 187.8 567.8 L 189.0 567.8 L 189.0 571.7 L 193.7 571.7 L 193.7 567.8 L 195.0 567.8 L 195.0 577.0 L 193.7 577.0 L 193.7 572.8 L 189.0 572.8 L 189.0 577.0 L 187.8 577.0 L 187.8 567.8 " fill="#000000"/>
<path class="bond-0 atom-0 atom-1" d="M 370.5,565.6 L 396.4,567.2" style="fill:none;fill-rule:evenodd;stroke:#000000;stroke-width:2.0px;stroke-linecap:butt;stroke-linejoin:miter;stroke-opacity:1"/>
<path class="bond-1 atom-1 atom-2" d="M 396.4,567.2 L 403.0,592.4" style="fill:none;fill-rule:evenodd;stroke:#000000;stroke-width:2.0px;stroke-linecap:butt;stroke-linejoin:miter;stroke-opacity:1"/>
<path class="bond-1 atom-1 atom-2" d="M 392.4,572.3 L 397.0,589.9" style="fill:none;fill-rule:evenodd;stroke:#000000;stroke-width:2.0px;stroke-linecap:butt;stroke-linejoin:miter;stroke-opacity:1"/>
<path class="bond-2 atom-2 atom-3" d="M 403.0,592.4 L 428.4,598.0" style="fill:none;fill-rule:evenodd;stroke:#000000;stroke-width:2.0px;stroke-linecap:butt;stroke-linejoin:miter;stroke-opacity:1"/>
<path class="bond-3 atom-3 atom-4" d="M 428.4,598.0 L 404.0,607.0" style="fill:none;fill-rule:evenodd;stroke:#000000;stroke-width:2.0px;stroke-linecap:butt;stroke-linejoin:miter;stroke-opacity:1"/>
<path class="bond-3 atom-3 atom-4" d="M 423.0,594.5 L 405.8,600.7" style="fill:none;fill-rule:evenodd;stroke:#000000;stroke-width:2.0px;stroke-linecap:butt;stroke-linejoin:miter;stroke-opacity:1"/>
<path class="bond-4 atom-4 atom-5" d="M 404.0,607.0 L 318.9,587.3" style="fill:none;fill-rule:evenodd;stroke:#000000;stroke-width:2.0px;stroke-linecap:butt;stroke-linejoin:miter;stroke-opacity:1"/>
<path class="bond-5 atom-5 atom-6" d="M 318.9,587.3 L 292.9,585.7" style="fill:none;fill-rule:evenodd;stroke:#000000;stroke-width:2.0px;stroke-linecap:butt;stroke-linejoin:miter;stroke-opacity:1"/>
<path class="bond-6 atom-6 atom-7" d="M 290.3,586.4 L 285.0,565.9" style="fill:none;fill-rule:evenodd;stroke:#000000;stroke-width:2.0px;stroke-linecap:butt;stroke-linejoin:miter;stroke-opacity:1"/>
<path class="bond-6 atom-6 atom-7" d="M 295.4,585.1 L 290.1,564.6" style="fill:none;fill-rule:evenodd;stroke:#000000;stroke-width:2.0px;stroke-linecap:butt;stroke-linejoin:miter;stroke-opacity:1"/>
<path class="bond-7 atom-6 atom-8" d="M 292.9,585.7 L 274.6,597.4" style="fill:none;fill-rule:evenodd;stroke:#000000;stroke-width:2.0px;stroke-linecap:butt;stroke-linejoin:miter;stroke-opacity:1"/>
<path class="bond-8 atom-8 atom-9" d="M 269.1,604.3 L 261.4,624.0" style="fill:none;fill-rule:evenodd;stroke:#000000;stroke-width:2.0px;stroke-linecap:butt;stroke-linejoin:miter;stroke-opacity:1"/>
<path class="bond-9 atom-9 atom-10" d="M 261.4,624.0 L 267.9,649.2" style="fill:none;fill-rule:evenodd;stroke:#000000;stroke-width:2.0px;stroke-linecap:butt;stroke-linejoin:miter;stroke-opacity:1"/>
<path class="bond-10 atom-10 atom-11" d="M 267.9,649.2 L 283.7,662.2" style="fill:none;fill-rule:evenodd;stroke:#000000;stroke-width:2.0px;stroke-linecap:butt;stroke-linejoin:miter;stroke-opacity:1"/>
<path class="bond-11 atom-11 atom-12" d="M 292.3,666.0 L 314.0,667.3" style="fill:none;fill-rule:evenodd;stroke:#000000;stroke-width:2.0px;stroke-linecap:butt;stroke-linejoin:miter;stroke-opacity:1"/>
<path class="bond-12 atom-12 atom-13" d="M 314.0,667.3 L 323.2,691.8 L 317.8,693.2 Z" style="fill:#000000;fill-rule:evenodd;fill-opacity:1;stroke:#000000;stroke-width:1.0px;stroke-linecap:butt;stroke-linejoin:miter;stroke-opacity:1;"/>
<path class="bond-13 atom-12 atom-14" d="M 314.0,667.3 L 336.0,653.3" style="fill:none;fill-rule:evenodd;stroke:#000000;stroke-width:2.0px;stroke-linecap:butt;stroke-linejoin:miter;stroke-opacity:1"/>
<path class="bond-14 atom-14 atom-15" d="M 337.6,651.3 L 353.4,664.3" style="fill:none;fill-rule:evenodd;stroke:#000000;stroke-width:2.0px;stroke-linecap:butt;stroke-linejoin:miter;stroke-opacity:1"/>
<path class="bond-14 atom-14 atom-15" d="M 334.3,655.3 L 350.1,668.3" style="fill:none;fill-rule:evenodd;stroke:#000000;stroke-width:2.0px;stroke-linecap:butt;stroke-linejoin:miter;stroke-opacity:1"/>
<path class="bond-15 atom-14 atom-16" d="M 336.0,653.3 L 343.7,633.7" style="fill:none;fill-rule:evenodd;stroke:#000000;stroke-width:2.0px;stroke-linecap:butt;stroke-linejoin:miter;stroke-opacity:1"/>
<path class="bond-16 atom-16 atom-17" d="M 349.2,629.3 L 371.5,630.6" style="fill:none;fill-rule:evenodd;stroke:#000000;stroke-width:2.0px;stroke-linecap:butt;stroke-linejoin:miter;stroke-opacity:1"/>
<path class="bond-17 atom-17 atom-18" d="M 371.5,630.6 L 388.3,620.9" style="fill:none;fill-rule:evenodd;stroke:#000000;stroke-width:2.0px;stroke-linecap:butt;stroke-linejoin:miter;stroke-opacity:1"/>
<path class="bond-18 atom-18 atom-19" d="M 388.3,620.9 L 384.7,599.3" style="fill:none;fill-rule:evenodd;stroke:#000000;stroke-width:2.0px;stroke-linecap:butt;stroke-linejoin:miter;stroke-opacity:1"/>
<path class="bond-19 atom-19 atom-20" d="M 384.7,599.3 L 437.6,632.0" style="fill:none;fill-rule:evenodd;stroke:#000000;stroke-width:2.0px;stroke-linecap:butt;stroke-linejoin:miter;stroke-opacity:1"/>
<path class="bond-20 atom-19 atom-21" d="M 384.7,599.3 L 397.3,591.6" style="fill:none;fill-rule:evenodd;stroke:#000000;stroke-width:2.0px;stroke-linecap:butt;stroke-linejoin:miter;stroke-opacity:1"/>
<path class="bond-20 atom-19 atom-21" d="M 389.3,602.6 L 398.2,597.2" style="fill:none;fill-rule:evenodd;stroke:#000000;stroke-width:2.0px;stroke-linecap:butt;stroke-linejoin:miter;stroke-opacity:1"/>
<path class="bond-21 atom-5 atom-22" d="M 318.9,587.3 L 339.0,603.9" style="fill:none;fill-rule:evenodd;stroke:#000000;stroke-width:2.0px;stroke-linecap:butt;stroke-linejoin:miter;stroke-opacity:1"/>
<path class="bond-21 atom-5 atom-22" d="M 325.2,585.8 L 339.3,597.3" style="fill:none;fill-rule:evenodd;stroke:#000000;stroke-width:2.0px;stroke-linecap:butt;stroke-linejoin:miter;stroke-opacity:1"/>
<path class="bond-22 atom-22 atom-23" d="M 339.0,603.9 L 360.9,589.8" style="fill:none;fill-rule:evenodd;stroke:#000000;stroke-width:2.0px;stroke-linecap:butt;stroke-linejoin:miter;stroke-opacity:1"/>
<path class="bond-23 atom-23 atom-24" d="M 360.9,589.8 L 381.0,606.4" style="fill:none;fill-rule:evenodd;stroke:#000000;stroke-width:2.0px;stroke-linecap:butt;stroke-linejoin:miter;stroke-opacity:1"/>
<path class="bond-24 atom-24 atom-25" d="M 381.0,606.4 L 378.1,632.4 L 372.7,631.2 Z" style="fill:#000000;fill-rule:evenodd;fill-opacity:1;stroke:#000000;stroke-width:1.0px;stroke-linecap:butt;stroke-linejoin:miter;stroke-opacity:1;"/>
<path class="bond-25 atom-25 atom-26" d="M 375.4,631.8 L 389.4,653.8" style="fill:none;fill-rule:evenodd;stroke:#000000;stroke-width:2.0px;stroke-linecap:butt;stroke-linejoin:miter;stroke-opacity:1"/>
<path class="bond-26 atom-26 atom-27" d="M 389.4,653.8 L 414.8,659.4" style="fill:none;fill-rule:evenodd;stroke:#000000;stroke-width:2.0px;stroke-linecap:butt;stroke-linejoin:miter;stroke-opacity:1"/>
<path class="bond-27 atom-27 atom-28" d="M 414.8,659.4 L 436.8,645.4" style="fill:none;fill-rule:evenodd;stroke:#000000;stroke-width:2.0px;stroke-linecap:butt;stroke-linejoin:miter;stroke-opacity:1"/>
<path class="bond-28 atom-28 atom-29" d="M 436.8,645.4 L 442.4,620.0" style="fill:none;fill-rule:evenodd;stroke:#000000;stroke-width:2.0px;stroke-linecap:butt;stroke-linejoin:miter;stroke-opacity:1"/>
<path class="bond-29 atom-29 atom-30" d="M 442.4,620.0 L 460.0,600.8" style="fill:none;fill-rule:evenodd;stroke:#000000;stroke-width:2.0px;stroke-linecap:butt;stroke-linejoin:miter;stroke-opacity:1"/>
<path class="bond-30 atom-29 atom-31" d="M 442.4,620.0 L 465.5,632.0" style="fill:none;fill-rule:evenodd;stroke:#000000;stroke-width:2.0px;stroke-linecap:butt;stroke-linejoin:miter;stroke-opacity:1"/>
<path class="bond-31 atom-31 atom-32" d="M 465.5,632.0 L 477.5,608.9" style="fill:none;fill-rule:evenodd;stroke:#000000;stroke-width:2.0px;stroke-linecap:butt;stroke-linejoin:miter;stroke-opacity:1"/>
<path class="bond-32 atom-31 atom-33" d="M 465.5,632.0 L 453.5,655.1" style="fill:none;fill-rule:evenodd;stroke:#000000;stroke-width:2.0px;stroke-linecap:butt;stroke-linejoin:miter;stroke-opacity:1"/>
<path class="bond-33 atom-31 atom-34" d="M 465.5,632.0 L 488.6,644.0" style="fill:none;fill-rule:evenodd;stroke:#000000;stroke-width:2.0px;stroke-linecap:butt;stroke-linejoin:miter;stroke-opacity:1"/>
<path class="bond-34 atom-23 atom-0" d="M 360.9,589.8 L 370.5,565.6" style="fill:none;fill-rule:evenodd;stroke:#000000;stroke-width:2.0px;stroke-linecap:butt;stroke-linejoin:miter;stroke-opacity:1"/>
<path class="bond-35 atom-21 atom-1" d="M 400.1,584.8 L 396.4,567.2" style="fill:none;fill-rule:evenodd;stroke:#000000;stroke-width:2.0px;stroke-linecap:butt;stroke-linejoin:miter;stroke-opacity:1"/>
<path class="bond-36 atom-24 atom-2" d="M 381.0,606.4 L 403.0,592.4" style="fill:none;fill-rule:evenodd;stroke:#000000;stroke-width:2.0px;stroke-linecap:butt;stroke-linejoin:miter;stroke-opacity:1"/>
<path class="bond-37 atom-29 atom-3" d="M 442.4,620.0 L 428.4,598.0" style="fill:none;fill-rule:evenodd;stroke:#000000;stroke-width:2.0px;stroke-linecap:butt;stroke-linejoin:miter;stroke-opacity:1"/>
<path class="bond-38 atom-22 atom-16" d="M 339.0,603.9 L 344.3,624.5" style="fill:none;fill-rule:evenodd;stroke:#000000;stroke-width:2.0px;stroke-linecap:butt;stroke-linejoin:miter;stroke-opacity:1"/>
<path class="bond-39 atom-24 atom-17" d="M 381.0,606.4 L 371.5,630.6" style="fill:none;fill-rule:evenodd;stroke:#000000;stroke-width:2.0px;stroke-linecap:butt;stroke-linejoin:miter;stroke-opacity:1"/>
<path class="atom-7" d="M 282.9 560.5 Q 282.9 558.8, 283.8 557.8 Q 284.7 556.8, 286.3 556.8 Q 288.0 556.8, 288.8 557.8 Q 289.7 558.8, 289.7 560.5 Q 289.7 562.3, 288.8 563.3 Q 287.9 564.4, 286.3 564.4 Q 284.7 564.4, 283.8 563.3 Q 282.9 562.3, 282.9 560.5 M 286.3 563.5 Q 287.4 563.5, 288.1 562.8 Q 288.7 562.0, 288.7 560.5 Q 288.7 559.1, 288.1 558.4 Q 287.4 557.6, 286.3 557.6 Q 285.2 557.6, 284.6 558.3 Q 284.0 559.1, 284.0 560.5 Q 284.0 562.0, 284.6 562.8 Q 285.2 563.5, 286.3 563.5 " fill="#000000"/>
<path class="atom-8" d="M 261.4 596.0 L 262.4 596.0 L 262.4 599.2 L 266.2 599.2 L 266.2 596.0 L 267.2 596.0 L 267.2 603.4 L 266.2 603.4 L 266.2 600.0 L 262.4 600.0 L 262.4 603.4 L 261.4 603.4 L 261.4 596.0 " fill="#000000"/>
<path class="atom-8" d="M 269.3 596.0 L 271.7 599.9 Q 271.9 600.3, 272.3 601.0 Q 272.7 601.7, 272.7 601.8 L 272.7 596.0 L 273.7 596.0 L 273.7 603.4 L 272.7 603.4 L 270.1 599.1 Q 269.8 598.6, 269.5 598.1 Q 269.2 597.5, 269.1 597.3 L 269.1 603.4 L 268.1 603.4 L 268.1 596.0 L 269.3 596.0 " fill="#000000"/>
<path class="atom-11" d="M 284.6 665.8 Q 284.6 664.0, 285.5 663.0 Q 286.4 662.0, 288.0 662.0 Q 289.6 662.0, 290.5 663.0 Q 291.4 664.0, 291.4 665.8 Q 291.4 667.5, 290.5 668.6 Q 289.6 669.6, 288.0 669.6 Q 286.4 669.6, 285.5 668.6 Q 284.6 667.6, 284.6 665.8 M 288.0 668.7 Q 289.1 668.7, 289.7 668.0 Q 290.3 667.2, 290.3 665.8 Q 290.3 664.3, 289.7 663.6 Q 289.1 662.8, 288.0 662.8 Q 286.9 662.8, 286.3 663.6 Q 285.7 664.3, 285.7 665.8 Q 285.7 667.2, 286.3 668.0 Q 286.9 668.7, 288.0 668.7 " fill="#000000"/>
<path class="atom-15" d="M 352.7 669.9 Q 352.7 668.1, 353.6 667.1 Q 354.4 666.1, 356.1 666.1 Q 357.7 666.1, 358.6 667.1 Q 359.5 668.1, 359.5 669.9 Q 359.5 671.7, 358.6 672.7 Q 357.7 673.7, 356.1 673.7 Q 354.4 673.7, 353.6 672.7 Q 352.7 671.7, 352.7 669.9 M 356.1 672.9 Q 357.2 672.9, 357.8 672.1 Q 358.4 671.4, 358.4 669.9 Q 358.4 668.4, 357.8 667.7 Q 357.2 667.0, 356.1 667.0 Q 354.9 667.0, 354.3 667.7 Q 353.7 668.4, 353.7 669.9 Q 353.7 671.4, 354.3 672.1 Q 354.9 672.9, 356.1 672.9 " fill="#000000"/>
<path class="atom-16" d="M 343.9 625.4 L 346.3 629.3 Q 346.5 629.7, 346.9 630.4 Q 347.3 631.1, 347.3 631.1 L 347.3 625.4 L 348.3 625.4 L 348.3 632.8 L 347.3 632.8 L 344.7 628.5 Q 344.4 628.0, 344.1 627.4 Q 343.7 626.8, 343.7 626.7 L 343.7 632.8 L 342.7 632.8 L 342.7 625.4 L 343.9 625.4 " fill="#000000"/>
<path class="atom-21" d="M 399.4 585.7 L 401.8 589.6 Q 402.1 590.0, 402.5 590.7 Q 402.9 591.4, 402.9 591.4 L 402.9 585.7 L 403.9 585.7 L 403.9 593.1 L 402.8 593.1 L 400.2 588.8 Q 399.9 588.3, 399.6 587.7 Q 399.3 587.1, 399.2 587.0 L 399.2 593.1 L 398.3 593.1 L 398.3 585.7 L 399.4 585.7 " fill="#000000"/>
<path class="bond-0 atom-0 atom-1" d="M 535.1,614.3 L 566.1,637.6" style="fill:none;fill-rule:evenodd;stroke:#000000;stroke-width:2.0px;stroke-linecap:butt;stroke-linejoin:miter;stroke-opacity:1"/>
<path class="bond-1 atom-1 atom-2" d="M 566.1,637.6 L 609.4,619.1" style="fill:none;fill-rule:evenodd;stroke:#000000;stroke-width:2.0px;stroke-linecap:butt;stroke-linejoin:miter;stroke-opacity:1"/>
<path class="bond-2 atom-2 atom-3" d="M 609.4,619.1 L 647.0,647.3" style="fill:none;fill-rule:evenodd;stroke:#000000;stroke-width:2.0px;stroke-linecap:butt;stroke-linejoin:miter;stroke-opacity:1"/>
<path class="bond-3 atom-3 atom-4" d="M 647.0,647.3 L 690.3,628.8" style="fill:none;fill-rule:evenodd;stroke:#000000;stroke-width:2.0px;stroke-linecap:butt;stroke-linejoin:miter;stroke-opacity:1"/>
<path class="bond-4 atom-4 atom-5" d="M 690.3,628.8 L 727.0,613.1" style="fill:none;fill-rule:evenodd;stroke:#000000;stroke-width:2.0px;stroke-linecap:butt;stroke-linejoin:miter;stroke-opacity:1"/>
<path class="bond-4 atom-4 atom-5" d="M 692.1,617.8 L 723.3,604.5" style="fill:none;fill-rule:evenodd;stroke:#000000;stroke-width:2.0px;stroke-linecap:butt;stroke-linejoin:miter;stroke-opacity:1"/>
<path class="bond-4 atom-4 atom-5" d="M 699.5,635.1 L 730.7,621.8" style="fill:none;fill-rule:evenodd;stroke:#000000;stroke-width:2.0px;stroke-linecap:butt;stroke-linejoin:miter;stroke-opacity:1"/>
<path class="atom-0" d="M 511.4 602.7 L 513.2 602.7 L 513.2 608.4 L 520.0 608.4 L 520.0 602.7 L 521.8 602.7 L 521.8 616.0 L 520.0 616.0 L 520.0 609.9 L 513.2 609.9 L 513.2 616.0 L 511.4 616.0 L 511.4 602.7 " fill="#000000"/>
<path class="atom-0" d="M 525.5 602.7 L 529.9 609.7 Q 530.3 610.4, 531.0 611.7 Q 531.7 613.0, 531.7 613.0 L 531.7 602.7 L 533.5 602.7 L 533.5 616.0 L 531.7 616.0 L 527.0 608.3 Q 526.4 607.4, 525.9 606.4 Q 525.3 605.3, 525.1 605.0 L 525.1 616.0 L 523.4 616.0 L 523.4 602.7 L 525.5 602.7 " fill="#000000"/>
<path class="atom-0" d="M 535.1 604.9 L 539.6 604.9 L 539.6 605.9 L 535.1 605.9 L 535.1 604.9 " fill="#000000"/>
<path class="atom-5" d="M 730.6 603.7 L 735.0 610.7 Q 735.4 611.4, 736.1 612.7 Q 736.8 613.9, 736.9 614.0 L 736.9 603.7 L 738.6 603.7 L 738.6 617.0 L 736.8 617.0 L 732.1 609.3 Q 731.6 608.4, 731.0 607.3 Q 730.4 606.3, 730.3 606.0 L 730.3 617.0 L 728.5 617.0 L 728.5 603.7 L 730.6 603.7 " fill="#000000"/>
</svg>