<svg xmlns="http://www.w3.org/2000/svg" xmlns:rdkit="http://www.rdkit.org/xml" xmlns:xlink="http://www.w3.org/1999/xlink" version="1.1" baseProfile="full" xml:space="preserve" width="750px" height="750px" viewBox="0 0 750 750">
<!-- END OF HEADER -->
<rect style="opacity:1.0;fill:#FFFFFF;stroke:none" width="750.0" height="750.0" x="0.0" y="0.0"> </rect>
<path class="bond-0 atom-0 atom-1" d="M 98.9,124.8 L 194.2,124.8" style="fill:none;fill-rule:evenodd;stroke:#000000;stroke-width:2.0px;stroke-linecap:butt;stroke-linejoin:miter;stroke-opacity:1"/>
<path class="atom-0" d="M 31.5 110.7 L 35.3 110.7 L 35.3 122.7 L 49.8 122.7 L 49.8 110.7 L 53.6 110.7 L 53.6 139.0 L 49.8 139.0 L 49.8 125.9 L 35.3 125.9 L 35.3 139.0 L 31.5 139.0 L 31.5 110.7 " fill="#000000"/>
<path class="atom-0" d="M 61.5 110.7 L 70.8 125.7 Q 71.7 127.1, 73.2 129.8 Q 74.7 132.5, 74.8 132.7 L 74.8 110.7 L 78.5 110.7 L 78.5 139.0 L 74.6 139.0 L 64.7 122.6 Q 63.5 120.7, 62.3 118.5 Q 61.1 116.3, 60.7 115.6 L 60.7 139.0 L 57.0 139.0 L 57.0 110.7 L 61.5 110.7 " fill="#000000"/>
<path class="atom-0" d="M 81.8 115.8 L 86.8 115.8 L 86.8 110.5 L 89.0 110.5 L 89.0 115.8 L 94.2 115.8 L 94.2 117.7 L 89.0 117.7 L 89.0 122.9 L 86.8 122.9 L 86.8 117.7 L 81.8 117.7 L 81.8 115.8 " fill="#000000"/>
<path class="atom-1" d="M 198.9 125.8 Q 198.9 118.8, 202.2 115.1 Q 205.5 111.4, 211.8 111.4 Q 217.6 111.4, 220.7 115.5 L 218.1 117.6 Q 215.8 114.6, 211.8 114.6 Q 207.5 114.6, 205.2 117.5 Q 203.0 120.4, 203.0 125.8 Q 203.0 131.4, 205.3 134.3 Q 207.7 137.2, 212.2 137.2 Q 215.3 137.2, 219.0 135.3 L 220.1 138.3 Q 218.6 139.2, 216.4 139.8 Q 214.1 140.4, 211.7 140.4 Q 205.5 140.4, 202.2 136.6 Q 198.9 132.8, 198.9 125.8 " fill="#000000"/>
<path class="atom-1" d="M 222.3 109.6 L 226.0 109.6 L 226.0 140.0 L 222.3 140.0 L 222.3 109.6 " fill="#000000"/>
<path class="atom-0" d="M 27.5,128.8 L 27.5,129.0 L 27.4,129.2 L 27.4,129.3 L 27.4,129.5 L 27.3,129.7 L 27.2,129.8 L 27.1,130.0 L 27.0,130.1 L 26.9,130.2 L 26.8,130.3 L 26.6,130.4 L 26.5,130.5 L 26.4,130.6 L 26.2,130.7 L 26.0,130.7 L 25.9,130.8 L 25.7,130.8 L 25.5,130.8 L 25.3,130.8 L 25.2,130.8 L 25.0,130.8 L 24.8,130.7 L 24.7,130.7 L 24.5,130.6 L 24.4,130.5 L 24.2,130.4 L 24.1,130.3 L 24.0,130.2 L 23.9,130.0 L 23.8,129.9 L 23.7,129.7 L 23.6,129.6 L 23.6,129.4 L 23.5,129.2 L 23.5,129.1 L 23.5,128.9 L 23.5,128.7 L 23.5,128.6 L 23.5,128.4 L 23.6,128.2 L 23.6,128.1 L 23.7,127.9 L 23.8,127.8 L 23.9,127.6 L 24.0,127.5 L 24.1,127.4 L 24.2,127.2 L 24.4,127.1 L 24.5,127.1 L 24.7,127.0 L 24.8,126.9 L 25.0,126.9 L 25.2,126.8 L 25.3,126.8 L 25.5,126.8 L 25.7,126.8 L 25.9,126.9 L 26.0,126.9 L 26.2,127.0 L 26.4,127.0 L 26.5,127.1 L 26.6,127.2 L 26.8,127.3 L 26.9,127.4 L 27.0,127.5 L 27.1,127.7 L 27.2,127.8 L 27.3,128.0 L 27.4,128.1 L 27.4,128.3 L 27.4,128.5 L 27.5,128.6 L 27.5,128.8 L 25.5,128.8 Z" style="fill:#000000;fill-rule:evenodd;fill-opacity:1;stroke:#000000;stroke-width:0.0px;stroke-linecap:butt;stroke-linejoin:miter;stroke-opacity:1;"/>
<path class="atom-0" d="M 27.5,120.8 L 27.5,121.0 L 27.4,121.2 L 27.4,121.3 L 27.4,121.5 L 27.3,121.7 L 27.2,121.8 L 27.1,122.0 L 27.0,122.1 L 26.9,122.2 L 26.8,122.3 L 26.6,122.4 L 26.5,122.5 L 26.4,122.6 L 26.2,122.7 L 26.0,122.7 L 25.9,122.8 L 25.7,122.8 L 25.5,122.8 L 25.3,122.8 L 25.2,122.8 L 25.0,122.8 L 24.8,122.7 L 24.7,122.7 L 24.5,122.6 L 24.4,122.5 L 24.2,122.4 L 24.1,122.3 L 24.0,122.2 L 23.9,122.0 L 23.8,121.9 L 23.7,121.7 L 23.6,121.6 L 23.6,121.4 L 23.5,121.2 L 23.5,121.1 L 23.5,120.9 L 23.5,120.7 L 23.5,120.6 L 23.5,120.4 L 23.6,120.2 L 23.6,120.1 L 23.7,119.9 L 23.8,119.8 L 23.9,119.6 L 24.0,119.5 L 24.1,119.4 L 24.2,119.2 L 24.4,119.1 L 24.5,119.1 L 24.7,119.0 L 24.8,118.9 L 25.0,118.9 L 25.2,118.8 L 25.3,118.8 L 25.5,118.8 L 25.7,118.8 L 25.9,118.9 L 26.0,118.9 L 26.2,119.0 L 26.4,119.0 L 26.5,119.1 L 26.6,119.2 L 26.8,119.3 L 26.9,119.4 L 27.0,119.5 L 27.1,119.7 L 27.2,119.8 L 27.3,120.0 L 27.4,120.1 L 27.4,120.3 L 27.4,120.5 L 27.5,120.6 L 27.5,120.8 L 25.5,120.8 Z" style="fill:#000000;fill-rule:evenodd;fill-opacity:1;stroke:#000000;stroke-width:0.0px;stroke-linecap:butt;stroke-linejoin:miter;stroke-opacity:1;"/>
<path class="bond-0 atom-0 atom-1" d="M 273.3,130.8 L 284.5,124.4" style="fill:none;fill-rule:evenodd;stroke:#000000;stroke-width:2.0px;stroke-linecap:butt;stroke-linejoin:miter;stroke-opacity:1"/>
<path class="bond-1 atom-1 atom-2" d="M 290.7,124.4 L 309.2,135.1" style="fill:none;fill-rule:evenodd;stroke:#000000;stroke-width:2.0px;stroke-linecap:butt;stroke-linejoin:miter;stroke-opacity:1"/>
<path class="bond-2 atom-2 atom-3" d="M 309.2,135.1 L 327.4,124.6" style="fill:none;fill-rule:evenodd;stroke:#000000;stroke-width:2.0px;stroke-linecap:butt;stroke-linejoin:miter;stroke-opacity:1"/>
<path class="bond-2 atom-2 atom-3" d="M 309.5,129.2 L 322.2,121.8" style="fill:none;fill-rule:evenodd;stroke:#000000;stroke-width:2.0px;stroke-linecap:butt;stroke-linejoin:miter;stroke-opacity:1"/>
<path class="bond-3 atom-3 atom-4" d="M 334.4,124.6 L 348.5,132.7" style="fill:none;fill-rule:evenodd;stroke:#000000;stroke-width:2.0px;stroke-linecap:butt;stroke-linejoin:miter;stroke-opacity:1"/>
<path class="bond-4 atom-4 atom-5" d="M 360.2,130.7 L 370.7,124.6" style="fill:none;fill-rule:evenodd;stroke:#000000;stroke-width:2.0px;stroke-linecap:butt;stroke-linejoin:miter;stroke-opacity:1"/>
<path class="bond-5 atom-5 atom-6" d="M 377.7,124.6 L 391.8,132.7" style="fill:none;fill-rule:evenodd;stroke:#000000;stroke-width:2.0px;stroke-linecap:butt;stroke-linejoin:miter;stroke-opacity:1"/>
<path class="bond-6 atom-6 atom-7" d="M 399.9,132.7 L 414.4,124.4" style="fill:none;fill-rule:evenodd;stroke:#000000;stroke-width:2.0px;stroke-linecap:butt;stroke-linejoin:miter;stroke-opacity:1"/>
<path class="bond-7 atom-7 atom-8" d="M 420.6,124.4 L 436.1,133.3" style="fill:none;fill-rule:evenodd;stroke:#000000;stroke-width:2.0px;stroke-linecap:butt;stroke-linejoin:miter;stroke-opacity:1"/>
<path class="bond-8 atom-8 atom-9" d="M 442.3,133.3 L 457.7,124.4" style="fill:none;fill-rule:evenodd;stroke:#000000;stroke-width:2.0px;stroke-linecap:butt;stroke-linejoin:miter;stroke-opacity:1"/>
<path class="bond-8 atom-8 atom-9" d="M 442.1,127.6 L 452.9,121.4" style="fill:none;fill-rule:evenodd;stroke:#000000;stroke-width:2.0px;stroke-linecap:butt;stroke-linejoin:miter;stroke-opacity:1"/>
<path class="bond-9 atom-9 atom-10" d="M 463.9,124.4 L 478.4,132.7" style="fill:none;fill-rule:evenodd;stroke:#000000;stroke-width:2.0px;stroke-linecap:butt;stroke-linejoin:miter;stroke-opacity:1"/>
<path class="atom-0" d="M 264.4 131.5 L 266.7 135.3 Q 266.9 135.7, 267.3 136.3 Q 267.6 137.0, 267.7 137.0 L 267.7 131.5 L 268.6 131.5 L 268.6 138.6 L 267.6 138.6 L 265.1 134.5 Q 264.9 134.0, 264.5 133.5 Q 264.2 132.9, 264.2 132.8 L 264.2 138.6 L 263.2 138.6 L 263.2 131.5 L 264.4 131.5 " fill="#000000"/>
<path class="atom-0" d="M 269.4 132.8 L 270.7 132.8 L 270.7 131.5 L 271.2 131.5 L 271.2 132.8 L 272.5 132.8 L 272.5 133.3 L 271.2 133.3 L 271.2 134.6 L 270.7 134.6 L 270.7 133.3 L 269.4 133.3 L 269.4 132.8 " fill="#000000"/>
<path class="atom-1" d="M 285.6 125.0 Q 285.7 125.0, 286.0 125.2 Q 286.3 125.3, 286.7 125.4 Q 287.0 125.5, 287.4 125.5 Q 288.1 125.5, 288.5 125.2 Q 288.9 124.8, 288.9 124.3 Q 288.9 123.9, 288.7 123.6 Q 288.5 123.4, 288.2 123.3 Q 287.9 123.1, 287.4 123.0 Q 286.7 122.8, 286.4 122.6 Q 286.0 122.4, 285.7 122.1 Q 285.5 121.7, 285.5 121.0 Q 285.5 120.1, 286.1 119.6 Q 286.7 119.0, 287.9 119.0 Q 288.7 119.0, 289.6 119.4 L 289.4 120.2 Q 288.5 119.9, 287.9 119.9 Q 287.2 119.9, 286.8 120.1 Q 286.4 120.4, 286.5 120.9 Q 286.5 121.3, 286.6 121.5 Q 286.8 121.8, 287.1 121.9 Q 287.4 122.0, 287.9 122.2 Q 288.5 122.4, 288.9 122.6 Q 289.3 122.8, 289.6 123.2 Q 289.8 123.6, 289.8 124.3 Q 289.8 125.2, 289.2 125.8 Q 288.5 126.3, 287.4 126.3 Q 286.8 126.3, 286.3 126.2 Q 285.9 126.0, 285.3 125.8 L 285.6 125.0 " fill="#000000"/>
<path class="atom-1" d="M 290.3 120.2 L 291.6 120.2 L 291.6 118.9 L 292.1 118.9 L 292.1 120.2 L 293.4 120.2 L 293.4 120.7 L 292.1 120.7 L 292.1 122.0 L 291.6 122.0 L 291.6 120.7 L 290.3 120.7 L 290.3 120.2 " fill="#000000"/>
<path class="atom-3" d="M 329.3 119.0 L 331.6 122.8 Q 331.9 123.2, 332.2 123.8 Q 332.6 124.5, 332.6 124.5 L 332.6 119.0 L 333.6 119.0 L 333.6 126.1 L 332.6 126.1 L 330.1 122.0 Q 329.8 121.5, 329.5 121.0 Q 329.2 120.4, 329.1 120.3 L 329.1 126.1 L 328.2 126.1 L 328.2 119.0 L 329.3 119.0 " fill="#000000"/>
<path class="atom-4" d="M 349.3 135.1 Q 349.3 133.4, 350.1 132.4 Q 351.0 131.5, 352.5 131.5 Q 354.1 131.5, 355.0 132.4 Q 355.8 133.4, 355.8 135.1 Q 355.8 136.8, 354.9 137.8 Q 354.1 138.8, 352.5 138.8 Q 351.0 138.8, 350.1 137.8 Q 349.3 136.8, 349.3 135.1 M 352.5 138.0 Q 353.6 138.0, 354.2 137.2 Q 354.8 136.5, 354.8 135.1 Q 354.8 133.7, 354.2 133.0 Q 353.6 132.3, 352.5 132.3 Q 351.5 132.3, 350.9 133.0 Q 350.3 133.7, 350.3 135.1 Q 350.3 136.5, 350.9 137.2 Q 351.5 138.0, 352.5 138.0 " fill="#000000"/>
<path class="atom-4" d="M 356.3 132.8 L 357.5 132.8 L 357.5 131.4 L 358.1 131.4 L 358.1 132.8 L 359.4 132.8 L 359.4 133.2 L 358.1 133.2 L 358.1 134.6 L 357.5 134.6 L 357.5 133.2 L 356.3 133.2 L 356.3 132.8 " fill="#000000"/>
<path class="atom-5" d="M 372.6 119.0 L 374.9 122.8 Q 375.2 123.2, 375.5 123.8 Q 375.9 124.5, 375.9 124.5 L 375.9 119.0 L 376.9 119.0 L 376.9 126.1 L 375.9 126.1 L 373.4 122.0 Q 373.1 121.5, 372.8 121.0 Q 372.5 120.4, 372.4 120.3 L 372.4 126.1 L 371.5 126.1 L 371.5 119.0 L 372.6 119.0 " fill="#000000"/>
<path class="atom-5" d="M 371.4 111.2 L 372.4 111.2 L 372.4 114.3 L 376.0 114.3 L 376.0 111.2 L 377.0 111.2 L 377.0 118.3 L 376.0 118.3 L 376.0 115.1 L 372.4 115.1 L 372.4 118.3 L 371.4 118.3 L 371.4 111.2 " fill="#000000"/>
<path class="atom-5" d="M 377.8 118.1 Q 378.0 117.6, 378.4 117.4 Q 378.8 117.1, 379.4 117.1 Q 380.1 117.1, 380.5 117.5 Q 380.9 117.9, 380.9 118.6 Q 380.9 119.3, 380.4 119.9 Q 379.9 120.6, 378.8 121.3 L 381.0 121.3 L 381.0 121.9 L 377.8 121.9 L 377.8 121.4 Q 378.7 120.8, 379.2 120.3 Q 379.7 119.9, 380.0 119.5 Q 380.2 119.0, 380.2 118.6 Q 380.2 118.2, 380.0 117.9 Q 379.8 117.7, 379.4 117.7 Q 379.0 117.7, 378.8 117.8 Q 378.5 118.0, 378.3 118.3 L 377.8 118.1 " fill="#000000"/>
<path class="atom-5" d="M 377.8 112.5 L 379.1 112.5 L 379.1 111.2 L 379.6 111.2 L 379.6 112.5 L 380.9 112.5 L 380.9 113.0 L 379.6 113.0 L 379.6 114.3 L 379.1 114.3 L 379.1 113.0 L 377.8 113.0 L 377.8 112.5 " fill="#000000"/>
<path class="atom-6" d="M 392.6 135.1 Q 392.6 133.4, 393.4 132.4 Q 394.3 131.5, 395.8 131.5 Q 397.4 131.5, 398.3 132.4 Q 399.1 133.4, 399.1 135.1 Q 399.1 136.8, 398.2 137.8 Q 397.4 138.8, 395.8 138.8 Q 394.3 138.8, 393.4 137.8 Q 392.6 136.8, 392.6 135.1 M 395.8 138.0 Q 396.9 138.0, 397.5 137.2 Q 398.1 136.5, 398.1 135.1 Q 398.1 133.7, 397.5 133.0 Q 396.9 132.3, 395.8 132.3 Q 394.8 132.3, 394.2 133.0 Q 393.6 133.7, 393.6 135.1 Q 393.6 136.5, 394.2 137.2 Q 394.8 138.0, 395.8 138.0 " fill="#000000"/>
<path class="atom-7" d="M 415.5 125.0 Q 415.6 125.0, 415.9 125.2 Q 416.2 125.3, 416.6 125.4 Q 417.0 125.5, 417.3 125.5 Q 418.0 125.5, 418.4 125.2 Q 418.8 124.8, 418.8 124.3 Q 418.8 123.9, 418.6 123.6 Q 418.4 123.4, 418.1 123.3 Q 417.8 123.1, 417.3 123.0 Q 416.7 122.8, 416.3 122.6 Q 415.9 122.4, 415.6 122.1 Q 415.4 121.7, 415.4 121.0 Q 415.4 120.1, 416.0 119.6 Q 416.6 119.0, 417.8 119.0 Q 418.6 119.0, 419.5 119.4 L 419.3 120.2 Q 418.5 119.9, 417.8 119.9 Q 417.1 119.9, 416.8 120.1 Q 416.4 120.4, 416.4 120.9 Q 416.4 121.3, 416.6 121.5 Q 416.8 121.8, 417.1 121.9 Q 417.3 122.0, 417.8 122.2 Q 418.5 122.4, 418.8 122.6 Q 419.2 122.8, 419.5 123.2 Q 419.8 123.6, 419.8 124.3 Q 419.8 125.2, 419.1 125.8 Q 418.5 126.3, 417.4 126.3 Q 416.7 126.3, 416.3 126.2 Q 415.8 126.0, 415.2 125.8 L 415.5 125.0 " fill="#000000"/>
<path class="atom-8" d="M 437.2 137.5 Q 437.2 137.5, 437.6 137.7 Q 437.9 137.8, 438.3 137.9 Q 438.6 138.0, 439.0 138.0 Q 439.7 138.0, 440.0 137.7 Q 440.4 137.3, 440.4 136.8 Q 440.4 136.4, 440.2 136.1 Q 440.0 135.9, 439.7 135.8 Q 439.4 135.6, 438.9 135.5 Q 438.3 135.3, 437.9 135.1 Q 437.6 134.9, 437.3 134.6 Q 437.0 134.2, 437.0 133.5 Q 437.0 132.6, 437.6 132.1 Q 438.2 131.5, 439.4 131.5 Q 440.3 131.5, 441.2 131.9 L 441.0 132.7 Q 440.1 132.4, 439.5 132.4 Q 438.8 132.4, 438.4 132.6 Q 438.0 132.9, 438.0 133.4 Q 438.0 133.8, 438.2 134.0 Q 438.4 134.3, 438.7 134.4 Q 439.0 134.5, 439.5 134.7 Q 440.1 134.9, 440.5 135.1 Q 440.9 135.3, 441.1 135.7 Q 441.4 136.1, 441.4 136.8 Q 441.4 137.7, 440.8 138.3 Q 440.1 138.8, 439.0 138.8 Q 438.4 138.8, 437.9 138.7 Q 437.4 138.5, 436.9 138.3 L 437.2 137.5 " fill="#000000"/>
<path class="atom-9" d="M 460.6 119.0 Q 461.8 119.0, 462.5 119.6 Q 463.1 120.1, 463.1 121.1 Q 463.1 122.1, 462.4 122.7 Q 461.8 123.2, 460.6 123.2 L 459.5 123.2 L 459.5 126.1 L 458.5 126.1 L 458.5 119.0 L 460.6 119.0 M 460.6 122.4 Q 461.3 122.4, 461.7 122.1 Q 462.1 121.7, 462.1 121.1 Q 462.1 120.5, 461.7 120.2 Q 461.3 119.8, 460.6 119.8 L 459.5 119.8 L 459.5 122.4 L 460.6 122.4 " fill="#000000"/>
<path class="atom-9" d="M 463.5 120.3 L 464.8 120.3 L 464.8 119.0 L 465.3 119.0 L 465.3 120.3 L 466.6 120.3 L 466.6 120.8 L 465.3 120.8 L 465.3 122.1 L 464.8 122.1 L 464.8 120.8 L 463.5 120.8 L 463.5 120.3 " fill="#000000"/>
<path class="atom-10" d="M 479.2 135.1 Q 479.2 133.4, 480.1 132.4 Q 480.9 131.5, 482.5 131.5 Q 484.0 131.5, 484.9 132.4 Q 485.7 133.4, 485.7 135.1 Q 485.7 136.8, 484.9 137.8 Q 484.0 138.8, 482.5 138.8 Q 480.9 138.8, 480.1 137.8 Q 479.2 136.8, 479.2 135.1 M 482.5 138.0 Q 483.5 138.0, 484.1 137.2 Q 484.7 136.5, 484.7 135.1 Q 484.7 133.7, 484.1 133.0 Q 483.5 132.3, 482.5 132.3 Q 481.4 132.3, 480.8 133.0 Q 480.2 133.7, 480.2 135.1 Q 480.2 136.5, 480.8 137.2 Q 481.4 138.0, 482.5 138.0 " fill="#000000"/>
<path class="atom-10" d="M 486.2 132.6 L 488.6 132.6 L 488.6 133.2 L 486.2 133.2 L 486.2 132.6 " fill="#000000"/>
<path class="atom-0" d="M 262.2,132.6 L 262.2,132.6 L 262.2,132.7 L 262.2,132.7 L 262.2,132.7 L 262.2,132.8 L 262.2,132.8 L 262.2,132.9 L 262.1,132.9 L 262.1,132.9 L 262.1,133.0 L 262.0,133.0 L 262.0,133.0 L 262.0,133.0 L 261.9,133.0 L 261.9,133.1 L 261.8,133.1 L 261.8,133.1 L 261.7,133.1 L 261.7,133.1 L 261.7,133.1 L 261.6,133.1 L 261.6,133.0 L 261.5,133.0 L 261.5,133.0 L 261.5,133.0 L 261.4,133.0 L 261.4,132.9 L 261.4,132.9 L 261.3,132.9 L 261.3,132.8 L 261.3,132.8 L 261.3,132.8 L 261.3,132.7 L 261.3,132.7 L 261.2,132.6 L 261.2,132.6 L 261.2,132.6 L 261.2,132.5 L 261.3,132.5 L 261.3,132.4 L 261.3,132.4 L 261.3,132.3 L 261.3,132.3 L 261.3,132.3 L 261.4,132.2 L 261.4,132.2 L 261.4,132.2 L 261.5,132.2 L 261.5,132.1 L 261.5,132.1 L 261.6,132.1 L 261.6,132.1 L 261.7,132.1 L 261.7,132.1 L 261.7,132.1 L 261.8,132.1 L 261.8,132.1 L 261.9,132.1 L 261.9,132.1 L 262.0,132.1 L 262.0,132.1 L 262.0,132.2 L 262.1,132.2 L 262.1,132.2 L 262.1,132.3 L 262.2,132.3 L 262.2,132.3 L 262.2,132.4 L 262.2,132.4 L 262.2,132.4 L 262.2,132.5 L 262.2,132.5 L 262.2,132.6 L 261.7,132.6 Z" style="fill:#000000;fill-rule:evenodd;fill-opacity:1;stroke:#000000;stroke-width:0.0px;stroke-linecap:butt;stroke-linejoin:miter;stroke-opacity:1;"/>
<path class="atom-0" d="M 262.2,137.6 L 262.2,137.6 L 262.2,137.7 L 262.2,137.7 L 262.2,137.7 L 262.2,137.8 L 262.2,137.8 L 262.2,137.9 L 262.1,137.9 L 262.1,137.9 L 262.1,138.0 L 262.0,138.0 L 262.0,138.0 L 262.0,138.0 L 261.9,138.0 L 261.9,138.1 L 261.8,138.1 L 261.8,138.1 L 261.7,138.1 L 261.7,138.1 L 261.7,138.1 L 261.6,138.1 L 261.6,138.0 L 261.5,138.0 L 261.5,138.0 L 261.5,138.0 L 261.4,138.0 L 261.4,137.9 L 261.4,137.9 L 261.3,137.9 L 261.3,137.8 L 261.3,137.8 L 261.3,137.8 L 261.3,137.7 L 261.3,137.7 L 261.2,137.6 L 261.2,137.6 L 261.2,137.6 L 261.2,137.5 L 261.3,137.5 L 261.3,137.4 L 261.3,137.4 L 261.3,137.3 L 261.3,137.3 L 261.3,137.3 L 261.4,137.2 L 261.4,137.2 L 261.4,137.2 L 261.5,137.2 L 261.5,137.1 L 261.5,137.1 L 261.6,137.1 L 261.6,137.1 L 261.7,137.1 L 261.7,137.1 L 261.7,137.1 L 261.8,137.1 L 261.8,137.1 L 261.9,137.1 L 261.9,137.1 L 262.0,137.1 L 262.0,137.1 L 262.0,137.2 L 262.1,137.2 L 262.1,137.2 L 262.1,137.3 L 262.2,137.3 L 262.2,137.3 L 262.2,137.4 L 262.2,137.4 L 262.2,137.4 L 262.2,137.5 L 262.2,137.5 L 262.2,137.6 L 261.7,137.6 Z" style="fill:#000000;fill-rule:evenodd;fill-opacity:1;stroke:#000000;stroke-width:0.0px;stroke-linecap:butt;stroke-linejoin:miter;stroke-opacity:1;"/>
<path class="atom-0" d="M 262.2,135.1 L 262.2,135.1 L 262.2,135.2 L 262.2,135.2 L 262.2,135.2 L 262.2,135.3 L 262.2,135.3 L 262.2,135.4 L 262.1,135.4 L 262.1,135.4 L 262.1,135.5 L 262.0,135.5 L 262.0,135.5 L 262.0,135.5 L 261.9,135.5 L 261.9,135.6 L 261.8,135.6 L 261.8,135.6 L 261.7,135.6 L 261.7,135.6 L 261.7,135.6 L 261.6,135.6 L 261.6,135.5 L 261.5,135.5 L 261.5,135.5 L 261.5,135.5 L 261.4,135.5 L 261.4,135.4 L 261.4,135.4 L 261.3,135.4 L 261.3,135.3 L 261.3,135.3 L 261.3,135.3 L 261.3,135.2 L 261.3,135.2 L 261.2,135.1 L 261.2,135.1 L 261.2,135.1 L 261.2,135.0 L 261.3,135.0 L 261.3,134.9 L 261.3,134.9 L 261.3,134.8 L 261.3,134.8 L 261.3,134.8 L 261.4,134.7 L 261.4,134.7 L 261.4,134.7 L 261.5,134.7 L 261.5,134.6 L 261.5,134.6 L 261.6,134.6 L 261.6,134.6 L 261.7,134.6 L 261.7,134.6 L 261.7,134.6 L 261.8,134.6 L 261.8,134.6 L 261.9,134.6 L 261.9,134.6 L 262.0,134.6 L 262.0,134.6 L 262.0,134.7 L 262.1,134.7 L 262.1,134.7 L 262.1,134.8 L 262.2,134.8 L 262.2,134.8 L 262.2,134.9 L 262.2,134.9 L 262.2,134.9 L 262.2,135.0 L 262.2,135.0 L 262.2,135.1 L 261.7,135.1 Z" style="fill:#000000;fill-rule:evenodd;fill-opacity:1;stroke:#000000;stroke-width:0.0px;stroke-linecap:butt;stroke-linejoin:miter;stroke-opacity:1;"/>
<path class="atom-1" d="M 288.1,118.1 L 288.1,118.2 L 288.1,118.2 L 288.1,118.3 L 288.0,118.3 L 288.0,118.4 L 288.0,118.4 L 288.0,118.4 L 288.0,118.5 L 287.9,118.5 L 287.9,118.5 L 287.9,118.6 L 287.8,118.6 L 287.8,118.6 L 287.8,118.6 L 287.7,118.6 L 287.7,118.6 L 287.6,118.6 L 287.6,118.6 L 287.5,118.6 L 287.5,118.6 L 287.5,118.6 L 287.4,118.6 L 287.4,118.6 L 287.3,118.6 L 287.3,118.6 L 287.3,118.5 L 287.2,118.5 L 287.2,118.5 L 287.2,118.5 L 287.2,118.4 L 287.1,118.4 L 287.1,118.3 L 287.1,118.3 L 287.1,118.3 L 287.1,118.2 L 287.1,118.2 L 287.1,118.1 L 287.1,118.1 L 287.1,118.0 L 287.1,118.0 L 287.1,118.0 L 287.1,117.9 L 287.2,117.9 L 287.2,117.8 L 287.2,117.8 L 287.2,117.8 L 287.3,117.8 L 287.3,117.7 L 287.3,117.7 L 287.4,117.7 L 287.4,117.7 L 287.5,117.7 L 287.5,117.7 L 287.5,117.7 L 287.6,117.6 L 287.6,117.7 L 287.7,117.7 L 287.7,117.7 L 287.8,117.7 L 287.8,117.7 L 287.8,117.7 L 287.9,117.7 L 287.9,117.8 L 287.9,117.8 L 288.0,117.8 L 288.0,117.9 L 288.0,117.9 L 288.0,117.9 L 288.0,118.0 L 288.1,118.0 L 288.1,118.1 L 288.1,118.1 L 288.1,118.1 L 287.6,118.1 Z" style="fill:#000000;fill-rule:evenodd;fill-opacity:1;stroke:#000000;stroke-width:0.0px;stroke-linecap:butt;stroke-linejoin:miter;stroke-opacity:1;"/>
<path class="atom-4" d="M 361.4,135.1 L 361.4,135.1 L 361.4,135.2 L 361.4,135.2 L 361.3,135.2 L 361.3,135.3 L 361.3,135.3 L 361.3,135.4 L 361.3,135.4 L 361.2,135.4 L 361.2,135.5 L 361.2,135.5 L 361.1,135.5 L 361.1,135.5 L 361.1,135.5 L 361.0,135.6 L 361.0,135.6 L 360.9,135.6 L 360.9,135.6 L 360.8,135.6 L 360.8,135.6 L 360.8,135.6 L 360.7,135.5 L 360.7,135.5 L 360.6,135.5 L 360.6,135.5 L 360.6,135.5 L 360.5,135.4 L 360.5,135.4 L 360.5,135.4 L 360.4,135.3 L 360.4,135.3 L 360.4,135.3 L 360.4,135.2 L 360.4,135.2 L 360.4,135.1 L 360.4,135.1 L 360.4,135.1 L 360.4,135.0 L 360.4,135.0 L 360.4,134.9 L 360.4,134.9 L 360.4,134.8 L 360.4,134.8 L 360.5,134.8 L 360.5,134.7 L 360.5,134.7 L 360.6,134.7 L 360.6,134.7 L 360.6,134.6 L 360.7,134.6 L 360.7,134.6 L 360.8,134.6 L 360.8,134.6 L 360.8,134.6 L 360.9,134.6 L 360.9,134.6 L 361.0,134.6 L 361.0,134.6 L 361.1,134.6 L 361.1,134.6 L 361.1,134.6 L 361.2,134.7 L 361.2,134.7 L 361.2,134.7 L 361.3,134.8 L 361.3,134.8 L 361.3,134.8 L 361.3,134.9 L 361.3,134.9 L 361.4,134.9 L 361.4,135.0 L 361.4,135.0 L 361.4,135.1 L 360.9,135.1 Z" style="fill:#000000;fill-rule:evenodd;fill-opacity:1;stroke:#000000;stroke-width:0.0px;stroke-linecap:butt;stroke-linejoin:miter;stroke-opacity:1;"/>
<path class="atom-8" d="M 443.4,135.1 L 443.4,135.1 L 443.4,135.2 L 443.4,135.2 L 443.4,135.2 L 443.4,135.3 L 443.4,135.3 L 443.3,135.4 L 443.3,135.4 L 443.3,135.4 L 443.3,135.5 L 443.2,135.5 L 443.2,135.5 L 443.1,135.5 L 443.1,135.5 L 443.1,135.6 L 443.0,135.6 L 443.0,135.6 L 442.9,135.6 L 442.9,135.6 L 442.9,135.6 L 442.8,135.6 L 442.8,135.5 L 442.7,135.5 L 442.7,135.5 L 442.7,135.5 L 442.6,135.5 L 442.6,135.4 L 442.6,135.4 L 442.5,135.4 L 442.5,135.3 L 442.5,135.3 L 442.5,135.3 L 442.4,135.2 L 442.4,135.2 L 442.4,135.1 L 442.4,135.1 L 442.4,135.1 L 442.4,135.0 L 442.4,135.0 L 442.4,134.9 L 442.5,134.9 L 442.5,134.8 L 442.5,134.8 L 442.5,134.8 L 442.6,134.7 L 442.6,134.7 L 442.6,134.7 L 442.7,134.7 L 442.7,134.6 L 442.7,134.6 L 442.8,134.6 L 442.8,134.6 L 442.9,134.6 L 442.9,134.6 L 442.9,134.6 L 443.0,134.6 L 443.0,134.6 L 443.1,134.6 L 443.1,134.6 L 443.1,134.6 L 443.2,134.6 L 443.2,134.7 L 443.3,134.7 L 443.3,134.7 L 443.3,134.8 L 443.3,134.8 L 443.4,134.8 L 443.4,134.9 L 443.4,134.9 L 443.4,134.9 L 443.4,135.0 L 443.4,135.0 L 443.4,135.1 L 442.9,135.1 Z" style="fill:#000000;fill-rule:evenodd;fill-opacity:1;stroke:#000000;stroke-width:0.0px;stroke-linecap:butt;stroke-linejoin:miter;stroke-opacity:1;"/>
<path class="atom-9" d="M 461.3,118.2 L 461.3,118.3 L 461.3,118.3 L 461.3,118.4 L 461.3,118.4 L 461.3,118.5 L 461.2,118.5 L 461.2,118.5 L 461.2,118.6 L 461.2,118.6 L 461.1,118.6 L 461.1,118.7 L 461.1,118.7 L 461.0,118.7 L 461.0,118.7 L 460.9,118.7 L 460.9,118.7 L 460.9,118.7 L 460.8,118.7 L 460.8,118.7 L 460.7,118.7 L 460.7,118.7 L 460.7,118.7 L 460.6,118.7 L 460.6,118.7 L 460.5,118.7 L 460.5,118.6 L 460.5,118.6 L 460.4,118.6 L 460.4,118.5 L 460.4,118.5 L 460.4,118.5 L 460.3,118.4 L 460.3,118.4 L 460.3,118.4 L 460.3,118.3 L 460.3,118.3 L 460.3,118.2 L 460.3,118.2 L 460.3,118.1 L 460.3,118.1 L 460.3,118.1 L 460.4,118.0 L 460.4,118.0 L 460.4,117.9 L 460.4,117.9 L 460.5,117.9 L 460.5,117.9 L 460.5,117.8 L 460.6,117.8 L 460.6,117.8 L 460.7,117.8 L 460.7,117.8 L 460.7,117.7 L 460.8,117.7 L 460.8,117.7 L 460.9,117.7 L 460.9,117.8 L 460.9,117.8 L 461.0,117.8 L 461.0,117.8 L 461.1,117.8 L 461.1,117.8 L 461.1,117.9 L 461.2,117.9 L 461.2,117.9 L 461.2,118.0 L 461.2,118.0 L 461.3,118.0 L 461.3,118.1 L 461.3,118.1 L 461.3,118.2 L 461.3,118.2 L 461.3,118.2 L 460.8,118.2 Z" style="fill:#000000;fill-rule:evenodd;fill-opacity:1;stroke:#000000;stroke-width:0.0px;stroke-linecap:butt;stroke-linejoin:miter;stroke-opacity:1;"/>
<path class="bond-0 atom-0 atom-1" d="M 695.2,124.6 L 576.2,124.6" style="fill:none;fill-rule:evenodd;stroke:#000000;stroke-width:2.0px;stroke-linecap:butt;stroke-linejoin:miter;stroke-opacity:1"/>
<path class="atom-0" d="M 701.2 134.4 Q 701.5 134.5, 702.8 135.0 Q 704.2 135.6, 705.6 136.0 Q 707.1 136.3, 708.5 136.3 Q 711.2 136.3, 712.8 135.0 Q 714.3 133.7, 714.3 131.4 Q 714.3 129.8, 713.5 128.9 Q 712.8 127.9, 711.6 127.4 Q 710.4 126.9, 708.4 126.3 Q 705.8 125.5, 704.3 124.8 Q 702.8 124.1, 701.8 122.6 Q 700.7 121.0, 700.7 118.5 Q 700.7 114.9, 703.1 112.7 Q 705.6 110.5, 710.4 110.5 Q 713.6 110.5, 717.4 112.1 L 716.4 115.2 Q 713.0 113.8, 710.5 113.8 Q 707.7 113.8, 706.2 114.9 Q 704.7 116.0, 704.7 118.0 Q 704.7 119.5, 705.5 120.4 Q 706.3 121.4, 707.4 121.9 Q 708.6 122.4, 710.5 123.0 Q 713.0 123.8, 714.6 124.6 Q 716.1 125.4, 717.2 127.0 Q 718.3 128.6, 718.3 131.4 Q 718.3 135.3, 715.6 137.4 Q 713.0 139.5, 708.7 139.5 Q 706.2 139.5, 704.2 139.0 Q 702.4 138.4, 700.1 137.5 L 701.2 134.4 " fill="#000000"/>
<path class="atom-1" d="M 524.2 110.5 L 528.1 110.5 L 528.1 122.5 L 542.5 122.5 L 542.5 110.5 L 546.4 110.5 L 546.4 138.8 L 542.5 138.8 L 542.5 125.7 L 528.1 125.7 L 528.1 138.8 L 524.2 138.8 L 524.2 110.5 " fill="#000000"/>
<path class="atom-1" d="M 554.3 110.5 L 563.5 125.5 Q 564.5 127.0, 565.9 129.6 Q 567.4 132.3, 567.5 132.5 L 567.5 110.5 L 571.3 110.5 L 571.3 138.8 L 567.4 138.8 L 557.4 122.4 Q 556.3 120.5, 555.0 118.3 Q 553.8 116.1, 553.5 115.4 L 553.5 138.8 L 549.8 138.8 L 549.8 110.5 L 554.3 110.5 " fill="#000000"/>
<path class="atom-1" d="M 574.6 115.2 L 584.3 115.2 L 584.3 117.3 L 574.6 117.3 L 574.6 115.2 " fill="#000000"/>
<path class="atom-0" d="M 726.3,124.6 L 726.3,124.8 L 726.2,125.0 L 726.2,125.2 L 726.2,125.3 L 726.1,125.5 L 726.0,125.6 L 725.9,125.8 L 725.8,125.9 L 725.7,126.0 L 725.6,126.2 L 725.4,126.3 L 725.3,126.4 L 725.1,126.4 L 725.0,126.5 L 724.8,126.6 L 724.7,126.6 L 724.5,126.6 L 724.3,126.6 L 724.1,126.6 L 724.0,126.6 L 723.8,126.6 L 723.6,126.5 L 723.5,126.5 L 723.3,126.4 L 723.2,126.3 L 723.0,126.2 L 722.9,126.1 L 722.8,126.0 L 722.7,125.8 L 722.6,125.7 L 722.5,125.6 L 722.4,125.4 L 722.4,125.2 L 722.3,125.1 L 722.3,124.9 L 722.3,124.7 L 722.3,124.6 L 722.3,124.4 L 722.3,124.2 L 722.4,124.0 L 722.4,123.9 L 722.5,123.7 L 722.6,123.6 L 722.7,123.4 L 722.8,123.3 L 722.9,123.2 L 723.0,123.1 L 723.2,123.0 L 723.3,122.9 L 723.5,122.8 L 723.6,122.7 L 723.8,122.7 L 724.0,122.7 L 724.1,122.6 L 724.3,122.6 L 724.5,122.7 L 724.7,122.7 L 724.8,122.7 L 725.0,122.8 L 725.1,122.8 L 725.3,122.9 L 725.4,123.0 L 725.6,123.1 L 725.7,123.2 L 725.8,123.4 L 725.9,123.5 L 726.0,123.7 L 726.1,123.8 L 726.2,124.0 L 726.2,124.1 L 726.2,124.3 L 726.3,124.5 L 726.3,124.6 L 724.3,124.6 Z" style="fill:#000000;fill-rule:evenodd;fill-opacity:1;stroke:#000000;stroke-width:0.0px;stroke-linecap:butt;stroke-linejoin:miter;stroke-opacity:1;"/>
<path class="bond-0 atom-0 atom-1" d="M 155.1,411.2 L 129.8,422.6" style="fill:none;fill-rule:evenodd;stroke:#000000;stroke-width:2.0px;stroke-linecap:butt;stroke-linejoin:miter;stroke-opacity:1"/>
<path class="bond-1 atom-1 atom-2" d="M 120.2,423.8 L 102.2,420.0" style="fill:none;fill-rule:evenodd;stroke:#000000;stroke-width:2.0px;stroke-linecap:butt;stroke-linejoin:miter;stroke-opacity:1"/>
<path class="bond-2 atom-2 atom-3" d="M 82.8,423.7 L 71.3,443.9" style="fill:none;fill-rule:evenodd;stroke:#000000;stroke-width:2.0px;stroke-linecap:butt;stroke-linejoin:miter;stroke-opacity:1"/>
<path class="bond-3 atom-2 atom-4" d="M 81.2,410.8 L 65.2,393.2" style="fill:none;fill-rule:evenodd;stroke:#000000;stroke-width:2.0px;stroke-linecap:butt;stroke-linejoin:miter;stroke-opacity:1"/>
<path class="bond-4 atom-4 atom-5" d="M 59.7,381.1 L 56.9,355.9" style="fill:none;fill-rule:evenodd;stroke:#000000;stroke-width:2.0px;stroke-linecap:butt;stroke-linejoin:miter;stroke-opacity:1"/>
<path class="bond-5 atom-5 atom-6" d="M 50.6,347.9 L 22.7,342.1" style="fill:none;fill-rule:evenodd;stroke:#000000;stroke-width:2.0px;stroke-linecap:butt;stroke-linejoin:miter;stroke-opacity:1"/>
<path class="bond-6 atom-5 atom-7" d="M 60.0,342.3 L 75.5,315.1" style="fill:none;fill-rule:evenodd;stroke:#000000;stroke-width:2.0px;stroke-linecap:butt;stroke-linejoin:miter;stroke-opacity:1"/>
<path class="bond-7 atom-7 atom-8" d="M 75.5,315.1 L 104.7,301.9" style="fill:none;fill-rule:evenodd;stroke:#000000;stroke-width:2.0px;stroke-linecap:butt;stroke-linejoin:miter;stroke-opacity:1"/>
<path class="bond-8 atom-8 atom-9" d="M 117.5,300.4 L 143.9,305.8" style="fill:none;fill-rule:evenodd;stroke:#000000;stroke-width:2.0px;stroke-linecap:butt;stroke-linejoin:miter;stroke-opacity:1"/>
<path class="bond-9 atom-9 atom-10" d="M 154.9,313.0 L 170.2,329.9" style="fill:none;fill-rule:evenodd;stroke:#000000;stroke-width:2.0px;stroke-linecap:butt;stroke-linejoin:miter;stroke-opacity:1"/>
<path class="bond-9 atom-9 atom-10" d="M 162.9,310.3 L 173.7,322.1" style="fill:none;fill-rule:evenodd;stroke:#000000;stroke-width:2.0px;stroke-linecap:butt;stroke-linejoin:miter;stroke-opacity:1"/>
<path class="bond-9 atom-9 atom-10" d="M 151.4,320.8 L 162.1,332.6" style="fill:none;fill-rule:evenodd;stroke:#000000;stroke-width:2.0px;stroke-linecap:butt;stroke-linejoin:miter;stroke-opacity:1"/>
<path class="bond-10 atom-10 atom-11" d="M 176.4,342.7 L 180.0,374.7" style="fill:none;fill-rule:evenodd;stroke:#000000;stroke-width:2.0px;stroke-linecap:butt;stroke-linejoin:miter;stroke-opacity:1"/>
<path class="bond-11 atom-11 atom-12" d="M 180.0,374.7 L 212.8,381.5" style="fill:none;fill-rule:evenodd;stroke:#000000;stroke-width:2.0px;stroke-linecap:butt;stroke-linejoin:miter;stroke-opacity:1"/>
<path class="bond-12 atom-11 atom-0" d="M 180.0,374.7 L 164.5,401.9" style="fill:none;fill-rule:evenodd;stroke:#000000;stroke-width:2.0px;stroke-linecap:butt;stroke-linejoin:miter;stroke-opacity:1"/>
<path class="atom-0" d="M 158.2 403.1 L 161.8 409.0 Q 162.1 409.6, 162.7 410.6 Q 163.3 411.7, 163.3 411.7 L 163.3 403.1 L 164.8 403.1 L 164.8 414.2 L 163.3 414.2 L 159.4 407.8 Q 158.9 407.1, 158.4 406.2 Q 158.0 405.3, 157.8 405.1 L 157.8 414.2 L 156.4 414.2 L 156.4 403.1 L 158.2 403.1 " fill="#000000"/>
<path class="atom-0" d="M 166.1 403.1 L 167.6 403.1 L 167.6 407.9 L 173.3 407.9 L 173.3 403.1 L 174.8 403.1 L 174.8 414.2 L 173.3 414.2 L 173.3 409.1 L 167.6 409.1 L 167.6 414.2 L 166.1 414.2 L 166.1 403.1 " fill="#000000"/>
<path class="atom-0" d="M 176.1 413.8 Q 176.4 413.1, 177.0 412.8 Q 177.7 412.4, 178.5 412.4 Q 179.6 412.4, 180.3 413.0 Q 180.9 413.6, 180.9 414.6 Q 180.9 415.7, 180.1 416.7 Q 179.3 417.7, 177.6 418.9 L 181.0 418.9 L 181.0 419.8 L 176.1 419.8 L 176.1 419.1 Q 177.4 418.1, 178.3 417.4 Q 179.1 416.6, 179.5 416.0 Q 179.9 415.3, 179.9 414.7 Q 179.9 414.0, 179.5 413.6 Q 179.1 413.2, 178.5 413.2 Q 178.0 413.2, 177.6 413.4 Q 177.2 413.7, 176.9 414.2 L 176.1 413.8 " fill="#000000"/>
<path class="atom-0" d="M 176.1 405.1 L 178.1 405.1 L 178.1 403.1 L 179.0 403.1 L 179.0 405.1 L 181.0 405.1 L 181.0 405.9 L 179.0 405.9 L 179.0 408.0 L 178.1 408.0 L 178.1 405.9 L 176.1 405.9 L 176.1 405.1 " fill="#000000"/>
<path class="atom-1" d="M 124.7 419.2 Q 126.6 419.2, 127.6 420.1 Q 128.5 420.9, 128.5 422.5 Q 128.5 424.0, 127.5 424.9 Q 126.6 425.7, 124.7 425.7 L 122.9 425.7 L 122.9 430.3 L 121.4 430.3 L 121.4 419.2 L 124.7 419.2 M 124.7 424.5 Q 125.8 424.5, 126.4 424.0 Q 126.9 423.5, 126.9 422.5 Q 126.9 421.5, 126.4 421.0 Q 125.8 420.5, 124.7 420.5 L 122.9 420.5 L 122.9 424.5 L 124.7 424.5 " fill="#000000"/>
<path class="atom-1" d="M 120.6 431.4 L 122.1 431.4 L 122.1 436.1 L 127.8 436.1 L 127.8 431.4 L 129.3 431.4 L 129.3 442.5 L 127.8 442.5 L 127.8 437.4 L 122.1 437.4 L 122.1 442.5 L 120.6 442.5 L 120.6 431.4 " fill="#000000"/>
<path class="atom-2" d="M 84.3 411.3 L 87.9 417.2 Q 88.2 417.7, 88.8 418.8 Q 89.4 419.8, 89.4 419.9 L 89.4 411.3 L 90.9 411.3 L 90.9 422.4 L 89.4 422.4 L 85.5 416.0 Q 85.0 415.2, 84.6 414.3 Q 84.1 413.5, 83.9 413.2 L 83.9 422.4 L 82.5 422.4 L 82.5 411.3 L 84.3 411.3 " fill="#000000"/>
<path class="atom-2" d="M 92.2 411.3 L 93.7 411.3 L 93.7 416.0 L 99.4 416.0 L 99.4 411.3 L 100.9 411.3 L 100.9 422.4 L 99.4 422.4 L 99.4 417.3 L 93.7 417.3 L 93.7 422.4 L 92.2 422.4 L 92.2 411.3 " fill="#000000"/>
<path class="atom-2" d="M 102.2 413.3 L 104.1 413.3 L 104.1 411.2 L 105.0 411.2 L 105.0 413.3 L 107.0 413.3 L 107.0 414.0 L 105.0 414.0 L 105.0 416.1 L 104.1 416.1 L 104.1 414.0 L 102.2 414.0 L 102.2 413.3 " fill="#000000"/>
<path class="atom-3" d="M 62.3 450.8 Q 62.3 448.2, 63.6 446.7 Q 64.9 445.2, 67.3 445.2 Q 69.8 445.2, 71.1 446.7 Q 72.4 448.2, 72.4 450.8 Q 72.4 453.5, 71.1 455.0 Q 69.8 456.6, 67.3 456.6 Q 64.9 456.6, 63.6 455.0 Q 62.3 453.5, 62.3 450.8 M 67.3 455.3 Q 69.0 455.3, 69.9 454.2 Q 70.9 453.0, 70.9 450.8 Q 70.9 448.6, 69.9 447.5 Q 69.0 446.4, 67.3 446.4 Q 65.6 446.4, 64.7 447.5 Q 63.8 448.6, 63.8 450.8 Q 63.8 453.1, 64.7 454.2 Q 65.6 455.3, 67.3 455.3 " fill="#000000"/>
<path class="atom-3" d="M 73.2 447.0 L 77.0 447.0 L 77.0 447.8 L 73.2 447.8 L 73.2 447.0 " fill="#000000"/>
<path class="atom-4" d="M 57.3 391.7 Q 57.4 391.8, 57.9 392.0 Q 58.4 392.2, 59.0 392.3 Q 59.6 392.5, 60.1 392.5 Q 61.2 392.5, 61.8 392.0 Q 62.4 391.5, 62.4 390.6 Q 62.4 390.0, 62.1 389.6 Q 61.8 389.2, 61.3 389.0 Q 60.9 388.8, 60.1 388.6 Q 59.1 388.3, 58.5 388.0 Q 57.9 387.7, 57.5 387.1 Q 57.1 386.5, 57.1 385.5 Q 57.1 384.1, 58.0 383.3 Q 59.0 382.4, 60.9 382.4 Q 62.1 382.4, 63.6 383.0 L 63.2 384.2 Q 61.9 383.7, 60.9 383.7 Q 59.8 383.7, 59.2 384.1 Q 58.6 384.6, 58.7 385.3 Q 58.7 385.9, 58.9 386.3 Q 59.3 386.6, 59.7 386.8 Q 60.2 387.0, 60.9 387.3 Q 61.9 387.6, 62.5 387.9 Q 63.1 388.2, 63.5 388.9 Q 64.0 389.5, 64.0 390.6 Q 64.0 392.1, 62.9 392.9 Q 61.9 393.7, 60.2 393.7 Q 59.2 393.7, 58.5 393.5 Q 57.7 393.3, 56.9 393.0 L 57.3 391.7 " fill="#000000"/>
<path class="atom-5" d="M 53.7 343.5 L 57.3 349.4 Q 57.7 350.0, 58.2 351.0 Q 58.8 352.1, 58.8 352.1 L 58.8 343.5 L 60.3 343.5 L 60.3 354.6 L 58.8 354.6 L 54.9 348.2 Q 54.5 347.4, 54.0 346.6 Q 53.5 345.7, 53.4 345.5 L 53.4 354.6 L 51.9 354.6 L 51.9 343.5 L 53.7 343.5 " fill="#000000"/>
<path class="atom-5" d="M 61.6 343.5 L 63.1 343.5 L 63.1 348.2 L 68.8 348.2 L 68.8 343.5 L 70.3 343.5 L 70.3 354.6 L 68.8 354.6 L 68.8 349.5 L 63.1 349.5 L 63.1 354.6 L 61.6 354.6 L 61.6 343.5 " fill="#000000"/>
<path class="atom-5" d="M 71.6 345.5 L 73.6 345.5 L 73.6 343.5 L 74.4 343.5 L 74.4 345.5 L 76.4 345.5 L 76.4 346.3 L 74.4 346.3 L 74.4 348.3 L 73.6 348.3 L 73.6 346.3 L 71.6 346.3 L 71.6 345.5 " fill="#000000"/>
<path class="atom-6" d="M 14.7 344.9 Q 14.8 345.0, 15.4 345.2 Q 15.9 345.4, 16.4 345.6 Q 17.0 345.7, 17.6 345.7 Q 18.6 345.7, 19.2 345.2 Q 19.8 344.7, 19.8 343.8 Q 19.8 343.2, 19.5 342.8 Q 19.2 342.4, 18.8 342.2 Q 18.3 342.0, 17.5 341.8 Q 16.5 341.5, 15.9 341.2 Q 15.4 340.9, 14.9 340.3 Q 14.5 339.7, 14.5 338.7 Q 14.5 337.3, 15.5 336.5 Q 16.4 335.6, 18.3 335.6 Q 19.6 335.6, 21.0 336.2 L 20.7 337.4 Q 19.3 336.9, 18.3 336.9 Q 17.3 336.9, 16.7 337.3 Q 16.1 337.8, 16.1 338.6 Q 16.1 339.1, 16.4 339.5 Q 16.7 339.9, 17.1 340.1 Q 17.6 340.3, 18.3 340.5 Q 19.3 340.8, 19.9 341.1 Q 20.5 341.4, 21.0 342.1 Q 21.4 342.7, 21.4 343.8 Q 21.4 345.3, 20.4 346.1 Q 19.3 347.0, 17.6 347.0 Q 16.7 347.0, 15.9 346.7 Q 15.2 346.5, 14.3 346.2 L 14.7 344.9 " fill="#000000"/>
<path class="atom-8" d="M 106.0 299.1 Q 106.0 296.4, 107.3 294.9 Q 108.7 293.4, 111.1 293.4 Q 113.6 293.4, 114.9 294.9 Q 116.2 296.4, 116.2 299.1 Q 116.2 301.8, 114.9 303.3 Q 113.5 304.8, 111.1 304.8 Q 108.7 304.8, 107.3 303.3 Q 106.0 301.8, 106.0 299.1 M 111.1 303.6 Q 112.8 303.6, 113.7 302.4 Q 114.6 301.3, 114.6 299.1 Q 114.6 296.9, 113.7 295.8 Q 112.8 294.7, 111.1 294.7 Q 109.4 294.7, 108.5 295.8 Q 107.6 296.9, 107.6 299.1 Q 107.6 301.3, 108.5 302.4 Q 109.4 303.6, 111.1 303.6 " fill="#000000"/>
<path class="atom-9" d="M 146.9 301.4 L 150.6 307.3 Q 150.9 307.9, 151.5 308.9 Q 152.1 310.0, 152.1 310.0 L 152.1 301.4 L 153.6 301.4 L 153.6 312.5 L 152.1 312.5 L 148.2 306.1 Q 147.7 305.3, 147.2 304.5 Q 146.8 303.6, 146.6 303.4 L 146.6 312.5 L 145.2 312.5 L 145.2 301.4 L 146.9 301.4 " fill="#000000"/>
<path class="atom-9" d="M 154.9 303.4 L 156.8 303.4 L 156.8 301.4 L 157.7 301.4 L 157.7 303.4 L 159.7 303.4 L 159.7 304.2 L 157.7 304.2 L 157.7 306.2 L 156.8 306.2 L 156.8 304.2 L 154.9 304.2 L 154.9 303.4 " fill="#000000"/>
<path class="atom-10" d="M 173.2 330.4 L 176.9 336.2 Q 177.2 336.8, 177.8 337.8 Q 178.4 338.9, 178.4 338.9 L 178.4 330.4 L 179.9 330.4 L 179.9 341.4 L 178.4 341.4 L 174.5 335.0 Q 174.0 334.3, 173.5 333.4 Q 173.1 332.5, 172.9 332.3 L 172.9 341.4 L 171.5 341.4 L 171.5 330.4 L 173.2 330.4 " fill="#000000"/>
<path class="atom-10" d="M 181.2 332.3 L 183.1 332.3 L 183.1 330.3 L 184.0 330.3 L 184.0 332.3 L 186.0 332.3 L 186.0 333.1 L 184.0 333.1 L 184.0 335.2 L 183.1 335.2 L 183.1 333.1 L 181.2 333.1 L 181.2 332.3 " fill="#000000"/>
<path class="atom-12" d="M 215.8 377.1 L 219.4 383.0 Q 219.8 383.6, 220.4 384.6 Q 220.9 385.7, 221.0 385.7 L 221.0 377.1 L 222.4 377.1 L 222.4 388.2 L 220.9 388.2 L 217.0 381.8 Q 216.6 381.0, 216.1 380.2 Q 215.6 379.3, 215.5 379.1 L 215.5 388.2 L 214.0 388.2 L 214.0 377.1 L 215.8 377.1 " fill="#000000"/>
<path class="atom-12" d="M 223.7 377.1 L 225.2 377.1 L 225.2 381.8 L 230.9 381.8 L 230.9 377.1 L 232.4 377.1 L 232.4 388.2 L 230.9 388.2 L 230.9 383.1 L 225.2 383.1 L 225.2 388.2 L 223.7 388.2 L 223.7 377.1 " fill="#000000"/>
<path class="atom-12" d="M 237.2 389.9 Q 237.9 390.1, 238.3 390.6 Q 238.6 391.0, 238.6 391.7 Q 238.6 392.3, 238.3 392.8 Q 238.0 393.3, 237.4 393.6 Q 236.9 393.8, 236.1 393.8 Q 235.4 393.8, 234.8 393.6 Q 234.2 393.3, 233.7 392.7 L 234.3 392.1 Q 234.8 392.6, 235.1 392.8 Q 235.5 393.0, 236.1 393.0 Q 236.8 393.0, 237.2 392.7 Q 237.6 392.3, 237.6 391.7 Q 237.6 391.0, 237.2 390.6 Q 236.8 390.3, 235.9 390.3 L 235.3 390.3 L 235.3 389.6 L 235.8 389.6 Q 236.6 389.6, 237.0 389.2 Q 237.4 388.9, 237.4 388.2 Q 237.4 387.7, 237.1 387.5 Q 236.7 387.2, 236.1 387.2 Q 235.5 387.2, 235.2 387.4 Q 234.8 387.6, 234.5 388.1 L 233.8 387.8 Q 234.0 387.2, 234.7 386.8 Q 235.3 386.3, 236.1 386.3 Q 237.2 386.3, 237.9 386.8 Q 238.5 387.4, 238.5 388.2 Q 238.5 388.8, 238.2 389.2 Q 237.8 389.6, 237.2 389.9 " fill="#000000"/>
<path class="atom-12" d="M 233.8 379.1 L 235.7 379.1 L 235.7 377.1 L 236.6 377.1 L 236.6 379.1 L 238.6 379.1 L 238.6 379.9 L 236.6 379.9 L 236.6 381.9 L 235.7 381.9 L 235.7 379.9 L 233.8 379.9 L 233.8 379.1 " fill="#000000"/>
<path class="atom-6" d="M 12.7,341.1 L 12.7,341.2 L 12.7,341.3 L 12.7,341.3 L 12.7,341.4 L 12.7,341.5 L 12.6,341.5 L 12.6,341.6 L 12.6,341.6 L 12.5,341.7 L 12.5,341.7 L 12.4,341.8 L 12.4,341.8 L 12.3,341.8 L 12.2,341.9 L 12.2,341.9 L 12.1,341.9 L 12.0,341.9 L 12.0,341.9 L 11.9,341.9 L 11.8,341.9 L 11.8,341.9 L 11.7,341.9 L 11.6,341.9 L 11.6,341.8 L 11.5,341.8 L 11.5,341.8 L 11.4,341.7 L 11.4,341.7 L 11.3,341.6 L 11.3,341.6 L 11.3,341.5 L 11.2,341.4 L 11.2,341.4 L 11.2,341.3 L 11.2,341.2 L 11.2,341.2 L 11.2,341.1 L 11.2,341.0 L 11.2,341.0 L 11.2,340.9 L 11.2,340.9 L 11.3,340.8 L 11.3,340.7 L 11.3,340.7 L 11.4,340.6 L 11.4,340.6 L 11.5,340.5 L 11.5,340.5 L 11.6,340.5 L 11.6,340.4 L 11.7,340.4 L 11.8,340.4 L 11.8,340.4 L 11.9,340.4 L 12.0,340.4 L 12.0,340.4 L 12.1,340.4 L 12.2,340.4 L 12.2,340.4 L 12.3,340.4 L 12.4,340.5 L 12.4,340.5 L 12.5,340.6 L 12.5,340.6 L 12.6,340.6 L 12.6,340.7 L 12.6,340.8 L 12.7,340.8 L 12.7,340.9 L 12.7,340.9 L 12.7,341.0 L 12.7,341.1 L 12.7,341.1 L 11.9,341.1 Z" style="fill:#000000;fill-rule:evenodd;fill-opacity:1;stroke:#000000;stroke-width:0.0px;stroke-linecap:butt;stroke-linejoin:miter;stroke-opacity:1;"/>
<path class="atom-11" d="M 176.1,374.7 L 176.1,374.8 L 176.0,374.9 L 176.0,374.9 L 176.0,375.0 L 176.0,375.1 L 176.0,375.1 L 175.9,375.2 L 175.9,375.2 L 175.8,375.3 L 175.8,375.3 L 175.7,375.4 L 175.7,375.4 L 175.6,375.4 L 175.6,375.5 L 175.5,375.5 L 175.4,375.5 L 175.4,375.5 L 175.3,375.5 L 175.2,375.5 L 175.2,375.5 L 175.1,375.5 L 175.0,375.5 L 175.0,375.5 L 174.9,375.4 L 174.8,375.4 L 174.8,375.3 L 174.7,375.3 L 174.7,375.3 L 174.7,375.2 L 174.6,375.1 L 174.6,375.1 L 174.6,375.0 L 174.5,375.0 L 174.5,374.9 L 174.5,374.8 L 174.5,374.8 L 174.5,374.7 L 174.5,374.6 L 174.5,374.6 L 174.5,374.5 L 174.6,374.4 L 174.6,374.4 L 174.6,374.3 L 174.7,374.3 L 174.7,374.2 L 174.7,374.2 L 174.8,374.1 L 174.8,374.1 L 174.9,374.0 L 175.0,374.0 L 175.0,374.0 L 175.1,374.0 L 175.2,374.0 L 175.2,374.0 L 175.3,374.0 L 175.4,374.0 L 175.4,374.0 L 175.5,374.0 L 175.6,374.0 L 175.6,374.0 L 175.7,374.1 L 175.7,374.1 L 175.8,374.1 L 175.8,374.2 L 175.9,374.2 L 175.9,374.3 L 176.0,374.3 L 176.0,374.4 L 176.0,374.5 L 176.0,374.5 L 176.0,374.6 L 176.1,374.7 L 176.1,374.7 L 175.3,374.7 Z" style="fill:#000000;fill-rule:evenodd;fill-opacity:1;stroke:#000000;stroke-width:0.0px;stroke-linecap:butt;stroke-linejoin:miter;stroke-opacity:1;"/>
<path class="bond-0 atom-0 atom-1" d="M 301.4,367.5 L 341.4,344.4" style="fill:none;fill-rule:evenodd;stroke:#000000;stroke-width:2.0px;stroke-linecap:butt;stroke-linejoin:miter;stroke-opacity:1"/>
<path class="bond-0 atom-0 atom-1" d="M 310.7,383.7 L 350.7,360.6" style="fill:none;fill-rule:evenodd;stroke:#000000;stroke-width:2.0px;stroke-linecap:butt;stroke-linejoin:miter;stroke-opacity:1"/>
<path class="bond-1 atom-1 atom-2" d="M 372.3,352.5 L 426.9,384.0" style="fill:none;fill-rule:evenodd;stroke:#000000;stroke-width:2.0px;stroke-linecap:butt;stroke-linejoin:miter;stroke-opacity:1"/>
<path class="atom-0" d="M 272.5 378.4 L 281.2 392.4 Q 282.1 393.8, 283.4 396.3 Q 284.8 398.8, 284.9 398.9 L 284.9 378.4 L 288.4 378.4 L 288.4 404.8 L 284.8 404.8 L 275.5 389.5 Q 274.4 387.7, 273.2 385.7 Q 272.1 383.6, 271.8 383.0 L 271.8 404.8 L 268.4 404.8 L 268.4 378.4 L 272.5 378.4 " fill="#000000"/>
<path class="atom-0" d="M 291.5 383.1 L 296.1 383.1 L 296.1 378.2 L 298.2 378.2 L 298.2 383.1 L 303.0 383.1 L 303.0 384.9 L 298.2 384.9 L 298.2 389.8 L 296.1 389.8 L 296.1 384.9 L 291.5 384.9 L 291.5 383.1 " fill="#000000"/>
<path class="atom-1" d="M 353.3 331.7 L 362.0 345.7 Q 362.8 347.1, 364.2 349.6 Q 365.6 352.1, 365.7 352.3 L 365.7 331.7 L 369.2 331.7 L 369.2 358.2 L 365.6 358.2 L 356.3 342.9 Q 355.2 341.1, 354.0 339.0 Q 352.9 337.0, 352.6 336.3 L 352.6 358.2 L 349.1 358.2 L 349.1 331.7 L 353.3 331.7 " fill="#000000"/>
<path class="atom-2" d="M 434.1 378.4 L 442.8 392.4 Q 443.6 393.8, 445.0 396.3 Q 446.4 398.8, 446.5 398.9 L 446.5 378.4 L 450.0 378.4 L 450.0 404.8 L 446.4 404.8 L 437.1 389.5 Q 436.0 387.7, 434.8 385.7 Q 433.7 383.6, 433.4 383.0 L 433.4 404.8 L 429.9 404.8 L 429.9 378.4 L 434.1 378.4 " fill="#000000"/>
<path class="atom-2" d="M 453.1 378.4 L 456.7 378.4 L 456.7 389.6 L 470.2 389.6 L 470.2 378.4 L 473.7 378.4 L 473.7 404.8 L 470.2 404.8 L 470.2 392.6 L 456.7 392.6 L 456.7 404.8 L 453.1 404.8 L 453.1 378.4 " fill="#000000"/>
<path class="atom-2" d="M 485.3 408.8 Q 487.0 409.3, 487.8 410.4 Q 488.6 411.5, 488.6 413.2 Q 488.6 414.7, 487.9 415.9 Q 487.2 417.0, 485.8 417.6 Q 484.4 418.3, 482.7 418.3 Q 480.8 418.3, 479.4 417.6 Q 478.0 417.0, 476.9 415.6 L 478.3 414.2 Q 479.4 415.4, 480.3 415.8 Q 481.2 416.3, 482.7 416.3 Q 484.3 416.3, 485.2 415.5 Q 486.2 414.6, 486.2 413.2 Q 486.2 411.4, 485.2 410.6 Q 484.2 409.8, 482.0 409.8 L 480.8 409.8 L 480.8 408.1 L 481.9 408.1 Q 483.8 408.0, 484.8 407.2 Q 485.8 406.4, 485.8 404.8 Q 485.8 403.7, 485.0 403.0 Q 484.1 402.3, 482.7 402.3 Q 481.2 402.3, 480.3 402.9 Q 479.5 403.4, 478.8 404.7 L 477.1 403.8 Q 477.7 402.3, 479.2 401.4 Q 480.6 400.4, 482.7 400.4 Q 485.3 400.4, 486.8 401.6 Q 488.3 402.8, 488.3 404.8 Q 488.3 406.2, 487.5 407.2 Q 486.7 408.3, 485.3 408.8 " fill="#000000"/>
<path class="atom-2" d="M 477.0 383.1 L 481.7 383.1 L 481.7 378.2 L 483.7 378.2 L 483.7 383.1 L 488.5 383.1 L 488.5 384.9 L 483.7 384.9 L 483.7 389.8 L 481.7 389.8 L 481.7 384.9 L 477.0 384.9 L 477.0 383.1 " fill="#000000"/>
<path class="atom-0" d="M 264.6,395.3 L 264.6,395.5 L 264.6,395.6 L 264.6,395.8 L 264.5,396.0 L 264.5,396.1 L 264.4,396.2 L 264.3,396.4 L 264.2,396.5 L 264.1,396.6 L 264.0,396.7 L 263.9,396.8 L 263.7,396.9 L 263.6,397.0 L 263.4,397.1 L 263.3,397.1 L 263.1,397.2 L 263.0,397.2 L 262.8,397.2 L 262.6,397.2 L 262.5,397.2 L 262.3,397.1 L 262.2,397.1 L 262.0,397.0 L 261.9,397.0 L 261.7,396.9 L 261.6,396.8 L 261.5,396.7 L 261.4,396.6 L 261.3,396.4 L 261.2,396.3 L 261.1,396.2 L 261.0,396.0 L 261.0,395.9 L 260.9,395.7 L 260.9,395.6 L 260.9,395.4 L 260.9,395.2 L 260.9,395.1 L 260.9,394.9 L 261.0,394.8 L 261.0,394.6 L 261.1,394.5 L 261.2,394.3 L 261.3,394.2 L 261.4,394.1 L 261.5,394.0 L 261.6,393.9 L 261.7,393.8 L 261.9,393.7 L 262.0,393.6 L 262.2,393.6 L 262.3,393.5 L 262.5,393.5 L 262.6,393.5 L 262.8,393.5 L 263.0,393.5 L 263.1,393.5 L 263.3,393.5 L 263.4,393.6 L 263.6,393.6 L 263.7,393.7 L 263.9,393.8 L 264.0,393.9 L 264.1,394.0 L 264.2,394.1 L 264.3,394.3 L 264.4,394.4 L 264.5,394.5 L 264.5,394.7 L 264.6,394.8 L 264.6,395.0 L 264.6,395.2 L 264.6,395.3 L 262.8,395.3 Z" style="fill:#000000;fill-rule:evenodd;fill-opacity:1;stroke:#000000;stroke-width:0.0px;stroke-linecap:butt;stroke-linejoin:miter;stroke-opacity:1;"/>
<path class="atom-0" d="M 264.6,387.9 L 264.6,388.0 L 264.6,388.2 L 264.6,388.3 L 264.5,388.5 L 264.5,388.6 L 264.4,388.8 L 264.3,388.9 L 264.2,389.0 L 264.1,389.2 L 264.0,389.3 L 263.9,389.4 L 263.7,389.5 L 263.6,389.5 L 263.4,389.6 L 263.3,389.7 L 263.1,389.7 L 263.0,389.7 L 262.8,389.7 L 262.6,389.7 L 262.5,389.7 L 262.3,389.7 L 262.2,389.6 L 262.0,389.6 L 261.9,389.5 L 261.7,389.4 L 261.6,389.3 L 261.5,389.2 L 261.4,389.1 L 261.3,389.0 L 261.2,388.9 L 261.1,388.7 L 261.0,388.6 L 261.0,388.4 L 260.9,388.3 L 260.9,388.1 L 260.9,387.9 L 260.9,387.8 L 260.9,387.6 L 260.9,387.5 L 261.0,387.3 L 261.0,387.2 L 261.1,387.0 L 261.2,386.9 L 261.3,386.7 L 261.4,386.6 L 261.5,386.5 L 261.6,386.4 L 261.7,386.3 L 261.9,386.2 L 262.0,386.2 L 262.2,386.1 L 262.3,386.0 L 262.5,386.0 L 262.6,386.0 L 262.8,386.0 L 263.0,386.0 L 263.1,386.0 L 263.3,386.1 L 263.4,386.1 L 263.6,386.2 L 263.7,386.3 L 263.9,386.3 L 264.0,386.4 L 264.1,386.6 L 264.2,386.7 L 264.3,386.8 L 264.4,386.9 L 264.5,387.1 L 264.5,387.2 L 264.6,387.4 L 264.6,387.5 L 264.6,387.7 L 264.6,387.9 L 262.8,387.9 Z" style="fill:#000000;fill-rule:evenodd;fill-opacity:1;stroke:#000000;stroke-width:0.0px;stroke-linecap:butt;stroke-linejoin:miter;stroke-opacity:1;"/>
<path class="bond-0 atom-0 atom-1" d="M 552.6,384.1 L 613.5,348.9" style="fill:none;fill-rule:evenodd;stroke:#000000;stroke-width:2.0px;stroke-linecap:butt;stroke-linejoin:miter;stroke-opacity:1"/>
<path class="bond-0 atom-0 atom-1" d="M 562.5,401.1 L 623.4,365.9" style="fill:none;fill-rule:evenodd;stroke:#000000;stroke-width:2.0px;stroke-linecap:butt;stroke-linejoin:miter;stroke-opacity:1"/>
<path class="bond-1 atom-1 atom-2" d="M 642.7,357.4 L 703.1,392.3" style="fill:none;fill-rule:evenodd;stroke:#000000;stroke-width:2.0px;stroke-linecap:butt;stroke-linejoin:miter;stroke-opacity:1"/>
<path class="atom-0" d="M 511.4 385.7 L 515.1 385.7 L 515.1 397.5 L 529.4 397.5 L 529.4 385.7 L 533.2 385.7 L 533.2 413.5 L 529.4 413.5 L 529.4 400.7 L 515.1 400.7 L 515.1 413.5 L 511.4 413.5 L 511.4 385.7 " fill="#000000"/>
<path class="atom-0" d="M 544.7 385.7 Q 549.5 385.7, 551.9 387.8 Q 554.3 390.0, 554.3 393.8 Q 554.3 397.7, 551.8 399.9 Q 549.4 402.1, 544.7 402.1 L 540.3 402.1 L 540.3 413.5 L 536.5 413.5 L 536.5 385.7 L 544.7 385.7 M 544.7 398.9 Q 547.4 398.9, 548.9 397.6 Q 550.4 396.3, 550.4 393.8 Q 550.4 391.4, 548.9 390.1 Q 547.5 388.8, 544.7 388.8 L 540.3 388.8 L 540.3 398.9 L 544.7 398.9 " fill="#000000"/>
<path class="atom-1" d="M 629.9 336.5 Q 634.7 336.5, 637.1 338.6 Q 639.5 340.8, 639.5 344.7 Q 639.5 348.5, 637.0 350.7 Q 634.6 352.9, 629.9 352.9 L 625.5 352.9 L 625.5 364.3 L 621.7 364.3 L 621.7 336.5 L 629.9 336.5 M 629.9 349.7 Q 632.6 349.7, 634.1 348.4 Q 635.5 347.1, 635.5 344.7 Q 635.5 342.2, 634.1 340.9 Q 632.7 339.6, 629.9 339.6 L 625.5 339.6 L 625.5 349.7 L 629.9 349.7 " fill="#000000"/>
<path class="atom-2" d="M 719.8 398.9 Q 722.5 399.6, 723.8 401.3 Q 725.2 402.9, 725.2 405.3 Q 725.2 409.2, 722.7 411.4 Q 720.3 413.5, 715.7 413.5 L 706.3 413.5 L 706.3 385.7 L 714.5 385.7 Q 719.3 385.7, 721.7 387.6 Q 724.1 389.5, 724.1 393.1 Q 724.1 397.3, 719.8 398.9 M 710.0 388.8 L 710.0 397.5 L 714.5 397.5 Q 717.3 397.5, 718.7 396.4 Q 720.1 395.3, 720.1 393.1 Q 720.1 388.8, 714.5 388.8 L 710.0 388.8 M 715.7 410.4 Q 718.4 410.4, 719.8 409.1 Q 721.3 407.8, 721.3 405.3 Q 721.3 403.0, 719.7 401.9 Q 718.1 400.7, 715.1 400.7 L 710.0 400.7 L 710.0 410.4 L 715.7 410.4 " fill="#000000"/>
<path class="atom-2" d="M 730.0 393.3 L 730.5 396.1 Q 732.6 392.9, 736.0 392.9 Q 737.1 392.9, 738.6 393.3 L 738.0 396.6 Q 736.4 396.2, 735.4 396.2 Q 733.8 396.2, 732.7 396.9 Q 731.6 397.5, 730.7 399.1 L 730.7 413.5 L 727.0 413.5 L 727.0 393.3 L 730.0 393.3 " fill="#000000"/>
<path class="bond-0 atom-0 atom-1" d="M 90.0,617.9 L 204.4,617.9" style="fill:none;fill-rule:evenodd;stroke:#000000;stroke-width:2.0px;stroke-linecap:butt;stroke-linejoin:miter;stroke-opacity:1"/>
<path class="atom-0" d="M 24.0 603.8 L 27.9 603.8 L 27.9 615.8 L 42.4 615.8 L 42.4 603.8 L 46.2 603.8 L 46.2 632.1 L 42.4 632.1 L 42.4 619.0 L 27.9 619.0 L 27.9 632.1 L 24.0 632.1 L 24.0 603.8 " fill="#000000"/>
<path class="atom-0" d="M 49.6 631.1 Q 50.3 629.3, 52.0 628.3 Q 53.6 627.3, 55.9 627.3 Q 58.7 627.3, 60.3 628.9 Q 61.9 630.4, 61.9 633.1 Q 61.9 635.9, 59.8 638.5 Q 57.8 641.1, 53.6 644.1 L 62.2 644.1 L 62.2 646.2 L 49.6 646.2 L 49.6 644.5 Q 53.1 642.0, 55.1 640.1 Q 57.2 638.3, 58.2 636.6 Q 59.2 635.0, 59.2 633.3 Q 59.2 631.5, 58.3 630.5 Q 57.4 629.4, 55.9 629.4 Q 54.4 629.4, 53.4 630.1 Q 52.4 630.7, 51.7 632.0 L 49.6 631.1 " fill="#000000"/>
<path class="atom-0" d="M 68.3 603.8 L 77.5 618.8 Q 78.5 620.2, 79.9 622.9 Q 81.4 625.6, 81.5 625.8 L 81.5 603.8 L 85.3 603.8 L 85.3 632.1 L 81.4 632.1 L 71.4 615.7 Q 70.3 613.8, 69.0 611.6 Q 67.8 609.4, 67.5 608.7 L 67.5 632.1 L 63.8 632.1 L 63.8 603.8 L 68.3 603.8 " fill="#000000"/>
<path class="atom-1" d="M 209.1 603.8 L 226.0 603.8 L 226.0 607.0 L 212.9 607.0 L 212.9 615.6 L 224.5 615.6 L 224.5 618.9 L 212.9 618.9 L 212.9 632.1 L 209.1 632.1 L 209.1 603.8 " fill="#000000"/>
<path class="atom-0" d="M 345.7 610.8 L 355.0 625.8 Q 355.9 627.3, 357.4 630.0 Q 358.9 632.7, 358.9 632.8 L 358.9 610.8 L 362.7 610.8 L 362.7 639.2 L 358.8 639.2 L 348.9 622.8 Q 347.7 620.8, 346.5 618.6 Q 345.3 616.4, 344.9 615.8 L 344.9 639.2 L 341.2 639.2 L 341.2 610.8 L 345.7 610.8 " fill="#000000"/>
<path class="atom-0" d="M 366.0 610.8 L 369.9 610.8 L 369.9 622.9 L 384.3 622.9 L 384.3 610.8 L 388.2 610.8 L 388.2 639.2 L 384.3 639.2 L 384.3 626.1 L 369.9 626.1 L 369.9 639.2 L 366.0 639.2 L 366.0 610.8 " fill="#000000"/>
<path class="atom-0" d="M 391.6 615.5 L 401.3 615.5 L 401.3 617.6 L 391.6 617.6 L 391.6 615.5 " fill="#000000"/>
<path class="atom-0" d="M 409.3,625.0 L 409.3,625.2 L 409.2,625.3 L 409.2,625.5 L 409.2,625.7 L 409.1,625.8 L 409.0,626.0 L 408.9,626.1 L 408.8,626.3 L 408.7,626.4 L 408.6,626.5 L 408.4,626.6 L 408.3,626.7 L 408.1,626.8 L 408.0,626.9 L 407.8,626.9 L 407.7,627.0 L 407.5,627.0 L 407.3,627.0 L 407.1,627.0 L 407.0,627.0 L 406.8,626.9 L 406.6,626.9 L 406.5,626.8 L 406.3,626.8 L 406.2,626.7 L 406.0,626.6 L 405.9,626.5 L 405.8,626.3 L 405.7,626.2 L 405.6,626.1 L 405.5,625.9 L 405.4,625.8 L 405.4,625.6 L 405.3,625.4 L 405.3,625.3 L 405.3,625.1 L 405.3,624.9 L 405.3,624.7 L 405.3,624.6 L 405.4,624.4 L 405.4,624.2 L 405.5,624.1 L 405.6,623.9 L 405.7,623.8 L 405.8,623.7 L 405.9,623.5 L 406.0,623.4 L 406.2,623.3 L 406.3,623.2 L 406.5,623.2 L 406.6,623.1 L 406.8,623.1 L 407.0,623.0 L 407.1,623.0 L 407.3,623.0 L 407.5,623.0 L 407.7,623.0 L 407.8,623.1 L 408.0,623.1 L 408.1,623.2 L 408.3,623.3 L 408.4,623.4 L 408.6,623.5 L 408.7,623.6 L 408.8,623.7 L 408.9,623.9 L 409.0,624.0 L 409.1,624.2 L 409.2,624.3 L 409.2,624.5 L 409.2,624.7 L 409.3,624.8 L 409.3,625.0 L 407.3,625.0 Z" style="fill:#000000;fill-rule:evenodd;fill-opacity:1;stroke:#000000;stroke-width:0.0px;stroke-linecap:butt;stroke-linejoin:miter;stroke-opacity:1;"/>
<path class="bond-0 atom-0 atom-1" d="M 537.1,608.4 L 686.5,608.4" style="fill:none;fill-rule:evenodd;stroke:#000000;stroke-width:2.0px;stroke-linecap:butt;stroke-linejoin:miter;stroke-opacity:1"/>
<path class="bond-0 atom-0 atom-1" d="M 537.1,641.6 L 686.5,641.6" style="fill:none;fill-rule:evenodd;stroke:#000000;stroke-width:2.0px;stroke-linecap:butt;stroke-linejoin:miter;stroke-opacity:1"/>
<path class="atom-1" d="M 696.4 610.8 L 705.7 625.8 Q 706.6 627.3, 708.1 630.0 Q 709.6 632.7, 709.7 632.8 L 709.7 610.8 L 713.4 610.8 L 713.4 639.2 L 709.5 639.2 L 699.6 622.8 Q 698.4 620.8, 697.2 618.6 Q 696.0 616.4, 695.6 615.8 L 695.6 639.2 L 691.9 639.2 L 691.9 610.8 L 696.4 610.8 " fill="#000000"/>
<path class="atom-1" d="M 716.7 615.5 L 726.4 615.5 L 726.4 617.6 L 716.7 617.6 L 716.7 615.5 " fill="#000000"/>
<path class="atom-0" d="M 527.1,625.0 L 527.1,625.2 L 527.1,625.3 L 527.0,625.5 L 527.0,625.7 L 526.9,625.8 L 526.8,626.0 L 526.7,626.1 L 526.6,626.3 L 526.5,626.4 L 526.4,626.5 L 526.2,626.6 L 526.1,626.7 L 526.0,626.8 L 525.8,626.9 L 525.6,626.9 L 525.5,627.0 L 525.3,627.0 L 525.1,627.0 L 525.0,627.0 L 524.8,627.0 L 524.6,626.9 L 524.4,626.9 L 524.3,626.8 L 524.1,626.8 L 524.0,626.7 L 523.8,626.6 L 523.7,626.5 L 523.6,626.3 L 523.5,626.2 L 523.4,626.1 L 523.3,625.9 L 523.2,625.8 L 523.2,625.6 L 523.1,625.4 L 523.1,625.3 L 523.1,625.1 L 523.1,624.9 L 523.1,624.7 L 523.1,624.6 L 523.2,624.4 L 523.2,624.2 L 523.3,624.1 L 523.4,623.9 L 523.5,623.8 L 523.6,623.7 L 523.7,623.5 L 523.8,623.4 L 524.0,623.3 L 524.1,623.2 L 524.3,623.2 L 524.4,623.1 L 524.6,623.1 L 524.8,623.0 L 525.0,623.0 L 525.1,623.0 L 525.3,623.0 L 525.5,623.0 L 525.6,623.1 L 525.8,623.1 L 526.0,623.2 L 526.1,623.3 L 526.2,623.4 L 526.4,623.5 L 526.5,623.6 L 526.6,623.7 L 526.7,623.9 L 526.8,624.0 L 526.9,624.2 L 527.0,624.3 L 527.0,624.5 L 527.1,624.7 L 527.1,624.8 L 527.1,625.0 L 525.1,625.0 Z" style="fill:#000000;fill-rule:evenodd;fill-opacity:1;stroke:#000000;stroke-width:0.0px;stroke-linecap:butt;stroke-linejoin:miter;stroke-opacity:1;"/>
</svg>