<svg xmlns="http://www.w3.org/2000/svg" xmlns:rdkit="http://www.rdkit.org/xml" xmlns:xlink="http://www.w3.org/1999/xlink" version="1.1" baseProfile="full" xml:space="preserve" width="750px" height="750px" viewBox="0 0 750 750">
<!-- END OF HEADER -->
<rect style="opacity:1.0;fill:#FFFFFF;stroke:none" width="750.0" height="750.0" x="0.0" y="0.0"> </rect>
<path class="bond-0 atom-0 atom-1" d="M 12.3,144.9 L 103.0,92.5" style="fill:none;fill-rule:evenodd;stroke:#000000;stroke-width:2.0px;stroke-linecap:butt;stroke-linejoin:miter;stroke-opacity:1"/>
<path class="bond-0 atom-0 atom-1" d="M 24.5,166.0 L 115.2,113.6" style="fill:none;fill-rule:evenodd;stroke:#000000;stroke-width:2.0px;stroke-linecap:butt;stroke-linejoin:miter;stroke-opacity:1"/>
<path class="bond-1 atom-1 atom-2" d="M 138.6,103.1 L 216.9,148.3" style="fill:none;fill-rule:evenodd;stroke:#000000;stroke-width:2.0px;stroke-linecap:butt;stroke-linejoin:miter;stroke-opacity:1"/>
<path class="atom-1" d="M 117.6 80.4 L 126.9 95.4 Q 127.8 96.9, 129.3 99.6 Q 130.7 102.2, 130.8 102.4 L 130.8 80.4 L 134.6 80.4 L 134.6 108.7 L 130.7 108.7 L 120.7 92.3 Q 119.6 90.4, 118.3 88.2 Q 117.1 86.0, 116.8 85.3 L 116.8 108.7 L 113.1 108.7 L 113.1 80.4 L 117.6 80.4 " fill="#000000"/>
<path class="atom-2" d="M 220.9 141.3 L 237.7 141.3 L 237.7 144.5 L 224.7 144.5 L 224.7 153.1 L 236.3 153.1 L 236.3 156.4 L 224.7 156.4 L 224.7 169.6 L 220.9 169.6 L 220.9 141.3 " fill="#000000"/>
<path class="bond-0 atom-0 atom-1" d="M 261.4,134.5 L 306.1,111.6" style="fill:none;fill-rule:evenodd;stroke:#000000;stroke-width:2.0px;stroke-linecap:butt;stroke-linejoin:miter;stroke-opacity:1"/>
<path class="bond-0 atom-0 atom-1" d="M 265.9,143.4 L 310.6,120.6" style="fill:none;fill-rule:evenodd;stroke:#000000;stroke-width:2.0px;stroke-linecap:butt;stroke-linejoin:miter;stroke-opacity:1"/>
<path class="bond-1 atom-1 atom-2" d="M 308.4,116.1 L 350.5,143.4" style="fill:none;fill-rule:evenodd;stroke:#000000;stroke-width:2.0px;stroke-linecap:butt;stroke-linejoin:miter;stroke-opacity:1"/>
<path class="bond-2 atom-2 atom-3" d="M 350.5,143.4 L 388.2,124.1" style="fill:none;fill-rule:evenodd;stroke:#000000;stroke-width:2.0px;stroke-linecap:butt;stroke-linejoin:miter;stroke-opacity:1"/>
<path class="bond-3 atom-3 atom-4" d="M 402.3,125.1 L 437.4,147.8" style="fill:none;fill-rule:evenodd;stroke:#000000;stroke-width:2.0px;stroke-linecap:butt;stroke-linejoin:miter;stroke-opacity:1"/>
<path class="bond-4 atom-4 atom-5" d="M 435.1,143.3 L 471.6,124.6" style="fill:none;fill-rule:evenodd;stroke:#000000;stroke-width:2.0px;stroke-linecap:butt;stroke-linejoin:miter;stroke-opacity:1"/>
<path class="bond-4 atom-4 atom-5" d="M 439.7,152.3 L 476.2,133.6" style="fill:none;fill-rule:evenodd;stroke:#000000;stroke-width:2.0px;stroke-linecap:butt;stroke-linejoin:miter;stroke-opacity:1"/>
<path class="atom-3" d="M 392.1 113.4 L 396.8 120.9 Q 397.2 121.7, 398.0 123.0 Q 398.7 124.4, 398.7 124.4 L 398.7 113.4 L 400.6 113.4 L 400.6 127.6 L 398.7 127.6 L 393.7 119.4 Q 393.1 118.4, 392.5 117.3 Q 391.9 116.2, 391.7 115.9 L 391.7 127.6 L 389.8 127.6 L 389.8 113.4 L 392.1 113.4 " fill="#000000"/>
<path class="atom-3" d="M 389.7 97.7 L 391.6 97.7 L 391.6 103.8 L 398.9 103.8 L 398.9 97.7 L 400.8 97.7 L 400.8 112.0 L 398.9 112.0 L 398.9 105.4 L 391.6 105.4 L 391.6 112.0 L 389.7 112.0 L 389.7 97.7 " fill="#000000"/>
<path class="atom-5" d="M 475.6 125.0 Q 475.6 121.5, 477.3 119.6 Q 479.0 117.7, 482.1 117.7 Q 485.3 117.7, 486.9 119.6 Q 488.6 121.5, 488.6 125.0 Q 488.6 128.4, 486.9 130.4 Q 485.2 132.3, 482.1 132.3 Q 479.0 132.3, 477.3 130.4 Q 475.6 128.4, 475.6 125.0 M 482.1 130.7 Q 484.3 130.7, 485.4 129.3 Q 486.6 127.8, 486.6 125.0 Q 486.6 122.2, 485.4 120.8 Q 484.3 119.3, 482.1 119.3 Q 479.9 119.3, 478.8 120.7 Q 477.6 122.1, 477.6 125.0 Q 477.6 127.8, 478.8 129.3 Q 479.9 130.7, 482.1 130.7 " fill="#000000"/>
<path class="bond-0 atom-0 atom-1" d="M 672.5,147.0 L 667.5,177.7" style="fill:none;fill-rule:evenodd;stroke:#000000;stroke-width:2.0px;stroke-linecap:butt;stroke-linejoin:miter;stroke-opacity:1"/>
<path class="bond-1 atom-0 atom-2" d="M 672.4,133.4 L 667.9,109.2" style="fill:none;fill-rule:evenodd;stroke:#000000;stroke-width:2.0px;stroke-linecap:butt;stroke-linejoin:miter;stroke-opacity:1"/>
<path class="bond-2 atom-2 atom-3" d="M 672.0,97.9 L 690.2,82.3" style="fill:none;fill-rule:evenodd;stroke:#000000;stroke-width:2.0px;stroke-linecap:butt;stroke-linejoin:miter;stroke-opacity:1"/>
<path class="bond-3 atom-3 atom-4" d="M 700.9,79.6 L 731.6,90.3" style="fill:none;fill-rule:evenodd;stroke:#000000;stroke-width:2.0px;stroke-linecap:butt;stroke-linejoin:miter;stroke-opacity:1"/>
<path class="bond-3 atom-3 atom-4" d="M 703.0,88.4 L 724.5,95.9" style="fill:none;fill-rule:evenodd;stroke:#000000;stroke-width:2.0px;stroke-linecap:butt;stroke-linejoin:miter;stroke-opacity:1"/>
<path class="bond-4 atom-4 atom-5" d="M 731.6,90.3 L 738.6,127.8" style="fill:none;fill-rule:evenodd;stroke:#000000;stroke-width:2.0px;stroke-linecap:butt;stroke-linejoin:miter;stroke-opacity:1"/>
<path class="bond-5 atom-5 atom-6" d="M 738.6,127.8 L 709.7,152.7" style="fill:none;fill-rule:evenodd;stroke:#000000;stroke-width:2.0px;stroke-linecap:butt;stroke-linejoin:miter;stroke-opacity:1"/>
<path class="bond-5 atom-5 atom-6" d="M 729.3,125.8 L 709.0,143.2" style="fill:none;fill-rule:evenodd;stroke:#000000;stroke-width:2.0px;stroke-linecap:butt;stroke-linejoin:miter;stroke-opacity:1"/>
<path class="bond-6 atom-0 atom-7" d="M 668.9,140.1 L 641.7,140.4" style="fill:none;fill-rule:evenodd;stroke:#000000;stroke-width:2.0px;stroke-linecap:butt;stroke-linejoin:miter;stroke-opacity:1"/>
<path class="bond-7 atom-7 atom-8" d="M 631.5,133.8 L 616.0,107.7" style="fill:none;fill-rule:evenodd;stroke:#000000;stroke-width:2.0px;stroke-linecap:butt;stroke-linejoin:miter;stroke-opacity:1"/>
<path class="bond-8 atom-8 atom-9" d="M 616.0,107.7 L 577.9,108.1" style="fill:none;fill-rule:evenodd;stroke:#000000;stroke-width:2.0px;stroke-linecap:butt;stroke-linejoin:miter;stroke-opacity:1"/>
<path class="bond-9 atom-9 atom-10" d="M 577.9,108.1 L 558.4,75.2" style="fill:none;fill-rule:evenodd;stroke:#000000;stroke-width:2.0px;stroke-linecap:butt;stroke-linejoin:miter;stroke-opacity:1"/>
<path class="bond-10 atom-9 atom-11" d="M 577.9,108.1 L 559.2,141.4" style="fill:none;fill-rule:evenodd;stroke:#000000;stroke-width:2.0px;stroke-linecap:butt;stroke-linejoin:miter;stroke-opacity:1"/>
<path class="bond-11 atom-11 atom-12" d="M 559.2,141.4 L 523.0,141.8" style="fill:none;fill-rule:evenodd;stroke:#000000;stroke-width:2.0px;stroke-linecap:butt;stroke-linejoin:miter;stroke-opacity:1"/>
<path class="bond-12 atom-6 atom-0" d="M 709.7,152.7 L 678.4,141.7" style="fill:none;fill-rule:evenodd;stroke:#000000;stroke-width:2.0px;stroke-linecap:butt;stroke-linejoin:miter;stroke-opacity:1"/>
<path class="atom-0" d="M 670.6 143.8 Q 670.7 143.8, 671.2 144.0 Q 671.7 144.2, 672.3 144.4 Q 672.9 144.5, 673.4 144.5 Q 674.4 144.5, 675.0 144.0 Q 675.6 143.5, 675.6 142.6 Q 675.6 142.0, 675.3 141.7 Q 675.0 141.3, 674.6 141.1 Q 674.1 140.9, 673.3 140.7 Q 672.4 140.4, 671.8 140.1 Q 671.2 139.8, 670.8 139.3 Q 670.4 138.7, 670.4 137.7 Q 670.4 136.3, 671.3 135.5 Q 672.3 134.7, 674.1 134.7 Q 675.4 134.7, 676.8 135.3 L 676.4 136.4 Q 675.1 135.9, 674.2 135.9 Q 673.1 135.9, 672.5 136.3 Q 671.9 136.8, 672.0 137.5 Q 672.0 138.1, 672.2 138.5 Q 672.6 138.8, 673.0 139.0 Q 673.4 139.2, 674.2 139.4 Q 675.1 139.7, 675.7 140.0 Q 676.3 140.3, 676.7 141.0 Q 677.1 141.6, 677.1 142.6 Q 677.1 144.1, 676.1 144.9 Q 675.1 145.7, 673.5 145.7 Q 672.5 145.7, 671.8 145.5 Q 671.1 145.3, 670.2 145.0 L 670.6 143.8 " fill="#000000"/>
<path class="atom-2" d="M 652.8 97.1 L 654.2 97.1 L 654.2 101.7 L 659.8 101.7 L 659.8 97.1 L 661.2 97.1 L 661.2 108.0 L 659.8 108.0 L 659.8 103.0 L 654.2 103.0 L 654.2 108.0 L 652.8 108.0 L 652.8 97.1 " fill="#000000"/>
<path class="atom-2" d="M 664.2 97.1 L 667.8 102.9 Q 668.1 103.4, 668.7 104.5 Q 669.2 105.5, 669.3 105.5 L 669.3 97.1 L 670.7 97.1 L 670.7 108.0 L 669.2 108.0 L 665.4 101.7 Q 665.0 101.0, 664.5 100.1 Q 664.1 99.3, 663.9 99.0 L 663.9 108.0 L 662.5 108.0 L 662.5 97.1 L 664.2 97.1 " fill="#000000"/>
<path class="atom-3" d="M 693.2 72.3 L 696.7 78.0 Q 697.1 78.6, 697.6 79.6 Q 698.2 80.6, 698.2 80.7 L 698.2 72.3 L 699.7 72.3 L 699.7 83.1 L 698.2 83.1 L 694.4 76.8 Q 693.9 76.1, 693.5 75.3 Q 693.0 74.4, 692.9 74.2 L 692.9 83.1 L 691.5 83.1 L 691.5 72.3 L 693.2 72.3 " fill="#000000"/>
<path class="atom-7" d="M 630.5 140.5 Q 630.5 137.9, 631.8 136.5 Q 633.1 135.0, 635.5 135.0 Q 637.9 135.0, 639.2 136.5 Q 640.5 137.9, 640.5 140.5 Q 640.5 143.1, 639.2 144.6 Q 637.9 146.1, 635.5 146.1 Q 633.1 146.1, 631.8 144.6 Q 630.5 143.2, 630.5 140.5 M 635.5 144.9 Q 637.2 144.9, 638.0 143.8 Q 638.9 142.7, 638.9 140.5 Q 638.9 138.4, 638.0 137.3 Q 637.2 136.2, 635.5 136.2 Q 633.9 136.2, 633.0 137.3 Q 632.1 138.4, 632.1 140.5 Q 632.1 142.7, 633.0 143.8 Q 633.9 144.9, 635.5 144.9 " fill="#000000"/>
<path class="atom-12" d="M 511.4 142.2 Q 511.4 139.5, 512.6 138.1 Q 513.9 136.6, 516.3 136.6 Q 518.5 136.6, 519.7 138.2 L 518.7 139.0 Q 517.8 137.9, 516.3 137.9 Q 514.6 137.9, 513.8 139.0 Q 512.9 140.1, 512.9 142.2 Q 512.9 144.3, 513.8 145.4 Q 514.7 146.5, 516.4 146.5 Q 517.6 146.5, 519.0 145.8 L 519.5 146.9 Q 518.9 147.3, 518.0 147.5 Q 517.2 147.7, 516.2 147.7 Q 513.9 147.7, 512.6 146.3 Q 511.4 144.8, 511.4 142.2 " fill="#000000"/>
<path class="atom-12" d="M 520.3 136.0 L 521.7 136.0 L 521.7 147.6 L 520.3 147.6 L 520.3 136.0 " fill="#000000"/>
<path class="bond-0 atom-0 atom-1" d="M 11.4,359.0 L 29.0,372.1" style="fill:none;fill-rule:evenodd;stroke:#000000;stroke-width:2.0px;stroke-linecap:butt;stroke-linejoin:miter;stroke-opacity:1"/>
<path class="bond-1 atom-1 atom-2" d="M 29.0,372.1 L 46.0,364.7" style="fill:none;fill-rule:evenodd;stroke:#000000;stroke-width:2.0px;stroke-linecap:butt;stroke-linejoin:miter;stroke-opacity:1"/>
<path class="bond-1 atom-1 atom-2" d="M 29.8,366.9 L 41.7,361.8" style="fill:none;fill-rule:evenodd;stroke:#000000;stroke-width:2.0px;stroke-linecap:butt;stroke-linejoin:miter;stroke-opacity:1"/>
<path class="bond-2 atom-2 atom-3" d="M 52.2,365.7 L 66.7,376.5" style="fill:none;fill-rule:evenodd;stroke:#000000;stroke-width:2.0px;stroke-linecap:butt;stroke-linejoin:miter;stroke-opacity:1"/>
<path class="bond-3 atom-3 atom-4" d="M 66.7,376.5 L 86.8,367.8" style="fill:none;fill-rule:evenodd;stroke:#000000;stroke-width:2.0px;stroke-linecap:butt;stroke-linejoin:miter;stroke-opacity:1"/>
<path class="bond-4 atom-4 atom-5" d="M 86.8,367.8 L 104.4,380.9" style="fill:none;fill-rule:evenodd;stroke:#000000;stroke-width:2.0px;stroke-linecap:butt;stroke-linejoin:miter;stroke-opacity:1"/>
<path class="bond-4 atom-4 atom-5" d="M 86.8,373.3 L 99.2,382.4" style="fill:none;fill-rule:evenodd;stroke:#000000;stroke-width:2.0px;stroke-linecap:butt;stroke-linejoin:miter;stroke-opacity:1"/>
<path class="bond-5 atom-5 atom-6" d="M 104.4,380.9 L 124.5,372.2" style="fill:none;fill-rule:evenodd;stroke:#000000;stroke-width:2.0px;stroke-linecap:butt;stroke-linejoin:miter;stroke-opacity:1"/>
<path class="bond-6 atom-6 atom-7" d="M 124.5,372.2 L 139.1,383.0" style="fill:none;fill-rule:evenodd;stroke:#000000;stroke-width:2.0px;stroke-linecap:butt;stroke-linejoin:miter;stroke-opacity:1"/>
<path class="bond-7 atom-7 atom-8" d="M 145.2,384.0 L 162.3,376.6" style="fill:none;fill-rule:evenodd;stroke:#000000;stroke-width:2.0px;stroke-linecap:butt;stroke-linejoin:miter;stroke-opacity:1"/>
<path class="bond-7 atom-7 atom-8" d="M 146.0,378.8 L 158.0,373.7" style="fill:none;fill-rule:evenodd;stroke:#000000;stroke-width:2.0px;stroke-linecap:butt;stroke-linejoin:miter;stroke-opacity:1"/>
<path class="bond-8 atom-8 atom-9" d="M 162.3,376.6 L 179.9,389.7" style="fill:none;fill-rule:evenodd;stroke:#000000;stroke-width:2.0px;stroke-linecap:butt;stroke-linejoin:miter;stroke-opacity:1"/>
<path class="bond-9 atom-9 atom-10" d="M 179.9,389.7 L 177.8,407.7" style="fill:none;fill-rule:evenodd;stroke:#000000;stroke-width:2.0px;stroke-linecap:butt;stroke-linejoin:miter;stroke-opacity:1"/>
<path class="bond-10 atom-10 atom-11" d="M 174.2,412.8 L 157.2,420.2" style="fill:none;fill-rule:evenodd;stroke:#000000;stroke-width:2.0px;stroke-linecap:butt;stroke-linejoin:miter;stroke-opacity:1"/>
<path class="bond-11 atom-9 atom-12" d="M 179.9,389.7 L 200.0,381.0" style="fill:none;fill-rule:evenodd;stroke:#000000;stroke-width:2.0px;stroke-linecap:butt;stroke-linejoin:miter;stroke-opacity:1"/>
<path class="bond-12 atom-12 atom-13" d="M 200.0,381.0 L 221.8,383.6" style="fill:none;fill-rule:evenodd;stroke:#000000;stroke-width:2.0px;stroke-linecap:butt;stroke-linejoin:miter;stroke-opacity:1"/>
<path class="bond-13 atom-12 atom-14" d="M 200.0,381.0 L 213.1,363.4" style="fill:none;fill-rule:evenodd;stroke:#000000;stroke-width:2.0px;stroke-linecap:butt;stroke-linejoin:miter;stroke-opacity:1"/>
<path class="bond-13 atom-12 atom-14" d="M 205.5,381.0 L 214.7,368.7" style="fill:none;fill-rule:evenodd;stroke:#000000;stroke-width:2.0px;stroke-linecap:butt;stroke-linejoin:miter;stroke-opacity:1"/>
<path class="bond-14 atom-14 atom-15" d="M 213.1,363.4 L 215.6,341.6" style="fill:none;fill-rule:evenodd;stroke:#000000;stroke-width:2.0px;stroke-linecap:butt;stroke-linejoin:miter;stroke-opacity:1"/>
<path class="bond-15 atom-15 atom-16" d="M 214.8,339.6 L 231.3,332.5" style="fill:none;fill-rule:evenodd;stroke:#000000;stroke-width:2.0px;stroke-linecap:butt;stroke-linejoin:miter;stroke-opacity:1"/>
<path class="bond-15 atom-15 atom-16" d="M 216.5,343.7 L 233.1,336.5" style="fill:none;fill-rule:evenodd;stroke:#000000;stroke-width:2.0px;stroke-linecap:butt;stroke-linejoin:miter;stroke-opacity:1"/>
<path class="bond-16 atom-14 atom-13" d="M 213.1,363.4 L 221.8,383.6" style="fill:none;fill-rule:evenodd;stroke:#000000;stroke-width:2.0px;stroke-linecap:butt;stroke-linejoin:miter;stroke-opacity:1"/>
<path class="atom-2" d="M 47.7 360.3 L 49.8 363.6 Q 50.0 363.9, 50.3 364.5 Q 50.6 365.1, 50.6 365.1 L 50.6 360.3 L 51.4 360.3 L 51.4 366.5 L 50.6 366.5 L 48.4 362.9 Q 48.2 362.5, 47.9 362.0 Q 47.6 361.5, 47.5 361.4 L 47.5 366.5 L 46.7 366.5 L 46.7 360.3 L 47.7 360.3 " fill="#000000"/>
<path class="atom-7" d="M 140.8 382.2 L 142.8 385.5 Q 143.0 385.8, 143.3 386.4 Q 143.7 387.0, 143.7 387.0 L 143.7 382.2 L 144.5 382.2 L 144.5 388.4 L 143.6 388.4 L 141.5 384.8 Q 141.2 384.4, 140.9 383.9 Q 140.7 383.4, 140.6 383.3 L 140.6 388.4 L 139.8 388.4 L 139.8 382.2 L 140.8 382.2 " fill="#000000"/>
<path class="atom-10" d="M 176.0 408.4 L 178.0 411.7 Q 178.2 412.0, 178.5 412.6 Q 178.8 413.2, 178.9 413.2 L 178.9 408.4 L 179.7 408.4 L 179.7 414.6 L 178.8 414.6 L 176.6 411.0 Q 176.4 410.6, 176.1 410.1 Q 175.9 409.6, 175.8 409.5 L 175.8 414.6 L 175.0 414.6 L 175.0 408.4 L 176.0 408.4 " fill="#000000"/>
<path class="atom-10" d="M 180.4 408.4 L 181.2 408.4 L 181.2 411.0 L 184.4 411.0 L 184.4 408.4 L 185.3 408.4 L 185.3 414.6 L 184.4 414.6 L 184.4 411.7 L 181.2 411.7 L 181.2 414.6 L 180.4 414.6 L 180.4 408.4 " fill="#000000"/>
<path class="atom-16" d="M 232.9 333.0 Q 232.9 331.5, 233.7 330.7 Q 234.4 329.8, 235.8 329.8 Q 237.2 329.8, 237.9 330.7 Q 238.6 331.5, 238.6 333.0 Q 238.6 334.5, 237.9 335.3 Q 237.1 336.2, 235.8 336.2 Q 234.4 336.2, 233.7 335.3 Q 232.9 334.5, 232.9 333.0 M 235.8 335.5 Q 236.7 335.5, 237.2 334.9 Q 237.8 334.2, 237.8 333.0 Q 237.8 331.8, 237.2 331.1 Q 236.7 330.5, 235.8 330.5 Q 234.8 330.5, 234.3 331.1 Q 233.8 331.8, 233.8 333.0 Q 233.8 334.2, 234.3 334.9 Q 234.8 335.5, 235.8 335.5 " fill="#000000"/>
<path class="bond-0 atom-0 atom-1" d="M 261.4,378.8 L 339.4,345.6" style="fill:none;fill-rule:evenodd;stroke:#000000;stroke-width:2.0px;stroke-linecap:butt;stroke-linejoin:miter;stroke-opacity:1"/>
<path class="bond-0 atom-0 atom-1" d="M 268.0,394.4 L 346.1,361.2" style="fill:none;fill-rule:evenodd;stroke:#000000;stroke-width:2.0px;stroke-linecap:butt;stroke-linejoin:miter;stroke-opacity:1"/>
<path class="bond-1 atom-1 atom-2" d="M 342.8,353.4 L 410.6,404.4" style="fill:none;fill-rule:evenodd;stroke:#000000;stroke-width:2.0px;stroke-linecap:butt;stroke-linejoin:miter;stroke-opacity:1"/>
<path class="bond-2 atom-2 atom-3" d="M 410.6,404.4 L 488.6,371.2" style="fill:none;fill-rule:evenodd;stroke:#000000;stroke-width:2.0px;stroke-linecap:butt;stroke-linejoin:miter;stroke-opacity:1"/>
<path class="bond-0 atom-0 atom-1" d="M 576.2,426.0 L 511.4,388.8" style="fill:none;fill-rule:evenodd;stroke:#000000;stroke-width:2.0px;stroke-linecap:butt;stroke-linejoin:miter;stroke-opacity:1"/>
<path class="bond-0 atom-0 atom-1" d="M 573.9,407.5 L 528.5,381.4" style="fill:none;fill-rule:evenodd;stroke:#000000;stroke-width:2.0px;stroke-linecap:butt;stroke-linejoin:miter;stroke-opacity:1"/>
<path class="bond-1 atom-1 atom-2" d="M 511.4,388.8 L 548.6,324.0" style="fill:none;fill-rule:evenodd;stroke:#000000;stroke-width:2.0px;stroke-linecap:butt;stroke-linejoin:miter;stroke-opacity:1"/>
<path class="bond-2 atom-2 atom-3" d="M 548.6,324.0 L 604.2,355.9" style="fill:none;fill-rule:evenodd;stroke:#000000;stroke-width:2.0px;stroke-linecap:butt;stroke-linejoin:miter;stroke-opacity:1"/>
<path class="bond-3 atom-3 atom-4" d="M 622.7,358.7 L 675.1,344.5" style="fill:none;fill-rule:evenodd;stroke:#000000;stroke-width:2.0px;stroke-linecap:butt;stroke-linejoin:miter;stroke-opacity:1"/>
<path class="bond-3 atom-3 atom-4" d="M 626.7,342.1 L 663.3,332.2" style="fill:none;fill-rule:evenodd;stroke:#000000;stroke-width:2.0px;stroke-linecap:butt;stroke-linejoin:miter;stroke-opacity:1"/>
<path class="bond-4 atom-4 atom-5" d="M 696.1,352.1 L 738.6,394.4" style="fill:none;fill-rule:evenodd;stroke:#000000;stroke-width:2.0px;stroke-linecap:butt;stroke-linejoin:miter;stroke-opacity:1"/>
<path class="bond-5 atom-3 atom-0" d="M 605.6,374.8 L 576.2,426.0" style="fill:none;fill-rule:evenodd;stroke:#000000;stroke-width:2.0px;stroke-linecap:butt;stroke-linejoin:miter;stroke-opacity:1"/>
<path class="atom-3" d="M 607.5 368.4 Q 607.7 368.5, 608.7 369.0 Q 609.7 369.4, 610.7 369.6 Q 611.9 369.9, 612.9 369.9 Q 614.9 369.9, 616.1 368.9 Q 617.3 367.9, 617.3 366.2 Q 617.3 365.1, 616.7 364.3 Q 616.1 363.6, 615.2 363.2 Q 614.3 362.9, 612.8 362.4 Q 610.9 361.8, 609.8 361.3 Q 608.7 360.8, 607.9 359.6 Q 607.1 358.5, 607.1 356.6 Q 607.1 353.9, 608.9 352.3 Q 610.7 350.6, 614.3 350.6 Q 616.8 350.6, 619.5 351.8 L 618.9 354.1 Q 616.3 353.0, 614.4 353.0 Q 612.3 353.0, 611.2 353.9 Q 610.1 354.7, 610.1 356.2 Q 610.1 357.3, 610.7 358.0 Q 611.3 358.7, 612.1 359.1 Q 613.0 359.5, 614.4 360.0 Q 616.3 360.5, 617.4 361.1 Q 618.6 361.7, 619.4 363.0 Q 620.2 364.2, 620.2 366.2 Q 620.2 369.2, 618.3 370.7 Q 616.3 372.3, 613.1 372.3 Q 611.2 372.3, 609.7 371.9 Q 608.3 371.5, 606.6 370.8 L 607.5 368.4 " fill="#000000"/>
<path class="atom-4" d="M 680.9 331.0 L 687.9 342.3 Q 688.6 343.4, 689.7 345.4 Q 690.8 347.4, 690.8 347.5 L 690.8 331.0 L 693.6 331.0 L 693.6 352.2 L 690.7 352.2 L 683.3 340.0 Q 682.4 338.5, 681.5 336.9 Q 680.6 335.2, 680.3 334.7 L 680.3 352.2 L 677.6 352.2 L 677.6 331.0 L 680.9 331.0 " fill="#000000"/>
<path class="bond-0 atom-0 atom-1" d="M 57.7,611.6 L 45.3,620.4" style="fill:none;fill-rule:evenodd;stroke:#000000;stroke-width:2.0px;stroke-linecap:butt;stroke-linejoin:miter;stroke-opacity:1"/>
<path class="bond-0 atom-0 atom-1" d="M 54.1,610.4 L 45.4,616.5" style="fill:none;fill-rule:evenodd;stroke:#000000;stroke-width:2.0px;stroke-linecap:butt;stroke-linejoin:miter;stroke-opacity:1"/>
<path class="bond-1 atom-1 atom-2" d="M 45.3,620.4 L 48.5,635.2" style="fill:none;fill-rule:evenodd;stroke:#000000;stroke-width:2.0px;stroke-linecap:butt;stroke-linejoin:miter;stroke-opacity:1"/>
<path class="bond-2 atom-2 atom-3" d="M 48.5,635.2 L 39.8,643.2" style="fill:none;fill-rule:evenodd;stroke:#000000;stroke-width:2.0px;stroke-linecap:butt;stroke-linejoin:miter;stroke-opacity:1"/>
<path class="bond-3 atom-3 atom-4" d="M 37.9,648.2 L 40.6,660.4" style="fill:none;fill-rule:evenodd;stroke:#000000;stroke-width:2.0px;stroke-linecap:butt;stroke-linejoin:miter;stroke-opacity:1"/>
<path class="bond-4 atom-4 atom-5" d="M 41.1,658.9 L 53.4,662.8" style="fill:none;fill-rule:evenodd;stroke:#000000;stroke-width:2.0px;stroke-linecap:butt;stroke-linejoin:miter;stroke-opacity:1"/>
<path class="bond-4 atom-4 atom-5" d="M 40.1,661.8 L 52.5,665.7" style="fill:none;fill-rule:evenodd;stroke:#000000;stroke-width:2.0px;stroke-linecap:butt;stroke-linejoin:miter;stroke-opacity:1"/>
<path class="bond-5 atom-4 atom-6" d="M 40.6,660.4 L 29.4,670.6" style="fill:none;fill-rule:evenodd;stroke:#000000;stroke-width:2.0px;stroke-linecap:butt;stroke-linejoin:miter;stroke-opacity:1"/>
<path class="bond-6 atom-1 atom-7" d="M 45.3,620.4 L 32.8,618.1" style="fill:none;fill-rule:evenodd;stroke:#000000;stroke-width:2.0px;stroke-linecap:butt;stroke-linejoin:miter;stroke-opacity:1"/>
<path class="bond-7 atom-7 atom-8" d="M 28.4,615.0 L 21.5,605.2" style="fill:none;fill-rule:evenodd;stroke:#000000;stroke-width:2.0px;stroke-linecap:butt;stroke-linejoin:miter;stroke-opacity:1"/>
<path class="bond-8 atom-8 atom-9" d="M 21.5,605.2 L 24.2,590.2" style="fill:none;fill-rule:evenodd;stroke:#000000;stroke-width:2.0px;stroke-linecap:butt;stroke-linejoin:miter;stroke-opacity:1"/>
<path class="bond-8 atom-8 atom-9" d="M 24.9,603.5 L 26.8,593.0" style="fill:none;fill-rule:evenodd;stroke:#000000;stroke-width:2.0px;stroke-linecap:butt;stroke-linejoin:miter;stroke-opacity:1"/>
<path class="bond-9 atom-9 atom-10" d="M 24.2,590.2 L 11.4,582.0" style="fill:none;fill-rule:evenodd;stroke:#000000;stroke-width:2.0px;stroke-linecap:butt;stroke-linejoin:miter;stroke-opacity:1"/>
<path class="bond-10 atom-9 atom-11" d="M 24.2,590.2 L 34.8,582.8" style="fill:none;fill-rule:evenodd;stroke:#000000;stroke-width:2.0px;stroke-linecap:butt;stroke-linejoin:miter;stroke-opacity:1"/>
<path class="bond-11 atom-11 atom-12" d="M 38.6,581.8 L 51.7,584.2" style="fill:none;fill-rule:evenodd;stroke:#000000;stroke-width:2.0px;stroke-linecap:butt;stroke-linejoin:miter;stroke-opacity:1"/>
<path class="bond-12 atom-12 atom-13" d="M 51.7,584.2 L 60.4,596.6" style="fill:none;fill-rule:evenodd;stroke:#000000;stroke-width:2.0px;stroke-linecap:butt;stroke-linejoin:miter;stroke-opacity:1"/>
<path class="bond-12 atom-12 atom-13" d="M 50.5,587.8 L 56.6,596.5" style="fill:none;fill-rule:evenodd;stroke:#000000;stroke-width:2.0px;stroke-linecap:butt;stroke-linejoin:miter;stroke-opacity:1"/>
<path class="bond-13 atom-13 atom-14" d="M 60.4,596.6 L 75.3,593.4" style="fill:none;fill-rule:evenodd;stroke:#000000;stroke-width:2.0px;stroke-linecap:butt;stroke-linejoin:miter;stroke-opacity:1"/>
<path class="bond-14 atom-14 atom-15" d="M 75.3,593.4 L 90.1,590.1" style="fill:none;fill-rule:evenodd;stroke:#000000;stroke-width:2.0px;stroke-linecap:butt;stroke-linejoin:miter;stroke-opacity:1"/>
<path class="bond-14 atom-14 atom-15" d="M 76.8,589.9 L 87.2,587.6" style="fill:none;fill-rule:evenodd;stroke:#000000;stroke-width:2.0px;stroke-linecap:butt;stroke-linejoin:miter;stroke-opacity:1"/>
<path class="bond-14 atom-14 atom-15" d="M 78.1,595.8 L 88.5,593.5" style="fill:none;fill-rule:evenodd;stroke:#000000;stroke-width:2.0px;stroke-linecap:butt;stroke-linejoin:miter;stroke-opacity:1"/>
<path class="bond-15 atom-15 atom-16" d="M 90.1,590.1 L 105.0,586.8" style="fill:none;fill-rule:evenodd;stroke:#000000;stroke-width:2.0px;stroke-linecap:butt;stroke-linejoin:miter;stroke-opacity:1"/>
<path class="bond-16 atom-16 atom-17" d="M 105.0,586.8 L 115.3,598.0" style="fill:none;fill-rule:evenodd;stroke:#000000;stroke-width:2.0px;stroke-linecap:butt;stroke-linejoin:miter;stroke-opacity:1"/>
<path class="bond-17 atom-17 atom-18" d="M 115.3,598.0 L 130.1,594.7" style="fill:none;fill-rule:evenodd;stroke:#000000;stroke-width:2.0px;stroke-linecap:butt;stroke-linejoin:miter;stroke-opacity:1"/>
<path class="bond-18 atom-18 atom-19" d="M 130.1,594.7 L 137.9,603.3" style="fill:none;fill-rule:evenodd;stroke:#000000;stroke-width:2.0px;stroke-linecap:butt;stroke-linejoin:miter;stroke-opacity:1"/>
<path class="bond-19 atom-19 atom-20" d="M 142.9,605.4 L 155.3,602.7" style="fill:none;fill-rule:evenodd;stroke:#000000;stroke-width:2.0px;stroke-linecap:butt;stroke-linejoin:miter;stroke-opacity:1"/>
<path class="bond-20 atom-20 atom-21" d="M 155.3,602.7 L 165.5,613.9" style="fill:none;fill-rule:evenodd;stroke:#000000;stroke-width:2.0px;stroke-linecap:butt;stroke-linejoin:miter;stroke-opacity:1"/>
<path class="bond-21 atom-21 atom-22" d="M 165.5,613.9 L 180.4,610.6" style="fill:none;fill-rule:evenodd;stroke:#000000;stroke-width:2.0px;stroke-linecap:butt;stroke-linejoin:miter;stroke-opacity:1"/>
<path class="bond-22 atom-22 atom-23" d="M 180.4,610.6 L 188.5,619.5" style="fill:none;fill-rule:evenodd;stroke:#000000;stroke-width:2.0px;stroke-linecap:butt;stroke-linejoin:miter;stroke-opacity:1"/>
<path class="bond-23 atom-23 atom-24" d="M 192.8,621.4 L 205.5,618.6" style="fill:none;fill-rule:evenodd;stroke:#000000;stroke-width:2.0px;stroke-linecap:butt;stroke-linejoin:miter;stroke-opacity:1"/>
<path class="bond-23 atom-23 atom-24" d="M 194.1,618.0 L 203.0,616.0" style="fill:none;fill-rule:evenodd;stroke:#000000;stroke-width:2.0px;stroke-linecap:butt;stroke-linejoin:miter;stroke-opacity:1"/>
<path class="bond-24 atom-24 atom-25" d="M 205.5,618.6 L 215.8,629.8" style="fill:none;fill-rule:evenodd;stroke:#000000;stroke-width:2.0px;stroke-linecap:butt;stroke-linejoin:miter;stroke-opacity:1"/>
<path class="bond-25 atom-25 atom-26" d="M 215.8,629.8 L 228.6,627.0" style="fill:none;fill-rule:evenodd;stroke:#000000;stroke-width:2.0px;stroke-linecap:butt;stroke-linejoin:miter;stroke-opacity:1"/>
<path class="bond-26 atom-13 atom-0" d="M 60.4,596.6 L 57.7,611.6" style="fill:none;fill-rule:evenodd;stroke:#000000;stroke-width:2.0px;stroke-linecap:butt;stroke-linejoin:miter;stroke-opacity:1"/>
<path class="atom-3" d="M 35.3 645.5 Q 35.3 644.5, 35.8 643.9 Q 36.4 643.3, 37.3 643.3 Q 38.3 643.3, 38.8 643.9 Q 39.3 644.5, 39.3 645.5 Q 39.3 646.6, 38.8 647.2 Q 38.3 647.7, 37.3 647.7 Q 36.4 647.7, 35.8 647.2 Q 35.3 646.6, 35.3 645.5 M 37.3 647.3 Q 38.0 647.3, 38.3 646.8 Q 38.7 646.4, 38.7 645.5 Q 38.7 644.7, 38.3 644.2 Q 38.0 643.8, 37.3 643.8 Q 36.7 643.8, 36.3 644.2 Q 35.9 644.7, 35.9 645.5 Q 35.9 646.4, 36.3 646.8 Q 36.7 647.3, 37.3 647.3 " fill="#000000"/>
<path class="atom-5" d="M 54.2 662.8 L 55.6 665.1 Q 55.7 665.3, 55.9 665.7 Q 56.2 666.1, 56.2 666.1 L 56.2 662.8 L 56.8 662.8 L 56.8 667.1 L 56.2 667.1 L 54.6 664.6 Q 54.5 664.3, 54.3 664.0 Q 54.1 663.6, 54.0 663.5 L 54.0 667.1 L 53.5 667.1 L 53.5 662.8 L 54.2 662.8 " fill="#000000"/>
<path class="atom-5" d="M 57.3 662.8 L 57.8 662.8 L 57.8 664.6 L 60.0 664.6 L 60.0 662.8 L 60.6 662.8 L 60.6 667.1 L 60.0 667.1 L 60.0 665.1 L 57.8 665.1 L 57.8 667.1 L 57.3 667.1 L 57.3 662.8 " fill="#000000"/>
<path class="atom-7" d="M 28.3 617.7 Q 28.3 616.7, 28.8 616.1 Q 29.3 615.5, 30.3 615.5 Q 31.2 615.5, 31.7 616.1 Q 32.2 616.7, 32.2 617.7 Q 32.2 618.8, 31.7 619.4 Q 31.2 619.9, 30.3 619.9 Q 29.3 619.9, 28.8 619.4 Q 28.3 618.8, 28.3 617.7 M 30.3 619.5 Q 30.9 619.5, 31.3 619.0 Q 31.6 618.6, 31.6 617.7 Q 31.6 616.9, 31.3 616.4 Q 30.9 616.0, 30.3 616.0 Q 29.6 616.0, 29.3 616.4 Q 28.9 616.9, 28.9 617.7 Q 28.9 618.6, 29.3 619.0 Q 29.6 619.5, 30.3 619.5 " fill="#000000"/>
<path class="atom-11" d="M 35.5 583.0 Q 35.5 583.0, 35.7 583.1 Q 35.9 583.2, 36.1 583.2 Q 36.3 583.3, 36.6 583.3 Q 37.0 583.3, 37.2 583.1 Q 37.5 582.9, 37.5 582.5 Q 37.5 582.3, 37.3 582.2 Q 37.2 582.0, 37.0 581.9 Q 36.8 581.9, 36.5 581.8 Q 36.2 581.6, 35.9 581.5 Q 35.7 581.4, 35.5 581.2 Q 35.4 581.0, 35.4 580.6 Q 35.4 580.0, 35.7 579.7 Q 36.1 579.4, 36.8 579.4 Q 37.3 579.4, 37.9 579.6 L 37.8 580.1 Q 37.3 579.9, 36.9 579.9 Q 36.4 579.9, 36.2 580.0 Q 36.0 580.2, 36.0 580.5 Q 36.0 580.7, 36.1 580.9 Q 36.2 581.0, 36.4 581.1 Q 36.6 581.2, 36.9 581.3 Q 37.3 581.4, 37.5 581.5 Q 37.7 581.6, 37.9 581.9 Q 38.1 582.1, 38.1 582.5 Q 38.1 583.1, 37.7 583.5 Q 37.3 583.8, 36.6 583.8 Q 36.2 583.8, 35.9 583.7 Q 35.6 583.6, 35.3 583.5 L 35.5 583.0 " fill="#000000"/>
<path class="atom-19" d="M 138.4 606.0 Q 138.4 604.9, 138.9 604.4 Q 139.4 603.8, 140.4 603.8 Q 141.4 603.8, 141.9 604.4 Q 142.4 604.9, 142.4 606.0 Q 142.4 607.0, 141.9 607.6 Q 141.3 608.2, 140.4 608.2 Q 139.4 608.2, 138.9 607.6 Q 138.4 607.0, 138.4 606.0 M 140.4 607.7 Q 141.1 607.7, 141.4 607.3 Q 141.8 606.8, 141.8 606.0 Q 141.8 605.1, 141.4 604.7 Q 141.1 604.3, 140.4 604.3 Q 139.7 604.3, 139.4 604.7 Q 139.0 605.1, 139.0 606.0 Q 139.0 606.8, 139.4 607.3 Q 139.7 607.7, 140.4 607.7 " fill="#000000"/>
<path class="atom-23" d="M 189.7 619.7 L 191.1 622.0 Q 191.3 622.2, 191.5 622.6 Q 191.7 623.0, 191.7 623.0 L 191.7 619.7 L 192.3 619.7 L 192.3 624.0 L 191.7 624.0 L 190.2 621.5 Q 190.0 621.2, 189.8 620.9 Q 189.7 620.5, 189.6 620.4 L 189.6 624.0 L 189.0 624.0 L 189.0 619.7 L 189.7 619.7 " fill="#000000"/>
<path class="atom-26" d="M 229.7 624.3 L 231.1 626.6 Q 231.3 626.8, 231.5 627.3 Q 231.7 627.7, 231.8 627.7 L 231.8 624.3 L 232.3 624.3 L 232.3 628.7 L 231.7 628.7 L 230.2 626.2 Q 230.0 625.9, 229.9 625.5 Q 229.7 625.2, 229.6 625.1 L 229.6 628.7 L 229.1 628.7 L 229.1 624.3 L 229.7 624.3 " fill="#000000"/>
<path class="atom-26" d="M 232.8 624.3 L 233.4 624.3 L 233.4 626.2 L 235.6 626.2 L 235.6 624.3 L 236.2 624.3 L 236.2 628.7 L 235.6 628.7 L 235.6 626.7 L 233.4 626.7 L 233.4 628.7 L 232.8 628.7 L 232.8 624.3 " fill="#000000"/>
<path class="atom-26" d="M 236.7 628.5 Q 236.8 628.2, 237.1 628.1 Q 237.3 627.9, 237.7 627.9 Q 238.1 627.9, 238.3 628.2 Q 238.6 628.4, 238.6 628.8 Q 238.6 629.2, 238.3 629.6 Q 238.0 630.0, 237.3 630.5 L 238.6 630.5 L 238.6 630.8 L 236.7 630.8 L 236.7 630.5 Q 237.2 630.2, 237.6 629.9 Q 237.9 629.6, 238.0 629.3 Q 238.2 629.1, 238.2 628.8 Q 238.2 628.6, 238.0 628.4 Q 237.9 628.3, 237.7 628.3 Q 237.4 628.3, 237.3 628.3 Q 237.1 628.4, 237.0 628.6 L 236.7 628.5 " fill="#000000"/>
<path class="atom-17" d="M 115.6,599.4 L 115.6,599.4 L 115.6,599.4 L 115.6,599.5 L 115.5,599.5 L 115.5,599.5 L 115.5,599.5 L 115.5,599.6 L 115.5,599.6 L 115.5,599.6 L 115.5,599.6 L 115.4,599.6 L 115.4,599.6 L 115.4,599.7 L 115.4,599.7 L 115.3,599.7 L 115.3,599.7 L 115.3,599.7 L 115.3,599.7 L 115.2,599.7 L 115.2,599.7 L 115.2,599.7 L 115.2,599.7 L 115.1,599.7 L 115.1,599.6 L 115.1,599.6 L 115.1,599.6 L 115.0,599.6 L 115.0,599.6 L 115.0,599.6 L 115.0,599.5 L 115.0,599.5 L 115.0,599.5 L 115.0,599.5 L 115.0,599.4 L 115.0,599.4 L 115.0,599.4 L 115.0,599.4 L 115.0,599.3 L 115.0,599.3 L 115.0,599.3 L 115.0,599.3 L 115.0,599.2 L 115.0,599.2 L 115.0,599.2 L 115.0,599.2 L 115.0,599.2 L 115.1,599.1 L 115.1,599.1 L 115.1,599.1 L 115.1,599.1 L 115.2,599.1 L 115.2,599.1 L 115.2,599.1 L 115.2,599.1 L 115.3,599.1 L 115.3,599.1 L 115.3,599.1 L 115.3,599.1 L 115.4,599.1 L 115.4,599.1 L 115.4,599.1 L 115.4,599.1 L 115.5,599.1 L 115.5,599.2 L 115.5,599.2 L 115.5,599.2 L 115.5,599.2 L 115.5,599.3 L 115.5,599.3 L 115.6,599.3 L 115.6,599.3 L 115.6,599.4 L 115.6,599.4 L 115.3,599.4 Z" style="fill:#000000;fill-rule:evenodd;fill-opacity:1;stroke:#000000;stroke-width:0.0px;stroke-linecap:butt;stroke-linejoin:miter;stroke-opacity:1;"/>
<path class="bond-0 atom-0 atom-1" d="M 341.1,628.8 L 348.8,653.0" style="fill:none;fill-rule:evenodd;stroke:#000000;stroke-width:2.0px;stroke-linecap:butt;stroke-linejoin:miter;stroke-opacity:1"/>
<path class="bond-1 atom-0 atom-2" d="M 341.1,628.8 L 333.5,604.7" style="fill:none;fill-rule:evenodd;stroke:#000000;stroke-width:2.0px;stroke-linecap:butt;stroke-linejoin:miter;stroke-opacity:1"/>
<path class="bond-2 atom-2 atom-3" d="M 333.5,604.7 L 357.6,597.0" style="fill:none;fill-rule:evenodd;stroke:#000000;stroke-width:2.0px;stroke-linecap:butt;stroke-linejoin:miter;stroke-opacity:1"/>
<path class="bond-3 atom-3 atom-4" d="M 357.6,597.0 L 363.9,616.7" style="fill:none;fill-rule:evenodd;stroke:#000000;stroke-width:2.0px;stroke-linecap:butt;stroke-linejoin:miter;stroke-opacity:1"/>
<path class="bond-4 atom-4 atom-5" d="M 368.8,623.0 L 387.8,632.8" style="fill:none;fill-rule:evenodd;stroke:#000000;stroke-width:2.0px;stroke-linecap:butt;stroke-linejoin:miter;stroke-opacity:1"/>
<path class="bond-5 atom-5 atom-6" d="M 387.8,632.8 L 409.1,619.2" style="fill:none;fill-rule:evenodd;stroke:#000000;stroke-width:2.0px;stroke-linecap:butt;stroke-linejoin:miter;stroke-opacity:1"/>
<path class="bond-6 atom-6 atom-7" d="M 409.1,619.2 L 431.6,630.8" style="fill:none;fill-rule:evenodd;stroke:#000000;stroke-width:2.0px;stroke-linecap:butt;stroke-linejoin:miter;stroke-opacity:1"/>
<path class="bond-7 atom-7 atom-8" d="M 431.6,630.8 L 452.9,617.2" style="fill:none;fill-rule:evenodd;stroke:#000000;stroke-width:2.0px;stroke-linecap:butt;stroke-linejoin:miter;stroke-opacity:1"/>
<path class="bond-8 atom-8 atom-9" d="M 452.9,617.2 L 471.9,627.0" style="fill:none;fill-rule:evenodd;stroke:#000000;stroke-width:2.0px;stroke-linecap:butt;stroke-linejoin:miter;stroke-opacity:1"/>
<path class="bond-9 atom-0 atom-10" d="M 341.1,628.8 L 317.0,636.5" style="fill:none;fill-rule:evenodd;stroke:#000000;stroke-width:2.0px;stroke-linecap:butt;stroke-linejoin:miter;stroke-opacity:1"/>
<path class="bond-10 atom-10 atom-11" d="M 317.0,636.5 L 301.8,622.7" style="fill:none;fill-rule:evenodd;stroke:#000000;stroke-width:2.0px;stroke-linecap:butt;stroke-linejoin:miter;stroke-opacity:1"/>
<path class="bond-10 atom-10 atom-11" d="M 318.1,630.7 L 307.5,621.0" style="fill:none;fill-rule:evenodd;stroke:#000000;stroke-width:2.0px;stroke-linecap:butt;stroke-linejoin:miter;stroke-opacity:1"/>
<path class="bond-11 atom-11 atom-12" d="M 294.7,620.6 L 277.7,626.0" style="fill:none;fill-rule:evenodd;stroke:#000000;stroke-width:2.0px;stroke-linecap:butt;stroke-linejoin:miter;stroke-opacity:1"/>
<path class="bond-12 atom-4 atom-0" d="M 361.7,622.3 L 341.1,628.8" style="fill:none;fill-rule:evenodd;stroke:#000000;stroke-width:2.0px;stroke-linecap:butt;stroke-linejoin:miter;stroke-opacity:1"/>
<path class="atom-4" d="M 363.7 617.6 L 366.0 621.4 Q 366.3 621.8, 366.6 622.4 Q 367.0 623.1, 367.0 623.2 L 367.0 617.6 L 368.0 617.6 L 368.0 624.8 L 367.0 624.8 L 364.5 620.6 Q 364.2 620.1, 363.9 619.6 Q 363.6 619.0, 363.5 618.8 L 363.5 624.8 L 362.6 624.8 L 362.6 617.6 L 363.7 617.6 " fill="#000000"/>
<path class="atom-9" d="M 473.8 625.2 L 476.2 629.0 Q 476.4 629.4, 476.8 630.1 Q 477.2 630.8, 477.2 630.8 L 477.2 625.2 L 478.1 625.2 L 478.1 632.4 L 477.1 632.4 L 474.6 628.2 Q 474.3 627.8, 474.0 627.2 Q 473.7 626.6, 473.6 626.5 L 473.6 632.4 L 472.7 632.4 L 472.7 625.2 L 473.8 625.2 " fill="#000000"/>
<path class="atom-9" d="M 479.0 625.2 L 479.9 625.2 L 479.9 628.3 L 483.6 628.3 L 483.6 625.2 L 484.6 625.2 L 484.6 632.4 L 483.6 632.4 L 483.6 629.1 L 479.9 629.1 L 479.9 632.4 L 479.0 632.4 L 479.0 625.2 " fill="#000000"/>
<path class="atom-9" d="M 485.5 632.1 Q 485.6 631.7, 486.0 631.4 Q 486.5 631.2, 487.0 631.2 Q 487.8 631.2, 488.2 631.6 Q 488.6 632.0, 488.6 632.7 Q 488.6 633.4, 488.0 634.0 Q 487.5 634.7, 486.4 635.4 L 488.6 635.4 L 488.6 636.0 L 485.4 636.0 L 485.4 635.5 Q 486.3 634.9, 486.9 634.4 Q 487.4 634.0, 487.6 633.5 Q 487.9 633.1, 487.9 632.7 Q 487.9 632.2, 487.7 632.0 Q 487.4 631.7, 487.0 631.7 Q 486.7 631.7, 486.4 631.9 Q 486.1 632.0, 486.0 632.4 L 485.5 632.1 " fill="#000000"/>
<path class="atom-11" d="M 296.7 615.8 L 299.1 619.6 Q 299.3 620.0, 299.7 620.7 Q 300.0 621.4, 300.1 621.4 L 300.1 615.8 L 301.0 615.8 L 301.0 623.0 L 300.0 623.0 L 297.5 618.9 Q 297.2 618.4, 296.9 617.8 Q 296.6 617.3, 296.5 617.1 L 296.5 623.0 L 295.6 623.0 L 295.6 615.8 L 296.7 615.8 " fill="#000000"/>
<path class="atom-12" d="M 261.4 623.5 L 262.3 623.5 L 262.3 626.6 L 266.0 626.6 L 266.0 623.5 L 267.0 623.5 L 267.0 630.7 L 266.0 630.7 L 266.0 627.4 L 262.3 627.4 L 262.3 630.7 L 261.4 630.7 L 261.4 623.5 " fill="#000000"/>
<path class="atom-12" d="M 267.9 630.4 Q 268.0 630.0, 268.4 629.7 Q 268.9 629.5, 269.4 629.5 Q 270.1 629.5, 270.5 629.9 Q 270.9 630.3, 270.9 630.9 Q 270.9 631.6, 270.4 632.3 Q 269.9 633.0, 268.8 633.7 L 271.0 633.7 L 271.0 634.3 L 267.8 634.3 L 267.8 633.8 Q 268.7 633.2, 269.2 632.7 Q 269.8 632.3, 270.0 631.8 Q 270.3 631.4, 270.3 631.0 Q 270.3 630.5, 270.1 630.3 Q 269.8 630.0, 269.4 630.0 Q 269.0 630.0, 268.8 630.2 Q 268.5 630.3, 268.4 630.7 L 267.9 630.4 " fill="#000000"/>
<path class="atom-12" d="M 272.6 623.5 L 274.9 627.3 Q 275.1 627.7, 275.5 628.4 Q 275.9 629.0, 275.9 629.1 L 275.9 623.5 L 276.9 623.5 L 276.9 630.7 L 275.9 630.7 L 273.4 626.5 Q 273.1 626.0, 272.8 625.5 Q 272.5 624.9, 272.4 624.8 L 272.4 630.7 L 271.4 630.7 L 271.4 623.5 L 272.6 623.5 " fill="#000000"/>
<path class="atom-5" d="M 388.3,635.1 L 388.3,635.1 L 388.3,635.2 L 388.3,635.2 L 388.2,635.3 L 388.2,635.3 L 388.2,635.3 L 388.2,635.4 L 388.2,635.4 L 388.1,635.4 L 388.1,635.5 L 388.1,635.5 L 388.0,635.5 L 388.0,635.6 L 387.9,635.6 L 387.9,635.6 L 387.9,635.6 L 387.8,635.6 L 387.8,635.6 L 387.7,635.6 L 387.7,635.6 L 387.6,635.6 L 387.6,635.6 L 387.6,635.6 L 387.5,635.5 L 387.5,635.5 L 387.5,635.5 L 387.4,635.5 L 387.4,635.4 L 387.4,635.4 L 387.3,635.4 L 387.3,635.3 L 387.3,635.3 L 387.3,635.2 L 387.3,635.2 L 387.3,635.2 L 387.3,635.1 L 387.3,635.1 L 387.3,635.0 L 387.3,635.0 L 387.3,634.9 L 387.3,634.9 L 387.3,634.9 L 387.3,634.8 L 387.4,634.8 L 387.4,634.8 L 387.4,634.7 L 387.5,634.7 L 387.5,634.7 L 387.5,634.6 L 387.6,634.6 L 387.6,634.6 L 387.6,634.6 L 387.7,634.6 L 387.7,634.6 L 387.8,634.6 L 387.8,634.6 L 387.9,634.6 L 387.9,634.6 L 387.9,634.6 L 388.0,634.6 L 388.0,634.7 L 388.1,634.7 L 388.1,634.7 L 388.1,634.7 L 388.2,634.8 L 388.2,634.8 L 388.2,634.8 L 388.2,634.9 L 388.2,634.9 L 388.3,635.0 L 388.3,635.0 L 388.3,635.1 L 388.3,635.1 L 387.8,635.1 Z" style="fill:#000000;fill-rule:evenodd;fill-opacity:1;stroke:#000000;stroke-width:0.0px;stroke-linecap:butt;stroke-linejoin:miter;stroke-opacity:1;"/>
<path class="bond-0 atom-0 atom-1" d="M 738.6,618.1 L 727.2,636.1" style="fill:none;fill-rule:evenodd;stroke:#000000;stroke-width:2.0px;stroke-linecap:butt;stroke-linejoin:miter;stroke-opacity:1"/>
<path class="bond-1 atom-1 atom-2" d="M 719.8,640.7 L 697.2,639.8" style="fill:none;fill-rule:evenodd;stroke:#000000;stroke-width:2.0px;stroke-linecap:butt;stroke-linejoin:miter;stroke-opacity:1"/>
<path class="bond-2 atom-2 atom-3" d="M 697.2,639.8 L 682.8,662.5" style="fill:none;fill-rule:evenodd;stroke:#000000;stroke-width:2.0px;stroke-linecap:butt;stroke-linejoin:miter;stroke-opacity:1"/>
<path class="bond-3 atom-3 atom-4" d="M 682.8,662.5 L 655.9,661.4" style="fill:none;fill-rule:evenodd;stroke:#000000;stroke-width:2.0px;stroke-linecap:butt;stroke-linejoin:miter;stroke-opacity:1"/>
<path class="bond-3 atom-3 atom-4" d="M 679.0,657.0 L 660.1,656.2" style="fill:none;fill-rule:evenodd;stroke:#000000;stroke-width:2.0px;stroke-linecap:butt;stroke-linejoin:miter;stroke-opacity:1"/>
<path class="bond-4 atom-4 atom-5" d="M 655.9,661.4 L 641.4,684.2" style="fill:none;fill-rule:evenodd;stroke:#000000;stroke-width:2.0px;stroke-linecap:butt;stroke-linejoin:miter;stroke-opacity:1"/>
<path class="bond-5 atom-2 atom-6" d="M 697.2,639.8 L 684.8,615.9" style="fill:none;fill-rule:evenodd;stroke:#000000;stroke-width:2.0px;stroke-linecap:butt;stroke-linejoin:miter;stroke-opacity:1"/>
<path class="bond-6 atom-6 atom-7" d="M 684.8,615.9 L 696.2,597.8" style="fill:none;fill-rule:evenodd;stroke:#000000;stroke-width:2.0px;stroke-linecap:butt;stroke-linejoin:miter;stroke-opacity:1"/>
<path class="bond-7 atom-6 atom-8" d="M 684.8,615.9 L 657.8,614.7" style="fill:none;fill-rule:evenodd;stroke:#000000;stroke-width:2.0px;stroke-linecap:butt;stroke-linejoin:miter;stroke-opacity:1"/>
<path class="bond-8 atom-8 atom-9" d="M 657.8,614.7 L 647.8,595.6" style="fill:none;fill-rule:evenodd;stroke:#000000;stroke-width:2.0px;stroke-linecap:butt;stroke-linejoin:miter;stroke-opacity:1"/>
<path class="bond-8 atom-8 atom-9" d="M 661.1,609.4 L 654.1,595.9" style="fill:none;fill-rule:evenodd;stroke:#000000;stroke-width:2.0px;stroke-linecap:butt;stroke-linejoin:miter;stroke-opacity:1"/>
<path class="bond-9 atom-9 atom-10" d="M 641.5,590.7 L 618.4,589.7" style="fill:none;fill-rule:evenodd;stroke:#000000;stroke-width:2.0px;stroke-linecap:butt;stroke-linejoin:miter;stroke-opacity:1"/>
<path class="bond-10 atom-10 atom-11" d="M 618.4,589.7 L 605.9,565.8" style="fill:none;fill-rule:evenodd;stroke:#000000;stroke-width:2.0px;stroke-linecap:butt;stroke-linejoin:miter;stroke-opacity:1"/>
<path class="bond-11 atom-10 atom-12" d="M 618.4,589.7 L 603.9,612.5" style="fill:none;fill-rule:evenodd;stroke:#000000;stroke-width:2.0px;stroke-linecap:butt;stroke-linejoin:miter;stroke-opacity:1"/>
<path class="bond-11 atom-10 atom-12" d="M 620.8,596.0 L 610.6,612.0" style="fill:none;fill-rule:evenodd;stroke:#000000;stroke-width:2.0px;stroke-linecap:butt;stroke-linejoin:miter;stroke-opacity:1"/>
<path class="bond-12 atom-12 atom-13" d="M 603.9,612.5 L 577.0,611.4" style="fill:none;fill-rule:evenodd;stroke:#000000;stroke-width:2.0px;stroke-linecap:butt;stroke-linejoin:miter;stroke-opacity:1"/>
<path class="bond-13 atom-13 atom-14" d="M 577.0,611.4 L 562.5,634.1" style="fill:none;fill-rule:evenodd;stroke:#000000;stroke-width:2.0px;stroke-linecap:butt;stroke-linejoin:miter;stroke-opacity:1"/>
<path class="bond-14 atom-14 atom-15" d="M 562.5,634.1 L 538.9,633.1" style="fill:none;fill-rule:evenodd;stroke:#000000;stroke-width:2.0px;stroke-linecap:butt;stroke-linejoin:miter;stroke-opacity:1"/>
<path class="bond-15 atom-15 atom-16" d="M 534.8,639.4 L 526.4,652.5" style="fill:none;fill-rule:evenodd;stroke:#000000;stroke-width:2.0px;stroke-linecap:butt;stroke-linejoin:miter;stroke-opacity:1"/>
<path class="bond-15 atom-15 atom-16" d="M 530.2,636.5 L 521.9,649.6" style="fill:none;fill-rule:evenodd;stroke:#000000;stroke-width:2.0px;stroke-linecap:butt;stroke-linejoin:miter;stroke-opacity:1"/>
<path class="atom-1" d="M 720.7 640.9 Q 720.7 639.1, 721.6 638.1 Q 722.5 637.0, 724.2 637.0 Q 725.9 637.0, 726.8 638.1 Q 727.7 639.1, 727.7 640.9 Q 727.7 642.8, 726.8 643.8 Q 725.9 644.9, 724.2 644.9 Q 722.5 644.9, 721.6 643.8 Q 720.7 642.8, 720.7 640.9 M 724.2 644.0 Q 725.4 644.0, 726.0 643.2 Q 726.6 642.4, 726.6 640.9 Q 726.6 639.4, 726.0 638.7 Q 725.4 637.9, 724.2 637.9 Q 723.0 637.9, 722.4 638.6 Q 721.8 639.4, 721.8 640.9 Q 721.8 642.5, 722.4 643.2 Q 723.0 644.0, 724.2 644.0 " fill="#000000"/>
<path class="atom-7" d="M 696.9 589.3 L 701.5 589.3 L 701.5 590.2 L 698.0 590.2 L 698.0 592.5 L 701.1 592.5 L 701.1 593.4 L 698.0 593.4 L 698.0 596.9 L 696.9 596.9 L 696.9 589.3 " fill="#000000"/>
<path class="atom-9" d="M 643.6 587.0 L 646.1 591.1 Q 646.4 591.5, 646.8 592.2 Q 647.2 592.9, 647.2 593.0 L 647.2 587.0 L 648.2 587.0 L 648.2 594.7 L 647.2 594.7 L 644.5 590.2 Q 644.2 589.7, 643.8 589.1 Q 643.5 588.5, 643.4 588.4 L 643.4 594.7 L 642.4 594.7 L 642.4 587.0 L 643.6 587.0 " fill="#000000"/>
<path class="atom-9" d="M 649.1 587.0 L 650.1 587.0 L 650.1 590.3 L 654.0 590.3 L 654.0 587.0 L 655.1 587.0 L 655.1 594.7 L 654.0 594.7 L 654.0 591.1 L 650.1 591.1 L 650.1 594.7 L 649.1 594.7 L 649.1 587.0 " fill="#000000"/>
<path class="atom-9" d="M 656.0 588.4 L 657.3 588.4 L 657.3 587.0 L 657.9 587.0 L 657.9 588.4 L 659.3 588.4 L 659.3 588.9 L 657.9 588.9 L 657.9 590.3 L 657.3 590.3 L 657.3 588.9 L 656.0 588.9 L 656.0 588.4 " fill="#000000"/>
<path class="atom-15" d="M 526.3 629.2 L 527.3 629.2 L 527.3 632.4 L 531.2 632.4 L 531.2 629.2 L 532.2 629.2 L 532.2 636.8 L 531.2 636.8 L 531.2 633.3 L 527.3 633.3 L 527.3 636.8 L 526.3 636.8 L 526.3 629.2 " fill="#000000"/>
<path class="atom-15" d="M 533.4 635.6 Q 533.5 635.7, 533.9 635.8 Q 534.2 636.0, 534.6 636.1 Q 535.0 636.2, 535.4 636.2 Q 536.1 636.2, 536.6 635.8 Q 537.0 635.5, 537.0 634.8 Q 537.0 634.4, 536.8 634.2 Q 536.6 633.9, 536.2 633.8 Q 535.9 633.6, 535.4 633.5 Q 534.7 633.3, 534.3 633.1 Q 533.9 632.9, 533.6 632.5 Q 533.3 632.0, 533.3 631.4 Q 533.3 630.4, 534.0 629.8 Q 534.6 629.2, 535.9 629.2 Q 536.8 629.2, 537.8 629.6 L 537.6 630.5 Q 536.6 630.1, 535.9 630.1 Q 535.2 630.1, 534.8 630.4 Q 534.4 630.7, 534.4 631.2 Q 534.4 631.6, 534.6 631.9 Q 534.8 632.1, 535.1 632.3 Q 535.4 632.4, 535.9 632.6 Q 536.6 632.8, 537.0 633.0 Q 537.5 633.2, 537.7 633.7 Q 538.0 634.1, 538.0 634.8 Q 538.0 635.9, 537.3 636.5 Q 536.6 637.0, 535.5 637.0 Q 534.8 637.0, 534.3 636.9 Q 533.8 636.7, 533.1 636.5 L 533.4 635.6 " fill="#000000"/>
<path class="atom-16" d="M 511.4 652.0 L 512.4 652.0 L 512.4 655.2 L 516.3 655.2 L 516.3 652.0 L 517.3 652.0 L 517.3 659.6 L 516.3 659.6 L 516.3 656.1 L 512.4 656.1 L 512.4 659.6 L 511.4 659.6 L 511.4 652.0 " fill="#000000"/>
<path class="atom-16" d="M 519.5 652.0 L 522.0 656.0 Q 522.2 656.4, 522.6 657.1 Q 523.0 657.8, 523.0 657.9 L 523.0 652.0 L 524.0 652.0 L 524.0 659.6 L 523.0 659.6 L 520.3 655.2 Q 520.0 654.7, 519.7 654.1 Q 519.3 653.5, 519.2 653.3 L 519.2 659.6 L 518.3 659.6 L 518.3 652.0 L 519.5 652.0 " fill="#000000"/>
</svg>